<!--?xml version="1.0" standalone="no"?-->              <svg id="sw-js-blob-svg" viewBox="0 0 100 100" xmlns="http://www.w3.org/2000/svg">                    <defs>                         <linearGradient id="sw-gradient" x1="0" x2="1" y1="1" y2="0">                            <stop id="stop1" stop-color="rgba(32.166, 126.433, 54.585, 1)" offset="0%"></stop>                            <stop id="stop2" stop-color="rgba(174.289, 255, 182.548, 1)" offset="100%"></stop>                        </linearGradient>                    </defs>                <path fill="url(#sw-gradient)" d="M16.5,-31.8C18.9,-27.2,16.7,-17.8,17.7,-11.7C18.6,-5.6,22.6,-2.8,23.8,0.7C25.1,4.2,23.5,8.4,21.9,13.3C20.3,18.2,18.6,23.8,15,24.6C11.3,25.4,5.7,21.3,-0.1,21.5C-5.9,21.7,-11.8,26.1,-19,27.4C-26.2,28.7,-34.7,26.8,-39.8,21.7C-45,16.6,-46.8,8.3,-44.3,1.4C-41.9,-5.5,-35.2,-11,-30.8,-17.4C-26.4,-23.7,-24.2,-31,-19.5,-34.2C-14.7,-37.5,-7.4,-36.7,-0.2,-36.4C7,-36.1,14.1,-36.3,16.5,-31.8Z" width="100%" height="100%" transform="translate(50 50)" stroke-width="0" style="transition: 0.3s;"></path>              </svg>