<!--?xml version="1.0" standalone="no"?-->              <svg id="sw-js-blob-svg" viewBox="0 0 100 100" xmlns="http://www.w3.org/2000/svg">                    <defs>                         <linearGradient id="sw-gradient" x1="0" x2="1" y1="1" y2="0">                            <stop id="stop1" stop-color="rgba(32.166, 126.433, 54.585, 1)" offset="0%"></stop>                            <stop id="stop2" stop-color="rgba(174.289, 255, 182.548, 1)" offset="100%"></stop>                        </linearGradient>                    </defs>                <path fill="url(#sw-gradient)" d="M18.2,-28.9C23,-28.8,25.8,-22.6,24.2,-16.8C22.6,-11,16.7,-5.5,15.1,-0.9C13.5,3.6,16.1,7.2,17.4,12.5C18.6,17.8,18.5,24.7,15.3,31.1C12.2,37.5,6.1,43.3,2,39.9C-2.2,36.5,-4.4,23.9,-9.1,18.5C-13.8,13,-21,14.6,-26.8,12.8C-32.7,10.9,-37.1,5.4,-36.9,0.1C-36.6,-5.1,-31.7,-10.3,-28.2,-16.3C-24.7,-22.3,-22.7,-29.1,-18.3,-29.4C-13.8,-29.7,-6.9,-23.5,-0.1,-23.4C6.7,-23.2,13.5,-29.1,18.2,-28.9Z" width="100%" height="100%" transform="translate(50 50)" stroke-width="0" style="transition: 0.3s;filter: drop-shadow(-2px 5px 7px rgba(0,0,0,0.3));"></path>              </svg>