<?xml version="1.0" encoding="utf-8"?>
<!-- Generator: Adobe Illustrator 26.0.1, SVG Export Plug-In . SVG Version: 6.00 Build 0)  -->
<svg version="1.1"
	 id="svg2" xmlns:inkscape="http://www.inkscape.org/namespaces/inkscape" xmlns:sodipodi="http://sodipodi.sourceforge.net/DTD/sodipodi-0.dtd" xmlns:svg="http://www.w3.org/2000/svg"
	 xmlns="http://www.w3.org/2000/svg" xmlns:xlink="http://www.w3.org/1999/xlink" x="0px" y="0px" viewBox="0 0 5557.6 2251"
	 style="enable-background:new 0 0 5557.6 2251;" xml:space="preserve">
<style type="text/css">
	.st0{fill:#256653;}
	.st1{fill:#3C8F7C;}
	.st2{fill:#327F6B;}
	.st3{fill:#50BFA5;}
	.st4{fill:#96D9C9;}
	.st5{fill:#F8A492;}
	.st6{fill:#355389;}
	.st7{fill:#FE875E;}
	.st8{fill:#13375B;}
	.st9{fill:#F7CC7F;}
	.st10{fill:#F48C7F;}
	.st11{fill:#F7A491;}
	.st12{fill:#466EB6;}
	.st13{fill:#F47458;}
	.st14{fill:#EF3C4F;stroke:#C73041;stroke-width:8;stroke-miterlimit:10;}
	.st15{fill:#FFFFFF;}
	.st16{fill:#DD513A;}
	.st17{fill:#E0973F;}
	.st18{fill:#0E2E35;}
	.st19{fill:#184655;}
	.st20{fill:#6A97CE;}
	.st21{fill:#4A92CE;stroke:#008A94;stroke-width:8;stroke-miterlimit:10;}
	.st22{fill:#DEC923;stroke:#B4A51C;stroke-width:8;stroke-miterlimit:10;}
	.st23{fill:#9BC1F9;}
	.st24{fill:#6CBE45;stroke:#488930;stroke-width:8;stroke-miterlimit:10;}
</style>
<path id="path16" class="st0" d="M4981.8,750.1c0,0-40.8,88.8-68.2,126.3c-27.5,37.5-53.6,73.4-75.5,177.5s-18.2,114.6-24.1,141.5
	c-6,26.9-45,135.9-45.2,155.8c-0.2,20-78.8,133.7-99,187c-20.1,53.2-55.8,129.3-53.8,168l9-2.3c0,0,7.3-90.3,69.4-181.5
	c62.2-91.2,53.3-108.5,123.9-155.3c70.6-46.9,116.2-176.3,116.2-176.3s71.8-140.6,68.5-213.7C4999.4,904,5018.5,838,4981.8,750.1"/>
<path id="path18" class="st0" d="M4892.2,712.9c0,0-2.4,58.3-21.2,93c-18.8,34.7-35,55.7-38.4,93.2s-15.2,134.2-67.7,181.4
	s-59.2,188.6-99.1,231.4s-45.2,73.5-37.8,146.9s32.4,175-25.5,307.8l-13.1-33c0,0,41.4-109.2,31.4-173.1s-45-160.5-32.2-206.9
	c12.8-46.3-34.8-55.4-6.1-125.5c28.6-70.1,16.9-94.4,55.8-155c0,0,4-2.8,14.2-54.1c10.2-51.3,92.8-145.2,130.9-177.3
	C4821.4,809.6,4876.2,758.3,4892.2,712.9"/>
<path id="path20" class="st1" d="M4731.3,902.4c0,0-45.6,78-46.2,128.2s4.8,91.1-18.3,159.8c-23.1,68.8,22.7,112.2,9.5,150.2
	s-14.2,82.9-13.8,117c0.4,34.1-52.2,146.9-60.2,204s2.2,57.3,2.2,57.3s8.7-75.4,20.8-100.3c12.1-24.9,48.9-110.9,57.5-144.2
	c8.6-33.3,31.9-54.6,52-110.9s48.7-103.8,46.5-183.7C4779.1,1099.9,4811.3,1015.5,4731.3,902.4"/>
<path id="path22" class="st1" d="M4634.8,1666.7c0,0,21.2-99,110.9-108.9c89.6-9.9,142.3,7.8,205.6-64.5
	c63.3-72.3,100.1-187.1,120.3-206.9c0,0-31.8-16.4-84.7,33.1c-52.9,49.4-90,86.9-120.6,115.7c-30.6,28.8-55.5,10-87.8,29
	c-27.1,15.9-62.1,61.9-77.5,85.9c-5,7.8-11,15-17.8,21.3c-6.2,5.7-13.6,12.8-18.3,17.9c-9.5,10.3-36.9,77.7-36.9,77.7L4634.8,1666.7
	"/>
<path id="path24" class="st1" d="M4610,1672.4c0,0,31.6-121.1,10.4-180.4s-87.4-103.1-84.7-140.3c2.7-37.2,45.2-137.8,10.5-212.7
	c0,0-13.2,66.8-26.2,81.7c-13,14.9-102.2,74.8-86.4,154c15.8,79.2,102.5,97.7,123.8,121s50.2,23.3,50.4,38.8
	c0.2,15.5,5.8,71.8-3.8,127.4L4610,1672.4"/>
<path id="path26" class="st2" d="M4637.7,1568.2l44.4-127.8c0,0,26.1-102.8,41.2-188.5s8-349.5,8-349.5s-45.6,78-46.2,128.2
	s4.8,91.1-18.3,159.8c-23.1,68.8,22.7,112.2,9.5,150.2s-14.2,82.9-13.8,117c0.4,34.1-52.2,146.9-60.2,204
	c-4.4,31.3-3.3,45.5-1.4,51.9C4593.8,1663.7,4637.7,1568.2,4637.7,1568.2"/>
<path id="path28" class="st2" d="M4856.3,1492c-39.6,7.9-75,5.2-121.9,40.2c-47,35-74.6,72.3-74.6,72.3s-21.1,37.7-29.9,57.6
	c-1.3,3-2,4.9-2,4.9l6.9-0.4c0,0,21.2-99,110.9-108.9c89.6-9.9,142.3,7.8,205.6-64.5c63.3-72.3,100.1-187.1,120.3-206.9
	c0,0-67.3,52.4-108.9,98.7C4921,1431.4,4895.9,1484.1,4856.3,1492"/>
<path id="path30" class="st2" d="M4520.1,1220.7c-13,14.9-102.2,74.8-86.4,154c15.8,79.2,102.5,97.7,123.8,121s50.2,23.3,50.4,38.8
	c0.2,15.5,5.8,71.8-3.8,127.4l2.6,4.6c4.7-21.7,11.2-54.7,13.3-79.8c3.4-40.7-3.2-57.6-16.2-90.6c-13.1-33-94.5-100.2-114.9-135.6
	s39.3-94.4,52.6-123s4.8-98.5,4.8-98.5S4533,1205.8,4520.1,1220.7"/>
<path id="path32" class="st3" d="M4724.8,1590.7l13.9-33.7c10.8-24.8,38.5-36.6,61.8-26.4c58.7,25.6,84.3,97,57,159.4l-19.9,45.6
	c-8.7,20-5.7,42,6.1,57.5c10.7,14.1,12.4,33.7,5,50.6l-10.5,24.1c-11.4,26-33.5,45.3-59.7,53.3c-15.3,4.7-28.9,16.2-36.1,32.6
	l-14.9,34.1c-16.4,37.6-58.5,55.6-93.9,40.2l-20.2-8.8c-35.4-15.5-50.8-58.5-34.4-96.2c26.6-45,24.5-78.6,15-101.4
	c-13.8-33.5-13.7-72.1,1.3-106.4l2.1-4.8c15.8-36.2,46.3-63.3,82.7-74.8C4696.2,1630.3,4713,1617.8,4724.8,1590.7"/>
<path id="path34" class="st4" d="M4474,2066.1c28.5-37,184.8-234.9,286.7-267.9c112.5-36.4,6.5,108.2,6.5,108.2
	s199.6-218.2,272.8-198.6c67.1,18,0,153.3,0,153.3s75.6-74.9,167.3-74.9c89.2,0-62.3,265.7-70.5,279.9H4474"/>
<path id="path36" class="st1" d="M5075.4,1637.8c-81.5,127.4-141.1,268.8-175.1,419.1l-5.6-1.5c33.9-147.1,93-288.4,174.4-415.6
	c18.9-29.6,39.3-64.6,74.8-76.2c0.7-0.2,0.9,0.8,0.3,1.1C5111.9,1576.9,5093.1,1610.2,5075.4,1637.8"/>
<path id="path38" class="st1" d="M4920,2062.2c91.1-123.9,201.9-238.4,333.6-338c1.3-1,3.1,1.3,1.8,2.3
	c-124.9,96-235.5,209.4-328.5,337.6L4920,2062.2"/>
<path id="path40" class="st1" d="M2585.6,1562.9c2.1,3.1,10.1,11.1,12.5,21.7c3.2,10,0.7,22.6,0.4,22.2c-0.6,0.3,9.3-8.1,12.4-21.4
	c4-12.8,1.2-30.5-3.8-36.4c-8.6-13.3-23.6-14.6-26.6-8.2C2577.5,1547.2,2581.4,1555.9,2585.6,1562.9"/>
<path id="path42" class="st1" d="M2605.1,1676.6c-3-2.2-10.9-10.4-21.5-12.9c-10-3.4-22.6-1.1-22.1-0.8c-0.3,0.6,8.3-9.1,21.7-12
	c12.8-3.8,30.5-0.6,36.3,4.5c13.1,8.9,14.1,23.9,7.7,26.7C2620.7,1685,2612.1,1680.9,2605.1,1676.6"/>
<path id="path44" class="st1" d="M2575.7,1726.4c-3-2.2-10.9-10.4-21.5-12.9c-10-3.4-22.6-1.1-22.1-0.8c-0.3,0.6,8.3-9.1,21.7-12
	c12.9-3.8,30.5-0.6,36.3,4.5c13.1,8.9,14.1,23.9,7.7,26.7C2591.3,1734.9,2582.6,1730.8,2575.7,1726.4"/>
<path id="path46" class="st1" d="M5178,1837.9c-3-2.2-10.9-10.4-21.5-12.9c-10-3.4-22.6-1.1-22.1-0.8c-0.3,0.6,8.3-9.1,21.7-12
	c12.8-3.8,30.5-0.6,36.3,4.5c13.1,8.9,14.1,23.9,7.7,26.7C5193.5,1846.3,5184.9,1842.2,5178,1837.9"/>
<path id="path48" class="st1" d="M5231.6,1790.6c-3-2.2-10.9-10.4-21.5-12.9c-10-3.4-22.6-1.1-22.1-0.8c-0.3,0.6,8.3-9.1,21.7-12
	c12.8-3.7,30.5-0.6,36.3,4.5c13.1,8.9,14.1,23.9,7.7,26.7C5247.2,1799.1,5238.5,1795,5231.6,1790.6"/>
<path id="path50" class="st1" d="M2544.5,1619.3c2.6,2.7,11.8,9.4,15.8,19.5c4.7,9.4,4.2,22.2,3.9,21.8c-0.6,0.4,7.9-9.5,8.9-23.1
	c1.9-13.3-3.6-30.3-9.5-35.3c-10.6-11.8-25.6-10.7-27.5-3.9C2533.9,1605,2539.2,1613,2544.5,1619.3"/>
<path id="path52" class="st1" d="M2501.2,1675.8c3.6,1.9,16.4,5.4,22.8,15c7.2,8.5,8.2,23,7.7,22.7c-0.7,0.6,9.1-14,8.6-29.6
	c0.9-15.6-8.4-32.3-16.5-35.3c-15.1-8.6-34.5-0.9-36.1,7.5C2485.8,1664.4,2493.6,1671,2501.2,1675.8"/>
<path id="path54" class="st1" d="M2455.6,1761.4c3.9,1.3,17,2.6,25,10.9c8.6,7.1,11.9,21.3,11.4,21.1c-0.6,0.7,6.6-15.3,3.5-30.6
	c-1.7-15.5-13.7-30.4-22.3-32.1c-16.4-5.9-34.2,4.9-34.3,13.4C2438.5,1752.7,2447.3,1758,2455.6,1761.4"/>
<path id="path56" class="st1" d="M5087.7,1816.9c2.9,1.8,13,5.4,17.7,13.5c5.4,7.3,5.3,19.1,5,18.9c-0.6,0.5,8.2-10.9,8.7-23.6
	c1.6-12.6-5-26.7-11.4-29.7c-11.8-7.8-28-2.7-29.8,4C5075.8,1806.8,5081.8,1812.6,5087.7,1816.9"/>
<path id="path58" class="st1" d="M5157.9,1578.9c-1.7-1.4-6-6.6-12.1-8.6c-5.8-2.4-13.3-1.6-13.1-1.5c-0.2,0.3,5.3-5,13.3-6.1
	c7.8-1.7,18.1,1,21.3,4.2c7.4,5.8,7.3,14.8,3.4,16.1C5166.7,1584.5,5161.8,1581.7,5157.9,1578.9"/>
<path id="path60" class="st1" d="M5141.5,1542.5c0.1,2.2,1.6,8.8-0.6,14.8c-1.6,6-6.8,11.5-6.8,11.2c-0.4-0.1,7.2-1.1,13-6.8
	c6.1-5.1,10.3-14.9,9.6-19.4c-0.1-9.4-7.2-14.8-10.7-12.5C5142.4,1532,5141.6,1537.6,5141.5,1542.5"/>
<path id="path62" class="st1" d="M5270.2,1742.5c-1.7-1.4-6-6.6-12.1-8.6c-5.8-2.4-13.3-1.6-13.1-1.5c-0.2,0.4,5.3-5,13.3-6.1
	c7.8-1.7,18.1,1,21.3,4.2c7.4,5.8,7.3,14.8,3.4,16.1C5279.1,1748.2,5274.2,1745.4,5270.2,1742.5"/>
<path id="path64" class="st1" d="M5250.5,1705.8c0.3,2.2,2.3,8.6,0.6,14.8c-1.1,6.1-5.9,12.1-5.9,11.8c-0.4,0,7.1-1.7,12.4-7.9
	c5.6-5.6,9-15.7,8-20.2c-0.9-9.3-8.4-14.2-11.7-11.6C5250.5,1695.3,5250.2,1700.9,5250.5,1705.8"/>
<path id="path66" class="st1" d="M5236.8,1942.8c-83.3,9.1-160.8,45.9-235.5,81.7c-50.3,24.2-47.8,31.1-58,34.7
	c-1.7,0.6-3.3-1.2-2.5-2.8c3.9-7.8,14.3-13.1,21.5-17.6c8.4-5.2,17.1-9.9,26-14.2c19-9.2,38.5-17.5,57.9-25.9
	c39.4-17.1,79.5-33.2,121.1-44.1c22.8-6,46-10.3,69.5-12.4C5237.2,1942.1,5237.2,1942.8,5236.8,1942.8"/>
<path id="path68" class="st1" d="M5161.8,1917c0.5,3.4,4.1,13.3,1.9,23.1c-1.3,9.7-8.4,19.2-8.4,18.7c-0.6,0,11-3.1,18.8-13.1
	c8.4-9.1,13-25.1,11.2-32c-2-14.5-14-21.6-19-17.3C5161.1,1900.6,5161,1909.4,5161.8,1917"/>
<path id="path70" class="st1" d="M5088.4,1943.3c0.5,3.4,4.1,13.3,1.9,23.1c-1.3,9.7-8.3,19.2-8.4,18.7c-0.6,0,11-3.1,18.8-13.1
	c8.4-9.1,13-25.1,11.2-32c-2-14.5-14-21.6-19-17.3C5087.8,1926.9,5087.6,1935.7,5088.4,1943.3"/>
<path id="path72" class="st1" d="M3905.3,1983.3c0.5,3.4,4.1,13.3,1.9,23.1c-1.3,9.7-8.4,19.2-8.4,18.7c-0.6,0,11-3.1,18.8-13.1
	c8.4-9.1,13-25.1,11.2-32c-2-14.5-14-21.6-19-17.3C3904.7,1966.9,3904.6,1975.7,3905.3,1983.3"/>
<path id="path74" class="st1" d="M5183.6,1985.5c-1.5-2.8-4.4-12.1-11.5-18.1c-6.4-6.4-16.9-9.5-16.7-9.1c-0.4,0.4,9.9-3.8,21.2-0.9
	c11.3,2,23.6,11.2,26.1,17.3c6.6,11.8,1.7,23.7-4.4,23.4C5192.3,1998,5187.3,1991.5,5183.6,1985.5"/>
<path id="path76" class="st1" d="M5107.4,2012.5c-1.5-2.8-4.4-12.1-11.5-18.1c-6.4-6.4-16.9-9.5-16.7-9.1c-0.4,0.4,9.9-3.8,21.2-0.9
	c11.3,2,23.6,11.2,26.1,17.3c6.6,11.8,1.7,23.7-4.4,23.4C5116,2025,5111,2018.5,5107.4,2012.5"/>
<path id="path78" class="st1" d="M4133.2,1964.5c-1.3-1.6-4.4-7-9.6-9.8c-4.8-3.2-11.8-3.7-11.7-3.5c-0.2,0.3,5.7-3.7,13.2-3.3
	c7.4-0.2,16.3,3.9,18.7,7.4c5.7,6.5,4.2,14.7,0.4,15.3C4140.3,1971.2,4136.3,1967.8,4133.2,1964.5"/>
<path id="path80" class="st1" d="M4124.4,1928.7c-0.3,2-0.1,8.3-3,13.4c-2.5,5.2-8.2,9.4-8.1,9.1c-0.3-0.1,6.8,0.2,13-4
	c6.4-3.7,11.9-11.9,12-16.1c1.5-8.6-4.1-14.7-7.7-13.2C4127,1919.3,4125.3,1924.2,4124.4,1928.7"/>
<path id="path82" class="st1" d="M591.3,1437.8c-97.8-87.2-148.1-212.5-173.1-302.3c-27.1-97.4-31.1-175.2-31.1-175.9l-5.3-0.3
	c0,0.8,4,79.1,31.3,177.2c25.2,90.6,76,217.2,175.1,305.5L591.3,1437.8"/>
<path id="path84" class="st1" d="M398.2,937.1c4.8,22.4,0.8,43.6-9.5,58.9c-16.1-11.9-28.8-30.9-33.6-53.3
	c-4.8-22.4-0.8-43.6,9.5-58.9C380.7,895.6,393.4,914.6,398.2,937.1"/>
<path id="path86" class="st1" d="M368.2,1000.9c16.9,15.7,26.7,36.3,28.6,56.1c-18.5,0.8-38.9-6.7-55.7-22.4
	c-16.9-15.7-26.7-36.3-28.6-56.1C331,977.7,351.4,985.3,368.2,1000.9"/>
<path id="path88" class="st1" d="M360.3,1068c20.9,6.6,38.1,21.2,48.3,38.9c-15.2,9.8-35.6,12.6-56.5,6s-38.1-21.2-48.3-38.9
	C319,1064.3,339.4,1061.5,360.3,1068"/>
<path id="path90" class="st1" d="M392.6,1148.8c16.6,5.2,29.9,18.6,37.4,35.5c-12.6,10.6-29.1,14.6-45.6,9.3
	c-16.6-5.2-29.9-18.6-37.4-35.5C359.5,1147.6,376,1143.5,392.6,1148.8"/>
<path id="path92" class="st1" d="M420.9,1033.6c13.1-13.2,30.4-18.8,47.1-16.9c0.9,17.7-5.2,35.7-18.2,48.8
	c-13.1,13.1-30.4,18.7-47.1,16.9C401.7,1064.7,407.8,1046.7,420.9,1033.6"/>
<path id="path94" class="st1" d="M436,1091.4c13.1-13.2,30.4-18.8,47.1-17c0.9,17.7-5.2,35.7-18.2,48.8
	c-13.1,13.2-30.4,18.8-47.1,17C416.9,1122.5,423,1104.6,436,1091.4"/>
<path id="path96" class="st3" d="M532.3,1556.1c-90.3-13.2-167.7-66.7-216.6-109.3c-53.1-46.2-85.3-89.9-85.6-90.3l-3.2,1.8
	c0.3,0.4,32.7,44.4,86.2,91c49.4,43,127.5,97.1,219,110.4L532.3,1556.1"/>
<path id="path98" class="st3" d="M228,1339.1c11.4,11.2,17.2,25.1,17.1,37.9c-13.9-0.7-28.6-6.9-40-18.1s-17.2-25.1-17.1-37.9
	C201.9,1321.8,216.5,1327.9,228,1339.1"/>
<path id="path100" class="st3" d="M235,1387.8c15.8,2.6,29.4,10.8,38.2,21.6c-10.4,7.6-25.1,11-41,8.4
	c-15.8-2.6-29.4-10.8-38.2-21.6C204.5,1388.6,219.2,1385.1,235,1387.8"/>
<path id="path102" class="st3" d="M256.2,1429.8c14.7-4.2,30.3-2.3,43,4.1c-5.1,11.5-15.9,21-30.6,25.2c-14.7,4.2-30.3,2.3-43-4.1
	C230.7,1443.5,241.5,1434,256.2,1429.8"/>
<path id="path104" class="st3" d="M305.9,1464.4c11.7-3.3,24.5-0.6,35.4,6.3c-3.3,11-11.3,19.6-22.9,22.9
	c-11.7,3.3-24.5,0.6-35.4-6.3C286.2,1476.3,294.3,1467.7,305.9,1464.4"/>
<path id="path106" class="st3" d="M278.2,1386.5c2.5-12.7,10.4-22.6,20.9-27.9c7.3,9.9,10.7,22.7,8.1,35.4
	c-2.5,12.6-10.5,22.6-20.9,27.9C279,1412,275.6,1399.2,278.2,1386.5"/>
<path id="path108" class="st3" d="M309.2,1414.3c2.5-12.7,10.5-22.6,20.9-27.9c7.3,9.9,10.7,22.7,8.1,35.4
	c-2.5,12.6-10.5,22.6-20.9,27.9C310,1439.8,306.6,1427,309.2,1414.3"/>
<path id="path110" class="st4" d="M586.7,1826.5c-104.2,39.6-218.9,18.7-296.8-5.8c-84.6-26.6-145.2-63.1-145.8-63.4l-2.3,4.4
	c0.6,0.4,61.7,37.1,146.8,63.9c78.7,24.8,194.6,45.8,300.1,5.8L586.7,1826.5"/>
<path id="path112" class="st4" d="M131.3,1736.1c18.9,7.4,33.5,21.7,41.1,38.4c-15.3,7.8-34.6,9-53.6,1.6
	c-18.9-7.4-33.5-21.7-41.1-38.4C93,1729.9,112.4,1728.8,131.3,1736.1"/>
<path id="path114" class="st4" d="M168.2,1794.7c18.5-6.5,37.9-4.4,53.7,4.1c-6.5,16.4-20.1,30.1-38.6,36.5
	c-18.5,6.5-37.9,4.4-53.7-4.1C136.2,1814.9,149.8,1801.2,168.2,1794.7"/>
<path id="path116" class="st4" d="M216.2,1836c13.1-14.7,30.9-22,48.3-21.7c1.5,18.1-4.2,37.1-17.3,51.8
	c-13.1,14.7-30.9,22-48.3,21.7C197.3,1869.6,203.1,1850.6,216.2,1836"/>
<path id="path118" class="st4" d="M283.3,1857.2c13.1-14.7,30.9-22,48.3-21.7c1.5,18.1-4.2,37.1-17.3,51.8
	c-13.1,14.7-30.9,22-48.3,21.7C264.4,1890.9,270.1,1871.9,283.3,1857.2"/>
<path id="path120" class="st4" d="M220.1,1788.5c-11.5-15-16.7-33.1-15.5-49.6c15.2,1.8,30.7,10.6,42.3,25.6
	c11.5,15,16.7,33.1,15.5,49.6C247.2,1812.3,231.7,1803.5,220.1,1788.5"/>
<path id="path122" class="st4" d="M289.8,1810.3c-11.8-14.8-17.2-32.9-16.2-49.4c15.2,1.5,30.8,10.1,42.6,24.9
	c11.8,14.8,17.2,32.9,16.2,49.4C317.2,1833.7,301.6,1825.1,289.8,1810.3"/>
<path id="path124" class="st4" d="M371.4,1863.1c3.1-7.8,9.2-13.3,16.4-15.5c3.4,7.2,4,15.8,1,23.6c-3.1,7.8-9.2,13.3-16.4,15.5
	C368.9,1879.5,368.3,1870.9,371.4,1863.1"/>
<path id="path126" class="st1" d="M810.4,2062.6c0,0,132.8-525.2,88.8-577.9c-60.9-72.9-111,169-116,148.4
	c-46.5-194-58.9-442.3-209-468.6c-85.3-14.9,19.7,184.6,13.4,238.6s-160-125.2-253.4-219.1s-141.7-34.4-82.6,83.6
	c57.1,114.2,241.7,238.9,203.6,253.7c-38.1,14.8-269.1-132.6-297.4-69.6c-34.7,77.3,311.9,182.4,279.3,199.8s-198.3-39.8-193.8,19.3
	c4.5,59.1,227.2,56.9,223.4,82.9c-6.2,42.1-153.4-53.2-159.9,5.1c-6.6,59.6,193.8,48.7,190.3,95.2c-2,26.7-45-13.6-51.3,23.4
	c-14.4,84.3,249.7,187,249.7,187L810.4,2062.6"/>
<path id="path128" class="st3" d="M911.7,2065.8c0,0-126.4-193.8-187.2-230.3c-64.8-39-15.5,77.7-15.5,77.7
	s-132.4-157.6-169.2-125.5c-36.8,32-3.4,69.1-3.4,69.1s-118.9-35.2-140.2,8.4c-32.8,67.1,162.9,122.6,162.9,122.6s-84-0.9-68.6,44.4
	C513.8,2100.4,911.7,2065.8,911.7,2065.8"/>
<path id="path130" class="st4" d="M396.2,1865.1c21.4-43.6,140.2-8.4,140.2-8.4s-33.4-37.1,3.4-69.1s142.7,63.8,142.7,63.8
	s-11.1-79,68.7-9.4c57,49.7,160.5,223.8,160.5,223.8L396.2,1865.1"/>
<path id="path132" class="st4" d="M758.3,1579.3l5.7-3.9c-102.9-155.8-134.3-340.8-142.5-468.6c-8.9-138.6,6.7-241.7,6.9-242.7l-7-2
	c-0.2,1-16,104.8-7,244.2C622.6,1235.2,654.3,1421.8,758.3,1579.3"/>
<path id="path134" class="st4" d="M632.3,1088.5c0.2,31.3-10.6,57.2-28,72.7c-17.6-22.4-28.9-52.6-29.1-83.9
	c-0.2-31.3,10.6-57.2,28-72.7C620.8,1026.9,632.1,1057.2,632.3,1088.5"/>
<path id="path136" class="st4" d="M592.8,910.2c17.5,27.7,24.7,58.7,21.9,85.4c-24.1-6.8-48.3-25.4-65.8-53
	c-17.5-27.7-24.7-58.7-21.9-85.4C551.1,864,575.3,882.5,592.8,910.2"/>
<path id="path138" class="st4" d="M564.7,994.3c25.2,17.6,43.5,43.9,51.9,71.4c-22.2,6.2-49.2,1.1-74.4-16.4
	c-25.2-17.6-43.5-43.9-51.9-71.4C512.5,971.6,539.5,976.7,564.7,994.3"/>
<path id="path140" class="st4" d="M597.7,1141c11,6.6,19.4,17.1,23.7,28.4c-9,3.4-20.4,2.1-31.4-4.4c-11-6.6-19.4-17.1-23.7-28.4
	C575.3,1133.2,586.6,1134.5,597.7,1141"/>
<path id="path142" class="st4" d="M606.6,1195.4c11,6.6,19.4,17.1,23.7,28.4c-9,3.4-20.4,2.1-31.4-4.4c-11-6.6-19.4-17.1-23.7-28.4
	C584.2,1187.6,595.6,1188.8,606.6,1195.4"/>
<path id="path144" class="st4" d="M652,975.3c20.3-11.5,44.1-11.4,65.2-1.9c-3.5,23.5-16.2,44.3-36.5,55.8s-44.1,11.4-65.2,1.9
	C619,1007.6,631.7,986.9,652,975.3"/>
<path id="path146" class="st4" d="M656.1,1057.2c20.3-11.5,44.1-11.4,65.2-1.9c-3.5,23.5-16.2,44.3-36.5,55.8s-44.1,11.4-65.2,1.9
	C623.1,1089.5,635.8,1068.8,656.1,1057.2"/>
<path id="path148" class="st4" d="M652.1,1174.5c13.2-7.5,28.7-7.4,42.5-1.2c-2.3,15.3-10.5,28.8-23.8,36.3
	c-13.2,7.5-28.7,7.4-42.5,1.2C630.6,1195.5,638.8,1182,652.1,1174.5"/>
<path id="path150" class="st5" d="M3625.1,1635.5c11.9,1.9,11.2,3.9,12.8,4.1c1.8,0.2,23.4-10.6,23.4-10.6s63.8-31.5,67.2-33.3
	l46.1-58l35.5,16.4c0,0-51.8,61.6-55.1,64.3c-3.3,2.7-94.8,34.8-102.7,37.9c0,0-8,7.3-13.2,11.8c-5.2,4.4-12.1,6.2-13.8,7.2
	c-0.3,0.2-6,3.2-14.1,4.9c-7,1.5-1.2-3.2-1.2-3.2s12.3-5.2,11.7-6.1c-0.5-0.7-7,2.5-14.7,4.3c-2,0.4-3.9,0.9-5.7,1.3
	c-4.7,1-6.8-1.7-2.1-3.6c1.7-0.7,4.5-1.7,6.6-2.1c2.3-0.5,4.2-1.7,6.1-2.4c3.7-1.4,6.4-2.4,6.2-2.5c-0.2-0.2,0.3-1-1.8-0.6
	c-2.5,0.5-7.7,2.8-11.5,3.2c-2.2,0.3-6.6,1-6.6,1s-7.9,0.8-8-0.4c-0.1-2.4,4.8-3.8,7.8-3.7c1.9-1,6.6-1.7,6.6-1.7s9.2-3.6,8.6-5
	c-0.2-0.5-5.8,0.3-11.7,0.7c-6.2,0.4-10.8,0.4-11.1-0.8c-0.5-1.9,4.4-2.6,4.4-2.6s4.4-0.6,5.8-1c1.7-0.4,6.6-1.9,6.6-1.9
	s16.9-6.2,16.3-7.4c-0.6-1.2-3.4-3.9-4.6-3.9c-1.2,0-3.3,1.2-4.5,1.2s-3.8-0.2-3.9-1.7c-0.2-1.5,6.4-4.6,6.4-4.6
	S3621.6,1634.9,3625.1,1635.5"/>
<path id="path152" class="st6" d="M3742.4,1573.6c0,0,11.5,10.4,16.3,13.9c4,2.9,23.3,12.2,23.3,12.2s19.3-29.5,27.7-44.3
	c10.2-18,17.3-44.6,14.9-45.4c-6.8-2-16.1-3.3-24.7,0.7C3770.1,1524.4,3742.4,1573.6,3742.4,1573.6"/>
<path id="path154" class="st7" d="M3636.2,1650.9c-5.1,0.8-10.4-0.2-12.6-4.8C3623.1,1651.6,3631.5,1654.4,3636.2,1650.9"/>
<path id="path156" class="st8" d="M1745.9,1444.3c0.7-17.2-1.8-34.2-9.5-50.1c-6.6-13.8-22.9-21.6-37.7-21.6
	c-47.2-0.1-53.2,62.5-83.2,86.7c-9.2,7.4-19.4,13.4-28.1,21.3c-32.1,29.4-17.6,83.8,11.8,109.5c20.4,17.9,52.5,28,77.7,14
	c13.1-7.3,23.1-19.4,30.2-32.7c10.1-18.9,16.6-40.6,23.8-60.7C1738.6,1489.4,1745,1467.2,1745.9,1444.3"/>
<path id="path158" class="st9" d="M1753.6,1527.5c-14.7-44.7-34.2-44-34.2-44l15.7,95.2c9.1-2.5,21-8,30-10.6
	C1762.2,1554,1757.2,1538.5,1753.6,1527.5"/>
<path id="path160" class="st10" d="M1828.1,1680l-53.9-41.1c0,0-5.4-38.4-12.7-72.4c-9.1,2.6-17.3,9.7-26.4,12.2l13.7,76.2
	l70.6,36.4l19.9,25.6l4.5-26.3L1828.1,1680"/>
<path id="path170" class="st11" d="M1598.4,1997.4c0,0-3.3,23.1-9,30.6c-1.9,2.5-5.4,5.7-7.7,10.2c-3.6,7-1.6,17.5,1,23.3
	c1.4,3-0.1,3,3,3.9c9.1,2.8,18.9-1.9,22.8-10.7c2.2-4.9,4.1-11.4,4.5-19.7c1-21,7.5-31.7,7.5-31.7L1598.4,1997.4"/>
<path id="path172" class="st11" d="M1698.5,2008c0,0,2.1,26.1,0.4,34.5c-0.9,4.5-5.9,13.9-3.6,18.1c2.3,4.3,4.9,5.3,4.9,5.3l59.1,1
	c3.2,0,1.1-2-1.5-3.9c-4.2-3.1-7.7-5.2-21.2-11.8c-0.9-0.4-4.1-2.5-5.3-3.2c-2.9-1.8-5.9-4.6-8.4-7.5c-4.2-4.7-4.6-27.7-4.6-27.7
	L1698.5,2008"/>
<path id="path174" class="st6" d="M1744.6,1661.6c0,0,7.4,42.3,2.6,70c-4.9,27.7-28.3,284.9-28.3,284.9l-26,1.5
	c0,0-5.5-107.4-4.5-122.3s8.7-39.9,8.7-39.9l-2.6-86.7l32.9-113.9L1744.6,1661.6"/>
<path id="path176" class="st12" d="M1668.1,1652.7c0,0-20.5,30.9-25.4,56.5s3.6,104.3-5.8,137.8c-5.1,18.2-24.4,46.2-27.3,69.7
	s-14.4,84.9-14.4,84.9l26,5.2l60.5-153.5l47.5-138.8l12.2-71.5L1668.1,1652.7"/>
<path id="path178" class="st9" d="M1684.7,1476.7c0,0-27.2-1.7-37.9,10c-10.7,11.7,23.8,104.6,25.8,119.5s-10,54.6-10,54.6
	s63.8,12.9,82,0.8c0,0,2-107.4,0-118.1s-18.2-54.1-22.1-58.3C1718.6,1481,1684.7,1476.7,1684.7,1476.7"/>
<path id="path180" class="st11" d="M1693.7,1440.3c0,0-0.1,0.8-0.4,2.2c-1.2,6.5-5.9,28.3-9,34.2c-3.8,7.2,13,30.2,29.2,27.4
	c4.8-0.8-4.1-21.1-3.6-23.3c0.8-4.1,1.9-9.7,3.1-15.5c0.6-3.2,1.3-6.5,1.9-9.6c1.7-8.8,3.1-16,3.1-16L1693.7,1440.3"/>
<path id="path182" class="st13" d="M1693.3,1442.5c0.3-1.4,0.4-2.2,0.4-2.2l24.3-0.6c0,0-1.4,7.2-3.1,16c-0.6,3.1-1.3,6.4-1.9,9.6
	c-3.7-0.6-7.7-2.4-11.6-5.8c-4.3-3.8-7.1-8.3-8.8-13.1C1692.9,1444.8,1693.1,1443.5,1693.3,1442.5"/>
<path id="path184" class="st11" d="M1710.1,1385c0,0-11.4-1.3-18.6,8s-14.9,38.1,2.9,53.7s35.4-2.1,38-20.8
	C1735,1407.1,1736,1384.3,1710.1,1385"/>
<path id="path186" class="st11" d="M1737.7,1425.6c-2.1,4.1-5.7,6.4-8,5.1s-2.4-5.7-0.3-9.9c2.1-4.1,5.7-6.4,8-5.1
	S1739.8,1421.4,1737.7,1425.6"/>
<path id="path188" class="st8" d="M1711.3,1381.9c0,0-15.3,27.3-26.2,28.6c-10.9,1.3-12.4,15.8-12.4,15.8s3.9-33.5,14.7-39.9
	S1711.3,1381.9,1711.3,1381.9"/>
<g>
	<path class="st14" d="M3766.7,1561.3c-31.6,156.8-98.1,282.1-199.4,375.8c-101.3,93.7-220.8,140.6-358.5,140.6
		c-125.5,0-219.7-35.1-282.4-105.3c-62.8-70.2-94.1-175.6-94.1-316c0-132.3,31.2-268.5,93.7-408.7s142.6-253.5,240.5-339.8
		c65.3-57.7,134.3-86.6,207.3-86.6c46.4,0,107.6,15.3,183.6,46c92.8,36.8,139.2,77.4,139.2,121.8c0,20.9-7.7,39.6-22.9,55.9
		c-15.3,16.3-33.6,24.5-55,24.5c-11.2,0-27-6.4-47.4-19.2c-78-47.7-143.7-71.5-197.2-71.5c-38.2,0-78.2,19.9-120,59.8
		c-20.9,19.9-51,56.2-90.2,108.8c-117.7,156.3-176.6,325.9-176.6,508.8c0,96,14.8,163.2,44.3,201.5c32.1,41.9,91.2,62.8,177.3,62.8
		c91.2,0,170.4-28.8,237.7-86.4c70.8-61.1,120.3-148.5,148.3-262.2c-141,7.1-261.8,34.2-362.6,81.2c-11.7,5.6-23.2,8.3-34.3,8.3
		c-22.4,0-41-8.7-55.7-26.1c-13.8-15.8-20.6-34.3-20.6-55.2c0-28.1,13.5-50.7,40.5-67.5c110.1-67,300-100.5,569.8-100.5
		c21.9,0,40.3,7.4,55.1,22.2c14.8,14.8,22.2,33.5,22.2,55.9C3809.1,1523.3,3795,1547,3766.7,1561.3z"/>
</g>
<path id="path190" class="st13" d="M1610.2,2050.1c-14.2,2.6-23.6-5.7-28.5-11.9c-3.6,7-5.4,17.6-2.7,23.4c2.3,5.1,9.2,5,14.5,5.2
	c5.7,0.2,10.1-3,12.9-7.9C1607.7,2056.4,1609.1,2053.5,1610.2,2050.1"/>
<path id="path192" class="st13" d="M1731.2,2048.1c-15.6,4-27.2,1.3-33.6-1.3c-1.7,4.7-3.9,10.7-2.7,14.1c1.4,4.2,3.5,5.1,5.3,5.2
	c14.3,0.4,52.3,0.9,63.1,1c1.5,0,2.4-1.8,1.4-2.9C1762,2060.9,1732.4,2048.8,1731.2,2048.1"/>
<path id="path194" class="st11" d="M1688,1417.4c0.9,4.9-0.9,9.3-4,9.9s-6.3-2.8-7.2-7.6s0.9-9.3,4-9.9
	C1683.9,1409.1,1687.1,1412.6,1688,1417.4"/>
<path id="path196" class="st15" d="M1705.8,1434.2l13.8,0.6c0,0-0.6,5.2-6.6,5.1C1705.6,1439.9,1705.8,1434.2,1705.8,1434.2"/>
<path id="path198" class="st16" d="M3382.8,580.6c1.7,0.1,6.4,1.6,13.3,14.7c8.8,16.6,21.7,66.9,21.7,66.9l-38.4,14.3l-4.9-10.5
	l-8.1-80.7C3366.3,585.2,3382.3,580.6,3382.8,580.6"/>
<path id="path200" class="st13" d="M3332,573.3c11,0,38.1,3.2,50.7,7.2c0,0,9.3,79.6-8.3,140.1c-3.9,13.5,3.3,56.1,3.3,56.1
	l-113.7-1.5c0,0,13.5-102.9,8.4-119.6c-5.1-16.6-5.2-74.6-5.2-74.6s0.8-0.1,25.5-4.4C3304.3,574.7,3320.3,573.3,3332,573.3"/>
<path id="path202" class="st11" d="M3318.8,924.5c0,0,2.5,29,7.1,37.1s-0.2,21.7-0.5,23.6c-0.3,1.9-9.7,4.6-24.8,2.9
	c-15.1-1.6-14.9-5.1-13.6-10.7c1.2-5.6,9.2-12.9,9.7-18.2c0.5-5.4-4.6-24.7-4.6-24.7L3318.8,924.5"/>
<path id="path204" class="st17" d="M3364.8,752.8c0,0,78.5-4.4,96,6.3c17.5,10.6-12.5,62.7-12.5,62.7s-54.6-2.5-161.6,3.7
	c-25.3,1.5-27.5-66.1-22.8-71.7C3268.7,748.2,3364.8,752.8,3364.8,752.8"/>
<path id="path206" class="st16" d="M3298.7,990.3c-15.5-1.7-13.6-9.3-12.4-15.1c0.8-3.6,5.3-7.9,7.9-11.9c1.4,1.1,3.6,3.1,10.4,5.1
	c7,2.1,16.6-2,22.7-4.6c2.2,8.1,2.3,18.5,2.1,20C3329.2,985.7,3314.2,992,3298.7,990.3"/>
<path id="path208" class="st9" d="M3307.3,808.9c3.1,23.7,18.7,141.9,18.7,141.9l-36,4.5c0,0-44.3-154.2-42-177.8
	s18.9-25.6,18.9-25.6S3299,746.1,3307.3,808.9"/>
<path id="path210" class="st11" d="M3265.9,590c10.6-4,15.8,91.8,17.3,131.3c18.8,1.8,51.7,0,59.8-0.6c3.9-0.3,12.7-3.5,16.5-4
	c3.9-0.5,7.5-0.8,9.4-0.4c0.7,0.1,20.3,8.2,22,9.9c2.1,2.2,7.7,7.7,6.8,10.1c-0.9,2.4-10.8-6.6-10.8-6.6l-4.8-2.7
	c6,5.9,17.5,13.6,15.8,16.4c-1.6,2.7-11.9-5.1-19.3-10.4c6.3,5.7,14.2,15.9,12.4,17.5c-1.6,1.4-10.6-10.4-20.1-13.8
	c-3.5-1.3-7.1,2.2-9.8,2.7c-2,0.3-5.2,1-7.2,0.4l-10.3-2.9c-3.5,0.3-3.6,2.4-7.2,3.2c-4.1,0.9-10.9,1.8-16.2,3.1
	c-30.3,7.4-40.4,10.8-49.6,10.8C3242.4,753.6,3240.8,599.4,3265.9,590"/>
<path id="path212" class="st16" d="M3245.7,679.9c-2-40.4-1.7-90.2,21-98.7c8.9-3.4,24.7,16.8,21.9,99.5
	C3276.4,681.7,3258.7,682.5,3245.7,679.9"/>
<path id="path214" class="st11" d="M3424.1,949.3c0,0-3.2,10.1,2.5,16.8c5.6,6.7,29,13.2,32.1,16.8s2.8,6.7,2.8,6.7l-65.7-1.8
	l0.7-19.8l3-14.2L3424.1,949.3"/>
<path id="path216" class="st16" d="M3430.7,969.4c0,0-16.9,6.8-25,2.8s-7.9-5.2-10.3-3.7c-2.4,1.5-3.2,20.1-3.2,20.1l73.8,2.2
	c5.1-0.1,7.7-3.9,3.6-7.1c-2.9-2.2-6.2-3.7-8.1-4.8C3455.8,975.5,3430.7,969.4,3430.7,969.4"/>
<path id="path218" class="st9" d="M3421.7,771.4c5.1-10.7,16.6-24.6,36.9-16.2c19.4,8,24.6,27.6,18.5,47.7
	c-6.1,20.1-46.4,138.3-47.8,154.5l-32.1,0.2c0,0,5.8-93.6,7.3-116.2C3405.8,819.7,3412.9,789.9,3421.7,771.4"/>
<path id="path220" d="M3473.8,662.6h-107.4c-2.8,0-5.4,1.7-6.5,4.4l-33.1,80.9h-59.2c-1.7,0-3,1.3-3,3s1.3,3,3,3h168.5
	c4.6,0,8.8-2.7,10.7-7l33.3-74.4C3482.3,667.8,3478.9,662.6,3473.8,662.6"/>
<path id="path222" class="st15" d="M3416,709.7c-0.7,3.6-3.9,6.1-7.1,5.4c-3.2-0.6-5.2-4.1-4.4-7.7c0.7-3.6,3.9-6.1,7.1-5.4
	C3414.7,702.6,3416.7,706,3416,709.7"/>
<path id="path224" class="st18" d="M3357.5,476.1c-3.2-1.1-6.4-2.3-9.5-3.8c-3.5-1.7-8-3.6-10.8-4.1c-6-0.9-16.3-0.3-22,5.9
	c-7.1,7.7-19.7,1.4-17.1,41.6c2.9,45.6,28.2,40.6,28.8,39.8s22.6-29.1,22.6-29.1s7.7,16.8,7.7,16.2
	C3357.2,542,3396.4,489.2,3357.5,476.1"/>
<path id="path226" class="st11" d="M3338.3,558.9l2.2,16.3c0,0,4.9,23.4-1.4,28c-6.3,4.5-26.8-28.6-26.8-28.6l2.2-41.2L3338.3,558.9
	"/>
<path id="path228" class="st13" d="M3313.8,546.6c5.2,14.1,17.6,22.7,26.4,26.1l-1.9-13.8l-23.8-25.6L3313.8,546.6"/>
<path id="path230" class="st11" d="M3337,488.4c13.3-2.1,25.3,8.6,25,21.9c-0.1,5.8-0.6,13.1-1.8,20.9
	c-2.9,18.8-15.7,35.3-24.2,33.9c-8.5-1.5-29.8-17.7-26.1-44.4C3312.3,504.1,3323,490.6,3337,488.4"/>
<path id="path232" class="st11" d="M3315.8,523.8c-0.7,4.1-4,7-7.4,6.4s-5.5-4.4-4.8-8.5s4-7,7.4-6.4
	C3314.4,515.9,3316.5,519.7,3315.8,523.8"/>
<path id="path234" class="st18" d="M3311,515.3c0,0,10.3,2.5,14-4c3.8-6.6,17.4-20.8,34.7-14.9s-15.2-14.3-16.6-14.3
	c-1.4,0-18-0.1-18-0.1s-12.8,10.5-13.3,11.7c-0.5,1.1-4.2,13.8-4.2,13.8L3311,515.3"/>
<path id="path236" class="st15" d="M3329.8,542.8l18.6,3.6c0,0-1.8,7-10,5.7C3328.3,550.4,3329.8,542.8,3329.8,542.8"/>
<path id="path238" class="st5" d="M1455.5,1594.5c0.7,2.5,1.1,3.3,2,4.9c5.8,10.6,19.4,25.8,19.4,25.8l10.5-23.6c0,0-1.7-7.4-4.7-18
	C1472.6,1586.2,1462.9,1587.7,1455.5,1594.5"/>
<path id="path240" class="st8" d="M2856.5,1574.6c0,0-58.5,25.2-60.4,24.7c-1.2-0.3-24-38.5-24.3-74.3
	c-0.1-16.6,17.1-36.5,36.3-32.6c9.7,2,9.5,4.7,23.8,25.5C2846.2,1538.7,2856.5,1574.6,2856.5,1574.6"/>
<path id="path242" class="st11" d="M2906.4,2026.6l-1.4,23c-0.5,2.9-2.5,10.1-2.5,12.8c0,10,47.3-8.5,36.7-12.9
	c-1-0.4-6-3.4-6.3-6.8c-0.5-5.2-1.7-15.8-1.7-15.8L2906.4,2026.6"/>
<path id="path244" class="st16" d="M2939.1,2049.4c0,0-11.1,3-16.8,3.8s-13.2-5.7-17.2-3.9c-4.4,1.9-4.3,19.1-4.3,19.1
	s59.6,4.9,76.4-0.2C2983.8,2066.2,2961.8,2056.5,2939.1,2049.4"/>
<path id="path246" class="st11" d="M2809.6,2026.6l-1.4,23c-0.5,2.9-2.5,10.1-2.5,12.8c0,10,47.3-8.5,36.7-12.9
	c-1-0.4-7.5-5.7-7.8-9.1c-0.5-5.2-0.2-13.5-0.2-13.5L2809.6,2026.6"/>
<path id="path248" class="st16" d="M2842.3,2049.4c0,0-11.1,3-16.8,3.8s-13.2-5.7-17.2-3.9c-4.4,1.9-4.6,19.1-4.6,19.1
	s59.9,5.7,76.7-0.2C2886.9,2065.9,2865,2056.5,2842.3,2049.4"/>
<path id="path250" class="st11" d="M2824.1,1607.9l41.7-58.4c0.2-0.5,0.6-1.6,1.1-3.2c2.1-5.8,6.5-17.9,10.3-29.8v-0.1
	c1.2-4.2,3.7-11.5,6.2-18.6c2.7-7.9,6.1-17.6,6.2-19.3c-0.1-0.3-0.3-0.8-0.6-1.5c-1.5-4-3.6-13.4-4.3-17.5c-0.5-2.6-0.9-9,2.2-9
	c4.9,0,2.6,6.4,4.8,10.3c0.8-2.6,2.5-7.9,3.4-13.2l0.8-12.4c0.2-0.9-0.8-7.8,2.6-7.8h0.2c3.1,0.2,3,7.5,4.3,19.8
	c0.4-1.4,0.8-3.1,1.1-4.7c0-0.8,0.6-4.6,1-6.5c-0.6-3.4-0.3-8.9,3.4-8.3c1.8,0.3,1.7,7.8,1.7,7.8c0,1-0.1,9-0.1,10.6
	c0.4-2.7,1.8-14.1,4.7-14.1c2.4,0,2.6,3.1,2.5,5.5c0,1.4-1.5,13.8-1.6,15.3c1.1-1.9,2.4-12.8,3.6-12.8c4.6,0,3,15.5,1.2,19.6
	c-0.2,0.4-0.3,1.2-0.5,2.2c-0.6,2.8-1.5,7.4-4,11.5c-2.9,5-6.9,12.9-7.5,14.1c-0.4,2.5-1.8,11.4-3.6,22.6c-0.8,4.8-1.6,10-2.4,15.5
	l0,0c-0.2,1.2-1,4.9-4.3,19c-4.5,19.2-5,20-5.2,20.4c-2,3.5-46.9,64.5-48.8,67.1l-1.1,1.5L2824.1,1607.9"/>
<path id="path252" class="st13" d="M2901.6,1471.7c0,0-3.4-8.7-9.4-8.7c0,0,3.4-1.2,6.2,1.1
	C2901.3,1466.4,2901.6,1471.7,2901.6,1471.7"/>
<path id="path254" class="st11" d="M2814,1455l-5.4,33.9c0,0,20.5,16.4,32.4,13c10-2.9,3.2-16,3.2-16s-5.3-18.1-3.7-27.6
	C2842.1,1448.7,2814,1455,2814,1455"/>
<path id="path256" class="st7" d="M2817.9,1465.2c5.1,2.4,15.3,5.7,23.1,6.5c-0.8-4.8-1.2-9.8-0.5-13.5c0.8-4.4-4.8-5.4-11-5.3
	c-8.2,0.7-15.4,2-15.4,2l-1,6.5C2814.5,1463.1,2816.2,1464.4,2817.9,1465.2"/>
<path id="path258" class="st11" d="M2788.2,1415.8c-0.8,0,8.1,37.9,21.9,44.4c13.8,6.5,34.4,3.1,38.3-7.1
	c4.3-11.3-11.3-50-30.7-54.9S2788.2,1415.8,2788.2,1415.8"/>
<path id="path260" class="st8" d="M2804.2,1381c-11,6.4-16.1,15.8-17.8,19.7c-5.2,2.5-11.4,7.8-14.5,22.1
	c-3.7,17.6,9.5,31.2,23.4,35.3c13.9,4.1,16.1,13.3,16.1,13.3l1.6-9.9c0,0-3.1-8.6-7.8-13c-4.7-4.3,2.2-10.6,2.8-15.8
	c0.5-4-2.5-11.7-1.8-18.2c0,0,7.7-11.7,15.4-14.6C2834.6,1394.9,2818.3,1372.8,2804.2,1381"/>
<path id="path262" class="st11" d="M2810.1,1439.2c1.8,4.4,1.1,8.7-1.7,9.7c-2.7,1-6.4-1.8-8.2-6.1c-1.8-4.4-1.1-8.7,1.7-9.7
	C2804.6,1432.1,2808.3,1434.9,2810.1,1439.2"/>
<path id="path264" class="st5" d="M2861.5,1608.8l80.4-13.1c0,0-9.1-23-12.4-23s-60.8,25.1-60.8,25.1l-4.6,9.2L2861.5,1608.8"/>
<path id="path266" class="st19" d="M2820.3,1663.9c0,0-8,38.8-4.8,68.2c3.3,29.4,3.5,133.9,3.5,133.9l-12.5,167.1l29.6,0.6
	c0,0,35.1-167.1,34.4-162.8c-0.6,4.3,11.8-117.6,11.8-117.6l-41.8-93.1L2820.3,1663.9"/>
<path id="path268" class="st8" d="M2828.2,1662.1c0,0-5.2,34.9,1.3,50.2c6.5,15.3,56.1,165.6,56.7,177.8
	c0.7,12.3,17.1,147.7,17.1,147.7l34.4-1l7.5-150.6l-15.6-189.2l-15.1-47.8L2828.2,1662.1"/>
<path id="path270" class="st11" d="M2808.6,1488.9c0,0,8.5,5.6,16.4,4.9c7.9-0.6,19.1-7.9,19.1-7.9l-1.6-5.3c0,0-20.5-3-21-2.7
	C2821.1,1478.2,2808.6,1488.9,2808.6,1488.9"/>
<path id="path272" class="st5" d="M2899.1,1571.5c0,0,30.4,28.7,44.2,23.8c13.7-4.9,19.4-21.7-14.1-46.2
	C2899.2,1527.2,2899.1,1571.5,2899.1,1571.5"/>
<path id="path274" class="st6" d="M2919.7,1607c-4.5-24.6-37.3-101.1-39.9-115.2c-1.3-6.8-18.9-7-35.8-6.1
	c-17.8,0.9-35.4,3.2-35.4,3.2s-15.7,2.6-22.7,9.1c-6.9,6.5-8.8,24.4,1.2,58.5c7.9,26.9,17.6,41.6,22.4,61.2c1,6.6,1.8,13,2.9,20.6
	c1.8,29.3,0,68,0,68s85.6,17.8,117.7-9.2C2930.2,1697,2924.3,1632.2,2919.7,1607"/>
<path id="path276" class="st12" d="M2941.5,1554.1c0,0-33.6,27.7-35.6,27.7c-1.3,0-48-34.3-58.7-62.6c-6-15.6,6.5-33.1,20.8-33
	c9.9,0,14.3,2.6,33.9,19.1C2921.6,1522,2941.5,1554.1,2941.5,1554.1"/>
<path id="path278" class="st8" d="M993.2,563.8c5.5-13.3,11.1-26.5,25.4-33.2c11.6-5.4,23.6-3.4,33.9,4.3
	c29.1,21.9,3.7,46,36.9,87.5c10.3,12.9,22.8,23.3,28.9,38.4c8.6,21.2-1.7,31.3-18.1,41.4c-78.9,48.5-120.2-51.1-118.7-73.8
	C982.6,611.5,989.7,572.3,993.2,563.8"/>
<path id="path280" class="st11" d="M911.4,821.8c3.3-0.5,11.4-6.3,14.3-6.8c2.2-0.4,7-1.1,9-1.4c2.5-9.3,15.2-60.1,16.6-75
	c1.5-16.1,12.9-85.9,12.9-85.9l29.5,5.4c0,0-12.3,53.7-15.7,79.7c-2.9,22.4-27.4,72.6-30.6,77.9c0,0.1,0,0.3,0,0.4
	c-0.5,7.9-4.3,5.3-4.3,5.3l-6.2,1.6c0,0-21.9,2.1-23.3,2.6C912.3,826,908,822.3,911.4,821.8"/>
<path id="path282" class="st20" d="M989.9,611.8c-20.9,7.1-32.7,63.8-32.7,63.8s32.8,9.1,41.1,4.3c0,0,9.5-42.2,12.9-40.7
	L989.9,611.8"/>
<g id="S">
	<g>
		<path class="st21" d="M383.3,1817.2c-0.6-22.9,8.3-41.7,26.6-56.2c18.4-14.5,40.9-21.7,67.7-21.7c30.5,0,57.3,15.3,80.3,45.8
			c31.9,41.4,60.3,69.5,85.3,84.2c53.1,30.5,130.2,45.8,231.4,45.8c96.8,0,186.8-18.3,269.8-55c106.2-47,159.3-112.4,159.3-196.1
			c0-68.9-44.7-123.3-134-163.2c-75.6-34.4-168.9-53-280.1-55.8c-98.7-3.3-182.7-22.2-252-56.6c-88.7-44.3-133-107.8-133-190.4
			c0-97.4,63.1-186.3,189.3-266.7c120.6-76,245.2-114.1,374-114.1c60.6,0,129,9,205.3,27c101.2,23.5,151.8,53.5,151.8,90.1
			c0,48.1-28.1,72.1-84.4,72.1c-25,0-68.8-5.9-131.3-17.7s-111-17.4-145.4-16.9c-97.6,1.1-180.4,22.2-248.6,63.4
			c-70,42.3-105,93.6-105,154c0,45.5,46.2,77.6,138.7,96.3c34.4,7.1,100.9,13.7,199.6,19.8c143,9.3,254.8,48.7,335.4,118.1
			c73.7,63.5,110.6,140.8,110.6,232.2c0,130.2-68.7,234.1-206,311.7c-119.2,67.3-257.5,100.9-414.8,100.9
			c-114.2,0-218.8-19.1-313.6-57.4C444.1,1963.7,385.1,1899.2,383.3,1817.2z"/>
	</g>
	<g>
		<path class="st22" d="M2417.3,1983c-79.7,54.5-194.1,81.8-343.1,81.8c-37.5,0-80.5-5.9-128.8-17.7c-58.1-13.9-101.8-31.9-131.1-54
			h-7.7c-22.1,0-40.6-7.7-55.5-23.1s-22.4-34.2-22.4-56.3c0-54,2.4-134.9,7.3-242.7c4.9-107.8,7.3-188.6,7.3-242.7
			c0-60.2-1.2-150-3.7-269.6c-2.4-119.6-3.7-209.5-3.7-269.7c0-21.1,10.8-43.2,32.4-66.3s43.2-34.7,64.8-34.7
			c12.3,0,53.5,17.2,123.4,51.7c79.2,38.6,125,59.9,137.3,64c146,49.9,270.5,126.5,373.4,229.9c120.9,121.9,181.3,255.9,181.3,402
			c0,88-20.7,172.3-62.1,253.1C2545.2,1869.3,2488.8,1934.1,2417.3,1983z M2255.2,1166.5c-52.4-34.5-173.5-93.7-363.2-177.6
			l3.8,222.4l2.3,221.6l-12.2,421.6c3.6,1.6,9,4.9,16.2,10c45.2,30.4,102.3,45.6,171.2,45.6c117.2,0,202.5-18,256-54
			c49.9-34,89.6-79.7,119.1-137.1s44.3-117.2,44.3-179.5C2492.7,1394.3,2413.5,1269.9,2255.2,1166.5z"/>
	</g>
</g>
<path id="path284" class="st11" d="M828.4,919.9c-6.4,16.9-9.7,33.1-10,35c-0.1,1,1.2,5.5,1.1,6.5c-12.8,17.5-31.3,21.3-47.1,22.4
	c8.1-7.9,19.9-15.3,20.4-17.8c0.9-4,5.8-21.6,8.2-46.1C810.9,924.5,817.5,920.9,828.4,919.9"/>
<path id="path286" class="st0" d="M1010.1,731.4l28.2,79.5c0,0-45.3,8.5-62.3,11.6s-111.7,7.2-114.1,8.9
	c-1.8,1.2-21.3,64.5-30.1,99.4c-9.9,2.2-26.9-0.4-35.9-3.5c4.9-49.9,22.5-129,28.1-137.6C833.3,775.6,1010.1,731.4,1010.1,731.4"/>
<path id="path288" class="st11" d="M899.9,954.7c-3.1,17.7-3.3,34.3-3.3,36.3c0,1,2.2,5.2,2.3,6.2c-9.3,19.6-26.7,26.8-42,30.9
	c6.4-9.2,16.7-18.8,16.7-21.3c0.1-4.1,1.6-22.3-0.6-46.8C883.5,962.6,889.4,957.8,899.9,954.7"/>
<path id="path290" class="st2" d="M1043.1,735.5l11,18.7c16.7,28.5,3.9,65.1-26.9,77c-0.2,0.1-0.3,0.1-0.5,0.2
	c-16.1,6.2-108.3,28-110.4,30.1c-1.5,1.6-8.9,67.4-10.9,103.3c-9.3,4-26.5,4.6-35.9,3.2c-4.6-50-2.1-130.9,1.8-140.5
	C877.7,812.1,1043.1,735.5,1043.1,735.5"/>
<path id="path292" class="st8" d="M895.2,991.5c2.5-2.7,11.5,12.2,13.7,15.4c2.5,3.6,1.8,6.3,1.5,6.8c-0.8,1.5-48.4,29.5-60,31.4
	c-1.1,0.2-3-0.5-3.5-0.9c-4.5-4,16.3-33.6,25.7-37.5C878.8,1004.3,884.2,1003.7,895.2,991.5"/>
<path id="path294" class="st8" d="M816.9,955.4c2.9-2.2,9,14.2,10.6,17.7c1.8,4,0.6,6.5,0.2,7c-1.1,1.3-53,19.9-64.8,19.7
	c-1.1,0-2.8-1.1-3.2-1.6c-3.7-4.8,22.3-30,32.3-32C798.4,964.9,803.8,965.4,816.9,955.4"/>
<path id="path296" class="st23" d="M1009.7,611.7L1009.7,611.7L1009.7,611.7c-0.5,0-1.3-0.2-2.1-0.4c-3.9-0.7-12.4-1.7-19,1.1
	c-8,3.4-20.5,35-19.7,67.5c0.3,5,0.6,9.4,0.9,12.5c2,24.5,9.1,70.5,9.4,70.8c9.6,6.2,67.3-17.7,71.3-23s6.3-69,8.2-72.2l3.8-55.4
	C1055.9,610.5,1020,611.6,1009.7,611.7"/>
<path id="path298" class="st11" d="M1033.1,591.3c0,0-3.7,19.2-3,26.8s-2.8,32-18.9,32.1s-3-31.1-1.5-38.5s1.9-30.4,1.9-30.4
	L1033.1,591.3"/>
<path id="path300" class="st13" d="M1011.3,592.8c0.3-6.3,0.3-11.5,0.3-11.5l21.5,10c0,0-0.8,3.9-1.5,8.9
	C1022.2,602.1,1015.3,598.6,1011.3,592.8"/>
<path id="path302" class="st11" d="M1041,538.2c0,0,8.3,4.6,11.3,14.6s-0.4,35.7-21.8,41.9s-30.7-14.2-26.3-30.1
	C1008.6,548.7,1018.2,528.5,1041,538.2"/>
<path id="path304" class="st11" d="M1001.5,558.4c0.4,4.3,2.8,7.5,5.3,7.3s4.2-3.9,3.8-8.2s-2.8-7.6-5.3-7.3
	S1001.1,554.1,1001.5,558.4"/>
<path id="path306" class="st8" d="M1038.5,536.9c0,0,3.9,28.7,13.2,33.9c9.3,5.2,5.4,17.9,5.4,17.9s8.4-29.6,1.1-39.1
	C1050.8,540.1,1038.5,536.9,1038.5,536.9"/>
<path id="path308" class="st11" d="M1046.1,574.9c-2.5,3.7-2.5,8.2,0,9.8c2.5,1.7,6.6,0.1,9.1-3.7c2.5-3.7,2.5-8.2,0-9.9
	C1052.8,569.5,1048.7,571.2,1046.1,574.9"/>
<path id="path310" class="st15" d="M1014.9,576.5l15.1,3.8c0,0-1.8,5.7-8.5,4.3C1013.4,582.8,1014.9,576.5,1014.9,576.5"/>
<path id="path314" class="st11" d="M3931.1,2025.8l1.3,22.6c0.5,2.9,2.3,10,2.3,12.6c0,9.8-43.5-8.3-33.7-12.6
	c0.9-0.4,5.5-3.4,5.8-6.7c0.4-5.1,1.6-15.5,1.6-15.5L3931.1,2025.8"/>
<path id="path316" class="st9" d="M3900.6,2048.4c0,0,10.2,3,15.4,3.7s12.1-5.6,15.8-3.9c4.1,1.9,3.9,18.7,3.9,18.7
	s-54.7,4.8-70.1-0.2C3859.5,2064.9,3879.7,2055.4,3900.6,2048.4"/>
<path id="path318" class="st11" d="M4003.4,2024.6l1.3,22.6c0.5,2.9,2.3,10,2.3,12.6c0,9.8-43.5-8.3-33.7-12.6
	c0.9-0.4,6.9-5.6,7.2-8.9c0.4-5.1,0.2-13.3,0.2-13.3L4003.4,2024.6"/>
<path id="path320" class="st9" d="M3973.4,2047.1c0,0,10.2,3,15.4,3.7c5.2,0.8,12.1-5.5,15.8-3.9c4.1,1.9,4.2,18.8,4.2,18.8
	s-54.3,2.2-70.4-0.2C3932.2,2064.6,3952.6,2054.1,3973.4,2047.1"/>
<path id="path322" class="st6" d="M3990.5,1665.9c0,0,7.4,38.1,4.4,67s-3.2,131.5-3.2,131.5l13.8,164.1l-29.6,0.7
	c0,0-32.2-164.1-31.6-159.9c0.6,4.2-10.8-115.6-10.8-115.6l38.4-91.5L3990.5,1665.9"/>
<path id="path324" class="st12" d="M3980.2,1641.3c0,0,33.4,35.1,21,73.5c-5,15.4-51.5,162.7-52.1,174.7s-15.7,145.1-15.7,145.1
	l-31.6-1l-6.8-147.9l9-199.3l19.2-33.6L3980.2,1641.3"/>
<path id="path326" class="st13" d="M3777.7,1526.9c10.9-12.2,34.7-29.5,34.7-29.5s14.2-12.1,19.9-14.1c8.5-2.9,23.1-10.7,44.1,21.2
	c15.1,22.8,110.1,141.1,125.7,145l-101.9,48.8c-2.8-23.3-53.2-67.3-60.4-75.5C3823.7,1604.4,3767.4,1538.5,3777.7,1526.9"/>
<path id="path328" class="st11" d="M3782.5,1477.4l31.7,18.6c0,0,0.9,27.1-9.5,34.1c-8.7,5.9-15.3-8.3-15.3-8.3
	s-11.8-16.4-20.8-21.4C3759.7,1495.3,3782.5,1477.4,3782.5,1477.4"/>
<path id="path330" class="st13" d="M3787.8,1489.3c-1.2,5.7-3.9,13.8-8.2,20.6c-3.5-3.8-7.4-7.5-10.9-9.5c-4.1-2.4-1.5-7.4,2.5-12.2
	c5.7-5.9,11.3-10.8,11.3-10.8l6.1,3.6C3789,1483.3,3788.2,1487.4,3787.8,1489.3"/>
<path id="path332" class="st11" d="M3765.9,1430.8c0.5-0.7,26.6,31.8,23.4,47.1c-3.2,15.2-19,29.1-30,25.3
	c-12.1-4.2-34.7-42.5-26.6-61C3740.9,1423.6,3765.9,1430.8,3765.9,1430.8"/>
<path id="path334" class="st8" d="M3737.4,1420.6c11.4-6.3,29.9-8.2,43.8-0.9c17,8.9,20.9,31.4,15.6,45.1s0.8,21.4,0.8,21.4l-9-5.3
	c0,0-5.3-8.3-6-14.8c-0.7-6.6-10.3-5.4-14.9-8.4c-3.6-2.3-8.2-9.7-14-13.6c0,0-14.7-1.8-21.9,2.3
	C3719.3,1453.3,3721.1,1429.6,3737.4,1420.6"/>
<path id="path336" class="st11" d="M3774.9,1463.2c-0.1,4.9,2.2,8.9,5.1,8.9c2.9,0,5.4-3.9,5.4-8.7c0.1-4.9-2.2-8.9-5.1-8.9
	C3777.4,1454.4,3775,1458.3,3774.9,1463.2"/>
<path id="path338" class="st15" d="M3748.2,1489.1l13.8-10.3c0,0,3.7,5.6-2.3,10.3C3752.4,1494.8,3748.2,1489.1,3748.2,1489.1"/>
<path id="path340" class="st5" d="M3713.5,1694.6c3.5-5.1,5-12.4,9.8-17.9c1.6-1.9,4.2-4,7.1-6.1c23-13.5,83-48.2,85.3-50.9
	c2.8-3.2,43.7-71.2,43.7-71.2l-36.8-8.3l-35.9,63.4c-3,2.4-60,44.5-60,44.5s-11.3,8.9-17.5,13c-3.1,1.8-6.2,3-8.8,3.9
	c-3.3,1.2-9.7,4.3-11,5.5c-1.5,1.3-4.5,4.1-6.3,5.9c-1.8,1.7-3.9,3.7-4.8,4.7c-0.5,0.6-2.1,1.5-3.2,2.1c-1.7,0.9-1.5,3.4,0.4,3.9
	c1.7,0.5,4.1-0.6,5.6-1.3c4.1-1.9,9.2-7.2,9.4-6.5c0.3,0.6-4.9,11.9-5.4,13.2c-0.5,1.3-6.4,14.4-6.7,17.3s1.5,3.6,2.8,2.5
	c1.1-0.9,10.6-18.4,10.6-18.4s1.2-2.2,1.7-1c0.5,1.3-8.1,17.1-8.9,19.8c-0.8,2.6-0.2,4.7,2.2,3.8c2.9-1.1,11-18.6,11-18.6
	s1.1-2.2,1.8-1.4c0.7,0.8-6.8,14.1-6.9,15.7c-0.1,1.5,1.3,3.1,3.3,1.8c2.4-1.5,9.5-17.2,9.5-17.2s0.9-1,1.1-0.3
	c0.3,0.7-5.3,12.6-4.9,14.3c0.4,1.5,1.7,1.2,1.7,1.2C3706.2,1711.9,3710,1699.6,3713.5,1694.6"/>
<path id="path342" class="st6" d="M3849.2,1584.4c0,0-12-3.8-19.6-7.3c-5.1-2.4-27.6-13.5-27.6-13.5s9.7-40.8,16.2-55.5
	c24-53.8,51.3-16.7,55-8C3881.5,1519.4,3849.2,1584.4,3849.2,1584.4"/>
<path id="path344" class="st15" d="M2832.8,1445.2l11.4-8.5c0,0,3,4.6-1.9,8.5C2836.3,1449.9,2832.8,1445.2,2832.8,1445.2"/>
<path id="path346" class="st19" d="M5359.2,2066.9H188.4c-6.5,0-11.7,3.4-11.7,7.6c0,4.2,5.2,7.6,11.7,7.6h5170.7
	c6.5,0,11.7-3.4,11.7-7.6C5370.8,2070.3,5365.6,2066.9,5359.2,2066.9"/>
<path id="path348" class="st11" d="M1156.5,816.1c-0.3-0.7-0.9-0.7-1.5-0.7c-6-0.2-11.9-0.4-17.9-1.3c-1-0.1-2-0.4-2.9-0.7
	c-1.7-0.7-3.3-0.6-4.9-0.2c-0.9,0.2-1.8,0.3-2.7,0.3c-3,0-11.6-2.9-16-3.7c-1-0.2-1.8-0.9-2.1-1.9c-4.3-17.1-13.6-55.6-14.8-68.2
	c-1.5-16.2-12.7-89.1-12.7-89.1l-29.9,8.3c0,0,12.3,53.8,15.7,79.9c2.6,20.1,22.8,62.9,29.1,75.2c3.1,9.1,10,9.4,11.6,9.6
	c0.9,0.1,1.8,0.6,2.4,1.3c1.1,1.3,2.3,2.4,3.8,3.3c1.1,0.7,1.9,1.5,2.6,2.6c1.3,1.8,2.4,3.8,3.5,5.7c0.7,1.3,1.5,1.7,2.6,1.4
	c1.2-0.3,1.8-1.2,1.7-2.6c0-2.1-0.7-4.1-1.8-5.9c-1-1.7-0.9-2.7,0.2-4.3c0.7-0.9,1.4-1.8,2.2-2.5c0.9-0.7,1.8-1.3,3.1-1.1
	c2.1,0.5,4.3,1,6.5,1.2l1.8,0.4l1,0.2c0.2,0,3.3,0.4,4.4,0.4c0.9,0,2.3,0.1,3.5,0.1c1.1,0.1,3.4-0.5,3.5-0.5c1.1,0,2-0.4,2.8-1.1
	c0.3-0.3,0.6-0.6,0.5-1.1c-0.2-0.5-0.5-0.6-1-0.7c-0.7-0.1-4.4-0.6-4.4-0.7c1.1,0,4.6-0.1,5.7-0.1c1.5,0,2.8-0.6,3.8-1.7
	C1156.3,817.2,1156.8,816.8,1156.5,816.1"/>
<path id="path350" class="st23" d="M1062.9,612.4c14.7-2.7,26.9,63.3,26.9,63.3s-32.8,9.1-41.2,4.3c0,0-9.5-42.2-12.9-40.7
	L1062.9,612.4"/>
<path id="path352" class="st11" d="M1782,1548.7c1-2.8-12.6-5.1-13.3-7.9c-0.7-2.8,17.2-3.1,17.8-5.5c1.2-4.6-19.6-1-19.2-3.1
	s21.7-6.9,19.4-10.6c-2.3-3.7-21.5,7.3-22.1,4.8s18.8-8.6,18.4-14c-0.2-2.9-31.8,14.6-35.5,13s3.9-15.3,1-17.4
	c-2.9-2-11.3,27.9-13.3,28.9s-44.7,25.4-59.9,29.2c-1.8-5.1-5.8-11.9-7.5-16.8c-8.5,6.1-14.9,9.1-23.7,14.6
	c6.4,16,15.5,33.5,19.9,35.5c13.5,6.1,65.8-37.3,76.3-44.7c10.4-7.4,16.4-5,23.5-7.4C1770.9,1545.1,1781.1,1551.5,1782,1548.7"/>
<path id="path354" class="st9" d="M1642.4,1571.7c0,0-11.7-51.7-9.7-66.7s19.9-29,32.2-23.8c12.4,5.2,18,77.4,18,77.4L1642.4,1571.7
	"/>
<g>
	<path class="st24" d="M4051.2,1905.9c-0.4-16.1,5.5-29.2,17.7-39.4s27.2-15.3,45-15.3c20.3,0,38,10.7,53.3,32.2
		c21.2,29.1,40,48.8,56.6,59.2c35.3,21.5,86.5,32.2,153.7,32.2c64.3,0,124.1-12.8,179.2-38.4c70.5-32.9,105.8-78.6,105.8-137.1
		c0-48.2-29.7-86.3-89-114.2c-50.2-24.1-112.2-37.1-186.1-39c-65.6-2.3-121.4-15.5-167.4-39.7c-58.9-31-88.4-75.5-88.4-133.3
		c0-68.2,41.9-130.4,125.8-186.8c80.1-53.2,162.9-79.9,248.4-79.9c40.3,0,85.7,6.4,136.4,19.1c67.2,16.6,100.9,37.8,100.9,63.6
		c0,33.9-18.7,50.9-56.1,50.9c-16.6,0-45.7-4.2-87.2-12.5c-41.5-8.4-73.7-12.4-96.6-12c-64.8,0.8-119.9,15.5-165.1,44.2
		c-46.5,29.5-69.8,65.3-69.8,107.4c0,31.8,30.7,54.2,92.1,67.2c22.8,5,67,9.6,132.6,13.8c95,6.5,169.3,34.1,222.8,82.7
		c49,44.4,73.4,98.6,73.4,162.5c0,91.1-45.6,163.9-136.8,218.2c-79.2,47.1-171,70.6-275.5,70.6c-75.9,0-145.3-13.4-208.4-40.3
		C4091.6,2008.7,4052.4,1963.4,4051.2,1905.9z"/>
</g>
</svg>
