<?xml version="1.0" encoding="utf-8"?>
<!-- Generator: Adobe Illustrator 26.0.1, SVG Export Plug-In . SVG Version: 6.00 Build 0)  -->
<svg version="1.1" id="Layer_1" xmlns="http://www.w3.org/2000/svg" xmlns:xlink="http://www.w3.org/1999/xlink" x="0px" y="0px"
	 viewBox="0 0 3175.1 2424.8" style="enable-background:new 0 0 3175.1 2424.8;" xml:space="preserve">
<style type="text/css">
	.st0{opacity:0.78;fill:#1F923C;enable-background:new    ;}
	.st1{fill:url(#SVGID_1_);}
	.st2{fill:#41A541;}
	.st3{fill:#167F16;}
	.st4{fill:#9E5A23;}
	.st5{fill:#FFBB83;}
	.st6{fill:#FEBF8A;}
	.st7{fill:#FFDFB2;}
	.st8{fill:#FAB181;}

	#Circle{
	transform-origin: center;
	animation: animate_circle 1s ease-in-out;
}

@keyframes animate_circle{
	0%{
		opacity: 0%;
	}
	100%{
		opacity: 100%;
	}
}

#Mobile{
	transform-origin: center;
	animation: animate_mobile 1.4s ease-in-out;
}

@keyframes animate_mobile{
	0%{
		transform: rotate(50deg) translateX(2000px) translateY(2000px);
	}
	100%{
		transform: rotate(0deg) translateX(0px) translateY(0px);
	}
}

#Stem{
	transform: scale(0);
	transform-origin: 1340px 1555px;
	animation: animate_stem 2s ease-in-out forwards;
	animation-delay: 0.5s;
}

@keyframes animate_stem{
	0%{
		transform: scale(0) translateY(396px);
	}
	100%{
		transform: scale(1) translateY(0px);
	}
}

@keyframes animate_leaf{
	0%{
		transform: scale(0);
	}
	100%{
		transform: scale(1);
	}
}


#leaf1{
	transform: scale(0);
	transform-origin: 1198px 1126px;
	animation: animate_leaf 1.3s ease-in-out forwards;
	animation-delay: 2.15s;
}

#leaf2{
	transform: scale(0);
	transform-origin: 1471px 1228px;
	animation: animate_leaf 1.3s ease-in-out forwards;
	animation-delay: 2.35s;
}

#leaf4{
	transform: scale(0);
	transform-origin: 1265px 888px;
	animation: animate_leaf 1.3s ease-in-out forwards;
	animation-delay: 2.55s;
}

#leaf5{
	transform: scale(0);
	transform-origin: 1458px 947px;
	animation: animate_leaf 1.3s ease-in-out forwards;
	animation-delay: 2.75s;
}

#leaf3{
	transform: scale(0);
	transform-origin: 1404px 714px;
	animation: animate_leaf 1.3s ease-in-out forwards;
	animation-delay: 2.95s;
}


</style>
<path id="Circle" class="st0" d="M2531.3,1087.8c-2.5,595.1-486.8,1075.2-1082.1,1072.7C854.4,2158,374,1673.7,376.5,1078.4
	C379,483.4,863.3,3.2,1458.4,5.7C2053.7,8.2,2534.1,492.7,2531.3,1087.8z"/>
<g id="Mobile">
	
		<radialGradient id="SVGID_1_" cx="1373.5624" cy="858.8939" r="574.7507" gradientTransform="matrix(1 0 0 2 0 -678.8743)" gradientUnits="userSpaceOnUse">
		<stop  offset="0" style="stop-color:#9DD8F9"/>
		<stop  offset="1" style="stop-color:#1E6495"/>
	</radialGradient>
	<path class="st1" d="M1368.1,1771.1L1368.1,1771.1L1368.1,1771.1L1368.1,1771.1L1368.1,1771.1L1368.1,1771.1z M1373.7,305.7
		c-0.3,0-0.3,0-0.7,0l0,0l-241.3,0.7l0,0l0,0l0,0l0,0l0,0c-9.6-1-18.8-1.5-28.4-1.5l0,0c-8.6,0-17.5,0.7-26.3,2.5l0,0
		c-18.5,3.6-37.3,12.9-45.7,33c-7.4,17.8-6.8,44.1-6.1,79.9l0,0c0,5.3,0.3,10.7,0.3,16.3c0.7,44.1,0,100.6-0.7,156.7l0,0l0.3,1121.9
		l0,0c0.7,10.7,1.2,21.3,6.4,30.2l0,0c5,9.2,14.5,17,24.6,21c10.2,4,20.6,4.3,31.5,4.3l0,0l279.6-0.3l0,0l0,0l0,0l0,0l0,0l0,0l0,0
		h0.3l0,0l0,0l0,0l0,0l0,0l0,0l0,0l0,0h0.3l0,0l0,0l0,0l0,0l0,0l0,0l279.6,2.5l0,0c10.7,0,21.6-0.3,31.7-4.3
		c10.2-4,19.8-11.7,24.6-20.6c5.3-8.9,5.9-19.5,6.8-30.2l0,0l0,0l9.9-1121.9l0,0l0,0l0,0c-0.3-56.5-0.3-112.6,0.7-156.7l0,0
		c0-5.8,0.3-11.1,0.3-16.7l0,0l0,0c1-35.8,1.5-62.1-5.6-79.9c-8.3-20.3-26.9-29.6-45.4-33.7c-8.9-1.8-17.7-2.5-26.3-2.5l0,0
		c-9.6,0-18.8,0.7-28.4,1.2l0,0l0,0l0,0l0,0l0,0l0,0l-241.4-2.5l0,0l0,0l0,0C1374.2,305.9,1374,305.7,1373.7,305.7z"/>
	<g>
		<path class="st2" id="leaf1" d="M1298.1,1241.2c0-216.8-72.2-268.2-225.6-268.2C1072.2,1182.6,1173.7,1241.2,1298.1,1241.2"/>
		<path class="st2" id="leaf2" d="M1444.1,1291.4c0-182.3,65.1-217.8,185.8-217.8C1632,1250.4,1568.9,1291.4,1444.1,1291.4"/>
		<path class="st2" id="leaf3" d="M1483.9,587.6c34,131.8-49.7,207.6-114.4,217.8C1321.2,715.1,1354.6,610.2,1483.9,587.6"/>
		<path class="st2" id="leaf4" d="M1311.3,956.3c-111.1,0-132.6-66.9-132.6-184.1C1286.4,769.8,1311.3,834.8,1311.3,956.3"/>
		<path class="st2" id="leaf5" d="M1417.5,1023.2c120.9,0,172.4-17.3,172.4-217.8C1469,805.4,1417.5,823.1,1417.5,1023.2"/>
		<path class="st3" id="Stem" d="M1535.7,1184.1c-3.1-8.6-10.7-12.4-17.7-8.6c-41,22.5-66.1,65.7-84.9,105.5c-17.8,24.1-37.3,51.5-55.8,85.2
			v-225.7c0-22.8,20-65.4,49.7-105.8c1.5-2.1,3.6-5,6.1-8.6c14.5-20.6,44.7-63.2,71.8-90.2c5.9-5.8,6.8-16.3,2.1-23.4
			c-4.6-7.4-12.9-8.6-18.5-2.8c-29.1,28.7-60.1,72.8-75.3,94.1l-5.8,8.3c-6.1,8.3-18.5,25.9-29.9,47.6V873.1
			c0.3-60.4,8.6-97.4,31.7-141.7c4-7.8,2.5-18.2-3.6-23.1c-6.1-5.3-14.5-3.1-18.5,4.6c-25.9,49.7-35.5,92.8-36.2,159.8l0,0l0,0
			v117.9c-13.2-24.1-27.4-41.9-29.9-45.7l-53-72.5c-5-6.8-13.2-7.1-18.8-1c-5.3,6.1-5.9,17-0.7,23.8l53.3,73.2
			c13.5,17.3,49,70,49,105.5v212.9c-12.1-19.2-23.4-32.7-32.7-43.4c-3.6-4.6-7.1-8.3-9.9-12.4c-36.2-71-72.5-116.3-111.1-138.5
			c-6.8-3.6-14.5-0.3-17.5,8.3c-3.1,8.3,0,18.5,6.4,22.3c34,19.8,66.9,61.4,100.6,127.8c0.3,0.7,1,1.2,1.2,1.8
			c0,0.3,0.3,0.7,0.3,0.7c3.5,4.6,7.4,9.2,11.7,14.5c13.9,16.3,32.7,38.8,50.9,78.9v179.5c0,9.2,5.9,16.7,13.2,16.7
			c7.4,0,13.2-7.4,13.2-16.7v-96.3c23.1-53.3,51.2-93.5,76-126.8c0-0.3,0.3-0.3,0.3-0.7c0.7-0.7,1-1.2,1.2-2.1
			c17-35.8,38.8-74.6,73.5-93.8C1535.7,1202.6,1538.7,1192.6,1535.7,1184.1"/>
	</g>
	<g id="Layer_3">
		<path class="st4" d="M1714.2,1778.5h-686.8c-11.1,0-20-59.8-20-133.3c0-73.8,8.9-133.3,20-133.3h686.8c11.1,0,20,59.8,20,133.3
			C1734.7,1719.1,1725.8,1778.5,1714.2,1778.5"/>
	</g>
	<path d="M1373.7,306.6h0.3c0,0,0,0,0.3,0l0,0c0,0,0,0,0.3,0l241.6,2.5l0,0l0,0c9.6-0.7,18.8-1.5,28.4-1.2l0,0
		c8.6,0,17.3,0.7,26.3,2.5c18.5,4,36.7,12.9,45.1,33c7.1,17.5,6.4,43.8,5.6,79.6l0,0c0,5.3-0.3,10.7-0.3,16.7
		c-1,44.1-1,100.6-0.7,156.7l0,0l-10.2,1122l0,0c-1,10.7-1.5,21-6.4,29.9s-14.5,16.7-24.4,20.3c-9.9,4-20.6,4-31.5,4l0,0l-279.6-2.5
		l0,0l0,0l0,0l0,0l0,0h-0.3l0,0l0,0l0,0l0,0l0,0h-0.3l0,0l0,0l0,0l0,0l0,0l0,0l0,0l-279.6,0.3l0,0c-10.7-0.3-21.3-0.3-31.5-4.3
		c-9.9-4-19.5-11.7-24.4-20.6l0,0c-5-8.9-5.6-19.5-6.4-30.2l0,0l-0.3-1121.9l0,0c0.7-56.1,1.2-112.6,0.7-156.7
		c0-5.6-0.3-11.1-0.3-16.3l0,0c-0.7-35.8-1.2-62.1,6.1-79.6c8.3-20,26.9-29.1,45.4-32.7c8.9-1.8,17.5-2.5,26.3-2.5l0,0l0,0l0,0
		c9.6,0,18.8,1,28.1,1.5l0,0l0,0l241.3-0.7l0,0C1373.4,306.6,1373.7,306.6,1373.7,306.6z M1374,277.5c-1,0-1.8,0-2.8,0l-238,0.7
		c-8.9-0.7-18.8-1.5-29.1-1.5h-0.3c-10.2,0-21,0.7-32,3.1c-22.5,4.6-52.5,17-66.1,50c-10.2,24.4-8.9,58.3-8.3,91l0,0
		c0,5.3,0.3,10.7,0.3,16.3c0.7,43.8,0,99.6-0.7,156l0,0l0,0c0,0,0,0,0,0.3l0,0c0,0,0,0,0,0.3l0.3,1121.9c0,0.3,0,0.7,0,1l0,0
		c0,0.3,0,0.7,0,1c0.7,9.6,1.2,26.6,9.9,42.3l0,0c8.6,15.4,23.4,27.1,38.8,33.4l0,0c15.4,6.1,31.5,6.1,41.3,6.4h0.3l0,0h0.3
		c0,0,0,0,0.3,0l279.6-0.3l0,0h0.3l0,0l0,0l0,0l0,0l0,0h0.3l0,0l0,0l278.9,2.5l0,0c0,0,0,0,0.3,0l0,0h0.3c9.9,0,25.9,0,41.3-6.1
		c15.4-5.9,30.2-17.7,39.1-33c8.6-15.4,9.6-32.4,10.2-41.9c0-0.3,0-0.7,0-1l0,0c0-0.3,0-0.7,0-1l9.9-1121.9l0,0l0,0c0,0,0,0,0-0.3
		l0,0l0,0c-0.3-56.5-0.3-112.3,0.7-156c0-0.3,0-0.3,0-0.7l0,0c0-5.3,0.3-10.2,0.3-15.4l0,0c0-0.3,0-0.3,0-0.7l0,0
		c1-32.7,2.5-66.7-7.8-91c-13.2-33-43.3-45.7-65.7-50.4c-11.1-2.5-21.6-3.1-31.7-3.1c-0.3,0-0.3,0-0.7,0c-10.2,0-20.3,0.7-29.2,1.2
		l-238.4-2.5l0,0C1375.9,277.8,1374.9,277.5,1374,277.5L1374,277.5z"/>
	<path class="st5" d="M1829,773.1h-1.2c-29.1,5-60.4,33.4-94.1,84.9c-22.3,31.2-36.2,67.9-41,109.8c-0.7,5.8-1,12.1-1.2,18.2
		l46.2,247.4l8.9,32.4c-0.3,1.5-1.2,1.2-2.8-0.3l-5,452.9c-0.7,18.8-3.5,32-8.1,39.8c-9.9,24.6-32.4,38.8-67.2,43.3l-335-3.1
		c7.1,21,24.6,50.9,53.7,89.8c123,120,195.3,202.8,216.3,248.7c33.7,59.6,66.4,155.9,97.8,288.1l613.9,7.8l-337.5-655.4
		c13.2-4.6,24.6-59.3,34.5-163.8c11.7-103.4,12.9-179.8,4-230.2c-5.8-30.5-12.9-55.5-22-74.3l-71.8-134.7
		c-11.1-24.4-19.8-47.9-25.9-70.3c-26.6-90.7-32.4-184.4-17.7-281.4C1869.4,794.7,1854.4,778,1829,773.1z"/>
	<path class="st6" d="M998.2,1058.7l-5,0.7c-40.8,5-68.5,12.7-83.6,23.8c-19.5,13.9-30.9,32.4-34.8,55.8c-6.4,30.5-4.6,62.6,5,96.6
		c7.8,21.3,21.3,35.8,41,42.9c-18.2,21.6-29.9,39.1-35.5,53.7c-3.5,10.6-5,17-4.6,19.5c-0.7,8.9,0,18.5,2.5,28.1
		c9.6,38,29.1,68.9,58.6,92.3c-17.3,3.5-30.2,14.9-38,34c-8.1,18.2-12.7,33.4-13.9,44.7c-1.2,17.7-1.2,28.1,0.7,31.7
		c7.8,31.5,27.7,53.7,60.4,66.4c46.2,18.8,86.4,26.3,120.7,22.5c20.3-2.1,35.2-8.6,44.7-19.2c9.2-10.6,12.9-22.5,11.7-36.3
		c-3.6-20-12.1-35.2-24.6-46.2c-7.4-9.6-34.2-28.4-80.6-56.5c-7.1-5.6-11.1-9.6-11.4-12.4c-0.7-1.5-0.3-3.6,0.7-7.1
		c25.3-6.4,39.8-12.9,43.3-19.5c1.2-0.3,7.4-10.6,18.5-30.5c2.5-5.3,3.6-12.1,3.5-19.8c1.5-9.9-11.4-46.9-38.6-110.5
		c-4.3-11.1-17.8-28.7-41-52.5L998.2,1058.7z"/>
	<path class="st6" d="M959.6,836.6h-2.5c-11.7,0-22,1.5-30.5,4c-10.6,3.1-18.8,8.3-25.3,14.9c-5,5.8-7.8,9.2-8.1,10.7
		c-1.2,2.8-2.5,5.6-3.5,8.3c-1,2.8-1.2,5.8-1.5,9.6v5.3c0,3.5,0.7,7.1,1.5,10.7c4.3,19.2,15.7,36.7,34.2,53
		c22.3,18.2,46.2,31.5,72.2,39.8l1.2-153.1C982.2,837.6,969.2,836.6,959.6,836.6z"/>
	<path class="st7" d="M1870.1,807.6h-1.5c-11.4,1.8-21.3,9.6-28.7,23.1c-8.6,15.4-12.4,30.9-10.7,46.6l1.2,7.8l1.8,7.8
		c1.5,5.3,3.6,10.2,6.4,15.4l4.3,7.8c3.5,4.3,6.8,8.1,10.2,11.4c7.8,7.4,12.4,11.4,13.2,11.7c0.3,0,0.3,0.3,0.7,0.3
		c0-4.3,0-8.9,0-14.2c0-13.5,2.8-41.3,8.6-83.1c0.3-10.6-0.3-18.2-1.8-23.1C1872.6,815,1871.2,811,1870.1,807.6z"/>
	<path class="st7" d="M930.7,1127.3c-4.6,0-9.6,1-14.9,2.8c-1.2,0-5.6,2.5-12.7,6.8c-8.9,6.1-17.7,14.5-25.6,24.9
		c-3.1,4.3-5.6,8.3-6.4,11.7c-0.3,20,2.8,40.8,8.9,62.3c1.5,4,3.1,7.8,5,11.4c5.3-5.3,10.2-9.6,14.9-13.2c11.1-8.6,18.5-13.9,22-16
		c28.1-16.7,42.9-25.6,44.1-27.1c5-3.6,8.1-7.1,9.2-10.2c1-1,1.5-4.6,2.1-11.1c0-2.5,0-5-0.7-7.1c-1-5-3.5-9.6-7.1-14.2
		c-6.1-7.4-12.9-12.9-19.8-16.3c-2.1-1.2-4.6-2.1-7.1-2.8c-1.2-0.7-4.6-1.2-10.7-1.5h-0.7C931.2,1127.3,931,1127.3,930.7,1127.3z"/>
	<path class="st7" d="M974.8,1466.3c0-6.4,5.8-17,17.5-31.5c5-5.3,9.9-10.2,15.2-14.5c5.8-5,13.5-10.2,23.1-15.7
		c1.2-1,1.8-1.8,1.5-2.8c-1.8-5.8-9.9-15.2-24.4-27.4c-10.7-8.6-20.6-14.2-29.6-16.7c-29.1-7.1-48.4,5.3-58,37.3
		c-1.8,33.4,11.7,55.8,41,67.9L974.8,1466.3z"/>
	<path class="st7" d="M1061.8,1656.7c7.1-5,14.2-16.7,20.6-35.5c6.1-16,8.1-27.4,5.6-34c-4.3-13.2-22-21-52.7-23.1
		c-12.7-0.7-24.1,5.3-34.8,17.3c-10.6,14.9-14.5,28.1-12.1,40.1c1.2,7.8,6.8,14.2,16.7,19.5c11.4,5.6,28.7,10.6,51.9,15.4
		L1061.8,1656.7z"/>
	<path class="st8" d="M1817.1,1920.9h-0.7c-1.8,0-4.6,1-7.8,1.8c-64.7,29.9-110.5,50-137.2,59.6c-36.2,14.2-71.8,26.6-107,37.6
		c-16.3,5-30.5,8.9-42.3,12.1c28.4,32,49.4,59,63.2,80.3l43.8-21.6l44.7-26.9l41.6-29.9l38.3-33.4l35.2-36.7l31.7-39.8
		C1821,1922.4,1819.7,1921.2,1817.1,1920.9z"/>
	<path class="st8" d="M1834.3,1224.5l-10.2,5c-27.1,12.9-52.5,21.6-75.6,26.6l-4,2.1l2.1,8.1c-0.3,0.7-0.7,1-1,1
		c-0.7,0-1.2-0.3-1.8-1.2v9.2c1-0.3,1.5-0.3,2.5-0.7c18.2-5.3,34-10.7,46.9-17c9.9-4.6,19.5-10.6,28.7-17.7
		c5.6-4.3,9.6-8.3,12.7-12.1C1835.9,1225.7,1835.9,1224.5,1834.3,1224.5L1834.3,1224.5z"/>
	<path class="st8" d="M1739.8,1646.6l-0.7,62.6l0,0c0.7,0.3,1.2,0.7,1.8,1c36.3,20.3,71.3,37.6,104.4,52.5c9.2,4,17.3,6.8,23.8,8.6
		c5.6,1.8,11.1,2.8,16.7,2.8c0.3,0,0.7,0,1,0c-39.5-28.1-65.4-47.2-77.4-57.6c-17.7-14.5-33-28.4-45.9-41.6
		C1757.1,1668.7,1749.4,1659.5,1739.8,1646.6L1739.8,1646.6z"/>
	<path class="st8" d="M1870.8,998.6c-4.6,29.9-3.5,73.5,4,130.5c5.9,35.5,29.9,104.4,72.2,207.1c6.1,19.2,10.6,59,13.2,119.7
		c1.2,24.1-0.7,53-5.6,87.4c-26.6,122.9-39.8,189.1-39.5,198.2c-3.6,31.5-4.3,58.3-1.5,81.1c3.5,25.6,7.8,49.4,13.2,71.8
		c11.7,46.6,22.3,84.2,31.2,112.9c50.9,109.8,87,217.8,109,323.7c0.7,14.2,0,25.9-2.5,35.2c-7.1,23.8-13.2,44.7-18.5,63.6l0,0
		l264.4,3.5l-337.5-655.6c13.2-4.6,24.6-59.3,34.5-163.8c11.7-103.4,12.9-179.8,4-230.2c-5.8-30.5-12.9-55.5-22-74.3l-71.8-134.7
		c-11.1-24.4-19.8-47.9-25.9-70.3C1881.8,1069.3,1874.7,1034.1,1870.8,998.6L1870.8,998.6z"/>
	<path class="st8" d="M920.8,1562.4L920.8,1562.4c0,0-0.3,0.3-0.3,0.7l-6.8,18.2l-3.6,9.9c-2.5,5.9-5.6,11.7-8.6,17.5
		c2.5,4.3,5.6,8.3,8.6,12.1l1-2.5l2.1-6.4l1.8-6.8l1.5-6.8l1.5-8.1c0.7-3.5,1.5-10.7,2.8-22.5c0-1.2,0.3-2.5,0.3-4
		C921.1,1562.5,921.1,1562.4,920.8,1562.4z"/>
	<path class="st8" d="M900.1,1320.8L900.1,1320.8c-0.3,0-1,0.3-1.2,0.7c-5.3,5-9.9,8.9-13.9,12.4c-3.1,9.6-4.3,15.4-4,17.8
		c0,1,0,1.8-0.3,3.1c0.7-0.7,1-1.2,1.5-1.5c2.8-3.1,5.6-6.1,7.4-8.9c4.6-6.8,7.8-12.1,9.2-16l0.7-1.8c0.3-1.2,0.7-2.1,0.7-3.1
		c0-0.7,0-1.2,0-1.5C900.6,1320.8,900.5,1320.8,900.1,1320.8z"/>
	<path class="st8" d="M942.1,1084.3L942.1,1084.3L942.1,1084.3c-0.7,0-1,0-1.5,0.3l-41.6,8.1c-5,4.6-8.9,9.9-12.4,15.4l4-1.2
		c6.1-2.1,12.1-4.3,17.8-6.4l8.6-3.5c5.8-2.5,11.4-5,17-7.4l8.1-4C942.4,1084.3,942.4,1084.3,942.1,1084.3z"/>
	<path class="st8" d="M989.6,838.8c-0.7,5.3-1.5,12.1-2.1,20c-0.7,5.6-1,23.8-1.2,54.7c-0.3,8.3-1.2,16-2.8,22.8
		c-1.5,6.4-3.6,13.2-6.8,19.8l-5,9.6l-7.8,13.5c10.6,5.6,21.6,9.9,32.7,13.5l1.2-153.1C994.7,839.4,992.3,839.1,989.6,838.8z"/>
</g>
</svg>
