<?xml version="1.0" encoding="utf-8"?>
<!-- Generator: Adobe Illustrator 26.0.1, SVG Export Plug-In . SVG Version: 6.00 Build 0)  -->
<svg version="1.1" id="Layer_1" xmlns="http://www.w3.org/2000/svg" xmlns:xlink="http://www.w3.org/1999/xlink" x="0px" y="0px"
	 viewBox="0 0 538 515" style="enable-background:new 0 0 538 515;" xml:space="preserve">
<style type="text/css">
	.st0{fill:#2D2D2D;}
	.st1{fill:#FFFFFF;}
	.st2{fill:#8AD5DD;}
	.st3{fill:#999999;}
</style>
<g id="Layer_1_00000061446836886830932050000008910968481895953284_">
	<path class="st0" d="M410,513H154c-8.4,0-15.4-6.9-15.4-15.4V16.4C138.6,8,145.5,1,154,1h256c8.4,0,15.4,6.9,15.4,15.4v481.3
		C425.4,506.1,418.4,513,410,513z"/>
	<rect x="158" y="46" class="st1" width="248" height="401.6"/>
	<path class="st2" d="M402,50v393.6H162V50H402 M410,42H154v409.6h256V42L410,42z"/>
	<g>
		<path class="st3" d="M312.7,26.8h-61.4c-2.8,0-5.1-2.3-5.1-5.1l0,0c0-2.8,2.3-5.1,5.1-5.1h61.4c2.8,0,5.1,2.3,5.1,5.1l0,0
			C317.8,24.5,315.5,26.8,312.7,26.8z"/>
		<path class="st3" d="M312.7,482.3h-61.4c-2.8,0-5.1-2.3-5.1-5.1l0,0c0-2.8,2.3-5.1,5.1-5.1h61.4c2.8,0,5.1,2.3,5.1,5.1l0,0
			C317.8,480,315.5,482.3,312.7,482.3z"/>
	</g>
</g>
</svg>
