<?xml version="1.0" encoding="utf-8"?>
<!-- Generator: Adobe Illustrator 26.0.1, SVG Export Plug-In . SVG Version: 6.00 Build 0)  -->
<svg version="1.1" id="Layer_1" xmlns="http://www.w3.org/2000/svg" xmlns:xlink="http://www.w3.org/1999/xlink" x="0px" y="0px"
	 viewBox="0 0 500 500" style="enable-background:new 0 0 500 500;" xml:space="preserve">
<style type="text/css">
	.st0{fill:#FFFFFF;}
	.st1{fill:#D7C8FF;}
	.st2{fill:#C1CEF1;}
	.st3{font-family:'ArialMT';}
	.st4{font-size:13.1688px;}
	.st5{fill:#EA6F44;}
	.st6{fill:#BFBFF5;}
	.st7{fill:#CEEFCE;}
	.st8{clip-path:url(#SVGID_00000054950317282379194760000016545813556025753006_);}
	.st9{fill:#ECAB7C;}
	.st10{fill:#455E42;}
	.st11{fill:#4C7249;}
	.st12{fill:#DF9463;}
	.st13{fill:#444444;}
	.st14{fill:#282828;}
	.st15{fill:#669966;}
	.st16{fill:#DCDCF7;}
	.st17{fill:#3D3D3D;}
	.st18{fill:#373837;}
	.st19{fill:#2B2B2B;}
	.st20{fill:#E59D67;}
	.st21{fill:#353535;}
	.st22{fill:#8EA88E;}
	.st23{fill:#EEB580;}
	.st24{fill:#EDA264;}
	.st25{fill:#606060;}
	.st26{fill:#212121;}
	.st27{fill:#D8D8FF;}
	.st28{opacity:0.8;fill:#D37034;enable-background:new    ;}
	.st29{fill:#A9C4A9;}
	.st30{fill:#E58D51;}
	.st31{fill:#F2A96D;}
	.st32{fill:#668466;}
	.st33{fill:#282849;}
	.st34{fill:#F0EFFF;}
	.st35{fill:#484948;}
	.st36{opacity:0.8;fill:#E59D67;enable-background:new    ;}
	.st37{opacity:0.8;fill:#DF9463;enable-background:new    ;}
	.st38{fill:#7D967A;}
	.st39{fill:#567C56;}

	#Post{
		opacity: 0;
		transform: translateX(-15px);
		animation: Appear 1.2s forwards;
	}

	#GirlR{
		opacity: 0;
		animation: UAppear 1s forwards;
		animation-delay: 0.8s;
	}

	#GirlM{
		opacity: 0;
		animation: UAppear 1s forwards;
		animation-delay: 0.8s;
	}

	#BoyL{
		opacity: 0;
		animation: UAppear 1s forwards;
		animation-delay: 0.8s;
	}

	#GCM{
		opacity: 0;
		scale: 0;
		animation: BL 0.5s forwards;
		animation-delay: 1.1s;
		transform-origin: 297px 251px;
	}

	#GCR{
		opacity: 0;
		scale: 0;
		animation: BL 0.5s forwards;
		animation-delay: 1.1s;
		transform-origin: 427px 143px;

	}

	#GHR{
		opacity: 0;
		scale: 0;
		animation: BL 0.5s forwards;
		transform-origin: 440px 143px;
		animation-delay: 1.4s;
	}

	#BCL{
		opacity: 0;
		scale: 0;
		animation: BL 0.5s forwards;
		animation-delay: 1.1s;
		transform-origin: 77px 127px;
	}

	#BHL{
		opacity: 0;
		scale: 0;
		animation: BL 0.5s forwards;
		transform-origin: 60px 143px;
		animation-delay: 1.4s;
	}

	@keyframes Appear{
		from{
			transform: translateX(-15px);
			opacity: 0;
		}
		to{
			transform: translateX(0px);
			opacity: 1;
		}
	}

	
	@keyframes UAppear{
		from{
			opacity: 0;
		}
		to{
			opacity: 1;
		}
	}
	@keyframes BL{
		from{
			opacity: 0;
			scale: 0;
		}
		to{
			opacity: 1;
			scale: 1;
		}
	}

	@keyframes Gm{

	}

	@keyframes GR{

	}
	
</style>
<g id="BACKGROUND">
</g>
<g id="OBJECTS">
	<g id="Post">
		
			<image style="overflow:visible;opacity:0.15;enable-background:new    ;" width="1146" height="1529" xlink:href="602FE81A.png"  transform="matrix(0.2398 0 0 0.2398 128.04 24.1601)">
		</image>
		<g>
			<g>
				<g>
					<path class="st0" d="M149.1,51v296.9c0,7.6,6.3,13.8,14,13.8h204.6c7.7,0,14-6.2,14-13.8V51c0-7.6-6.3-13.8-14-13.8H163.1
						C155.4,37.3,149.1,43.5,149.1,51z"/>
				</g>
				<g>
					<g>
						<g>
							<path class="st1" d="M260.9,338.6c1.2-1,1.9-2.3,1.9-3.7c0-3.1-3.4-5.6-7.6-5.6s-7.6,2.5-7.6,5.6s3.4,5.6,7.6,5.6
								c1.2,0,2.3-0.2,3.3-0.6l3.9,2.4L260.9,338.6z"/>
						</g>
						<text transform="matrix(1 0 0 1 267.3543 340.1676)" class="st2 st3 st4">67</text>
					</g>
					<g>
						<g>
							<g>
								<g>
									<path class="st5" d="M185.5,331.2c0-0.3,0-0.6-0.1-0.9c-0.4-2-2.2-3.5-4.3-3.5c-1.2,0-2.3,1-3.1,1.8
										c-0.8-0.8-1.9-1.8-3.1-1.8c-2.1,0-3.9,1.5-4.3,3.5c-0.1,0.3-0.1,0.6-0.1,0.9c0,0.1,0,0.1,0,0.2c0,0.1,0,0.2,0,0.2
										c0,4.8,7.6,8.6,7.6,8.6s7.6-3.9,7.6-8.6c0-0.1,0-0.2,0-0.2C185.5,331.4,185.5,331.3,185.5,331.2z"/>
								</g>
							</g>
							<text transform="matrix(1 0 0 1 190.0545 338.3912)" class="st6 st3 st4">120</text>
						</g>
						<g>
							<g>
								<g>
									<g id="XMLID_00000019652252596898379230000003067846410826410166_">
										<path class="st6" d="M327.1,342.6c-0.3,0-0.6-0.2-0.6-0.5c-0.2-0.8-0.4-1.7-0.4-2.5c0-4.9,3.8-8.9,8.6-9.3V328
											c0-0.3,0.2-0.5,0.4-0.6c0.2-0.1,0.5,0,0.7,0.1l5.1,5.1c0.1,0.1,0.2,0.3,0.2,0.5s-0.1,0.4-0.2,0.5l-5.1,5.1
											c-0.2,0.2-0.5,0.2-0.7,0.1s-0.4-0.4-0.4-0.6v-1.9c-3.3,0.3-6.1,2.6-7,5.8C327.7,342.4,327.5,342.6,327.1,342.6z"/>
									</g>
								</g>
							</g>
							<text transform="matrix(1 0 0 1 345.8709 339.359)" class="st6 st3 st4">34</text>
						</g>
					</g>
				</g>
				
					<rect id="XMLID_00000005247326054861753150000010428366614677341373_" x="164.5" y="56.7" class="st7" width="201.8" height="225.1"/>
				<g>
					<g>
						<defs>
							<rect id="SVGID_1_" x="164.8" y="56.7" width="201.3" height="225.1"/>
						</defs>
						<clipPath id="SVGID_00000165210541946695782380000012195373659392089788_">
							<use xlink:href="#SVGID_1_"  style="overflow:visible;"/>
						</clipPath>
						<g style="clip-path:url(#SVGID_00000165210541946695782380000012195373659392089788_);">
							<polygon class="st9" points="195.4,225.6 187.7,303.8 212.7,361.4 264.9,361.4 264.9,218.1 							"/>
							<polygon class="st9" points="333.9,225.6 341.6,303.8 316.7,361.4 264.5,361.4 264.5,218.1 							"/>
							<path class="st10" d="M182.2,275l37.2-5l-3.8-31.3c-11.5,3.4-22.4,9.1-32.3,17.9C181.3,274.7,182.2,275,182.2,275z"/>
							<path class="st11" d="M186.2,235c-1.3,9.1-2.2,16.1-2.8,21.6c9.9-8.8,20.7-14.4,32.3-17.9l-6.3-52.2
								C209.4,186.4,192.1,193.1,186.2,235z"/>
							<path class="st10" d="M322.7,239.4c-4.1-0.3-8.2-0.7-12.4-1.1l-3.8,31.7l37.2,5c0,0,1.6-0.6-3.8-39.2
								C334.4,238.3,328.6,239.6,322.7,239.4z"/>
							<path class="st11" d="M316.5,186.4l-6.2,51.8c4.2,0.4,8.3,0.8,12.4,1.1c5.9,0.2,11.8-1.1,17.1-3.5c0-0.3-0.1-0.6-0.1-0.9
								C333.8,193.1,316.5,186.4,316.5,186.4z"/>
							<g>
								<g>
									<path class="st9" d="M278,159.5c-2.3,2.3-3.6,4.5-6.5,6.3c-7.6,5.2-17.4,0.7-23.6-6.5c0,2.2-0.2,4.5-0.6,6
										c-3.4,1-6.3,9.1-9.9,10.6c-1,19.4,21,28.1,39.9,18.8c10.6-4.9,13-7.9,14.5-18.8c-4-1.1-8.4-9.7-12.6-10.6
										C278.8,164.2,278.5,162.1,278,159.5z"/>
									<path class="st12" d="M271.5,165.8c2.9-1.8,4.2-4,6.5-6.3c-0.7-3.8-0.2-8.5,0-12.7l-30.5,4.3c0,0,0.4,4.2,0.3,8.2
										C254.1,166.5,263.9,171,271.5,165.8z"/>
								</g>
								<g>
									<g>
										<path class="st12" d="M234.7,116c-1.8,0.5-2.9,2.4-3.3,4.2c-1.3,5.4,1.6,11.5,6.6,14c1.5,0.7,3.5,1.1,4.7,0
											c1.3-1.1,1.1-3.1,0.7-4.8C242.7,126.1,239.6,114.6,234.7,116z"/>
										<g>
											<g>
												<path class="st12" d="M233.2,120.3c0-0.1,0.9,0.1,1.9,0.9c1.1,0.8,2.3,2.3,3.1,4.2s0.9,3.8,0.9,5.1
													c0,1.3-0.1,2.1-0.1,2.1c-0.1,0-0.1-0.8-0.3-2.1c-0.1-1.3-0.4-3.1-1-5c-0.7-1.8-1.8-3.3-2.8-4.1
													C233.9,120.7,233.1,120.4,233.2,120.3z"/>
											</g>
											<g>
												<path class="st12" d="M237.3,131.6c-0.1,0-0.3-0.3-0.6-1c-0.3-0.6-0.7-1.5-0.8-2.6s0.1-2.1,0.4-2.7
													c0.3-0.7,0.7-0.9,0.8-0.9c0.1,0.1-0.2,0.4-0.4,1c-0.2,0.6-0.4,1.5-0.2,2.5c0.1,1,0.4,1.9,0.6,2.5
													C237.3,131.2,237.4,131.6,237.3,131.6z"/>
											</g>
										</g>
									</g>
									<g>
										<path class="st12" d="M291.3,116c1.8,0.5,2.9,2.4,3.3,4.2c1.3,5.4-1.6,11.5-6.6,14c-1.5,0.7-3.5,1.1-4.7,0
											c-1.3-1.1-1.1-3.1-0.7-4.8C283.3,126.1,286.4,114.6,291.3,116z"/>
										<g>
											<g>
												<path class="st12" d="M292.8,120.3c0-0.1-0.9,0.1-2,0.9c-1.1,0.8-2.3,2.3-3,4.2s-0.9,3.8-0.9,5.1c0,1.3,0.1,2.1,0.1,2.1
													c0.1,0,0.1-0.8,0.3-2.1c0.1-1.3,0.4-3.1,1-5c0.7-1.8,1.8-3.3,2.8-4.1C292.1,120.7,292.9,120.4,292.8,120.3z"/>
											</g>
											<g>
												<path class="st12" d="M288.7,131.6c0.1,0,0.3-0.3,0.6-1c0.3-0.6,0.7-1.5,0.8-2.6c0.1-1.1-0.1-2.1-0.4-2.7
													c-0.3-0.7-0.7-0.9-0.8-0.9c-0.1,0.1,0.2,0.4,0.4,1c0.2,0.6,0.4,1.5,0.2,2.5c-0.1,1-0.4,1.9-0.6,2.5
													C288.7,131.2,288.6,131.6,288.7,131.6z"/>
											</g>
										</g>
									</g>
								</g>
								<g>
									<g>
										<polygon class="st13" points="235.2,101.7 239.3,139 286.6,140 289.6,112 283.8,97.1 243.2,97.3 										"/>
									</g>
									<g>
										<path class="st9" d="M263.4,95.2h-0.4h-17.2l-6.4,13.1c0,0.2,0,0.5,0,0.8c0,5.3,0,25.9,0,29.2c0,4.6,4.6,11,8.7,15.9
											c3.8,4.4,9.3,6.9,15.1,6.9l0,0c5.9,0,11.5-2.6,15.2-7.1c4-4.8,8.3-11.1,8.3-15.7c0-3.3,0-23.8,0-29.2c0-0.3,0-10.2,0-10.4
											l-6.3-3.5L263.4,95.2L263.4,95.2z"/>
									</g>
								</g>
								<g>
									<g>
										<path class="st0" d="M249.4,142.2c0,0,4.6,4.4,13.9,4.4c9.3,0,13.4-5.2,13.4-5.2s-4.1,10.4-13.5,10.4
											S249.4,142.2,249.4,142.2z"/>
									</g>
								</g>
								<g>
									<g>
										<g>
											<g>
												<g>
													<path class="st14" d="M253.1,128.1c-1.2,0.2-2.6-1.3-2.8-3.3c-0.1-2,1.1-3.8,2.3-3.9c1.2-0.1,2,1.4,2.1,3.3
														C254.9,126.2,254.4,127.9,253.1,128.1z"/>
												</g>
											</g>
											<g>
												<g>
													<path class="st14" d="M272.3,128.1c1.2,0.2,2.6-1.3,2.8-3.3c0.1-2-1.1-3.8-2.3-3.9c-1.2-0.1-2,1.4-2.1,3.3
														C270.5,126.2,271.1,127.9,272.3,128.1z"/>
												</g>
											</g>
										</g>
										<g>
											<g>
												<path class="st13" d="M245.1,118.8c-0.2-0.2,0-1.1,0.9-2.3c0.9-1.2,2.5-2.5,4.5-3.2c2-0.7,4-0.6,5.4-0.2
													c1.3,0.4,2,1.1,1.9,1.3c-0.2,0.7-3.2,0-6.6,1.2C247.8,116.8,245.6,119.2,245.1,118.8z"/>
											</g>
											<g>
												<path class="st13" d="M280.4,118.4c0.2-0.2,0-1.1-0.9-2.3c-0.9-1.2-2.5-2.5-4.5-3.2c-2-0.7-4-0.6-5.4-0.2
													c-1.3,0.4-2,1.1-1.9,1.3c0.2,0.7,3.2,0,6.6,1.2C277.7,116.4,279.8,118.8,280.4,118.4z"/>
											</g>
										</g>
									</g>
									<path class="st12" d="M266,134.5c-0.2-0.6-0.6-1.3-1.2-1.7c-0.4-0.4-0.9-0.6-1.4-0.7l-0.7-13.2l-0.7,13.2
										c-0.5,0.1-1,0.3-1.4,0.6c-0.6,0.5-1,1.1-1.2,1.8c-0.5,1.3-0.5,2.6-0.2,3.8c0.3-1.2,0.7-2.4,1.3-3.3c0.6-1,1.3-1.6,2.3-1.5
										c1,0,1.8,0.6,2.3,1.5c0.6,1,0.9,2.1,1.2,3.3C266.5,137,266.5,135.7,266,134.5z"/>
								</g>
							</g>
							<g>
								<g>
									<path class="st11" d="M312.5,321.2c-1.3-12.8,0.6-50.2,2.3-82.5c-16.9-1.6-33.4-20.3-50.5-21l0,0c0,0-0.1,0-0.1,0
										c0,0-0.1,0-0.1,0l0,0c-17.9-0.8-36.4,16.6-52.5,22.3c1.7,32,3.6,68.5,2.3,81.2c-1.4,13.6-3.3,23-3.3,23
										s19.2,13.3,52.5,14.8v0c0,0,0.1,0,0.1,0c0,0,0.1,0,0.1,0v0c33.3-1.5,52.5-14.8,52.5-14.8S313.9,334.8,312.5,321.2z"/>
									<path class="st15" d="M316.9,186.4c-1.5-0.6-29.7-19-35.5-20.6c-1.5,10.9,1,13-9.6,17.9c-4.6,2.2-4.2,2.1-8.5,1.7v-1
										c0,0-0.1,0-0.1,0s-0.1,0-0.1,0v1c-4.4,0.4-4,0.6-8.5-1.7c-10.6-4.9-8.1-7.1-9.6-17.9c-5.9,1.6-34,20-35.6,20.6
										c-0.6,4.4,0.7,27.4,2.1,53.6c16.1-5.7,33.7-6.7,51.7-5.9c17.2,0.7,34.7,3.1,51.7,4.7C316.2,213.1,317.5,190.7,316.9,186.4z
										"/>
								</g>
								<g>
									<g>
										<path class="st11" d="M263.3,182.2c5.1-0.1,8.9-1.6,11.7-4.4c4.8-5,4.1-12.5,4.1-12.5l4,1.3c0,0.4,0.6,8.3-5.2,14.4
											c-3.4,3.5-8.2,5.4-14.4,5.6c-0.1,0-0.3,0-0.4,0v-4.3C263.1,182.2,263.2,182.2,263.3,182.2z"/>
									</g>
								</g>
							</g>
							<path class="st13" d="M283.3,102.2c0,0,3.4,3.6,3.4,13.1v22.1c0,0,11.4-45.1,0-46.7C277.6,89.4,283.3,102.2,283.3,102.2z"/>
							<path class="st13" d="M284.1,100.8c2.5-4,3.3-9,1.8-13.6c-1.1-3.2-3.4-6.4-8-7.8c-11.4-3.5-22,1.6-26.1-7.4
								c0,0-1.1,5.7,3,8.8c0,0-5.7-4.9-16.7,2.1c-11,6.9-16,5.5-17.3,3.9c-1.3-1.6,8.3,37.4,34,14.3c0,0,0.6,3-4.2,7.3
								c0,0,22.9,3.8,32.8-6.2L284.1,100.8z"/>
							<g>
								<g>
									<path class="st11" d="M263,182.2c-5.1-0.1-8.9-1.6-11.7-4.4c-4.8-5-4.1-12.5-4.1-12.5l-4,1.3c0,0.4-0.6,8.3,5.2,14.4
										c3.4,3.5,8.2,5.4,14.4,5.6c0.1,0,0.3,0,0.4,0v-4.3C263.2,182.2,263.1,182.2,263,182.2z"/>
								</g>
							</g>
						</g>
					</g>
				</g>
				<g>
					<path class="st16" d="M264.2,317.1h-96.4c-0.6,0-1-0.5-1-1v-0.2c0-0.5,0.4-1,1-1h96.4c0.5,0,1,0.5,1,1v0.2
						C265.2,316.6,264.7,317.1,264.2,317.1z"/>
					<path class="st16" d="M363.1,311H167.8c-0.6,0-1-0.5-1-1v-0.2c0-0.5,0.4-1,1-1h195.3c0.5,0,1,0.5,1,1v0.2
						C364.1,310.5,363.6,311,363.1,311z"/>
					<path class="st16" d="M363.1,304.9H167.8c-0.6,0-1-0.5-1-1v-0.2c0-0.5,0.4-1,1-1h195.3c0.5,0,1,0.5,1,1v0.2
						C364.1,304.5,363.6,304.9,363.1,304.9z"/>
					<path class="st16" d="M363.1,298.8H167.8c-0.6,0-1-0.5-1-1v-0.2c0-0.5,0.4-1,1-1h195.3c0.5,0,1,0.5,1,1v0.2
						C364.1,298.4,363.6,298.8,363.1,298.8z"/>
				</g>
			</g>
		</g>
	</g>
	<g>
		<g id="GirlM">
			<g>
				<polygon class="st17" points="213.6,396.1 317.8,396.1 275.2,420.9 236.4,412.3 				"/>
				<g>
					<g>
						<path class="st18" d="M294.5,432.1c0,0,15.1,5.8,28.3,4.7s15.6-4.2,15.6-7.8c0-3.6-26-13-44.6-4.7L294.5,432.1z"/>
						<path class="st19" d="M241.6,397.1c-24-11.8-40-6.8-46.4,0.3c-6.5,7.1-2.9,15.2,27.4,24.2c27.5,8.1,57.4,6.4,71.9,10.5
							l-0.6-7.8C288.8,421.3,262.9,407.5,241.6,397.1z"/>
						<path class="st20" d="M293.8,424.2c0,0-0.7,7.7,0.6,7.8c14.8,1.9,29.9,4.9,29.9-3.5C324.4,420,293.8,424.2,293.8,424.2z"/>
					</g>
					<g>
						<path class="st18" d="M236.4,432.1c0,0-15.1,5.8-28.3,4.7c-13.1-1.1-15.6-4.2-15.6-7.8c0-3.6,26-13,44.6-4.7L236.4,432.1z"/>
						<path class="st19" d="M289.2,397.1c24-11.8,40-6.8,46.4,0.3c6.5,7.1,2.9,15.2-27.4,24.2c-27.5,8.1-57.4,6.4-71.9,10.5l0.6-7.8
							C242,421.3,267.9,407.5,289.2,397.1z"/>
						<path class="st20" d="M237,424.2c0,0,0.7,7.7-0.6,7.8c-14.8,1.9-29.9,4.9-29.9-3.5C206.4,420,237,424.2,237,424.2z"/>
					</g>
				</g>
			</g>
			<g>
				<g>
					<path class="st21" d="M250.6,272c-5,4.2-8.2,10.6-8.5,17.2c-0.1,3.3,0.4,6.6,0.4,10c0.1,15-14,28.4-15.1,43.4
						c-0.7,9.2,2.4,18.8,8.6,25.6s19.8,10.7,29,9.7v-63.6L250.6,272z"/>
					<path class="st21" d="M280.2,272c5,4.2,8.2,10.6,8.5,17.2c0.1,3.3-0.4,6.6-0.4,10c-0.1,15,14,28.4,15,43.4
						c0.7,9.2-2.4,18.8-8.6,25.6s-19.8,10.7-29,9.7l-0.5-63.6L280.2,272z"/>
				</g>
				<g>
					<path class="st22" d="M297.9,338.2c-2.1-11.5-16.4-11-21.7-14.9l0,0h0c-1.9,4.1-9.3,9.4-10.7,10.4c-0.1,0.1-0.2,0.2-0.2,0.2
						c-4.7-2.7-10.7-10.5-10.7-10.5h0h0c-5.3,3.9-19.6,3.4-21.7,14.9c-2.4,13.1-11.1,50.2-7.6,53.3c3.6,3.1,9.8-0.3,9.8-0.3l8.1-34
						c0,0,8.3,17.2,3,34.5l19.2-0.8l19.2,0.8c-5.3-17.3,3-34.5,3-34.5l8.1,34c0,0,6.2,3.4,9.8,0.3
						C309,388.4,300.4,351.3,297.9,338.2z"/>
					<path class="st23" d="M256.9,319.1c-0.2,0.8-0.4,1.5-0.7,2.2c-0.3,0.8-0.9,1.4-1.6,2h0h0c0,0,6,7.8,10.7,10.5
						c0,0,0.1-0.1,0.2-0.2c1.4-1,8.8-6.2,10.7-10.4h0l0,0c-0.7-0.5-1.3-1.2-1.6-2c-0.3-0.6-0.5-1.3-0.6-1.9c-1.4,1.2-3,2.3-4.7,3.2
						C265.4,324.1,259.8,322.6,256.9,319.1z"/>
					<path class="st24" d="M274.6,306.2h-9.1h-0.2h-9.1c0,0,2.1,7,0.7,12.9c2.8,3.5,8.5,5,12.4,3.5c1.7-0.9,3.2-1.9,4.7-3.2
						C272.4,313.4,274.6,306.2,274.6,306.2z"/>
				</g>
			</g>
			<g>
				<g>
					<g>
						<g>
							<path class="st25" d="M295.4,393.8h-60c-1.3,0-2.4-1.1-2.4-2.4v-36.9c0-1.3,1.1-2.4,2.4-2.4h60c1.3,0,2.4,1.1,2.4,2.4v36.9
								C297.9,392.7,296.8,393.8,295.4,393.8z"/>
						</g>
					</g>
					<g>
						<g>
							<path class="st26" d="M231.7,394.9v0.9c0,1.4,1.1,2.5,2.5,2.5h62.5c1.4,0,2.5-1.1,2.5-2.5v-0.9c0-0.6-0.5-1.1-1.1-1.1h-65.3
								C232.1,393.8,231.7,394.3,231.7,394.9z"/>
						</g>
					</g>
					<g>
						<g>
							<rect x="239.3" y="393.8" class="st27" width="9.8" height="0.8"/>
						</g>
						<g>
							<rect x="281.7" y="393.8" class="st27" width="9.8" height="0.8"/>
						</g>
					</g>
				</g>
			</g>
			<g>
				<path class="st23" d="M285,289.2c0,11.6-10.6,29.1-19.9,29.1c-8,0-18.8-17.5-18.8-29.1c0-11.6,7.2-21,18.8-21
					C276.7,268.3,285,277.6,285,289.2z"/>
				<g>
					<g>
						<path class="st14" d="M258.7,294.2c-0.4,0-0.8,0.3-1,0.7c-0.4-0.3-0.8-0.7-1-1.1c-0.3,0.7,0,1.6,0.6,2.1
							c0,0.1-0.1,0.3-0.1,0.5c-0.8,0.1-1.6-0.2-2.1-0.7c0.5,0.7,1.3,1.2,2.1,1.3c0.1,1.3,1,2.2,1.8,2.1c0.8-0.1,1.2-1.2,1.1-2.6
							C260.1,295.1,259.5,294.1,258.7,294.2z"/>
						<path class="st14" d="M275.8,295.6c-0.6,0.5-1.4,0.7-2.1,0.7c0-0.1,0-0.3-0.1-0.5c0.6-0.5,0.9-1.3,0.6-2.1
							c-0.2,0.5-0.6,0.9-1,1.1c-0.3-0.4-0.7-0.7-1-0.7c-0.8-0.1-1.4,0.9-1.4,2.2c-0.1,1.3,0.3,2.5,1.1,2.6c0.8,0.1,1.7-0.8,1.8-2.1
							C274.5,296.8,275.3,296.3,275.8,295.6z"/>
					</g>
					<g>
						<g>
							<path class="st14" d="M253.7,292.1c-0.1-0.1,0-0.8,0.6-1.5c0.6-0.8,1.7-1.6,3-2.1c1.4-0.5,2.7-0.4,3.6-0.1
								c0.9,0.3,1.3,0.7,1.3,0.9c-0.1,0.4-2.1,0-4.4,0.8C255.4,290.8,254,292.4,253.7,292.1z"/>
						</g>
						<g>
							<path class="st14" d="M277.1,291.9c0.1-0.1,0-0.8-0.6-1.5s-1.7-1.6-3-2.1c-1.4-0.5-2.7-0.4-3.6-0.1c-0.9,0.3-1.3,0.7-1.3,0.9
								c0.1,0.4,2.1,0,4.4,0.8C275.4,290.5,276.8,292.2,277.1,291.9z"/>
						</g>
					</g>
					<path class="st0" d="M259.4,308.8c0,0,6.8,2.5,12.5-0.6c0,0-2,5.2-6.5,5.3C260.9,313.5,259.4,308.8,259.4,308.8z"/>
					<path class="st28" d="M263.2,304.3c-0.2-0.8-0.2-1.6,0.1-2.4c0.1-0.4,0.4-0.8,0.8-1.1c0.4-0.3,0.9-0.5,1.4-0.5
						c0.5,0,1,0.1,1.4,0.5c0.4,0.3,0.6,0.7,0.8,1.1c0.3,0.8,0.3,1.6,0.1,2.4c-0.2-0.8-0.5-1.5-0.8-2.1c-0.4-0.6-0.8-0.9-1.4-0.9
						c-0.6,0-1,0.3-1.4,0.9C263.6,302.9,263.4,303.6,263.2,304.3z"/>
				</g>
				<g>
					<g>
						<path class="st13" d="M242.7,283.6c-2.2,7.4-2.5,15.3-0.7,22.9c1.6,6.8,4.7,13.6,3.2,20.3c-1.3,6.1-6.3,11.4-6.8,17.5
							c-0.3,3.4,0.8,6.9,3.1,9.7c-0.7-5,2.9-9.6,6.7-13.4c3.8-3.8,8.2-7.6,9.6-12.4c1.6-5.4-0.8-11.1-3.4-16.4s-5.5-10.7-4.8-16.3
							c0.4-3.4,2.2-6.6,2.7-10c0.1-0.6,0.1-1.3-0.1-1.9c-0.4-1.1-1.7-1.9-3.1-2.3c-1.4-0.4-2.8-0.3-4.2-0.3"/>
						<path class="st13" d="M288.1,283.6c2.2,7.4,2.5,15.3,0.7,22.9c-1.6,6.8-4.7,13.6-3.2,20.3c1.3,6.1,6.3,11.4,6.8,17.5
							c0.3,3.4-0.8,6.9-3.1,9.7c0.7-5-2.9-9.6-6.7-13.4c-3.8-3.8-8.2-7.6-9.6-12.4c-1.6-5.4,0.8-11.1,3.4-16.4s5.5-10.7,4.8-16.3
							c-0.4-3.4-2.2-6.6-2.7-10c-0.1-0.6-0.1-1.3,0.1-1.9c0.4-1.1,1.7-1.9,3.1-2.3c1.4-0.4,2.8-0.3,4.2-0.3"/>
					</g>
					<path class="st13" d="M277.2,290c2.5,4.1,3,9.1,1.2,13.3c3.9-4.3,7.8-8.7,9.1-14.2c1.2-4.8,0.2-10-2.1-14.6
						c-0.5-1-5.6-8-9.6-6.4C272.3,269.5,267.7,274.1,277.2,290z"/>
					<path class="st13" d="M253.9,283.6c0,0-6.1,10.4-0.8,19c0,0-5.6-1.1-6.1-9.3C246.6,285.2,253.9,283.6,253.9,283.6z"/>
					<path class="st13" d="M262.5,261.7c-3.9,0-16.7,5.3-21.3,17.6c-1.6,4.3-0.7,11.5-0.2,12.6c0.9,1.9,3.6-5.9,5.8-5.5
						c2.2,0.4,4.5,0.1,6.6-0.3c3.5-0.7,7.2-1.7,9.6-4.2c-0.8,1.9-2.7,3.4-4.9,3.8c1.6,1,3.8,0.9,5.7,0.5c3.8-1,6.8-3.6,8.7-6.8
						C276.7,272.2,276.4,261.9,262.5,261.7z"/>
				</g>
				<g>
					<g>
						<g>
							<path class="st0" d="M274.9,304.5c0,0-0.1,0-0.1,0c-4.5-0.1-8.2-3.8-8.1-8.4c0-2.2,0.9-4.2,2.5-5.8c1.6-1.5,3.6-2.4,5.9-2.3
								c4.5,0.1,8.2,3.8,8.1,8.4C283,300.9,279.3,304.5,274.9,304.5z M274.9,289c-1.9,0-3.6,0.7-5,2c-1.4,1.3-2.2,3.1-2.2,5.1l0,0
								c-0.1,4,3.1,7.2,7.1,7.3c0,0,0.1,0,0.1,0c3.9,0,7.1-3.1,7.2-7.1c0.1-4-3.1-7.2-7.1-7.3C274.9,289,274.9,289,274.9,289z"/>
						</g>
						<g>
							<path class="st0" d="M255.9,304.5c0,0-0.1,0-0.1,0c-4.5-0.1-8.2-3.8-8.1-8.4c0-2.2,0.9-4.2,2.5-5.8c1.6-1.5,3.7-2.4,5.9-2.3
								c2.2,0,4.2,0.9,5.8,2.5c1.5,1.6,2.4,3.7,2.3,5.9C264.1,300.9,260.4,304.5,255.9,304.5z M255.9,289c-1.9,0-3.6,0.7-5,2
								c-1.4,1.3-2.2,3.1-2.2,5.1c-0.1,4,3.1,7.2,7.1,7.3c0,0,0.1,0,0.1,0c3.9,0,7.1-3.1,7.2-7.1c0-1.9-0.7-3.7-2-5.1
								c-1.3-1.4-3.1-2.2-5.1-2.2C256,289,256,289,255.9,289z"/>
						</g>
					</g>
					<g>
						<path class="st0" d="M263.9,298.3l-0.9-0.5c0,0,0.6-1,2.3-1c1.6,0,2.3,0.8,2.4,0.9l-0.8,0.6c0,0-0.4-0.5-1.5-0.5
							C264.3,297.8,263.9,298.3,263.9,298.3z"/>
					</g>
				</g>
			</g>
		</g>
		<g id="GCM">
			<path class="st29" d="M303.6,260.8c0,0,1.3,5.6-5.2,12.5c0,0,13.4-3.9,17.3-12.5H303.6z"/>
			<g>
				<path class="st29" d="M322.5,264.3H294c-3.3,0-6-2.7-6-6v-17c0-3.3,2.7-6,6-6h28.5c3.3,0,6,2.7,6,6v17
					C328.4,261.6,325.8,264.3,322.5,264.3z"/>
				<g>
					<path class="st0" d="M300.9,249.9c0,1.5-1.2,2.7-2.7,2.7s-2.7-1.2-2.7-2.7s1.2-2.7,2.7-2.7S300.9,248.3,300.9,249.9z"/>
					<path class="st0" d="M311,249.9c0,1.5-1.2,2.7-2.7,2.7s-2.7-1.2-2.7-2.7s1.2-2.7,2.7-2.7C309.7,247.1,311,248.3,311,249.9z"/>
					<path class="st0" d="M321,249.9c0,1.5-1.2,2.7-2.7,2.7s-2.7-1.2-2.7-2.7s1.2-2.7,2.7-2.7S321,248.3,321,249.9z"/>
				</g>
			</g>
		</g>
	</g>
	<g>
		<g id="GirlR">
			<path class="st20" d="M410.1,424.3L410.1,424.3c-1-0.5-2.1-1-3.3-1.7c-7.6-4.3-11-11-11-11s-0.8,0.3-5.3,0c-0.8,0-1.3,0.3-1.5,1
				c2.9,8,9.6,16.4,18.1,15.3C408.8,427.5,410.1,426,410.1,424.3z"/>
			<path class="st18" d="M410.1,424.3L410.1,424.3c0,1.8-1.3,3.2-3.1,3.5c-8.5,1.1-15.1-7.3-18.1-15.3c-1.1,3,3,11.8,3,11.8l8.6,8.1
				c0,0,17.5,3.9,17.4-1.2C418,426.9,415.5,426.8,410.1,424.3z"/>
			<path class="st13" d="M400.1,133.1c-3.5-0.4-3.4,10.1,2.4,37.7c3,14.3-5,15.5-8.3,18c-2.3,1.7-5.2,2.3-8.1,2.5
				c-5.4,0.3-11.3-1.3-14.8-5.4c-1.7-1.9-2.7-4.4-3.5-6.8c-2.9-9.3-1.9-19.7,2-28.6c1.2-2.9,2.8-5.6,4.8-8c1.7-1.9,3.7-3.6,5.8-5
				c3.6-2.5,7.7-4.6,12-4.2"/>
			<path class="st13" d="M384.2,118.2c0,0-14.1-10.7-25.3,3.5s2.2,72-8.6,104.8l2.3,3.9c0,0,5.2-9.6,6.3-27.5c0,0-1.9,21.6-4.9,30.8
				c0,0,10.1,7.1,30.2,3.6L372,176.7c0,0-15.9-30.8-2.3-40.3c13.7-9.5,12.1-6.9,12.1-6.9l14.5,13.1c0,0,7.8-6.1,5.8-16.1
				C400.1,116.4,387.5,113.1,384.2,118.2z"/>
			<path class="st20" d="M384.6,167.2c-0.8-2.7,1.2-10.2,1.2-10.2l-14.9-7.9c0,0,3.3,9.6,3.1,16.8
				C377.3,167.5,380.9,167.8,384.6,167.2z"/>
			<path class="st23" d="M384.7,167.6c0-0.1-0.1-0.2-0.1-0.3c-3.7,0.5-7.3,0.3-10.6-1.3c0,1.1-0.1,2.1-0.4,3.1
				c-1.7,7.1-7.5,13.7-6.4,29.4c1.1,15.7,28.7-20.4,28.7-20.4S385.8,170,384.7,167.6z"/>
			<path class="st20" d="M414.2,332.3c-21.5,12.5-23.1,71.4-23.1,71.4l4.8,10.2l32.4-76.6c1.6-3.9,1.9-8.2,0.7-12.2l-3.6-12.2
				c-5.7,3.4-11.9,6.1-18.3,8.3L414.2,332.3z"/>
			<path class="st30" d="M404.5,317l2.6,4.2c6.4-2.2,12.6-4.9,18.3-8.3l-0.5-1.8C418.3,313.5,411.5,315.5,404.5,317z"/>
			<path class="st23" d="M411.2,440.2c1.7,0,5.3-1.3,4.5-3.5c-7.6-5-18.6-10.6-18.6-10.6l-8.2-0.7c0,3.3-0.3,3.9-0.6,4.9
				C396.1,435.4,402.2,441.2,411.2,440.2z"/>
			<path class="st18" d="M415.6,436.7c0.9,2.1-2.8,3.5-4.5,3.5c-9,1-15-4.8-22.9-9.8c-2.1,6.9,0.8,9.3,2.6,10.1
				c0.9,0.4,1.7,0.9,2.5,1.4c3.3,2.4,13.6,9.4,25.6,5.2c1.4-0.5,3-1.2,3.2-3.4C422.5,441.8,420.6,439.9,415.6,436.7z"/>
			<g>
				<path class="st11" d="M429.6,191.5l-29.5,33.4l0.6-15.8c0,0-4.5-3.6,26.4-20.4L429.6,191.5z"/>
				<path class="st20" d="M429.6,191.5l8-4.8c0,0-2.8-7.9-5.5-8.2c0,0,0.5,1.3,0.5-1.7c-0.1-3-1.6-5.2-3.5-2.1s-4.8,9.8-3.7,15.1
					L429.6,191.5z"/>
			</g>
			<path class="st31" d="M394.1,318.8c-9.7,1.4-12.7-3.6-22.8-4.3c0.1,0.6-0.3,6,0.1,16c7.5-1.8,15.1-3.4,22.6-5.3
				C394,323,394.1,320.9,394.1,318.8z"/>
			<path class="st23" d="M371.4,330.4c0.7,18,4.1,50.7,17.7,96.5h9.1c0,0-5.2-47.9-4.2-101.9C386.5,327,378.9,328.6,371.4,330.4z"/>
			<path class="st10" d="M384.1,232.5l-5.8,0.7c1.8,2.8,3.1,4.4,3.1,4.4h6.1c-0.3-0.4-0.5-0.9-0.8-1.3
				C385.8,235,385,233.8,384.1,232.5z"/>
			<path class="st11" d="M402.8,230.1l-18.7,2.4c0.9,1.3,1.8,2.6,2.6,3.9c0.3,0.4,0.6,0.9,0.8,1.3h15.9L402.8,230.1z"/>
			<path class="st32" d="M378.4,233.2l5.8-0.7c-7.5-10.9-15.2-22-17.4-34.4C367.3,213.6,374.2,226.7,378.4,233.2z"/>
			<path class="st22" d="M400.8,207.2c0,0,6.1-8.4,5.5-14.4s-12.1-16.5-12.1-16.5s3.8,8.9-15.2-3.9c-2.3-1.5-5.5,1-7.7,2.9
				c-2.5,2.2-2.9,6-3.9,11.5c-0.7,3.8-0.9,7.6-0.7,11.2c2.2,12.3,10,23.4,17.4,34.4l18.7-2.4L400.8,207.2z"/>
			<g>
				
					<rect x="420.4" y="175.5" transform="matrix(0.4289 -0.9034 0.9034 0.4289 85.6233 498.5527)" class="st33" width="33.4" height="12.2"/>
				
					<rect x="420.8" y="176.9" transform="matrix(0.4289 -0.9033 0.9033 0.4289 85.4813 497.448)" class="st34" width="30.7" height="8.5"/>
			</g>
			<g>
				<path class="st10" d="M383.5,183l23.6,37.6l-3.6,11.7c0,0-28.4-29.3-31.6-35.4c-3.2-6.1-5.7-9.2-1.9-15.4c2.5-4,5.8-3.9,8.3-2.9
					C380.4,179.5,382.2,181.1,383.5,183z"/>
				<path class="st10" d="M434,198.8l-30.5,33.6l0.7-15.8c0,0-4.6-3.6,27.3-20.5L434,198.8z"/>
				<path class="st23" d="M434,198.8l10-5.9l2.1-8.4l-0.7-6.9c-0.1-1.1-1.6-1.4-2.1-0.4c-1.9,3.6-4.9,8.8-6.6,8.6
					c0,0-2.5,0.7-2.6-2.3c-0.1-3-1.6-5.2-3.6-2.1c-1.9,3.1-1.9,10.4-0.8,15.7L434,198.8z"/>
			</g>
			<path class="st23" d="M395.9,132.8c2.5,8.2,0.8,6,0.8,9.2c-0.1,14-4.7,31.5-29.5,15.9c0,0-13.7-13.6-3.4-24.3
				c7.5-7.8,17-11.6,24.3-9.9C392.4,124.7,394.6,128.3,395.9,132.8z"/>
			<path class="st13" d="M393.8,121.7c0,0,0.1,0.2,0.1,0.5c0.7,2.3,2.9,12.8-11.2,16.7c0,0,4.3-5.6,4.8-7.9c0,0-3.9,4.7-8.4,4.5
				c-2-0.1-2.9,4.5-3.4,9.9c-0.6,7.1-9.1,0.9,0.1,17.1c5.1,9.1,7.5,8.2,7.3,14c-0.4,8-12.7,1.6-18.7,14.2s-10.7-44.2-3.7-56.5
				s33.2-12.2,33.2-12.2"/>
			<path class="st35" d="M402.1,236.3l-16.9,1c14.9,22.2-5,47.3-8.2,71.4c-0.5,3.7-0.7,7.5-0.7,11.3c24.5-0.5,42.9-6.9,48.6-8.9
				L402.1,236.3z"/>
			<path class="st18" d="M387.3,237.3l-5.9,0.4c0,0-22.9,10-15.5,82c4.5,0.3,8.8,0.4,13,0.3c0-3.8,0.2-7.5,0.7-11.3
				C382.6,284.6,401.4,259.5,387.3,237.3z"/>
			<g>
				<g>
					<path class="st14" d="M379.7,138.4c-0.1-0.1,0.2-0.7,0.9-1.4c0.7-0.6,1.9-1.3,3.4-1.5c1.4-0.2,2.7,0.1,3.5,0.6
						c0.8,0.4,1.2,0.9,1.1,1.1c-0.2,0.4-2.1-0.4-4.5-0.1C381.7,137.4,380,138.7,379.7,138.4z"/>
				</g>
				<g>
					<path class="st36" d="M379.7,153.6c0.2,0,0.5,0.4,1.1,1c0.6,0.6,1.6,1.3,2.9,1.8c1.3,0.5,2.6,0.6,3.6,0.6c1,0,1.6-0.1,1.6,0.1
						c0.1,0.1-0.5,0.4-1.5,0.5c-1,0.1-2.6,0.1-4.2-0.5s-2.6-1.5-3.1-2.2C379.6,154.1,379.6,153.6,379.7,153.6z"/>
				</g>
				<g>
					<path class="st14" d="M393,136.4c0-0.2,0.4-0.3,0.9-0.2s1.3,0.4,1.9,0.9c0.7,0.5,1.1,1.2,1.3,1.8c0.2,0.6,0.1,1,0,1
						c-0.2,0-0.3-0.2-0.6-0.6c-0.3-0.3-0.8-0.8-1.4-1.2C394,137.2,392.9,136.7,393,136.4z"/>
				</g>
				<path class="st37" d="M391.2,140.5c-0.5,1.2-0.9,2.4-1.2,3.6c-0.3,1.2-0.5,2.5-0.6,3.7l-0.1,0.9l0,0.2c0,0.1,0,0.2,0,0.3
					c0,0.2,0.1,0.4,0.1,0.6c0.1,0.4,0.4,0.8,0.7,1c0.2,0.1,0.4,0.2,0.6,0.3c0.1,0,0.1,0.1,0.2,0.1c0.2,0.2,0.3,0.8,0,1.2
					c-0.2,0.5-0.7,0.9-1.2,1.3c0.6-0.2,1.2-0.4,1.7-1c0.2-0.3,0.4-0.6,0.5-1c0.1-0.4,0-0.9-0.3-1.2c-0.1-0.2-0.4-0.4-0.6-0.4
					c-0.1-0.1-0.2-0.1-0.2-0.2c-0.1-0.1-0.2-0.3-0.3-0.5c0-0.1,0-0.2,0-0.3c0-0.1,0-0.1,0-0.2l0-0.2l0.1-0.9l0.3-3.7
					C391.1,143,391.2,141.7,391.2,140.5z"/>
				<path class="st14" d="M385,140.6c-0.3,0-0.6,0.2-0.9,0.5c-0.3-0.3-0.6-0.6-0.7-1c-0.3,0.6-0.1,1.3,0.3,1.7
					c0,0.1-0.1,0.2-0.1,0.4c-0.6,0-1.2-0.3-1.7-0.7c0.3,0.6,0.9,1.1,1.6,1.2c0,1,0.6,1.9,1.3,1.8c0.7,0,1.1-0.9,1.1-2
					C386,141.5,385.7,140.6,385,140.6z"/>
				<path class="st14" d="M394.9,143.2c0-0.1,0-0.2,0-0.4c0.5-0.3,0.8-1,0.7-1.6c-0.2,0.4-0.5,0.6-0.9,0.9c-0.2-0.4-0.5-0.6-0.8-0.7
					c-0.7-0.1-1.1,0.6-1.3,1.7c-0.1,1.1,0.1,2,0.7,2.1c0.6,0.1,1.4-0.5,1.6-1.6c0.7,0,1.4-0.4,1.8-0.9
					C396.2,143.2,395.5,143.3,394.9,143.2z"/>
			</g>
			<g>
				<path class="st23" d="M367.6,137.3c-1.2,0.3-1.9,1.5-2.2,2.7c-0.9,3.5,0.9,7.6,4.1,9.3c1,0.5,2.3,0.8,3.1,0.1
					c0.9-0.7,0.8-2.1,0.6-3.1C372.7,144.1,370.8,136.4,367.6,137.3z"/>
				<g>
					<g>
						<path class="st12" d="M367.2,140.6c-0.4-0.3-0.7-0.5-0.7-0.5c0,0,0.6,0.1,1.3,0.7c0.7,0.5,1.5,1.6,1.9,2.8s0.5,2.5,0.5,3.4
							c0,0.9-0.1,1.4-0.1,1.4c0,0-0.1-0.5-0.1-1.4c-0.1-0.9-0.2-2.1-0.6-3.3c-0.4-1.2-1.1-2.2-1.8-2.8
							C367.5,140.8,367.3,140.7,367.2,140.6"/>
					</g>
					<g>
						<path class="st12" d="M369,147.6c0,0-0.2-0.2-0.4-0.6c-0.2-0.4-0.4-1-0.5-1.7s0.1-1.4,0.3-1.8c0.2-0.4,0.5-0.6,0.5-0.6
							c0,0-0.1,0.3-0.3,0.7c-0.1,0.4-0.3,1-0.2,1.6c0.1,0.7,0.2,1.2,0.4,1.7C369,147.3,369.1,147.6,369,147.6z"/>
					</g>
				</g>
			</g>
		</g>
		<g id="GCR">
			<g>
				<path class="st38" d="M438.6,138.3c0,0-1.3,5.6,5.2,12.6c0,0-13.4-3.9-17.3-12.6H438.6z"/>
				<g>
					<path class="st38" d="M419.7,141.8h28.5c3.3,0,6-2.7,6-6v-17c0-3.3-2.7-6-6-6h-28.5c-3.3,0-6,2.7-6,6v17
						C413.8,139.1,416.5,141.8,419.7,141.8z"/>
					<g>
						<path class="st0" d="M441.4,127.4c0,1.5,1.2,2.7,2.7,2.7s2.7-1.2,2.7-2.7s-1.2-2.7-2.7-2.7
							C442.6,124.6,441.4,125.8,441.4,127.4z"/>
						<path class="st0" d="M431.2,127.4c0,1.5,1.2,2.7,2.7,2.7s2.7-1.2,2.7-2.7s-1.2-2.7-2.7-2.7
							C432.5,124.6,431.2,125.8,431.2,127.4z"/>
						<path class="st0" d="M421.1,127.4c0,1.5,1.2,2.7,2.7,2.7s2.7-1.2,2.7-2.7s-1.2-2.7-2.7-2.7
							C422.4,124.6,421.1,125.8,421.1,127.4z"/>
					</g>
				</g>
			</g>
		</g>
		<g id="GHR">
			<circle class="st5" cx="457.2" cy="145.5" r="11.1"/>
			<g>
				<g>
					<path class="st0" d="M462.6,144.3c0-0.2,0-0.5-0.1-0.7c-0.3-1.4-1.6-2.5-3.1-2.5c-0.9,0-1.7,0.7-2.3,1.3
						c-0.6-0.6-1.4-1.3-2.3-1.3c-1.5,0-2.8,1.1-3.1,2.5c0,0.2-0.1,0.4-0.1,0.7c0,0.1,0,0.1,0,0.2s0,0.1,0,0.2c0,3.5,5.5,6.3,5.5,6.3
						s5.5-2.8,5.5-6.3c0-0.1,0-0.1,0-0.2C462.6,144.4,462.6,144.4,462.6,144.3z"/>
				</g>
			</g>
			<polygon class="st5" points="455,154.9 446.9,160 450.1,149.9 			"/>
		</g>
	</g>
	<g>
		<g id="BoyL">
			<g>
				
					<rect x="77.3" y="153.3" transform="matrix(0.8941 -0.4478 0.4478 0.8941 -67.1169 56.3986)" class="st33" width="16.8" height="33.7"/>
			</g>
			<path class="st23" d="M93.2,163.6l-3.7-3l-0.9-0.7c-1-0.8-2.4-0.9-3.5-0.1l-8.1,5.7l0.2,12.9l1.9,7.4l2.1,0.2l2.8,0.3
				c1.4,0.1,2.7-0.4,3.7-1.4l1.1-1.2c1.1-1.2,1.4-2.9,0.9-4.4l-0.2-0.7l-0.6-1.5l5-9.7C94.6,166,94.2,164.5,93.2,163.6z"/>
			<path class="st23" d="M79.1,185.8c0,0,7.5,29.2,14.5,34s9.7,4,9.7,4s8.1-8.8-1.2-19.5c-10.1-11.6-14.3-19.4-14.3-19.4L79.1,185.8
				z"/>
			<path class="st23" d="M99.7,207.7l3.6,16c0,0,6.6-7.4,13.8-15.3c-2.5-5-5.3-9.6-7.9-14.4C104.3,201,99.7,207.7,99.7,207.7z"/>
			<path class="st11" d="M132.7,173c-3.3-2.6-6.7-1.4-9.7,1.4c-1.1,1.1-2.1,2.3-3,3.7c-1.7,2.5-6.3,9.3-10.8,15.8
				c2.6,4.9,5.4,9.5,7.9,14.4c4.9-5.4,10-10.9,13.4-14.5C139,185.2,137.2,176.6,132.7,173z"/>
			<path class="st21" d="M92.8,426.2l29.5-171.8l24.3,5.4c-0.1,50.3-40.1,171.9-40.1,171.9L92.8,426.2z"/>
			<path class="st19" d="M93.1,425.1l-28.5,11.4c-1.7,0.7-2.8,2.3-2.8,4.1l0,0c0,2.4,2,4.4,4.4,4.4l40,0c0,0,3.9-8.9,0.3-13.6
				L93.1,425.1z"/>
			<path class="st19" d="M154,365.3l0.4,30.7c0,1.8,1.1,3.4,2.8,4l0,0c2.3,0.9,4.8-0.3,5.7-2.5l14.3-37.3c0,0-6.9-6.8-12.5-5.2
				L154,365.3z"/>
			<path class="st13" d="M135.9,316c10.9-8.6,22.3-18.3,25-22.9c5.4-9.4,2.8-29.5,2.8-29.5l-8.8-1.8c-2.8,12.6-5.8,25.2-9.8,37.7
				C143.1,305.4,140,311,135.9,316z"/>
			<path class="st13" d="M139,316c3.6-5,6.4-10.6,8.2-16.5c3.5-12.5,6.2-25.1,8.7-37.7l-19-4.3L133,274l-0.8,3.2l-39.8,48
				c-2.4,2.9-3.7,6.7-3.5,10.5l0,0c0.3,5.9,4.1,11.1,9.6,13.2l55.6,21.9l10.4-15.8l-45.4-22.1C119.2,332.9,128.8,325,139,316z"/>
			<path class="st15" d="M158.4,167l-20.1-1.6l-13.1,7.5c-1.2,14.4-2.8,81.5-2.8,81.5l33.5,7.5c5.5-27.9,9.7-56,18.5-82.6L158.4,167
				z"/>
			<path class="st39" d="M155.9,261.9l7.9,1.8c12.9-47.5,15-81,15-81l-4.3-3.3C165.6,205.9,161.4,233.9,155.9,261.9z"/>
			<g>
				<g>
					<path class="st23" d="M173.5,255.6l0.9-1.9l-5.4-5.4l-11-6.7l-8,3.7c-1.8,0.8-2.8,2.7-2.5,4.6l0.5,3.6c0.3,2,2,3.6,4.1,3.7
						l9.7,0.5l1,1.2C166.8,260.6,170.3,258.4,173.5,255.6z"/>
				</g>
				<g>
					<path class="st23" d="M170.4,249.2c-1.9-2.3-3.5-6.6-4.1-9.6c-0.1-0.4-0.2-0.9-0.4-1.2c-0.2-0.4-0.6-0.7-1.1-0.6
						c-0.6,0-1,0.7-1.2,1.3c-0.4,1.2-0.3,2.6-0.2,3.9c0.2,1.9,0.8,3.7,1.6,5.5"/>
				</g>
			</g>
			<path class="st23" d="M195.8,203.7c-2.9,4.4-6.7,8.1-10.6,11.9c1.7,1.5,3.3,2.8,4.8,3.8l-21.2,30.4l5.5,3.9
				c0,0,32.1-22.1,32-30.1C206.3,219.9,201.5,211.8,195.8,203.7z"/>
			<path class="st11" d="M195.8,203.7c-6.7-9.6-14.5-19.1-17.1-21c-4.7-3.6-10.6-4.8-14.7,0.8c-3.5,4.9,10.4,22.6,21.3,32.1
				C189.1,211.8,192.9,208.1,195.8,203.7z"/>
			<path class="st20" d="M156.4,152.2c0.3-1.4,0.7-2.9,1.2-4.6l-3.9-5l-14.2,17.7c0,0,0.2,1.5-0.1,3.9
				C147.9,165.9,153.3,159.7,156.4,152.2z"/>
			<path class="st23" d="M157.4,165.7c0,0-3.2-3.7-1.1-13.5c-3.1,7.5-8.5,13.7-17,12.1c-0.1,1-0.3,2.1-0.6,3.3
				c-1,4.2-10,4.5-1.6,14.4c0,0,14.7-2.3,18.2-8.7C159,166.9,157.4,165.7,157.4,165.7z"/>
			<path class="st23" d="M147.8,112.4c0,0-18.2-1.9-20.7,12.4l1.2,11.3c0,0-1.2,7.1,1.6,15.2c0.2,0.7,0.6,1.6,0.9,2.5
				c1.2,3.2,3.9,5.7,7.2,6.6l0.2,0c3.1,0.9,6.4,0.3,9.1-1.6c1.3-0.9,2.8-2.1,4.3-3.3c1.7-1.4,5.1-3.8,5.1-9.7
				C156.8,129.7,160.6,114.4,147.8,112.4z"/>
			<path class="st13" d="M137.8,104.3c0,0-0.3,3.3,5.8,6.3c6.1,3,18.4,3.2,18.7,11.9c0,0,11.9,13.8-6.2,31.1c0,0,1.4-10.8-0.3-11.1
				c-1.6-0.4-2.2-0.4-2.2-0.4s2.1-4-0.1-6.5c-2.2-2.5-5.3-1.7-5.5-6.2c0,0-0.7,4.8,3.9,7.4c0,0-13.4-1.6-11.6-10
				c0,0-5.2,3.2-0.2,7.6c0,0-13.7-1.7-7.2-13.3c0,0-5.7,3.2-4.1,10.6c0,0-10.4-6.4-4.7-16.3c5.7-9.9,16.6-2.8,16.6-2.8
				S136,109.3,137.8,104.3z"/>
			<g>
				<path class="st23" d="M160.9,136.5c1.1,0.5,1.6,1.8,1.7,3c0.3,3.6-2.1,7.2-5.5,8.3c-1,0.3-2.3,0.4-3-0.4c-0.7-0.8-0.4-2.1,0-3.1
					C154.9,142.3,157.9,135.2,160.9,136.5z"/>
				<g>
					<g>
						<path class="st36" d="M161.5,139.5c0,0-0.6,0-1.3,0.4c-0.8,0.4-1.7,1.3-2.4,2.4c-0.6,1.2-0.9,2.4-1.1,3.2s-0.2,1.4-0.1,1.4
							c0.1,0,0.2-0.5,0.4-1.3c0.2-0.8,0.5-2,1.1-3.1c0.6-1.1,1.5-1.9,2.2-2.4C161,139.6,161.5,139.5,161.5,139.5z"/>
					</g>
					<g>
						<path class="st36" d="M157.8,146.3c0,0,0.2-0.2,0.5-0.6c0.2-0.4,0.6-0.9,0.8-1.6c0.2-0.7,0.1-1.4,0-1.8
							c-0.2-0.4-0.4-0.6-0.4-0.6c-0.1,0,0.1,0.3,0.2,0.7c0.1,0.4,0.1,1-0.1,1.6c-0.2,0.6-0.4,1.2-0.6,1.6
							C157.9,146,157.8,146.3,157.8,146.3z"/>
					</g>
				</g>
			</g>
			<g>
				<g>
					<path class="st14" d="M148.6,136.8c0.2,0,0.1-0.5-0.2-1.2c-0.4-0.7-1.2-1.7-2.4-2.4c-1.2-0.7-2.4-1.1-3.3-1.2
						c-0.9-0.1-1.4,0.1-1.4,0.2c0,0.4,2,0.6,4,1.9C147.2,135.3,148.2,136.9,148.6,136.8z"/>
				</g>
				<g>
					<path class="st14" d="M136.3,130.5c0-0.2-0.6-0.3-1.5-0.2s-2.1,0.3-3.3,0.8s-2,1.1-2.4,1.6c-0.4,0.6-0.3,1-0.1,1
						c0.3,0,0.6-0.2,1.1-0.5c0.6-0.3,1.4-0.7,2.4-1.1C134.5,131.2,136.4,130.8,136.3,130.5z"/>
				</g>
				<g>
					<g>
						<path class="st14" d="M132.7,140.6c-0.7,0-1.3-0.9-1.2-2c0.1-1.1,0.9-2,1.6-1.9c0.7,0,1,0.9,0.9,2
							C133.9,139.7,133.4,140.6,132.7,140.6z"/>
					</g>
				</g>
				<g>
					<g>
						<path class="st14" d="M143.6,142.2c-0.8,0-1.5-1-1.4-2.2c0.1-1.2,1-2.2,1.8-2.2c0.8,0,1.1,1,1,2.2
							C144.8,141.2,144.3,142.2,143.6,142.2z"/>
					</g>
				</g>
				<path class="st36" d="M135.9,135.2c-0.2,1.2-0.4,2.4-0.5,3.6l-0.4,3.6l-0.1,0.9l0,0.4c0,0.1,0,0.2-0.1,0.2
					c-0.1,0.1-0.2,0.3-0.4,0.4c-0.1,0.1-0.2,0.1-0.3,0.1c-0.2,0.1-0.4,0.2-0.6,0.3c-0.4,0.3-0.5,0.8-0.5,1.1s0.1,0.8,0.3,1.1
					c0.4,0.6,0.9,0.9,1.5,1.2c-0.4-0.5-0.8-1-0.9-1.5c-0.1-0.5,0-1,0.3-1.2c0.1,0,0.1,0,0.2,0c0.2,0,0.4-0.1,0.6-0.2
					c0.4-0.2,0.7-0.4,0.9-0.8c0.1-0.2,0.2-0.4,0.2-0.6l0.1-0.5l0.1-0.9c0.1-1.2,0.2-2.4,0.1-3.7
					C136.4,137.6,136.2,136.4,135.9,135.2z"/>
				<g>
					<path class="st36" d="M133.1,151.6c0.1-0.1,0.4,0.2,1,0.5c0.6,0.3,1.5,0.7,2.6,0.8c1.1,0.1,2.2-0.1,2.9-0.3
						c0.8-0.2,1.2-0.4,1.3-0.3c0.1,0.1-0.3,0.4-1.1,0.7c-0.8,0.3-2,0.6-3.3,0.5c-1.3-0.1-2.3-0.6-2.8-1.1
						C133.2,152.1,133,151.7,133.1,151.6z"/>
				</g>
			</g>
		</g>
	</g>
	<g id="BCL">
		<g>
			<path class="st38" d="M90.3,128.1c0,0-1.3,5.6,5.2,12.6c0,0-13.4-3.9-17.3-12.6H90.3z"/>
			<g>
				<path class="st38" d="M71.4,131.6h28.5c3.3,0,6-2.7,6-6v-17c0-3.3-2.7-6-6-6H71.4c-3.3,0-6,2.7-6,6v17
					C65.4,128.9,68.1,131.6,71.4,131.6z"/>
				<g>
					<path class="st0" d="M93,117.2c0,1.5,1.2,2.7,2.7,2.7s2.7-1.2,2.7-2.7s-1.2-2.7-2.7-2.7C94.2,114.4,93,115.6,93,117.2z"/>
					<path class="st0" d="M82.9,117.2c0,1.5,1.2,2.7,2.7,2.7s2.7-1.2,2.7-2.7s-1.2-2.7-2.7-2.7C84.1,114.4,82.9,115.6,82.9,117.2z"
						/>
					<path class="st0" d="M72.8,117.2c0,1.5,1.2,2.7,2.7,2.7s2.7-1.2,2.7-2.7s-1.2-2.7-2.7-2.7C74,114.4,72.8,115.6,72.8,117.2z"/>
				</g>
			</g>
		</g>
	</g>
	<g id="BHL">
		<circle class="st5" cx="58.6" cy="140.4" r="11.1"/>
		<g>
			<g>
				<path class="st0" d="M64,139.3c0-0.2,0-0.5-0.1-0.7c-0.3-1.4-1.6-2.5-3.1-2.5c-0.9,0-1.7,0.7-2.3,1.3c-0.6-0.6-1.4-1.3-2.3-1.3
					c-1.5,0-2.8,1.1-3.1,2.5c0,0.2-0.1,0.4-0.1,0.7c0,0.1,0,0.1,0,0.2s0,0.1,0,0.2c0,3.5,5.5,6.3,5.5,6.3s5.5-2.8,5.5-6.3
					c0-0.1,0-0.1,0-0.2C64,139.4,64,139.3,64,139.3z"/>
			</g>
		</g>
		<polygon class="st5" points="68.1,144.6 72.3,153.1 62.6,148.8 		"/>
	</g>
</g>
</svg>
