<?xml version="1.0" encoding="utf-8"?>
<!-- Generator: Adobe Illustrator 26.0.1, SVG Export Plug-In . SVG Version: 6.00 Build 0)  -->
<svg version="1.1" xmlns="http://www.w3.org/2000/svg" xmlns:xlink="http://www.w3.org/1999/xlink" x="0px" y="0px"
	 viewBox="0 0 500 500" style="enable-background:new 0 0 500 500;" xml:space="preserve">
<style type="text/css">
	.st0{fill:#FFFFFF;}
	.st1{fill:#86CE9E;}
	.st2{fill:#171A26;}
	.st3{fill:#252B3F;}
	.st4{fill:#B1E8BF;}
	.st5{fill:#D7E1FE;}
	.st6{fill:#FB524D;}
	.st7{fill:none;}
	.st8{fill:#FFC1C1;}
	.st9{fill:#4E6B57;}
	.st10{fill:#6C9379;}
	.st11{fill:#FF6B69;}
	.st12{fill:#B4C5FA;}
	.st13{fill:#525660;}
	.st14{fill:#6A6D76;}
	.st15{fill:#122573;stroke:#122573;stroke-miterlimit:10;}
	.st16{fill:#122573;stroke:#122573;stroke-width:0.9793;stroke-miterlimit:10;}
	.st17{fill:#122573;}
	.st18{fill:#314695;}
	.st19{fill:#6C9379;stroke:#6C9379;stroke-width:0.4981;stroke-miterlimit:10;}
	.st20{fill:#745092;}
	.st21{fill:#593977;}
	.st22{fill:#320333;}
	.st23{fill:#1BA0B5;}
	.st24{fill:#148A96;}
	.st25{fill:#F88048;}
	.st26{fill:#3D7749;}
	.st27{fill:#2D6639;}
	.st28{fill:#4F5666;}
	.st29{fill:#F64F6A;}
	.st30{fill:#D33554;}
	.st31{fill:#FB3C1E;}
	.st32{fill:#F95F39;}
	.st33{fill:#4D55ED;}
	.st34{fill:#3746D3;}
	.st35{fill:#102C3F;}
	.st36{fill:#3C7299;}

	#React1, #React2, #React3, #React4, #React5{
		opacity: 0;
		animation: likers 0.9s forwards;
		
	}

	#React1{animation-delay: 1s;}

	#React2{animation-delay: 1.2s;}

	#React3{animation-delay: 1.4s;}

	#React4{animation-delay: 1.6s;}

	#React5{animation-delay: 1.8s;}


	#Girlhandmove{
		animation: GHR 4.5s infinite;
		transform-origin: 190px 224px;
	}

	#SelfieH{
		animation: GHL 3s infinite;
		transform-origin: 120px 224px;
	}


	@keyframes likers{
		from{
			opacity: 0;
		}
		to{
			opacity: 1;
		}
	}

	@keyframes Appear{
		from{
			transform: translateX(-15px);
			opacity: 0;
		}
		to{
			transform: translateX(0px);
			opacity: 1;
		}
	}

	@keyframes GHR{
		0%{
			transform: rotate(0deg);
		}
		50%{
			transform: rotate(8deg);
		}
		100%{
			transform: rotate(0deg);
		}
	}

	@keyframes GHL{
		0%{
			transform: rotate(0deg);
		}
		50%{
			transform: rotate(5deg);
		}
		100%{
			transform: rotate(0deg);
		}
	}


	#Mainposter{
		opacity:0;
		animation: Appear 2s forwards
	}
</style>
<g id="BACKGROUND">
</g>
<g id="OBJECTS">
	<g>
		<g id="Mainposter">
			<g>
				<rect x="154.74" y="119.88" class="st0" width="212.09" height="224.4"/>
				
					<rect x="182.07" y="129.86" transform="matrix(-1.836970e-16 1 -1 -1.836970e-16 487.7722 -33.7932)" class="st1" width="157.42" height="194.25"/>
				<g>
					<path class="st2" d="M298.35,244.4c-1.36-5.07-3.74-9.87-5.15-14.92c-1.41-5.05-0.56-10.83,1.98-15.5
						c-1.98-2.53-5.36-3.9-8.72-4.3c-3.37-0.4-6.78,0.04-10.14,0.48c-11.56,1.52-22.58,4.36-34.14,5.88
						c5.12,15.54,4.62,32.59-1.39,47.86c-1.16,2.95-2.27,5.94-3.25,8.95c7.24,4.35,16.32,6.88,24.55,7.61
						c11.12,0.98,22.32-3.25,32.16-8.94c-0.01-4.15,0.88-8.19,3.02-11.84C299.97,255.07,299.71,249.47,298.35,244.4z"/>
					<path class="st3" d="M309.88,209.68c0.68-5.05-2.32-9.82-5.58-13.74c-3.26-3.91-7.02-7.72-8.34-12.63
						c-1.2-4.45-0.2-9.18-0.62-13.77c-0.8-8.83-7.36-16.87-15.86-19.43c-8.49-2.56-20.7-0.99-26.24,5.94
						c-5.05-1.82-10.92-1.15-15.43,1.75c-4.51,2.9-7.56,7.97-8,13.31c-0.43,5.2,1.45,10.26,2.71,15.33
						c1.25,5.06,1.8,10.77-0.99,15.18c-2.39,3.77-7.17,6.79-6.58,11.21c0.61,4.53,6.55,6.47,8.09,10.77
						c1.44,4.03-1.45,8.15-3.43,11.94c-3.81,7.3-4.43,16.2-1.67,23.95c1.97,5.53,6.09,9.97,11.22,13.34c0.89-3.01,1.91-6,2.97-8.95
						c5.51-15.27,5.96-32.32,1.27-47.86c10.59-1.52,20.69-4.36,31.28-5.88c3.08-0.44,6.21-0.88,9.29-0.48
						c3.09,0.4,6.18,1.77,7.99,4.3c-2.33,4.67-3.11,10.45-1.81,15.5c1.3,5.05,3.47,9.85,4.72,14.92c1.25,5.07,1.48,10.67-0.99,15.27
						c-1.96,3.66-2.78,7.7-2.77,11.84c2.83-1.79,5.54-3.71,8.09-5.67c7.26-5.59,10.54-15.85,7.87-24.61
						c-1.57-5.16-5.02-10.07-4.33-15.42C303.51,219.93,309.08,215.55,309.88,209.68z"/>
				</g>
				<g>
					<g>
						<path class="st1" d="M173.06,135.13c0.25-0.04,0.43-0.25,0.43-0.5v-1.04h1.66v1.04c0,0.25,0.19,0.46,0.43,0.5
							c2.44,0.42,4.48,2.04,5.52,4.25c0.98-1.37,1.57-3.05,1.57-4.87c0-4.62-3.74-8.36-8.36-8.36c-4.62,0-8.36,3.74-8.36,8.36
							c0,1.82,0.59,3.49,1.57,4.87C168.58,137.17,170.62,135.55,173.06,135.13z"/>
						<path class="st4" d="M174.33,142.87c2.8,0,5.27-1.38,6.79-3.49c-1.04-2.21-3.08-3.83-5.52-4.25c-0.25-0.04-0.43-0.25-0.43-0.5
							v-1.04h-1.66v1.04c0,0.25-0.19,0.46-0.43,0.5c-2.44,0.42-4.48,2.04-5.52,4.25C169.06,141.49,171.53,142.87,174.33,142.87z"/>
					</g>
					<circle class="st4" cx="174.33" cy="131.2" r="3.31"/>
				</g>
				<rect x="189.72" y="126.15" class="st1" width="53.6" height="6.61"/>
				<rect x="189.72" y="135.9" class="st4" width="39.89" height="3.48"/>
				<g>
					<circle class="st5" cx="337.52" cy="134.49" r="2.23"/>
					<circle class="st5" cx="345.61" cy="134.49" r="2.23"/>
					<circle class="st5" cx="353.7" cy="134.49" r="2.23"/>
				</g>
				<path class="st6" d="M185.37,311.09c-2.1,0-3.95,1.05-5.07,2.65c-1.12-1.6-2.97-2.65-5.07-2.65c-3.42,0-6.19,2.77-6.19,6.19
					c0,0.27,0.02,0.54,0.06,0.8c0.59,6.07,7.64,10.94,11.21,13.32c3.56-2.37,10.62-7.25,11.21-13.32c0.03-0.26,0.06-0.53,0.06-0.8
					C191.56,313.86,188.79,311.09,185.37,311.09z"/>
				<path class="st4" d="M232.06,326.75c1.48-1.66,2.38-3.85,2.38-6.25c0-5.2-4.21-9.41-9.41-9.41s-9.41,4.21-9.41,9.41
					c0,5.2,4.21,9.41,9.41,9.41c1.69,0,3.28-0.45,4.65-1.23l4.76,2.72L232.06,326.75z"/>
				<polygon class="st4" points="355.43,331.4 346.64,326.27 337.85,331.4 337.85,312.15 355.43,312.15 				"/>
				<g>
					<path class="st7" d="M338.53,280.87c0.29,0.13,0.59,0.26,0.88,0.39c0.04-0.07,0.08-0.15,0.12-0.22L338.53,280.87z"/>
					<path class="st8" d="M343.27,268.69c-0.29,4.33-1.6,8.57-3.74,12.34l18.38,3.13V259.4l-17.49-5.27
						C342.59,258.64,343.6,263.7,343.27,268.69z"/>
					<path class="st9" d="M238.78,271.52l-10.65,8.32c-0.69,4.41-2.46,9.44-4.33,13.88C230.77,287.92,236.21,279.95,238.78,271.52z"
						/>
					<path class="st8" d="M222.61,267.14c-2.4-5.96-7.28-10.82-13.15-13.4l-45.94,18.79v33.17h33.27l26.33-21.73
						C224.87,278.51,224.75,272.45,222.61,267.14z"/>
					<path class="st10" d="M343.27,268.69c0.34-4.99-0.68-10.05-2.85-14.56l-30.95-9.32c-3.83-1.15-7.83-1.66-11.84-1.51
						l-29.62,1.14l-17.48-2.54c-5.88-0.85-11.88-0.12-17.38,2.13l-23.68,9.69c5.87,2.58,10.76,7.44,13.15,13.4
						c2.14,5.32,2.25,11.38,0.51,16.83l5.01-4.13l10.65-8.32c-2.57,8.43-8.02,16.4-14.98,22.2c-2.8,6.65-5.82,11.99-5.82,11.99
						h37.92c3.31-1.5,6.39-3.49,9.08-5.93c1.94-1.76,3.95-3.86,6.57-4.02c3.23-0.19,5.72,2.61,8.05,4.85
						c2.09,2.01,4.46,3.71,7.01,5.09h38.36c-1.98-5.68-10.9-22.27-12.14-29.21c-2.23-5.2,0-12.63,0-12.63
						c7.62,7.04,16.3,12.8,25.7,17.01l1,0.17C341.67,277.26,342.98,273.02,343.27,268.69z"/>
					<path class="st9" d="M312.83,276.49l25.7,4.38c-9.4-4.21-18.08-9.97-25.7-17.01C312.83,263.86,310.61,271.29,312.83,276.49z"/>
					<path class="st10" d="M271.55,295.76c-2.62,0.15-4.63,2.26-6.57,4.02c-2.69,2.44-5.77,4.43-9.08,5.93h30.71
						c-2.55-1.38-4.92-3.09-7.01-5.09C277.26,298.37,274.77,295.57,271.55,295.76z"/>
				</g>
				<g>
					<g>
						<path class="st11" d="M268.11,239.49c2.82-0.36,5.36-1.97,7.36-3.99c0.16-0.16,0.29-0.34,0.44-0.5
							c-0.63-3.18-0.88-6.41-0.52-9.53c-5.12,0.05-12.41,0.35-17.53,0.4c1.34,3.67,2.01,7.57,2.02,11.48
							C262.34,238.89,265.25,239.85,268.11,239.49z"/>
						<path class="st8" d="M275.47,235.5c-1.99,2.03-4.54,3.64-7.36,3.99c-2.87,0.36-5.77-0.61-8.23-2.15
							c0.01,2.74-0.29,5.48-0.95,8.15c2.16,3.5,6.06,5.8,10.17,5.65c4.11-0.15,8.05-2.63,9.95-6.27c-1.33-3.11-2.46-6.46-3.15-9.87
							C275.76,235.16,275.63,235.34,275.47,235.5z"/>
					</g>
					<g>
						<g>
							<g>
								<path class="st8" d="M238.76,222.56c2,1.04,4.59,1.42,6.43,0.11c1.26-0.89,1.95-2.45,2.02-3.99
									c0.07-1.54-0.42-3.07-1.14-4.43c-0.84-1.59-2.03-3.02-3.59-3.91c-1.56-0.89-3.51-1.17-5.18-0.5
									c-2.49,0.99-3.84,3.99-3.38,6.63C234.39,219.12,236.38,221.32,238.76,222.56z"/>
								<path class="st11" d="M242.38,219.54c-0.52,0-1.2-0.19-1.8-0.5c-1.46-0.76-2.54-2.03-2.75-3.25
									c-0.17-0.98,0.37-2.04,0.94-2.27c0.14-0.06,0.31-0.08,0.5-0.08c0.4,0,0.86,0.13,1.25,0.35c0.77,0.44,1.47,1.24,2.05,2.32
									c0.48,0.9,0.71,1.73,0.68,2.39c-0.02,0.5-0.24,0.86-0.35,0.94C242.81,219.5,242.62,219.54,242.38,219.54L242.38,219.54z"/>
							</g>
							<g>
								<path class="st8" d="M293.29,222.56c-2,1.04-4.59,1.42-6.43,0.11c-1.26-0.89-1.95-2.45-2.02-3.99
									c-0.07-1.54,0.42-3.07,1.14-4.43c0.84-1.59,2.03-3.02,3.59-3.91c1.56-0.89,3.51-1.17,5.18-0.5
									c2.49,0.99,3.84,3.99,3.38,6.63C297.66,219.12,295.67,221.32,293.29,222.56z"/>
								<path class="st11" d="M289.67,219.54c0.52,0,1.2-0.19,1.8-0.5c1.46-0.76,2.54-2.03,2.75-3.25c0.17-0.98-0.37-2.04-0.94-2.27
									c-0.14-0.06-0.31-0.08-0.5-0.08c-0.4,0-0.86,0.13-1.25,0.35c-0.77,0.44-1.47,1.24-2.05,2.32c-0.48,0.9-0.71,1.73-0.68,2.39
									c0.02,0.5,0.24,0.86,0.35,0.94C289.24,219.5,289.43,219.54,289.67,219.54L289.67,219.54z"/>
							</g>
						</g>
						<g>
							<path class="st8" d="M258.01,179.26c-4.48,6.32-9.98,11.9-16.2,16.52c-0.18,1.57-0.28,3.18-0.28,4.81
								c0,17.71,10.96,32.07,24.48,32.07c13.52,0,24.48-14.36,24.48-32.07c0-0.99-0.04-1.98-0.11-2.95
								C278.05,194.96,266.68,188.51,258.01,179.26z"/>
							<g>
								<circle class="st2" cx="254.69" cy="200.15" r="2.17"/>
								<circle class="st2" cx="276.82" cy="199.3" r="2.17"/>
								<path class="st11" d="M269.99,209.66c-2.15,0.08-4.29,0.17-6.44,0.25c0.4,0.68,0.69,1.35,1.28,1.88
									c0.59,0.53,1.36,0.89,2.15,0.84c0.74-0.05,1.41-0.47,1.92-1C269.42,211.09,269.62,210.3,269.99,209.66z"/>
								<path class="st0" d="M277.64,213.54c-4.95,4.3-12.31,5.63-18.45,3.33c1.42,3.14,3.7,6.14,7.13,6.49
									c2.66,0.27,5.28-1.06,7.18-2.95C275.41,218.53,276.38,215.9,277.64,213.54z"/>
								<g>
									<path class="st2" d="M250.14,193.65c2.43-2.79,6.08-3.24,9.12-1.14c1.05,0.73,2.04-0.99,1-1.71
										c-3.73-2.58-8.55-1.97-11.52,1.45C247.91,193.21,249.3,194.62,250.14,193.65L250.14,193.65z"/>
								</g>
								<g>
									<path class="st2" d="M273.15,192.72c2.4-2.22,5.62-2.32,8.25-0.46c1.05,0.74,2.03-0.98,1-1.71
										c-3.37-2.39-7.64-2.01-10.65,0.77C270.81,192.19,272.21,193.58,273.15,192.72L273.15,192.72z"/>
								</g>
							</g>
						</g>
					</g>
				</g>
				<g>
					<g>
						<path class="st11" d="M334.71,183.32c2.02,1.2,3.62,3.08,4.48,5.26c-1.12-3.67-3.87-6.94-7.34-8.57
							c1.54-1.02,2.47-2.88,2.45-4.73c0.62,0.7,1.46,1.12,2.39,1.19c1.47,0.1,2.93-0.21,4.4-0.26c1.48-0.05,2.98-0.17,4.33-0.78
							c0.55-0.25,1.06-0.59,1.49-1.01l-0.84-8.18l-14.66-0.22l0.74,7.76l-7.63,6.6l1.63,2.99l1.89-1.79
							C330.37,181.29,332.69,182.12,334.71,183.32z"/>
						<path class="st8" d="M331.41,166.03l14.66,0.22l-0.18-1.7l-13.75,1.36l-6.69-17.62h-8.05l7.3,17.81
							c-3.39-4.27-6.79-8.54-10.18-12.82c-0.94-1.18-1.92-2.4-3.27-3.07c-1.35-0.67-3.18-0.62-4.17,0.52
							c-0.71,0.82-0.83,2.02-0.57,3.07c0.26,1.05,0.85,1.99,1.45,2.89c3.38,5.13,7.3,10.11,11.56,14.54l5,9.16l7.63-6.6
							L331.41,166.03z"/>
						<path class="st8" d="M344.91,188.32l0.95-2.97c1.09-3.43,1.46-7.05,1.09-10.62l-0.03-0.3c-0.44,0.41-0.95,0.76-1.49,1.01
							c-1.35,0.61-2.85,0.73-4.33,0.78c-1.48,0.05-2.93,0.36-4.4,0.26c-0.93-0.07-1.77-0.49-2.39-1.19c0.01,1.85-0.92,3.7-2.45,4.73
							c3.47,1.64,6.22,4.91,7.34,8.57c-0.86-2.18-2.46-4.06-4.48-5.26c-2.02-1.2-4.34-2.02-6.67-1.73l-1.89,1.79l5.25,9.61
							l26.5,66.41v-44.62L344.91,188.32z"/>
					</g>
					<path class="st8" d="M331.41,166.03l2.18,6.89c0.46,1.47,1.89,2.41,3.43,2.27l6.79-0.66c1.79-0.17,3.19-1.61,3.33-3.4
						l0.52-6.84c0.12-1.63-1.22-3-2.85-2.91l-11.34,0.64c-1.45,0.08-2.5,1.41-2.25,2.83L331.41,166.03z"/>
					<path class="st8" d="M331.41,192.99c-3.91-1.11-7.75-3.04-10.78-5.74c-1.5-1.34-2.95-3.1-2.79-5.1
						c0.15-1.85,1.63-3.29,3.05-4.49c1.77-1.5,3.59-2.92,5.48-4.27c1.48-1.06,3.31-2.11,5.01-1.46c2.01,0.76,2.48,3.6,1.48,5.5
						c-1,1.9-2.95,3.08-4.81,4.15L331.41,192.99z"/>
				</g>
				<g>
					<path class="st12" d="M202.32,316.71v0.81l-3.36,7.51h-1.26l3.29-7.29h-3.8v1.49h-1.14v-2.52H202.32z"/>
					<path class="st12" d="M209.57,322.5c0,1.61-1.3,2.63-2.95,2.63c-2.23,0-3.49-1.5-3.49-4.15c0-2.84,1.6-4.36,3.93-4.36
						c0.78,0,1.53,0.15,2.07,0.49l-0.45,0.93c-0.43-0.29-1-0.39-1.59-0.39c-1.69,0-2.77,1.06-2.77,3.14c0,0.1,0,0.19,0.01,0.3
						c0.48-0.71,1.36-1.09,2.39-1.09C208.37,319.98,209.57,320.97,209.57,322.5z M208.42,322.55c0-0.97-0.74-1.6-1.9-1.6
						c-1.13,0-1.91,0.7-1.91,1.62c0,0.86,0.69,1.6,1.97,1.6C207.66,324.16,208.42,323.54,208.42,322.55z"/>
				</g>
				<g>
					<path class="st12" d="M246.3,322.68c0,1.51-1.28,2.45-3.32,2.45c-2.02,0-3.29-0.94-3.29-2.45c0-0.95,0.52-1.65,1.46-2.01
						c-0.76-0.36-1.16-0.97-1.16-1.79c0-1.39,1.2-2.26,3-2.26c1.81,0,3.02,0.87,3.02,2.26c0,0.82-0.42,1.44-1.18,1.79
						C245.77,321.04,246.3,321.73,246.3,322.68z M245.11,322.64c0-0.92-0.81-1.49-2.13-1.49c-1.32,0-2.1,0.57-2.1,1.49
						c0,0.94,0.78,1.52,2.1,1.52C244.3,324.16,245.11,323.58,245.11,322.64z M241.16,318.92c0,0.82,0.68,1.33,1.82,1.33
						c1.15,0,1.85-0.51,1.85-1.33c0-0.83-0.74-1.34-1.85-1.34C241.86,317.58,241.16,318.09,241.16,318.92z"/>
				</g>
			</g>
			<g>
				<ellipse class="st1" cx="157.39" cy="445.57" rx="65.64" ry="11.47"/>
				<g>
					<g>
						<path class="st3" d="M175.26,227.49c0.23-1.81,1.14-3.45,1.8-5.16c0.89-2.3,0.94-5.28-0.07-7.56
							c-1.03-2.32-2.95-4.11-4.52-6.12c-1.56-2.01-2.83-4.56-2.21-7.02c0.92-3.68,5.63-5.67,6.02-9.45
							c0.25-2.46-1.48-4.66-3.25-6.38c-1.78-1.72-3.81-3.43-4.44-5.82c-0.89-3.38,1.28-6.7,2.3-10.05
							c1.89-6.23-0.68-13.54-6.05-17.22c-5.37-3.67-13-4.13-18.12-0.11c-2.7-1.74-6.24-2.11-9.23-0.95c-3,1.16-5.37,3.8-6.2,6.91
							c-0.77,2.91-0.24,5.98,0.05,8.97c0.29,2.99,0.26,6.24-1.43,8.72c-1.3,1.91-3.5,3.22-4.27,5.4c-0.89,2.52,0.42,5.25,1.82,7.53
							c1.39,2.28,2.97,4.76,2.6,7.4c-0.36,2.59-2.48,4.53-3.75,6.82c-2.8,5.02-0.58,9.37,2,13.77c1.05,1.79,1.1,3.46,1.41,5.48
							c0.41,2.66,1.52,5.16,3.12,7.32c2.4,3.22,5.71,5.64,9.13,7.75c4.94,3.05,10.21,5.56,15.69,7.48c3.7,1.29,7.66,2.32,11.51,1.6
							s7.54-3.63,8-7.52C177.63,235.3,174.76,231.47,175.26,227.49z M133.36,206.64c1.67-3.35,3.37-6.79,3.86-10.5
							c0.61-4.67-0.76-9.35-2.11-13.87c7.74,5.56,17.61,8.62,27.15,8.62c-3.27,6.4-2.91,14.37,1.27,20.21
							C153.68,211.83,142.41,210.58,133.36,206.64z"/>
						<path class="st2" d="M163.39,190.89c-10.39,0-21.14-3.06-29.58-8.62c1.47,4.51,2.96,9.19,2.3,13.87
							c-0.53,3.72-2.38,7.15-4.2,10.5c9.85,3.94,22.14,5.19,32.86,4.47C160.21,205.26,159.83,197.3,163.39,190.89z"/>
					</g>
					<g id="SelfieH">
						<g>
							<polygon class="st13" points="104.19,145.01 103.93,146.07 94.32,145.04 87.77,171.57 99.55,174.48 106.5,146.35 							"/>
							<polygon class="st14" points="97.24,173.14 85.46,170.23 92.01,143.7 104.19,145.01 							"/>
							<path class="st13" d="M97.8,148.43c-0.21,0.85-0.85,1.43-1.42,1.29c-0.58-0.14-0.87-0.95-0.66-1.8
								c0.21-0.85,0.85-1.43,1.42-1.29C97.71,146.77,98.01,147.58,97.8,148.43z"/>
						</g>
						<g>
							<path class="st11" d="M116.47,218.43c-0.8,0.37-1.62,0.7-2.44,1.02l4.63-0.47c0.14-0.61,0.23-1.24,0.32-1.86
								C118.16,217.59,117.32,218.03,116.47,218.43z"/>
							<path class="st8" d="M118.98,217.11c0.55-3.93,0.12-7.99-1.25-11.71c-8.79,2.25-16.75,3.51-26.06,3.82l-1.59-34.42l5.94,0.59
								c1.05,0.1,2.11-0.11,3.05-0.61l0.53-0.29c1.63-0.88,2.68-2.54,2.78-4.39l0.3-5.65c1.71,1.51,3.42,3.02,5.13,4.53
								c0.73,0.64,1.72,1.32,2.58,0.87c0.27-0.81,0.07-1.71-0.35-2.45c-0.41-0.74-1.02-1.35-1.63-1.96
								c-1.79-1.78-3.74-3.47-5.6-5.21c-0.94-0.88-2.24-1.27-3.52-1.08l-9.33,1.39c-1.87,0.28-3.5,1.42-4.39,3.08l-3.47,6.4
								c-0.37,0.68-0.6,1.42-0.69,2.19c-0.6,5.35-3.01,27.66-2.87,36.64c0.16,10.24,1.31,13.87,11.51,13.05l23.98-2.45
								c0.82-0.31,1.64-0.65,2.44-1.02C117.32,218.03,118.16,217.59,118.98,217.11z"/>
						</g>
					</g>
					<g>
						<g>
							<path class="st11" d="M141.17,428.22c-0.15-0.26-0.3-0.52-0.43-0.79c-0.87-1.77-1.37-3.86-0.68-5.7
								c-3.47,0.24-6.8,1.38-10.27,1.62c-0.89,1.99-2,3.86-3.3,5.61C131.39,429.19,136.31,428.94,141.17,428.22z"/>
							<path class="st8" d="M143.59,432.3c-0.73-1.4-1.65-2.7-2.42-4.08c-4.85,0.72-9.78,0.97-14.68,0.74
								c-1.51,2.03-3.28,3.87-5.25,5.46c2.49,0.48,4.84,1.72,6.57,3.57C133.59,437.36,138.8,435.41,143.59,432.3z"/>
							<path class="st9" d="M143.72,432.53c-0.04-0.08-0.09-0.15-0.13-0.23c-4.8,3.1-10,5.06-15.78,5.68
								c-1.74-1.85-4.08-3.09-6.57-3.57c-1.97,1.6-4.14,2.96-6.46,4c-1.17,0.53-2.42,1.01-3.32,1.93c-0.9,0.92-1.33,2.46-0.58,3.51
								c0.53,0.74,1.47,1.05,2.35,1.26c5.55,1.34,11.52,0.89,16.8-1.27c3.92-1.61,7.67-4.16,11.74-4.84
								c1.75-0.29,2.99-1.85,2.77-3.62C144.42,434.36,144.13,433.35,143.72,432.53z"/>
						</g>
						<g>
							<path class="st9" d="M192.47,424.29c-0.65-0.66-1.4-1.21-2.17-1.73c-0.9,5.22-3.98,10.11-8.4,13.02
								c-2.47-1.26-5.23-1.9-8-1.95c-1.29,2.52-3.22,4.7-5.67,6.13c-0.75,0.43-1.54,0.82-2.14,1.44c-0.6,0.62-0.95,1.57-0.6,2.36
								c0.44,0.98,1.67,1.25,2.74,1.4c3.55,0.49,7.15,0.97,10.7,0.44c3.54-0.54,7.07-2.24,8.98-5.28c1.16-1.85,1.65-4.04,2.53-6.04
								c0.55-1.25,1.35-2.49,2.4-3.35c1.47-1.2,1.83-3.31,0.84-4.93C193.33,425.26,192.94,424.76,192.47,424.29z"/>
							<path class="st11" d="M187.38,420.63c-0.01-0.01-0.02-0.01-0.03-0.02c-1.71-1.23-3.3-2.92-3.53-5.02
								c-2.85,1.72-6.17,3.92-9.03,5.64c0.73,1.92,0.99,3.98,0.85,6.02c2.29-0.21,4.54-0.9,6.55-2.02
								C184.23,424.09,186,422.5,187.38,420.63z"/>
							<path class="st8" d="M190.3,422.56c-0.96-0.65-1.97-1.26-2.91-1.93c-1.38,1.87-3.16,3.46-5.19,4.6
								c-2.01,1.12-4.25,1.81-6.55,2.02c-0.14,2.21-0.74,4.4-1.76,6.38c2.77,0.05,5.53,0.69,8,1.95
								C186.32,432.67,189.39,427.79,190.3,422.56z"/>
						</g>
						<g>
							<path class="st15" d="M140.49,362.8l12.18-62.45l-9.91-2.64c1.5,1.45,2.64,3.3,3.66,5.12c1.02,1.82,1.48,4.07,0.74,6.02
								c-0.7,1.83-2.36,3.22-2.85,5.12c-0.94,3.64,2.79,7.51,1.3,10.97c-1.28,2.96-5.6,3.54-7.03,6.44
								c-0.9,1.83-0.35,4.05,0.54,5.88c0.89,1.84,2.1,3.55,2.56,5.54c0.95,4.1-4.05,5.41-3.44,9.82c0.21,1.49,0.93,2.93,0.73,4.42
								c-0.22,1.67-1.54,2.95-2.23,4.49c-1.13,2.52-0.46,5.44,0.31,8.09c1.52,5.22,3.41,10.33,5.62,15.29l-0.41-11.73l-0.24-0.43
								C140.38,369.7,139.83,366.19,140.49,362.8z"/>
							<path class="st16" d="M158.3,363.75c1.76-4.27,4.28-11.03,6.85-17.98c-4.28,4.88-7.87,10.51-10.42,16.16L158.3,363.75z"/>
							<g>
								<path class="st17" d="M178.19,286.66c-2.43-4.65-5.52-8.95-9.13-12.76c-2.85,1.31-5.97,2.52-9.19,3.5
									C164.26,282.91,171.09,286.43,178.19,286.66z"/>
								<path class="st18" d="M176.75,395.29c-5.17-10.98-10.35-22.37-18.3-31.54l-3.71-1.82c2.66-5.65,6.4-11.29,10.86-16.16
									c3.1-8.01,6.27-16.27,8.39-21.19c2.62-6.1,5.24-12.21,7.57-18.43c2.03-5.41,3.87-11.12,3.18-16.85
									c-0.84-6.91-6.64-12.07-10.78-17.89c-1.5,0.85-3.15,1.69-4.9,2.49c3.6,3.81,6.69,8.11,9.13,12.76
									c-7.1-0.24-13.93-3.76-18.32-9.26c-9.06,2.76-18.87,3.7-25.52-0.01l-12.24,68.04c-1.08,6.02-1.41,12.15-0.99,18.25
									l4.31,61.31h18.66l-1.41-40.11c-2.22-4.96-4.1-10.07-5.62-15.29c-0.77-2.65-1.44-5.57-0.31-8.09
									c0.69-1.54,2.01-2.82,2.23-4.49c0.2-1.49-0.52-2.93-0.73-4.42c-0.61-4.41,4.38-5.72,3.44-9.82
									c-0.46-1.99-1.67-3.7-2.56-5.54c-0.89-1.84-1.44-4.05-0.54-5.88c1.43-2.9,5.75-3.47,7.03-6.44
									c1.49-3.45-2.24-7.33-1.3-10.97c0.49-1.9,2.16-3.28,2.85-5.12c0.74-1.95,0.28-4.2-0.74-6.02c-1.02-1.82-2.16-3.66-3.66-5.12
									l9.91,2.64l-12.18,62.45c-0.66,3.39-0.11,6.91,1.55,9.94l0.24,0.43l30.53,50.56c5.3-0.71,10.22-3.95,13.48-8.2
									C183.1,408.78,179.93,402.03,176.75,395.29z"/>
							</g>
						</g>
					</g>
					<g>
						<path class="st9" d="M125.76,211.02c-1.76,2.52-4.13,4.53-6.78,6.09c-0.09,0.62-0.18,1.24-0.32,1.86l6.6-0.68
							C126.26,215.23,125.76,211.02,125.76,211.02z"/>
						<path class="st19" d="M159.49,247.63c-0.84-2.43-3.61-3.55-6.14-3.93c-2.52-0.38-5.22-0.36-7.41-1.68
							c-1.79-1.08-3.1-2.99-5.09-3.59c-2.69-0.81-5.36,1.04-7.92,2.2c-2.16,0.97-4.51,1.46-6.88,1.47c0.43,0.69,0.7,1.49,0.75,2.33
							c0.02,0.27,0.04,0.57,0.06,0.87C137.68,244.71,148.86,246.11,159.49,247.63z"/>
						<path class="st10" d="M184.16,222.3c0.92-2.65,3-4.85,5.56-5.98c-4.08-2.02-8.15-4.04-12.23-6.06
							c-4.19-2.08-8.54-3.84-13.03-5.14c-5.92-1.72-12.35-2.9-18.34-1.52c-3.85-2.16-8.48-2.53-12.86-1.99
							c-4.38,0.54-8.6,1.93-12.86,3.1c-0.9,0.25-1.79,0.47-2.67,0.7c1.37,3.72,1.8,7.78,1.25,11.71c2.65-1.56,5.02-3.57,6.78-6.09
							c0,0,0.5,4.21-0.5,7.26c0,0-1.69,5.81-5.24,10.67c-1.9,2.6-1.79,6.17,0.43,8.51c0.96,1.01,2.14,2.02,3.57,2.9
							c0.73,0.44,1.34,1.04,1.78,1.74c2.38-0.01,4.76-0.5,6.93-1.47c2.58-1.15,5.27-3,7.98-2.2c2.01,0.6,3.33,2.51,5.13,3.59
							c2.2,1.32,4.92,1.3,7.46,1.68c2.54,0.38,5.33,1.51,6.18,3.93c-10.7-1.52-21.97-2.92-32.86-2.32
							c0.62,7.44,3.92,24.48,7.72,32.09c10.46,5.83,28.76,0.16,39.61-5.99c-0.86-1.2-1.65-2.43-2.3-3.71
							c-3.67-7.18-5.15-15.48-4.41-23.56c-0.37-1.74-0.56-3.52-0.6-5.28c-0.1-4.81,1-9.53,1.92-14.25l4.58,1.49
							c0,0,5.04,1.63,11.16,3.27C183.45,227.12,183.37,224.57,184.16,222.3z"/>
						<path class="st9" d="M166.65,238.86c0.04,1.77,0.23,3.55,0.6,5.28c0.58-6.39,2.54-12.63,5.91-18.05l-4.58-1.49
							C167.65,229.33,166.54,234.05,166.65,238.86z"/>
					</g>
					<g>
						<g>
							<path class="st11" d="M147.58,201.11c2.16-0.58,4.07-2,5.3-3.87c0.09-1.77,0.19-3.53,0.28-5.3
								c-3.44,1.67-7.63,2.86-11.46,2.9c-0.05,1.95-0.1,3.89-0.11,5.84C143.47,201.47,145.61,201.64,147.58,201.11z"/>
							<path class="st8" d="M147.58,201.11c-1.97,0.53-4.11,0.36-5.99-0.43c-0.01,1.91,0.02,3.83,0.14,5.74
								c0.09,1.49,0.25,3.04,1.04,4.31c0.74,1.19,2.01,2.03,3.4,2.24c1.38,0.21,2.85-0.21,3.91-1.13c1.97-1.71,2.25-4.61,2.39-7.21
								c0.13-2.46,0.26-4.92,0.4-7.38C151.64,199.11,149.74,200.53,147.58,201.11z"/>
						</g>
						<path class="st8" d="M141.98,163.98c-2.94,1.82-5.53,4.19-7.6,6.95c-0.28,15.25-2.01,23.01,8.14,26.23
							c6.19,2.06,13.54-4.95,13.54-4.95c0.8,1.39,2.27,2.65,3.88,2.68c1.61,0.03,3.2-0.84,4.05-2.2c0.85-1.36,0.93-3.17,0.2-4.6
							c-0.53-1.03-1.48-1.87-2.62-2.1c-1.11-0.23-2.3,0.13-3.19,0.83c-0.89,0.7-1.49,1.72-1.84,2.8c-0.65-3.16-0.52-6.5,0.97-9.36
							C150.84,177.01,144.96,170.77,141.98,163.98z"/>
						<path class="st11" d="M158.77,190.81c0.2-0.52,0.41-1.05,0.74-1.5c0.34-0.45,0.82-0.81,1.37-0.89c0.55-0.08,1.17,0.19,1.4,0.7
							c0.19,0.43,0.09,0.94-0.14,1.36c-0.55,1.01-1.82,1.56-2.94,1.27c-0.2-0.05-0.42-0.15-0.51-0.35
							C158.63,191.22,158.7,191,158.77,190.81z"/>
					</g>
					<g id="Girlhandmove">
						<path class="st11" d="M193.7,205.1l2.95,14.65l3.25,1.36C198.48,218.01,195.77,210.75,193.7,205.1z"/>
						<path class="st8" d="M209.68,219.03c-1.98-5.2-12.84-42.83-12.84-42.83c1.52-3.78,2.06-8.32,1.32-12.33
							c-2.72-0.14-5.4-0.03-8.13-0.17c-0.45-4.54-0.89-9.08-1.34-13.62c-0.07-0.67-0.14-1.35-0.43-1.95
							c-0.29-0.6-0.86-1.12-1.53-1.16c-0.8-0.05-1.51,0.61-1.79,1.36c-0.28,0.75-0.24,1.58-0.18,2.39
							c0.28,4.32,0.64,8.65,0.91,12.97c-1.76-4.11-3.52-8.23-5.27-12.34c-0.34-0.81-0.71-1.63-1.34-2.23
							c-0.64-0.6-1.64-0.9-2.41-0.49c-0.65,0.35-0.98,1.11-1,1.85c-0.02,0.73,0.22,1.44,0.46,2.14c1.85,5.24,4.65,10.32,7.57,15.05
							l4.95,12.26l5.07,25.2c2.07,5.65,4.78,12.91,6.2,16.01l-3.25-1.36c-2.31-1.14-4.61-2.29-6.92-3.43
							c-2.56,1.13-4.64,3.34-5.56,5.98c-0.79,2.27-0.71,4.82,0.15,7.06c5.68,1.52,12.29,3.05,16.7,3.29
							C210.18,233.15,211.66,224.23,209.68,219.03z"/>
						<path class="st11" d="M191.52,165.92c1.1,0.29,1.66,1.6,1.51,2.73c-0.16,1.13-0.84,2.1-1.5,3.03
							c1.49,1.03,2.54,2.66,2.88,4.44c-1.28-2.33-3.93-3.79-6.57-3.95C189.68,170.56,190.68,168.22,191.52,165.92z"/>
						<path class="st8" d="M189.7,160.32l0.39,5.39c0.08,1.17,1.02,2.11,2.19,2.19l4.09,0.28c1.17,0.08,2.2-0.78,2.34-1.95
							l0.49-4.23c0.1-0.89-0.59-1.68-1.49-1.68H189.7z"/>
						<path class="st8" d="M188.63,179.9c-2.34-0.78-4.57-1.89-6.72-3.1c-1.25-0.71-2.58-1.67-2.76-3.09
							c-0.12-0.94,0.32-1.87,0.95-2.57c0.63-0.7,1.45-1.2,2.25-1.69c1.81-1.1,3.61-2.21,5.42-3.31c0.6-0.37,1.22-0.74,1.9-0.91
							c0.69-0.17,1.47-0.11,2.02,0.33c0.7,0.56,0.86,1.59,0.63,2.46c-0.23,0.86-0.78,1.6-1.32,2.32c-1,1.32-1.99,2.63-2.99,3.95
							L188.63,179.9z"/>
					</g>
				</g>
			</g>
		</g>
		<g id="React1">
			<g>
				<path class="st4" d="M144.67,112.09V75.27c0-2.98-2.42-5.39-5.39-5.39H77.74c-2.98,0-5.39,2.42-5.39,5.39v36.83
					c0,2.98,2.42,5.39,5.39,5.39h51.47l15.45,15.28l-5.25-15.29C142.33,117.4,144.67,115.02,144.67,112.09z"/>
				<g>
					<path class="st20" d="M114.94,101.31l-4.06-0.67l-18.73,13.75v3.1h31.34c0,0-0.59-9.43-1.03-18.57l-1.2,0.88
						C119.44,101.13,117.16,101.68,114.94,101.31z"/>
					<path class="st21" d="M94.02,96.81l-0.25-15.23l-2.11,17.83l15.11-5.94c0,0,3.47,3.96,2.97,6.68l-17.6,10.65v3.59l18.73-13.75
						l4.06,0.67c2.22,0.36,4.5-0.18,6.31-1.51l1.2-0.88c-0.07-1.39-0.13-2.77-0.19-4.11l-13.52-2.83L94.02,96.81z"/>
					<path class="st21" d="M107.28,92.46l-13.26,4.35l-0.25-15.23l-2.11,17.83l15.11-5.94c0,0,0.12,0.14,0.32,0.38l0,0
						C107.12,93.39,107.19,92.92,107.28,92.46z"/>
					<path class="st20" d="M131.79,103l6.56-2.6l-14.56-26.2c-1.17-2.1-3.28-3.52-5.67-3.8l-7.24-0.86l-11.76-0.09l-0.44,0.18
						l-8.05,3.38c-2.12,0.89-3.69,2.72-4.26,4.95c-2.26,8.82-3.59,17.91-4.19,26.97c-0.11,1.69,0.22,3.4,1.07,4.86
						c2.11,3.61,5.47,2.94,8.9,1.02l17.6-10.65c0.06-0.34,0.06-0.69,0.02-1.06c-0.26-2.03-1.95-4.34-2.67-5.24
						c-0.19-0.24-0.32-0.38-0.32-0.38l-15.11,5.94l2.11-17.83l0.25,15.23l13.26-4.35c0.68-3.35,2.89-6.71,5.35-8.16
						c2.56,2.31-2.48,4.38-0.83,6.27c1.54,1.78,8.09-0.31,10.26-1.31c-0.06-2.05-0.09-3.82-0.07-5.09L131.79,103z"/>
					<path class="st21" d="M129.11,89.64c2.82,3.08,5.64,6.16,8.46,9.23c0.79,0.86,1.61,1.79,1.77,2.94c0.16,1.14-0.4,2.3-1.25,3.06
						c-0.85,0.77-1.97,1.19-3.1,1.41c-1.05,0.21-2.2,0.24-3.13-0.28c-1.09-0.61-1.66-1.83-2.16-2.98c-1.21-2.76-2.41-5.52-3.62-8.28
						C127.35,93.44,128.61,91.38,129.11,89.64z"/>
					<g>
						<path class="st22" d="M100.57,55.95c-2.5-5.13-1.49-11.77,2.43-15.92c3.92-4.16,10.48-5.56,15.75-3.36
							c1.75,0.73,3.34,1.8,5.12,2.46c1.78,0.65,3.89,0.82,5.47-0.21c0.09,7.5-5.86,9.34-5.86,9.34l-14.85,6.08l-5.32,5.45
							l-1.92-3.66L100.57,55.95z"/>
						<g>
							<path class="st11" d="M109.36,68.6c-0.18-0.33-0.26-0.72-0.19-1.12c0.18-0.96,0.35-1.94,0.57-2.88
								c-2.4-0.87-5.19-3-6.96-4.84c-0.33,1.41-0.75,2.8-1.24,4.17C103.21,67.72,105.7,69.19,109.36,68.6z"/>
							<path class="st8" d="M109.36,68.6c-3.66,0.58-6.15-0.88-7.82-4.66c-0.67,1.89-1.47,3.74-2.42,5.51
								c0.86,1.2,1.62,2.49,2.48,3.7c1.03,1.44,2.2,2.99,4.45,2.6c0.7-0.12,1.36-0.44,1.91-0.88c1.65-1.34,2.3-3.36,2.91-5.32
								c-0.13-0.04-0.29-0.08-0.48-0.13C109.94,69.29,109.58,68.99,109.36,68.6z"/>
						</g>
						<path class="st8" d="M123.48,48.25c-0.54,5.31-2.8,10.43-6.37,14.39c-2.21,2.45-5.1,4.56-8.61,4.13
							c-1.82-0.23-3.51-1.14-4.74-2.5c-1.53-1.71-2.61-4.12-2.18-6.35c-1.43,0.65-3.33,0.18-4.18-1.14
							c-1.11-1.72-0.04-4.63,2.47-4.37c1.12,0.12,1.99,1,2.23,2.1c0.18,0.82,0.48,1.44,0.64,2.29c0.6-1.69,1.29-3.35,1.93-5.02
							c0.33-0.86,1.02-1.53,1.9-1.81c0.01,0,0.02-0.01,0.03-0.01c0.91-0.29,1.63-1,1.93-1.9c0.05-0.15,0.1-0.29,0.15-0.44
							c0.37-1.08,1.31-1.85,2.44-2.02C115.27,44.97,120.04,46.09,123.48,48.25z"/>
					</g>
					<g>
						<polygon class="st13" points="129.19,79.35 128.42,78.29 120.5,78.29 115.23,91.54 123.04,90.8 127.64,80.11 						"/>
						<polygon class="st14" points="116,92.6 121.26,79.35 129.19,79.35 123.8,91.85 						"/>
					</g>
					<path class="st11" d="M122.57,89.88c0.17-0.89,0.72-1.69,1.49-2.17c0.77-0.48,1.74-0.62,2.61-0.37
						c0.08-0.53,0.69-0.83,1.23-0.8c0.54,0.03,1.02,0.39,1.31,0.85c0.3,0.45,0.44,0.99,0.54,1.52c0.28,1.38,0.36,2.81,0.02,4.18
						c-0.33,1.36-1.11,2.65-2.28,3.42c-1.04,0.69-2.46,0.91-3.55,0.31c-1.06-0.58-1.64-1.81-1.74-3.02
						C122.09,92.59,122.34,91.07,122.57,89.88z"/>
					<path class="st8" d="M122.46,89.07c-0.11,0.06-0.24,0.12-0.39,0.19c-2.18,1-8.72,3.08-10.26,1.31
						c-1.65-1.9,3.38-3.96,0.83-6.27c-2.46,1.45-4.67,4.81-5.35,8.16c-0.09,0.47-0.16,0.93-0.19,1.39l0,0
						c0.72,0.9,2.41,3.21,2.67,5.24c1.8,0.16,5.05,0.31,8.74-0.17C127.25,97.69,124.09,88.19,122.46,89.07z"/>
				</g>
			</g>
			<path class="st6" d="M140.98,41.73c-1.25,0.29-2.2,1.17-2.65,2.27c-0.89-0.8-2.13-1.16-3.38-0.87c-2.03,0.47-3.29,2.5-2.82,4.53
				c0.04,0.16,0.09,0.32,0.14,0.47c1.19,3.52,6.05,5.45,8.49,6.36c1.79-1.9,5.31-5.77,4.82-9.46c-0.02-0.16-0.04-0.32-0.08-0.48
				C145.04,42.52,143.01,41.26,140.98,41.73z"/>
			<path class="st6" d="M154.76,51.17c-0.82-0.2-1.64,0.04-2.23,0.55c-0.29-0.73-0.91-1.31-1.73-1.51c-1.33-0.32-2.67,0.5-3,1.83
				c-0.03,0.11-0.04,0.21-0.05,0.32c-0.34,2.42,1.95,4.99,3.11,6.25c1.61-0.59,4.82-1.82,5.63-4.13c0.04-0.1,0.07-0.2,0.1-0.31
				C156.91,52.84,156.09,51.5,154.76,51.17z"/>
		</g>
		<g id="React4">
			<g>
				<path class="st4" d="M411.14,359.63h-64.47c-4.49,0-8.22,3.24-8.98,7.52l-24.8-13.77l24.65,24.75v23.03
					c0,5.05,4.09,9.14,9.14,9.14h64.47c5.05,0,9.14-4.09,9.14-9.14v-32.39C420.27,363.72,416.18,359.63,411.14,359.63z"/>
				<g>
					<path class="st23" d="M373.97,394.12l4.06-0.67l18.73,13.75v3.1h-31.34c0,0,0.59-9.43,1.03-18.57l1.21,0.88
						C369.48,393.94,371.75,394.49,373.97,394.12z"/>
					<path class="st24" d="M394.89,389.62l0.25-15.23l2.11,17.83l-15.11-5.94c0,0-3.47,3.96-2.97,6.68l17.6,10.65v3.59l-18.73-13.75
						l-4.06,0.67c-2.22,0.36-4.5-0.18-6.31-1.51l-1.21-0.88c0.07-1.39,0.13-2.77,0.19-4.11l13.52-2.83L394.89,389.62z"/>
					<path class="st24" d="M381.63,385.27l13.26,4.35l0.25-15.23l2.11,17.83l-15.11-5.94c0,0-0.12,0.14-0.32,0.38v0
						C381.79,386.2,381.72,385.73,381.63,385.27z"/>
					<path class="st23" d="M357.12,395.81l-6.56-2.6l14.56-26.2c1.17-2.1,3.28-3.52,5.67-3.8l7.24-0.86l11.76-0.09l0.44,0.18
						l8.05,3.38c2.12,0.89,3.69,2.72,4.26,4.95c2.26,8.82,3.59,17.91,4.19,26.97c0.11,1.69-0.22,3.4-1.07,4.86
						c-2.11,3.61-5.47,2.94-8.9,1.02l-17.6-10.65c-0.06-0.34-0.06-0.69-0.02-1.06c0.26-2.03,1.95-4.34,2.67-5.24
						c0.19-0.24,0.32-0.38,0.32-0.38l15.11,5.94l-2.11-17.83l-0.25,15.23l-13.26-4.35c-0.68-3.35-2.89-6.71-5.35-8.16
						c-2.56,2.31,2.48,4.38,0.83,6.27c-1.54,1.78-8.09-0.31-10.26-1.31c0.06-2.05,0.09-3.82,0.07-5.09L357.12,395.81z"/>
					<path class="st24" d="M359.8,382.45c-2.82,3.08-5.64,6.16-8.46,9.23c-0.79,0.86-1.61,1.79-1.77,2.94
						c-0.16,1.14,0.4,2.3,1.25,3.06c0.85,0.77,1.97,1.19,3.1,1.41c1.05,0.21,2.2,0.24,3.13-0.28c1.09-0.61,1.66-1.83,2.16-2.98
						c1.21-2.76,2.41-5.52,3.62-8.28C361.56,386.25,360.3,384.19,359.8,382.45z"/>
					<g>
						<path class="st25" d="M365.43,341.06c-2.47-1.44-3.29-5.34-1.85-7.81c1.07-1.84,3.09-2.88,5.05-3.71
							c3.24-1.37,6.69-2.43,10.21-2.36c3.52,0.07,7.13,1.41,9.34,4.15c2.32,2.87,2.8,6.75,3.6,10.35c0.8,3.6,2.31,7.49,5.64,9.07
							c-2.39,3.57-7.28,5.47-11.57,5.15c-4.29-0.33-8.28-2.47-11.54-5.28S369.14,343.22,365.43,341.06z"/>
						<g>
							<path class="st11" d="M379.55,361.41c0.18-0.33,0.26-0.72,0.19-1.12c-0.18-0.96-0.35-1.94-0.57-2.88
								c2.4-0.87,5.19-3,6.96-4.84c0.33,1.41,0.75,2.8,1.24,4.17C385.7,360.53,383.21,362,379.55,361.41z"/>
							<path class="st8" d="M379.55,361.41c3.9,0.62,6.04-1.43,7.82-4.61c0.71,1.62,1.22,4.33,2.63,6.23
								c-1.5,2.4-6.5,2.96-8.86,1.96c-1-0.42-2.81-1.49-2.99-2.65c0.11-0.07,0.23-0.09,0.36-0.12
								C378.97,362.1,379.34,361.8,379.55,361.41z"/>
						</g>
						<path class="st8" d="M365.43,341.06c0.54,5.31,2.8,10.43,6.37,14.39c2.21,2.45,5.1,4.56,8.61,4.13
							c1.82-0.23,3.51-1.14,4.74-2.5c1.53-1.71,2.61-4.12,2.18-6.35c1.43,0.65,3.33,0.18,4.18-1.14c1.11-1.72,0.04-4.63-2.47-4.37
							c-1.12,0.12-1.99,1-2.23,2.1c-0.18,0.82-0.48,1.44-0.64,2.29c-0.6-1.69-1.29-3.35-1.93-5.02c-0.33-0.86-1.02-1.53-1.9-1.81
							c-0.01,0-0.02-0.01-0.03-0.01c-0.91-0.29-1.63-1-1.93-1.9c-0.05-0.15-0.1-0.29-0.15-0.44c-0.37-1.08-1.46-2.61-2.44-2.02
							C373.68,340.86,369.1,341.1,365.43,341.06z"/>
					</g>
					<g>
						<polygon class="st13" points="359.73,372.15 360.49,371.1 368.42,371.1 373.68,384.35 365.88,383.61 361.27,372.92 						"/>
						<polygon class="st14" points="372.91,385.4 367.65,372.15 359.73,372.15 365.11,384.66 						"/>
					</g>
					<path class="st11" d="M366.35,382.69c-0.17-0.89-0.72-1.69-1.49-2.17c-0.77-0.48-1.74-0.62-2.61-0.37
						c-0.08-0.53-0.69-0.83-1.23-0.8c-0.54,0.03-1.02,0.39-1.31,0.85c-0.3,0.45-0.44,0.99-0.54,1.52c-0.28,1.38-0.36,2.81-0.02,4.18
						c0.33,1.36,1.11,2.65,2.28,3.42c1.04,0.69,2.46,0.91,3.55,0.31c1.06-0.58,1.64-1.81,1.74-3.02
						C366.83,385.4,366.58,383.88,366.35,382.69z"/>
					<path class="st8" d="M366.46,381.88c0.11,0.06,0.24,0.12,0.39,0.19c2.18,1,8.72,3.08,10.26,1.31c1.65-1.9-3.38-3.96-0.83-6.27
						c2.46,1.45,4.67,4.81,5.35,8.16c0.09,0.47,0.16,0.93,0.19,1.39v0c-0.72,0.9-2.41,3.21-2.67,5.24c-1.8,0.16-5.05,0.31-8.74-0.17
						C361.66,390.5,364.82,381,366.46,381.88z"/>
				</g>
			</g>
			<path class="st6" d="M339.05,347.56c1.06-0.26,2.13,0.04,2.9,0.71c0.37-0.95,1.17-1.71,2.24-1.97c1.73-0.43,3.48,0.63,3.9,2.36
				c0.03,0.14,0.06,0.27,0.07,0.41c0.46,3.14-2.5,6.49-4.01,8.13c-2.1-0.76-6.27-2.34-7.33-5.34c-0.05-0.13-0.1-0.26-0.13-0.4
				C336.27,349.74,337.32,347.99,339.05,347.56z"/>
			<path class="st6" d="M346.98,336.35c0.82-0.2,1.64,0.04,2.23,0.55c0.29-0.73,0.91-1.31,1.73-1.51c1.33-0.32,2.67,0.5,3,1.83
				c0.03,0.11,0.04,0.21,0.05,0.32c0.34,2.42-1.95,4.99-3.11,6.25c-1.61-0.59-4.82-1.82-5.63-4.13c-0.04-0.1-0.07-0.2-0.1-0.31
				C344.83,338.02,345.65,336.68,346.98,336.35z"/>
			<path class="st6" d="M334.18,336.84c0.61-0.31,1.3-0.27,1.86,0.03c0.09-0.63,0.48-1.2,1.09-1.51c0.99-0.5,2.2-0.1,2.7,0.89
				c0.04,0.08,0.07,0.16,0.1,0.24c0.72,1.85-0.62,4.3-1.3,5.51c-1.38-0.17-4.14-0.55-5.2-2.23c-0.05-0.07-0.09-0.14-0.13-0.22
				C332.79,338.55,333.18,337.34,334.18,336.84z"/>
		</g>
		<g id="React2">
			<g>
				<path class="st4" d="M282.89,48.46h-58.36c-3.81,0-6.89,3.09-6.89,6.89v33.94c0,3.81,3.09,6.89,6.89,6.89h44.37l-2.09,13.79
					l11.86-13.79h4.22c3.81,0,6.89-3.09,6.89-6.89V55.35C289.78,51.55,286.7,48.46,282.89,48.46z"/>
				<g>
					<polygon class="st26" points="249.36,62.29 232.02,67.32 236.6,96.19 269.04,96.19 269.04,65.1 					"/>
					<g>
						<polygon class="st27" points="267,96.19 271.16,96.19 267,72.82 						"/>
						<path class="st26" d="M271.95,69.16c-0.42-2.16-2.03-3.88-4.15-4.45v8.11l2.67,23.36h6.74L271.95,69.16z"/>
					</g>
					<g>
						<polygon class="st28" points="256.82,87.6 248.66,87.6 247.64,73.81 257.84,73.81 						"/>
						<rect x="247.64" y="71.83" class="st13" width="10.2" height="1.98"/>
					</g>
					<g>
						<g>
							<polygon class="st27" points="236.45,90.14 234.39,76.64 231.34,92.31 							"/>
							<path class="st26" d="M245.99,85.37l-9.54,4.2l-4.72,2.08l2.82-15.01l-1.42-9.67c-2.28,0.81-3.92,2.83-4.26,5.23l-3.5,25.15
								c-0.34,1.11,0.22,2.46,1.17,3.14c0.95,0.68,2.19,0.83,3.34,0.66c1.15-0.17,2.24-0.64,3.3-1.12c5.2-2.35,10.19-5.16,14.9-8.37
								L245.99,85.37z"/>
						</g>
						<path class="st8" d="M245.99,85.37l2.22-3.87l0.14,1.94c0,0,6.49-0.61,8.92-1.94c2.44-1.33,3.65,5.44,0.57,6.68
							c-3.08,1.24-10.1,2.47-10.1,2.47L245.99,85.37z"/>
					</g>
					<g>
						<g>
							<path class="st8" d="M252.96,61.87c-0.08,0.05-0.16,0.11-0.24,0.16c-1.29,0.76-2.82,1.23-4.3,1.01
								c-0.88-0.13-1.67-0.49-2.4-0.97c0,0.09-0.01,0.18-0.01,0.27c-0.02,0.8-0.04,1.61,0.17,2.39c0.42,1.52,1.82,2.73,3.39,2.83
								c1.57,0.1,3.16-1.01,3.52-2.54c0.17-0.73,0.08-1.5-0.01-2.25C253.03,62.46,253,62.17,252.96,61.87z"/>
							<path class="st11" d="M252.72,62.03c0.08-0.05,0.16-0.11,0.24-0.16c-0.18-1.43-0.36-2.87-0.53-4.3
								c-1.93,0.27-4.42,0.24-6.28-0.35c-0.04,1.62-0.09,3.23-0.13,4.85c0.73,0.48,1.53,0.84,2.4,0.97
								C249.9,63.26,251.42,62.79,252.72,62.03z"/>
						</g>
						<g>
							<g>
								<path class="st11" d="M239.22,49.13c-0.45-0.41-1.04-0.74-1.64-0.65c-0.5,0.07-0.94,0.43-1.18,0.88
									c-0.24,0.45-0.32,0.97-0.29,1.48c0.06,1.51,0.99,2.93,2.3,3.69c0.87,0.51,1.93,0.04,2.17-0.94
									c0.13-0.53,0.17-1.08,0.11-1.62C240.56,50.88,240.03,49.85,239.22,49.13z"/>
								<path class="st11" d="M259.33,49.13c0.45-0.41,1.04-0.74,1.64-0.65c0.5,0.07,0.94,0.43,1.18,0.88
									c0.24,0.45,0.32,0.97,0.29,1.48c-0.06,1.51-0.99,2.93-2.3,3.69c-0.87,0.51-1.93,0.04-2.17-0.94
									c-0.13-0.53-0.17-1.08-0.11-1.62C258,50.88,258.52,49.85,259.33,49.13z"/>
							</g>
							<path class="st25" d="M239.57,52.63c-5.56-9.5-3.96-26.88,16.17-21.39c-0.95-0.69-2.09-1.55-3.04-2.24
								c2.01,0.09,3.94,1.2,5.03,2.89c-0.23-0.9-0.37-1.8-0.59-2.7c1.08,0.77,1.75,2.09,1.73,3.42c1.39-0.6,2.76-0.9,4.27-0.72
								c-1.23,0.61-2.46,1.22-3.7,1.84c1.44,0.71,2.51,2.03,2.94,3.59c0.43,1.55,0.37,3.19,0.19,4.79
								c-0.38,3.31-1.97,6.75-3.35,9.78L239.57,52.63z"/>
							<path class="st8" d="M258.41,45.12c-1.78-0.82-3.19-1.91-4.29-3.52c-2.58,2.24-5.79,3.84-9.13,4.59
								c1.57-1.01,2.94-2.33,3.91-3.93c-2.7,1.66-5.72,3.02-8.85,3.47c-0.47,2.27-0.62,4.59-0.48,6.9c1.63,4.6,5.36,7.83,9.71,7.83
								c4.58,0,8.47-3.58,9.94-8.57C259.24,49.6,259.03,47.28,258.41,45.12z"/>
						</g>
					</g>
				</g>
			</g>
			<path class="st6" d="M279,33.9c-1.27-0.31-2.54,0.05-3.45,0.86c-0.44-1.13-1.41-2.03-2.67-2.34c-2.06-0.5-4.14,0.77-4.64,2.83
				c-0.04,0.16-0.06,0.33-0.08,0.49c-0.53,3.75,3.01,7.72,4.82,9.68c2.5-0.91,7.47-2.82,8.71-6.4c0.06-0.15,0.11-0.31,0.15-0.47
				C282.33,36.48,281.07,34.4,279,33.9z"/>
		</g>
		<g id="React5">
			<g>
				<path class="st4" d="M204.39,421.89h68.65c4.48,0,8.11-3.63,8.11-8.11v-39.93c0-4.48-3.63-8.11-8.11-8.11h-52.19l-13.79-21.23
					l2.3,21.23h-4.96c-4.48,0-8.11,3.63-8.11,8.11v39.93C196.28,418.26,199.91,421.89,204.39,421.89z"/>
				<g>
					<path class="st22" d="M254.7,392.87c-0.72-7.41-0.69-14.89,0.09-22.29c0.38-3.6,0.93-7.21,0.73-10.82
						c-0.2-3.61-1.23-7.31-3.64-10.01c-2.41-2.7-6.79-4.14-10.2-2.91c-4.69-1.98-10.54-0.83-14.13,2.77
						c-3.58,3.58-4.73,8.96-4.69,14.02c0.04,5.06,1.11,10.07,1.25,15.13c0.14,5.06-0.78,10.44-4.13,14.24
						C230.23,400.02,244.02,399.22,254.7,392.87z"/>
					<polygon class="st29" points="240.01,381.52 259.11,387.51 254.06,421.89 218.32,421.89 218.32,384.87 					"/>
					<g>
						<polygon class="st14" points="231.23,411.79 240.84,411.79 242.04,395.57 230.04,395.57 						"/>
						<rect x="230.04" y="393.24" class="st13" width="12" height="2.33"/>
					</g>
					<g>
						<path class="st8" d="M235.78,381.52c0.1,0.06,0.19,0.13,0.29,0.19c1.52,0.9,3.32,1.45,5.06,1.18
							c1.03-0.16,1.96-0.58,2.82-1.14c0,0.11,0.01,0.21,0.01,0.32c0.03,0.94,0.05,1.9-0.2,2.81c-0.49,1.78-2.14,3.22-3.99,3.33
							c-1.85,0.11-3.71-1.19-4.14-2.99c-0.2-0.86-0.1-1.77,0.01-2.65C235.69,382.22,235.73,381.87,235.78,381.52z"/>
						<path class="st11" d="M236.06,381.71c-0.1-0.06-0.19-0.13-0.29-0.19c0.21-1.69,0.42-3.38,0.63-5.06
							c2.27,0.31,5.2,0.28,7.39-0.41c0.05,1.9,0.11,3.8,0.16,5.7c-0.86,0.57-1.79,0.99-2.82,1.14
							C239.38,383.16,237.59,382.61,236.06,381.71z"/>
					</g>
					<g>
						<path class="st11" d="M251.94,366.53c0.53-0.48,1.22-0.87,1.93-0.77c0.59,0.08,1.1,0.51,1.39,1.03
							c0.29,0.53,0.37,1.14,0.35,1.74c-0.07,1.78-1.17,3.45-2.7,4.34c-1.03,0.6-2.27,0.04-2.55-1.11c-0.16-0.62-0.2-1.27-0.13-1.9
							C250.37,368.6,250.99,367.39,251.94,366.53z"/>
						<path class="st11" d="M228.29,366.53c-0.53-0.48-1.22-0.87-1.93-0.77c-0.59,0.08-1.1,0.51-1.39,1.03
							c-0.29,0.53-0.37,1.14-0.35,1.74c0.07,1.78,1.17,3.45,2.7,4.34c1.03,0.6,2.27,0.04,2.55-1.11c0.15-0.62,0.2-1.27,0.13-1.9
							C229.86,368.6,229.23,367.39,228.29,366.53z"/>
					</g>
					<g>
						<path class="st11" d="M260.76,416.55l-5.56-2.45l0.81-5.49c1.04-0.24,2.08-0.49,3.12-0.73L260.76,416.55z"/>
						<path class="st30" d="M256.01,408.61l1.43-9.72l1.69,8.99C258.09,408.12,257.05,408.37,256.01,408.61z"/>
						<path class="st8" d="M255.2,414.11l5.56,2.45l-1.63-8.67c2.25-0.53,4.5-1.06,6.75-1.58l2.36,16.96
							c0.4,1.31-0.26,2.9-1.37,3.69c-1.12,0.79-2.58,0.98-3.93,0.78c-1.36-0.2-2.63-0.75-3.88-1.31
							c-6.11-2.77-11.6-7.24-17.14-11.03l2.06-6.21L255.2,414.11z"/>
						<path class="st29" d="M257.44,398.89l1.67-11.38c2.69,0.95,4.62,3.32,5.01,6.15l2.91,12.64c-2.25,0.53-5.65,1.06-7.9,1.58
							L257.44,398.89z"/>
						<path class="st8" d="M230.7,404.61c2.87,1.56,10.5,2.28,10.5,2.28l0.17-2.28l2.61,4.56l-2.06,6.21c0,0-8.25-1.45-11.88-2.91
							C226.41,411.02,227.84,403.05,230.7,404.61z"/>
					</g>
					<g>
						<polygon class="st30" points="218.32,394.41 218.32,408.07 216.83,407.46 						"/>
						<polygon class="st11" points="218.32,408.07 218.32,421.89 215.18,421.89 216.83,407.46 						"/>
						<polygon class="st8" points="216.83,407.46 215.18,421.89 207.25,421.89 210.56,404.89 						"/>
						<path class="st29" d="M209.19,404.89l4.24-14.79c0.49-2.54,2.39-4.57,4.89-5.24v9.54l-1.49,13.05L209.19,404.89z"/>
					</g>
					<path class="st8" d="M241.14,355.81c-3.25,4.25-7.54,7.7-12.38,9.99c-0.03,1.57-0.06,3.15-0.09,4.72
						c1.89,5.48,6.29,9.33,11.44,9.33c4.75,0,8.88-3.27,10.97-8.08c-0.04-2.21-0.08-4.41-0.13-6.61
						C246.94,362.99,243.57,359.69,241.14,355.81z"/>
				</g>
			</g>
			<path class="st6" d="M266.37,345.79c1.5,0.33,2.65,1.37,3.2,2.69c1.05-0.96,2.54-1.42,4.04-1.09c2.44,0.54,3.98,2.96,3.44,5.39
				c-0.04,0.19-0.1,0.38-0.17,0.56c-1.38,4.23-7.18,6.6-10.1,7.73c-2.17-2.26-6.43-6.85-5.89-11.27c0.02-0.19,0.04-0.39,0.09-0.58
				C261.52,346.79,263.93,345.25,266.37,345.79z"/>
		</g>
		<g id="React3">
			<path class="st4" d="M355.33,109.57V72.75c0-2.98,2.42-5.39,5.39-5.39h61.53c2.98,0,5.39,2.42,5.39,5.39v36.83
				c0,2.98-2.42,5.39-5.39,5.39h-51.47l-15.45,15.28l5.25-15.29C357.67,114.88,355.33,112.5,355.33,109.57z"/>
			<g>
				<path class="st6" d="M363.73,60.4c-0.59,0.22-1,0.71-1.16,1.28c-0.49-0.33-1.11-0.43-1.69-0.21c-0.97,0.36-1.45,1.47-1.08,2.46
					c0.64,1.74,2.74,2.56,4.72,3.02c1.24-1.61,2.36-3.6,1.7-5.38C365.85,60.55,364.73,60.03,363.73,60.4z"/>
				<path class="st6" d="M366.73,54.33c-0.41-0.09-0.82,0.04-1.11,0.31c-0.16-0.36-0.47-0.64-0.88-0.73c-0.68-0.14-1.34,0.31-1.49,1
					c-0.26,1.21,0.62,2.43,1.57,3.4c1.28-0.46,2.63-1.18,2.9-2.42C367.87,55.17,367.43,54.48,366.73,54.33z"/>
			</g>
			<g>
				<g>
					<path class="st31" d="M412.43,81.92c-2.11-4.17-5.83-7.74-6.26-12.39c-0.14-1.48,0.08-3-0.22-4.45
						c-0.3-1.46-1.35-2.93-2.83-3.04c-4.41,2.72-11.21,3.75-16.38,3.48c1.42,2.88,1.93,6.1,1.89,9.31c-0.02,1.97-0.33,3.95-0.02,5.9
						c0.25,1.54,0.88,2.98,1.3,4.48c0.91,3.21,0.87,6.59,0.23,9.89c0.43,0.45,0.85,0.9,1.28,1.31c1.07,1.04,2.21,2.13,3.66,2.49
						c1.34,0.33,2.75-0.01,4.13-0.06c2.47-0.1,4.86,0.74,7.3,1.12c1.79,0.28,3.66,0.3,5.41-0.12c1.11-1.92,1.9-4.03,2.27-6.22
						C414.87,89.66,414.25,85.5,412.43,81.92z"/>
					<path class="st32" d="M423.19,79.49c-0.48-1.58-1.84-2.73-3.24-3.6c-1.4-0.87-2.93-1.58-4.12-2.72
						c-1.69-1.63-2.45-4.11-2.11-6.42c0.34-2.29,1.01-4.5-0.33-6.68c-1.46-2.38-4.65-3.13-6.37-5.34c-1.43-1.83-1.59-4.31-2.33-6.51
						c-1.41-4.16-5.2-7.42-9.53-8.18c-4.33-0.76-9.48,1.09-12.22,4.53c-3.43,1.01-5.76,4.84-5.07,8.35
						c0.49,2.48,2.27,4.74,2.02,7.26c-0.29,2.9-3.24,5.18-3.03,8.09c0.15,2.1,1.89,3.68,3.47,5.07c1.58,1.39,3.26,3.09,3.21,5.2
						c-0.05,2.07-1.77,3.74-2.19,5.77c0,2.91,0.91,3.98,3.25,5.53c2.02,1.35,3.81,3.4,5.56,5.26c0.64-3.3,0.68-6.67-0.23-9.89
						c-0.43-1.5-1.05-2.94-1.3-4.48c-0.31-1.94-0.01-3.93,0.02-5.9c0.04-3.22-0.46-6.43-1.89-9.31c5.17,0.27,11.98-0.76,16.38-3.48
						c1.48,0.11,2.53,1.58,2.83,3.04c0.3,1.46,0.08,2.97,0.22,4.45c0.43,4.65,4.15,8.22,6.26,12.39c1.81,3.57,2.44,7.74,1.76,11.69
						c-0.38,2.19-1.16,4.3-2.27,6.22c0.46-0.11,0.92-0.25,1.37-0.42c2.13-0.85,3.99-2.58,4.62-4.78c0.37-1.29,0.32-2.68,0.67-3.97
						c0.54-2,1.96-3.62,3.12-5.34C422.85,83.59,423.79,81.47,423.19,79.49z"/>
				</g>
				<g>
					<path class="st7" d="M394.14,98.7c1.31-1.31,3.44-1.31,4.76,0c0.01,0.01,0.02,0.01,0.02,0.02c-0.02-0.02-0.04-0.03-0.05-0.05
						C397.58,97.35,395.45,97.4,394.14,98.7z"/>
					<path class="st33" d="M392.39,99.66c0.43-0.09,0.84-0.26,1.21-0.5c0.18-0.12,0.35-0.26,0.51-0.42l0.04-0.04
						c1.3-1.3,3.44-1.35,4.73-0.03c0.02,0.02,0.04,0.03,0.05,0.05c0.15,0.15,0.31,0.28,0.48,0.39c0.01,0.01,0.02,0.01,0.03,0.02
						c0.17,0.11,0.36,0.21,0.55,0.29c0.01,0,0.02,0.01,0.02,0.01c0.2,0.08,0.4,0.14,0.61,0.18c0,0,0.01,0,0.01,0
						c0.21,0.04,0.43,0.06,0.65,0.06h2.87c0.57,0,1.12,0.09,1.66,0.26l10.82-18.41c-0.07-2.38-1.53-4.55-3.77-5.51l-1.15-0.5
						c-1.53-0.66-5.37-1.42-7.03-1.44l-5.75-0.46l-10.52,3.95c0,0,0,8.7-2.54,14.39c-0.98,2.2-0.37,4.83,1.57,6.26
						c0.74,0.54,1.59,1.04,2.55,1.51h1.75C391.95,99.73,392.17,99.7,392.39,99.66z"/>
					<path class="st34" d="M405.81,99.94c-0.53-0.17-1.09-0.26-1.66-0.26h-2.87c-0.22,0-0.44-0.02-0.65-0.06c0,0-0.01,0-0.01,0
						c-0.21-0.04-0.41-0.1-0.61-0.18c-0.01,0-0.02-0.01-0.02-0.01c-0.19-0.08-0.38-0.18-0.55-0.29c-0.01-0.01-0.02-0.01-0.03-0.02
						c-0.17-0.11-0.33-0.25-0.48-0.39c-0.01-0.01-0.02-0.01-0.02-0.02c-1.31-1.31-3.44-1.31-4.76,0l-0.04,0.04
						c-0.16,0.16-0.33,0.3-0.51,0.42c-0.37,0.24-0.78,0.41-1.21,0.5c-0.22,0.04-0.44,0.07-0.66,0.07h-1.75l0.33,1.6H405l-8.13,13.83
						l0,0h8.99l10.45-30.7l0,0c0.09-0.63,0.17-1.26,0.26-1.88c0.05-0.35,0.07-0.7,0.06-1.04L405.81,99.94z"/>
					<path class="st33" d="M415.6,115.15c-1.96-6.6-0.74-19.88,0.71-30.7h0l-10.45,30.7H415.6z"/>
					<polygon class="st33" points="405,101.32 390.31,101.32 393.15,115.15 396.87,115.15 396.87,115.15 					"/>
				</g>
				<g>
					<g>
						<path class="st8" d="M403.63,72.62c-0.3-0.77-0.38-1.6-0.46-2.41c-0.13-1.26-0.26-2.53-0.38-3.79
							c-0.31,1.32-0.7,2.61-1.28,3.83c-0.94,1.96-2.47,3.73-4.5,4.49c-0.3,0.11-0.61,0.2-0.92,0.26c-0.02,0.47-0.08,0.95-0.19,1.41
							c0.66,1.7,2.62,2.88,4.43,2.6c1.15-0.18,2.18-0.84,2.99-1.67c0.81-0.83,1.44-1.82,2.05-2.81
							C404.61,74.21,403.93,73.39,403.63,72.62z"/>
						<path class="st11" d="M401.51,70.24c0.58-1.22,0.97-2.51,1.28-3.83c-0.1-1-0.2-2.01-0.3-3.01c-1.03-0.34-2.23-0.04-3.12,0.57
							c-0.9,0.61-1.59,1.48-2.26,2.33c-0.9,1.13-1.59,2.47-2.48,3.6c1.05,1.47,1.56,3.3,1.47,5.09c0.31-0.07,0.62-0.15,0.92-0.26
							C399.04,73.97,400.57,72.2,401.51,70.24z"/>
					</g>
					<path class="st8" d="M401.64,63.88c1.06,0.28,2.23,0.16,3.16-0.4c0.94-0.56,1.6-1.59,1.65-2.68c0.05-1.09-0.56-2.21-1.54-2.69
						c-0.98-0.48-2.29-0.24-2.98,0.6c-0.42,0.51-0.6,1.2-0.61,1.86c-0.01,0.67,0.21,1.31,0.39,1.96c-1.2-0.92-2.03-2.11-2.53-3.54
						c-2.74,0.39-5.6-0.14-8.01-1.49c-2.41-1.35-4.13-3.63-5.22-6.17c-1.31,2.62-2.16,5.46-2.51,8.37
						c2.18,9.57,5.82,13.8,10.93,13.28C399.5,72.45,401.64,63.88,401.64,63.88z"/>
				</g>
				<g>
					<path class="st11" d="M379.34,105.14c-0.38,1.53,0.09,3.15,1.22,4.25c1.64,1.6,4.23,1.69,5.98,0.22l0.37-0.31
						c0.94-0.79,1.5-1.93,1.58-3.15l0.6-10.35l-6.16-5.29L379.34,105.14z"/>
					<path class="st8" d="M390.05,74.56c2.05-1.84,2.71-5.09,1.47-7.57c-0.19-0.39-0.44-0.75-0.78-1.02
						c-1.16-0.92-2.27-0.27-3.19,0.39c-0.73,0.53-1.42,1.12-2.08,1.74c-1.21,1.14-1.53,2.93-0.8,4.42l1.46,2.99
						c0.2,0.41,0.25,0.87,0.14,1.31l-3.35,13.67l6.16,5.29l0.89-15.33l0.66-1.92c0.34-0.98,0.34-2.05-0.06-3
						C390.43,75.19,390.25,74.86,390.05,74.56z"/>
				</g>
				<g>
					<g>
						<path class="st35" d="M376.24,91.37l-5.09-19.25c-0.12-0.44-0.53-0.72-0.98-0.68l-6.35,0.67c-0.08,0.01-0.15,0.03-0.21,0.06
							l0,0l-1.16,0.49l1.14,1.86l5.29,17.18c0.12,0.38,0.47,0.65,0.87,0.65h4.81l0.21,0.35l1.04-0.42
							C376.14,92.12,376.34,91.75,376.24,91.37z"/>
						<path class="st36" d="M361.99,73.6l5.72,18.58c0.12,0.38,0.47,0.65,0.87,0.65h5.74c0.51,0,0.89-0.48,0.75-0.98l-5.09-19.25
							c-0.12-0.44-0.53-0.72-0.98-0.68l-6.35,0.67C362.17,72.65,361.85,73.13,361.99,73.6z"/>
					</g>
					<g>
						<path class="st11" d="M396.49,103.09l-1.32,2.79l2.38,1.8C397.74,106.08,397.36,104.43,396.49,103.09z"/>
						<path class="st8" d="M413.86,77.62c-2.31-1.26-5.21-0.32-6.33,2.06l-11.04,23.4c0.87,1.34,1.25,2.99,1.06,4.6l-2.38-1.8
							l-17.39-15.9c1.02-3.41,0.92-7.17-0.17-10.56c-0.48-0.25-1.1,0.01-1.4,0.45c-0.3,0.44-0.35,1.01-0.31,1.54
							c0.05,0.53,0.18,1.06,0.19,1.6c0.02,0.91-0.5,1.85-1.1,2.53c-3.1,0.23-6.36-0.88-8.62-3c-0.76-0.72-2.04-0.17-2.01,0.88
							c0.06,2.63,1.15,5.24,3.07,7.05c1.71,1.61,3.93,2.65,6.19,3.29l18.37,19.74c2.54,2.73,7.03,2.13,8.76-1.17l14.98-28.54
							C416.88,81.55,416.06,78.82,413.86,77.62z"/>
					</g>
				</g>
			</g>
		</g>
	</g>
</g>
<g id="DESIGNED_BY_FREEPIK">
</g>
</svg>
