<?xml version="1.0" encoding="UTF-8"?>
<svg xmlns="http://www.w3.org/2000/svg" xmlns:xlink="http://www.w3.org/1999/xlink" width="3000" height="3000" viewBox="0 0 3000 3000">

<path fill-rule="nonzero" fill="rgb(59.568787%, 22.363281%, 96.484375%)" fill-opacity="1" d="M 2747.589844 1494.511719 C 2744.78125 2149.183594 2211.78125 2677.621094 1557.109375 2674.808594 C 902.441406 2671.996094 374.003906 2139 376.816406 1484.328125 C 379.628906 829.660156 912.625 301.21875 1567.300781 304.03125 C 2221.96875 306.851562 2750.398438 839.839844 2747.589844 1494.511719 Z M 2747.589844 1494.511719 "/>
<path fill-rule="nonzero" fill="rgb(0%, 0%, 0%)" fill-opacity="1" d="M 1473.949219 634.898438 C 1474.070312 634.898438 1474.179688 634.921875 1474.289062 634.960938 C 1474.351562 634.980469 1474.398438 635 1474.460938 635.011719 C 1474.46875 635.011719 1474.488281 635.011719 1474.5 635.019531 C 1474.578125 635.03125 1474.648438 635.03125 1474.710938 635.03125 L 1740.621094 637.871094 L 1740.628906 637.871094 C 1740.671875 637.871094 1740.699219 637.871094 1740.738281 637.859375 C 1751.140625 637.089844 1761.480469 636.308594 1771.878906 636.359375 C 1771.910156 636.359375 1771.941406 636.359375 1771.96875 636.359375 C 1781.53125 636.410156 1791.109375 637.140625 1800.769531 639.199219 C 1820.988281 643.519531 1841.300781 653.558594 1850.25 675.640625 C 1858.128906 695.050781 1857.371094 723.859375 1856.289062 763.230469 L 1856.289062 763.25 C 1856.128906 769.109375 1855.96875 775.160156 1855.820312 781.480469 C 1854.710938 830.058594 1854.921875 892.03125 1855.128906 953.980469 L 1855.128906 954.03125 L 1844.121094 2188.441406 L 1844.109375 2188.507812 C 1843.25 2200.265625 1842.390625 2211.65625 1836.859375 2221.46875 C 1831.300781 2231.324219 1820.960938 2239.699219 1809.960938 2243.957031 C 1798.980469 2248.207031 1787.339844 2248.367188 1775.421875 2248.511719 L 1775.398438 2248.511719 L 1467.839844 2245.648438 L 1467.828125 2245.648438 C 1467.820312 2245.648438 1467.808594 2245.648438 1467.789062 2245.648438 C 1467.78125 2245.648438 1467.769531 2245.648438 1467.761719 2245.648438 C 1467.730469 2245.648438 1467.699219 2245.648438 1467.671875 2245.644531 C 1467.671875 2245.644531 1467.660156 2245.644531 1467.660156 2245.644531 L 1467.429688 2245.644531 C 1467.421875 2245.644531 1467.398438 2245.644531 1467.378906 2245.644531 C 1467.378906 2245.644531 1467.371094 2245.644531 1467.359375 2245.644531 L 1467.351562 2245.644531 C 1467.339844 2245.644531 1467.339844 2245.644531 1467.328125 2245.644531 L 1467.320312 2245.644531 L 1467.039062 2245.640625 L 1466.988281 2245.640625 C 1466.980469 2245.640625 1466.96875 2245.640625 1466.949219 2245.640625 L 1466.960938 2245.644531 C 1466.949219 2245.644531 1466.941406 2245.644531 1466.929688 2245.644531 C 1466.921875 2245.644531 1466.910156 2245.644531 1466.890625 2245.644531 L 1466.898438 2245.644531 C 1466.890625 2245.644531 1466.871094 2245.644531 1466.859375 2245.644531 L 1159.25 2245.867188 L 1159.230469 2245.867188 C 1147.308594 2245.617188 1135.671875 2245.359375 1124.730469 2241.015625 C 1113.769531 2236.660156 1103.5 2228.199219 1098.03125 2218.292969 L 1098.03125 2218.296875 C 1092.570312 2208.414062 1091.808594 2196.992188 1091.058594 2185.195312 L 1091.058594 2185.128906 L 1090.648438 950.75 L 1090.648438 950.691406 C 1091.390625 888.75 1092.140625 826.78125 1091.441406 778.199219 C 1091.351562 771.929688 1091.238281 765.871094 1091.128906 760.050781 L 1091.128906 759.941406 C 1090.390625 720.570312 1089.878906 691.75 1097.910156 672.410156 C 1107.070312 650.410156 1127.460938 640.539062 1147.710938 636.398438 C 1157.410156 634.410156 1167.03125 633.761719 1176.609375 633.800781 L 1176.671875 633.800781 L 1176.679688 633.808594 L 1176.691406 633.808594 C 1187.070312 633.851562 1197.378906 634.710938 1207.75 635.570312 C 1207.789062 635.578125 1207.828125 635.578125 1207.859375 635.578125 C 1207.859375 635.578125 1207.871094 635.578125 1207.871094 635.578125 L 1473.429688 635.03125 L 1473.441406 635.03125 C 1473.589844 634.949219 1473.769531 634.898438 1473.949219 634.898438 Z M 1474.078125 603.261719 C 1473.039062 603.25 1472 603.300781 1470.980469 603.390625 L 1209.089844 603.929688 C 1199.328125 603.121094 1188.359375 602.230469 1177.140625 602.160156 C 1177.011719 602.160156 1176.878906 602.160156 1176.75 602.160156 C 1165.640625 602.109375 1153.769531 602.859375 1141.378906 605.398438 C 1116.519531 610.480469 1083.679688 624.21875 1068.699219 660.261719 C 1057.480469 687.238281 1058.808594 724.378906 1059.488281 760.53125 L 1059.488281 760.648438 C 1059.601562 766.480469 1059.710938 772.460938 1059.808594 778.648438 C 1060.488281 826.71875 1059.761719 888.230469 1059.019531 950.308594 L 1059.019531 950.320312 L 1059.011719 950.359375 C 1059.011719 950.421875 1059.011719 950.480469 1059.011719 950.550781 L 1059.011719 950.558594 C 1059.011719 950.628906 1059.011719 950.691406 1059.011719 950.761719 L 1059.410156 2185.140625 C 1059.410156 2185.476562 1059.421875 2185.8125 1059.429688 2186.148438 L 1059.429688 2186.214844 C 1059.441406 2186.546875 1059.460938 2186.882812 1059.480469 2187.21875 C 1060.140625 2197.628906 1060.871094 2216.449219 1070.328125 2233.59375 C 1070.359375 2233.648438 1070.390625 2233.703125 1070.429688 2233.757812 C 1079.898438 2250.808594 1096.25 2263.75 1113.050781 2270.421875 C 1113.050781 2270.421875 1113.050781 2270.421875 1113.058594 2270.425781 C 1130.171875 2277.21875 1147.628906 2277.273438 1158.570312 2277.5 C 1158.671875 2277.5 1158.75 2277.503906 1158.839844 2277.503906 L 1158.859375 2277.503906 C 1158.949219 2277.507812 1159.03125 2277.507812 1159.109375 2277.507812 C 1159.171875 2277.507812 1159.21875 2277.507812 1159.28125 2277.507812 L 1466.878906 2277.289062 L 1466.871094 2277.289062 C 1466.980469 2277.289062 1467.089844 2277.289062 1467.199219 2277.285156 L 1467.210938 2277.289062 C 1467.230469 2277.285156 1467.25 2277.285156 1467.25 2277.285156 L 1467.25 2277.289062 C 1467.300781 2277.285156 1467.339844 2277.289062 1467.390625 2277.289062 L 1467.378906 2277.289062 C 1467.460938 2277.289062 1467.558594 2277.289062 1467.648438 2277.289062 L 1467.648438 2277.292969 C 1467.691406 2277.289062 1467.71875 2277.292969 1467.761719 2277.292969 L 1775.101562 2280.152344 C 1775.160156 2280.152344 1775.210938 2280.152344 1775.269531 2280.152344 C 1775.351562 2280.15625 1775.429688 2280.15625 1775.519531 2280.152344 L 1775.539062 2280.152344 C 1775.628906 2280.152344 1775.71875 2280.152344 1775.808594 2280.152344 C 1786.75 2280.019531 1804.210938 2280.117188 1821.390625 2273.464844 C 1838.308594 2266.914062 1854.808594 2254.054688 1864.421875 2237.003906 C 1874.019531 2219.976562 1874.910156 2201.207031 1875.671875 2190.8125 C 1875.691406 2190.472656 1875.71875 2190.132812 1875.730469 2189.792969 L 1875.730469 2189.726562 C 1875.75 2189.390625 1875.75 2189.054688 1875.761719 2188.722656 L 1886.769531 954.320312 C 1886.769531 954.269531 1886.769531 954.21875 1886.769531 954.171875 L 1886.769531 954.160156 C 1886.769531 954.089844 1886.769531 954.019531 1886.769531 953.941406 L 1886.769531 953.898438 C 1886.769531 953.890625 1886.769531 953.890625 1886.769531 953.871094 C 1886.558594 891.78125 1886.359375 830.28125 1887.449219 782.210938 C 1887.460938 782.019531 1887.460938 781.820312 1887.460938 781.621094 L 1887.46875 781.621094 C 1887.601562 775.808594 1887.75 770.308594 1887.898438 764.808594 L 1887.890625 764.808594 C 1887.910156 764.570312 1887.910156 764.328125 1887.921875 764.089844 L 1887.921875 764.011719 C 1888.910156 727.890625 1890.558594 690.808594 1879.570312 663.738281 C 1864.898438 627.570312 1832.179688 613.558594 1807.371094 608.261719 C 1795.199219 605.660156 1783.5 604.789062 1772.539062 604.71875 C 1772.359375 604.71875 1772.191406 604.71875 1772.019531 604.710938 C 1760.660156 604.671875 1749.550781 605.480469 1739.671875 606.210938 L 1477.140625 603.410156 L 1477.140625 603.421875 C 1476.128906 603.320312 1475.109375 603.269531 1474.089844 603.261719 Z M 1474.078125 603.261719 "/>
<path fill-rule="nonzero" fill="rgb(100%, 100%, 100%)" fill-opacity="1" d="M 1467.589844 2246.375 L 1467.660156 2246.378906 L 1467.648438 2246.378906 L 1467.621094 2246.375 L 1467.609375 2246.375 C 1467.609375 2246.375 1467.601562 2246.375 1467.589844 2246.375 Z M 1473.949219 634.171875 C 1473.710938 634.171875 1473.480469 634.210938 1473.28125 634.300781 L 1473.269531 634.300781 L 1207.898438 634.851562 C 1207.890625 634.839844 1207.878906 634.839844 1207.871094 634.839844 L 1207.859375 634.839844 L 1207.859375 634.851562 C 1207.851562 634.839844 1207.839844 634.839844 1207.820312 634.839844 L 1207.808594 634.839844 C 1197.449219 633.980469 1187.121094 633.121094 1176.730469 633.070312 L 1176.621094 633.070312 C 1167 633.03125 1157.351562 633.679688 1147.601562 635.679688 C 1147.589844 635.679688 1147.578125 635.679688 1147.570312 635.679688 C 1127.199219 639.839844 1106.519531 649.800781 1097.238281 672.121094 C 1089.128906 691.640625 1089.660156 720.660156 1090.390625 759.949219 L 1090.398438 760.070312 C 1090.511719 765.890625 1090.621094 771.941406 1090.710938 778.210938 C 1091.398438 826.78125 1090.660156 888.730469 1089.921875 950.679688 L 1089.921875 950.75 L 1090.320312 2185.128906 L 1090.320312 2185.242188 C 1091.078125 2197.003906 1091.839844 2208.597656 1097.390625 2218.648438 C 1097.390625 2218.65625 1097.398438 2218.664062 1097.398438 2218.671875 C 1102.960938 2228.730469 1113.371094 2237.292969 1124.460938 2241.695312 C 1135.539062 2246.097656 1147.320312 2246.351562 1159.210938 2246.597656 L 1159.25 2246.597656 L 1466.859375 2246.378906 C 1466.859375 2246.378906 1466.878906 2246.378906 1466.878906 2246.378906 L 1466.890625 2246.378906 C 1466.910156 2246.378906 1466.929688 2246.378906 1466.941406 2246.378906 C 1466.960938 2246.378906 1466.96875 2246.375 1466.988281 2246.375 L 1467 2246.375 C 1467.019531 2246.375 1467.03125 2246.375 1467.039062 2246.375 L 1467.050781 2246.375 L 1467.308594 2246.378906 L 1467.320312 2246.378906 C 1467.328125 2246.378906 1467.339844 2246.378906 1467.351562 2246.378906 C 1467.351562 2246.378906 1467.359375 2246.378906 1467.359375 2246.378906 L 1467.371094 2246.378906 C 1467.371094 2246.378906 1467.371094 2246.378906 1467.378906 2246.378906 C 1467.390625 2246.378906 1467.398438 2246.378906 1467.410156 2246.378906 L 1467.429688 2246.378906 C 1467.441406 2246.378906 1467.449219 2246.378906 1467.460938 2246.378906 L 1467.640625 2246.378906 C 1467.679688 2246.378906 1467.710938 2246.382812 1467.738281 2246.382812 C 1467.75 2246.382812 1467.75 2246.382812 1467.761719 2246.382812 C 1467.769531 2246.382812 1467.78125 2246.382812 1467.789062 2246.382812 C 1467.800781 2246.382812 1467.808594 2246.382812 1467.820312 2246.382812 L 1467.828125 2246.382812 C 1467.839844 2246.382812 1467.851562 2246.382812 1467.859375 2246.382812 L 1775.390625 2249.246094 L 1775.429688 2249.246094 C 1787.328125 2249.101562 1799.109375 2248.945312 1810.230469 2244.640625 C 1821.359375 2240.332031 1831.839844 2231.851562 1837.488281 2221.828125 C 1843.121094 2211.847656 1843.988281 2200.289062 1844.839844 2188.558594 L 1844.851562 2188.535156 L 1844.851562 2188.445312 L 1855.859375 954.039062 L 1855.859375 953.980469 L 1855.859375 953.988281 L 1855.859375 953.980469 C 1855.648438 892.019531 1855.441406 830.058594 1856.558594 781.5 L 1856.558594 781.488281 C 1856.699219 775.179688 1856.859375 769.121094 1857.019531 763.269531 L 1857.019531 763.25 L 1857.03125 763.160156 C 1858.101562 723.921875 1858.878906 694.929688 1850.929688 675.359375 C 1841.839844 652.960938 1821.25 642.820312 1800.921875 638.488281 C 1791.21875 636.421875 1781.601562 635.671875 1772.011719 635.628906 C 1771.96875 635.621094 1771.921875 635.621094 1771.878906 635.621094 C 1761.460938 635.578125 1751.101562 636.359375 1740.710938 637.128906 L 1740.699219 637.128906 C 1740.691406 637.128906 1740.691406 637.128906 1740.679688 637.128906 C 1740.671875 637.128906 1740.660156 637.128906 1740.640625 637.128906 C 1740.640625 637.128906 1740.640625 637.128906 1740.628906 637.128906 L 1740.628906 637.140625 C 1740.628906 637.128906 1740.628906 637.128906 1740.628906 637.128906 L 1474.71875 634.300781 C 1474.699219 634.300781 1474.679688 634.300781 1474.640625 634.300781 C 1474.628906 634.289062 1474.621094 634.289062 1474.609375 634.289062 C 1474.578125 634.28125 1474.558594 634.28125 1474.53125 634.269531 C 1474.339844 634.199219 1474.148438 634.171875 1473.949219 634.171875 Z M 1473.949219 634.171875 "/>
<path fill-rule="nonzero" fill="rgb(85.9375%, 85.9375%, 85.9375%)" fill-opacity="1" d="M 1090.21875 1938.320312 L 1090.410156 1717.941406 C 1097.859375 1722.328125 1105.308594 1726.710938 1118.609375 1754.46875 C 1131.898438 1782.230469 1151.039062 1833.351562 1155.359375 1865.871094 C 1159.679688 1898.390625 1149.179688 1912.308594 1138.941406 1920.871094 C 1128.699219 1929.429688 1118.730469 1932.628906 1112.269531 1934.441406 C 1105.800781 1936.25 1102.839844 1936.679688 1099.890625 1937.089844 Z M 1090.21875 1938.320312 "/>
<path fill-rule="nonzero" fill="rgb(85.9375%, 85.9375%, 85.9375%)" fill-opacity="1" d="M 1090.511719 1963.191406 L 1090.070312 2138.078125 C 1101.308594 2139.789062 1112.539062 2141.503906 1125.898438 2141.960938 C 1130.039062 2142.101562 1134.378906 2142.125 1138.988281 2141.988281 C 1158.5 2141.414062 1182.800781 2138.019531 1197.140625 2123.402344 C 1211.488281 2108.78125 1215.878906 2082.9375 1211.410156 2062.160156 C 1206.941406 2041.386719 1193.601562 2025.675781 1177.140625 2012.210938 C 1160.691406 1998.75 1141.109375 1987.519531 1121.53125 1976.308594 Z M 1090.511719 1963.191406 "/>
<path fill-rule="nonzero" fill="rgb(85.9375%, 85.9375%, 85.9375%)" fill-opacity="1" d="M 1853.058594 1268.039062 L 1850.460938 1561.691406 C 1831.898438 1502.960938 1813.339844 1444.238281 1808.058594 1401.078125 C 1802.78125 1357.929688 1810.78125 1330.351562 1820.5 1309.761719 C 1830.230469 1289.160156 1841.679688 1275.550781 1853.140625 1261.941406 Z M 1853.058594 1268.039062 "/>
<path fill-rule="nonzero" fill="rgb(100%, 73.242188%, 51.367188%)" fill-opacity="1" d="M 1974.761719 1148.371094 L 1973.25 1148.390625 C 1941.359375 1153.820312 1906.820312 1184.890625 1869.640625 1241.621094 C 1845.039062 1275.820312 1829.980469 1316.140625 1824.480469 1362.589844 C 1823.851562 1369.078125 1823.449219 1375.808594 1823.269531 1382.769531 L 1874.238281 1655.070312 L 1883.941406 1690.71875 C 1883.449219 1692.328125 1882.429688 1692.230469 1880.859375 1690.410156 L 1875.78125 2188.320312 C 1875.058594 2209.167969 1872.160156 2223.789062 1867.058594 2232.1875 C 1856.269531 2259.175781 1831.558594 2274.96875 1792.929688 2279.5625 L 1424.171875 2276.277344 C 1431.820312 2299.472656 1451.488281 2332.421875 1483.191406 2375.117188 C 1618.691406 2507.027344 1698.019531 2598.179688 1721.171875 2648.570312 C 1758.28125 2714.164062 1794.140625 2819.84375 1828.761719 2965.609375 L 2504.410156 2974.070312 L 2133.128906 2253.121094 C 2147.710938 2248.03125 2160.429688 2187.964844 2171.289062 2072.914062 C 2184.078125 1959.25 2185.609375 1874.890625 2175.871094 1819.820312 C 2169.5 1786.089844 2161.46875 1758.78125 2151.800781 1737.910156 L 2072.789062 1589.679688 C 2060.519531 1562.75 2050.96875 1536.988281 2044.140625 1512.390625 C 2014.820312 1412.691406 2008.378906 1309.519531 2024.839844 1202.871094 C 2019.359375 1172.050781 2002.660156 1153.890625 1974.761719 1148.371094 Z M 1974.761719 1148.371094 "/>
<path fill-rule="nonzero" fill="rgb(99.609375%, 74.804688%, 54.101562%)" fill-opacity="1" d="M 1060.589844 1462.789062 L 1055.089844 1463.410156 C 1010.199219 1468.75 979.59375 1477.480469 963.265625 1489.621094 C 942.007812 1504.910156 929.257812 1525.410156 925.015625 1551.121094 C 918.03125 1584.640625 919.882812 1620.019531 930.574219 1657.261719 C 939.09375 1680.851562 954.15625 1696.539062 975.773438 1704.320312 C 955.800781 1727.921875 942.839844 1747.558594 936.882812 1763.21875 C 933.21875 1774.859375 931.546875 1781.980469 931.863281 1784.601562 C 931.09375 1794.609375 931.949219 1804.871094 934.425781 1815.410156 C 944.90625 1857.179688 966.363281 1891.039062 998.804688 1916.980469 C 979.640625 1920.851562 965.679688 1933.238281 956.925781 1954.160156 C 947.9375 1974.339844 942.871094 1990.78125 941.730469 2003.511719 C 940.339844 2022.859375 940.515625 2034.539062 942.257812 2038.546875 C 950.746094 2073.183594 972.921875 2097.519531 1008.789062 2111.550781 C 1059.738281 2132.160156 1103.960938 2140.382812 1141.441406 2136.21875 C 1163.75 2133.78125 1180.179688 2126.808594 1190.71875 2115.296875 C 1200.839844 2103.804688 1205.089844 2090.503906 1203.460938 2075.386719 C 1199.25 2053.433594 1190.179688 2036.519531 1176.25 2024.632812 C 1168.101562 2014.140625 1138.511719 1993.460938 1087.488281 1962.609375 C 1079.578125 1956.660156 1075.371094 1952.128906 1074.851562 1949.019531 C 1074.140625 1947.460938 1074.378906 1944.871094 1075.578125 1941.25 C 1103.511719 1934.089844 1119.339844 1927.019531 1123.070312 1920.03125 C 1124.328125 1919.761719 1131.089844 1908.539062 1143.359375 1886.359375 C 1146.078125 1880.53125 1147.378906 1873.269531 1147.25 1864.570312 C 1148.941406 1853.570312 1134.738281 1813.058594 1104.660156 1743.058594 C 1100.019531 1730.789062 1084.929688 1711.550781 1059.398438 1685.320312 Z M 1060.589844 1462.789062 "/>
<path fill-rule="nonzero" fill="rgb(99.609375%, 74.804688%, 54.101562%)" fill-opacity="1" d="M 1018.128906 1218.160156 L 1015.519531 1218.171875 C 1002.699219 1218.25 991.554688 1219.71875 982.0625 1222.609375 C 970.640625 1226.171875 961.335938 1231.609375 954.148438 1238.929688 C 948.71875 1245.269531 945.800781 1249.261719 945.398438 1250.921875 C 943.886719 1253.820312 942.683594 1256.871094 941.789062 1260.058594 C 940.910156 1263.089844 940.339844 1266.539062 940.074219 1270.429688 L 940.023438 1276.121094 C 940.179688 1279.980469 940.699219 1283.921875 941.585938 1287.941406 C 946.394531 1309.019531 958.957031 1328.460938 979.28125 1346.289062 C 1003.769531 1366.328125 1030.289062 1380.910156 1058.859375 1390.019531 L 1060.160156 1221.730469 C 1042.898438 1219.289062 1028.890625 1218.101562 1018.128906 1218.160156 Z M 1018.128906 1218.160156 "/>
<path fill-rule="nonzero" fill="rgb(100%, 87.5%, 69.726562%)" fill-opacity="1" d="M 2019.820312 1186.269531 L 2018.039062 1186.398438 C 2005.320312 1188.460938 1994.761719 1196.898438 1986.359375 1211.699219 C 1976.859375 1228.699219 1972.941406 1245.808594 1974.621094 1263.039062 L 1975.878906 1271.550781 L 1978.050781 1280.019531 C 1979.800781 1285.648438 1982.148438 1291.261719 1985.109375 1296.839844 L 1990.011719 1305.191406 C 1993.878906 1309.890625 1997.578125 1314.078125 2001.109375 1317.738281 C 2009.648438 1325.980469 2014.570312 1330.289062 2015.871094 1330.691406 C 2016.089844 1330.859375 2016.308594 1331.019531 2016.519531 1331.179688 C 2016.480469 1326.390625 2016.46875 1321.171875 2016.46875 1315.511719 C 2016.449219 1300.480469 2019.589844 1270.089844 2025.898438 1224.339844 C 2026.191406 1212.710938 2025.53125 1204.199219 2023.898438 1198.820312 C 2022.71875 1194.339844 2021.359375 1190.148438 2019.820312 1186.269531 Z M 2019.820312 1186.269531 "/>
<path fill-rule="nonzero" fill="rgb(100%, 87.5%, 69.726562%)" fill-opacity="1" d="M 986.316406 1538.039062 C 981.128906 1538.019531 975.738281 1539 970.144531 1540.988281 C 968.726562 1541.109375 964.128906 1543.570312 956.359375 1548.359375 C 946.347656 1555.210938 936.957031 1564.398438 928.175781 1575.921875 C 924.628906 1580.710938 922.203125 1584.980469 920.894531 1588.738281 C 920.578125 1610.839844 923.804688 1633.679688 930.574219 1657.261719 C 932.175781 1661.691406 934.007812 1665.851562 936.074219 1669.730469 C 941.976562 1664.019531 947.421875 1659.199219 952.402344 1655.25 C 964.789062 1645.738281 972.835938 1639.851562 976.539062 1637.570312 C 1007.441406 1619.320312 1023.648438 1609.371094 1025.191406 1607.738281 C 1030.570312 1603.550781 1033.929688 1599.800781 1035.261719 1596.480469 C 1036.289062 1595.328125 1037.109375 1591.269531 1037.710938 1584.289062 C 1037.828125 1581.609375 1037.601562 1578.949219 1037.011719 1576.320312 C 1035.828125 1571.058594 1033.238281 1565.898438 1029.238281 1560.859375 C 1022.28125 1552.640625 1015 1546.628906 1007.390625 1542.828125 C 1004.859375 1541.570312 1002.308594 1540.558594 999.714844 1539.800781 C 998.457031 1539.109375 994.5 1538.53125 987.84375 1538.058594 L 987.328125 1538.058594 C 986.988281 1538.050781 986.652344 1538.050781 986.316406 1538.039062 Z M 986.316406 1538.039062 "/>
<path fill-rule="nonzero" fill="rgb(100%, 87.5%, 69.726562%)" fill-opacity="1" d="M 1034.988281 1910.96875 C 1034.949219 1903.851562 1041.441406 1892.359375 1054.46875 1876.480469 C 1059.730469 1870.691406 1065.308594 1865.339844 1071.210938 1860.421875 C 1077.570312 1855.019531 1086.089844 1849.25 1096.761719 1843.089844 C 1098.070312 1842.011719 1098.679688 1840.988281 1098.589844 1840.019531 C 1096.589844 1833.421875 1087.628906 1823.300781 1071.710938 1809.640625 C 1059.871094 1800.089844 1048.949219 1793.960938 1038.960938 1791.25 C 1006.890625 1783.351562 985.652344 1796.988281 975.222656 1832.171875 C 973.273438 1868.820312 988.285156 1893.699219 1020.25 1906.828125 Z M 1034.988281 1910.96875 "/>
<path fill-rule="nonzero" fill="rgb(100%, 87.5%, 69.726562%)" fill-opacity="1" d="M 1130.738281 2120.371094 C 1138.671875 2115.101562 1146.230469 2102.136719 1153.429688 2081.484375 C 1160.289062 2063.734375 1162.308594 2051.265625 1159.5 2044.074219 C 1154.691406 2029.414062 1135.359375 2020.96875 1101.5 2018.738281 C 1087.710938 2018.144531 1074.890625 2024.527344 1063.019531 2037.894531 C 1051.351562 2054.121094 1046.898438 2068.875 1049.679688 2082.152344 C 1051.109375 2090.597656 1057.238281 2097.683594 1068.070312 2103.417969 C 1080.609375 2109.390625 1099.558594 2115.019531 1124.929688 2120.300781 Z M 1130.738281 2120.371094 "/>
<path fill-rule="nonzero" fill="rgb(98.046875%, 69.334412%, 50.584412%)" fill-opacity="1" d="M 1961.460938 2411.039062 L 1960.679688 2411.0625 C 1958.53125 2411.199219 1955.648438 2411.921875 1952.058594 2413.226562 C 1880.910156 2446.265625 1830.558594 2468.132812 1801.011719 2478.828125 C 1761.289062 2494.300781 1722 2508.15625 1683.160156 2520.394531 C 1665.191406 2525.851562 1649.691406 2530.289062 1636.660156 2533.699219 C 1667.808594 2568.925781 1691.019531 2598.390625 1706.289062 2622.097656 L 1754.660156 2598.40625 L 1803.890625 2568.96875 L 1849.589844 2535.925781 L 1891.75 2499.273438 L 1930.390625 2459.015625 L 1965.5 2415.152344 C 1966.109375 2412.746094 1964.761719 2411.371094 1961.460938 2411.039062 Z M 1961.460938 2411.039062 "/>
<path fill-rule="nonzero" fill="rgb(98.046875%, 69.334412%, 50.584412%)" fill-opacity="1" d="M 1980.53125 1644.921875 L 1969.179688 1650.441406 C 1939.210938 1664.609375 1911.449219 1674.328125 1885.910156 1679.621094 L 1881.53125 1681.878906 L 1883.941406 1690.71875 C 1883.710938 1691.480469 1883.359375 1691.859375 1882.890625 1691.859375 C 1882.359375 1691.851562 1881.691406 1691.371094 1880.859375 1690.410156 L 1880.75 1700.46875 C 1881.609375 1700.269531 1882.488281 1700.078125 1883.378906 1699.871094 C 1903.410156 1694.179688 1920.609375 1687.949219 1934.980469 1681.179688 C 1945.859375 1676 1956.351562 1669.570312 1966.460938 1661.890625 C 1972.511719 1657.011719 1977.128906 1652.648438 1980.328125 1648.808594 C 1982.371094 1646.25 1982.429688 1644.949219 1980.539062 1644.921875 Z M 1980.53125 1644.921875 "/>
<path fill-rule="nonzero" fill="rgb(98.046875%, 69.334412%, 50.584412%)" fill-opacity="1" d="M 1876.578125 2109.246094 L 1875.878906 2178.027344 L 1875.890625 2178.03125 C 1876.570312 2178.417969 1877.238281 2178.800781 1877.910156 2179.183594 C 1918.101562 2201.507812 1956.378906 2220.699219 1992.761719 2236.761719 C 2002.941406 2241.039062 2011.628906 2244.253906 2018.808594 2246.402344 C 2024.949219 2248.476562 2031.050781 2249.527344 2037.089844 2249.554688 C 2037.398438 2249.554688 2037.710938 2249.554688 2038.019531 2249.550781 C 1994.46875 2218.773438 1966.121094 2197.574219 1952.949219 2185.945312 C 1933.480469 2169.898438 1916.558594 2154.578125 1902.210938 2139.988281 C 1895.859375 2133.667969 1887.308594 2123.421875 1876.589844 2109.25 Z M 1876.578125 2109.246094 "/>
<path fill-rule="nonzero" fill="rgb(98.046875%, 69.334412%, 50.584412%)" fill-opacity="1" d="M 2020.511719 1396.300781 C 2015.339844 1429.179688 2016.808594 1477.039062 2024.910156 1539.871094 C 2031.289062 1578.839844 2057.808594 1654.730469 2104.449219 1767.53125 C 2111.140625 1788.628906 2115.980469 1832.53125 2118.988281 1899.230469 C 2120.289062 1925.640625 2118.230469 1957.621094 2112.800781 1995.148438 C 2083.539062 2130.390625 2069.03125 2203.082031 2069.269531 2213.226562 C 2065.171875 2247.773438 2064.621094 2277.53125 2067.628906 2302.503906 C 2071.269531 2330.515625 2076.148438 2356.824219 2082.25 2381.429688 C 2095.128906 2432.839844 2106.558594 2474.265625 2116.570312 2505.703125 C 2172.441406 2626.648438 2212.378906 2745.308594 2236.390625 2861.691406 C 2237.148438 2877.355469 2236.269531 2890.296875 2233.738281 2900.527344 C 2225.910156 2926.539062 2219.140625 2949.839844 2213.441406 2970.425781 L 2213.449219 2970.425781 L 2504.410156 2974.070312 L 2133.128906 2253.121094 C 2147.710938 2248.03125 2160.429688 2187.964844 2171.289062 2072.914062 C 2184.078125 1959.25 2185.609375 1874.890625 2175.871094 1819.820312 C 2169.5 1786.089844 2161.46875 1758.78125 2151.800781 1737.910156 L 2072.789062 1589.679688 C 2060.519531 1562.75 2050.96875 1536.988281 2044.140625 1512.390625 C 2032.910156 1474.199219 2025.03125 1435.5 2020.519531 1396.300781 Z M 2020.511719 1396.300781 "/>
<path fill-rule="nonzero" fill="rgb(98.046875%, 69.334412%, 50.584412%)" fill-opacity="1" d="M 975.476562 2016.628906 L 975.433594 2016.636719 C 975.308594 2016.671875 975.15625 2016.84375 974.976562 2017.15625 L 967.46875 2037.265625 L 963.226562 2048.050781 C 960.410156 2054.640625 957.285156 2061.085938 953.855469 2067.386719 C 956.683594 2072.140625 959.890625 2076.601562 963.484375 2080.777344 L 964.621094 2078.023438 L 967.117188 2070.839844 L 969.234375 2063.460938 L 970.96875 2055.882812 L 972.511719 2046.972656 C 973.074219 2043.347656 974.113281 2035.046875 975.625 2022.078125 C 975.773438 2020.664062 975.839844 2019.207031 975.820312 2017.707031 C 975.777344 2016.988281 975.664062 2016.632812 975.476562 2016.628906 Z M 975.476562 2016.628906 "/>
<path fill-rule="nonzero" fill="rgb(98.046875%, 69.334412%, 50.584412%)" fill-opacity="1" d="M 952.851562 1750.800781 L 952.734375 1750.808594 C 952.40625 1750.851562 951.984375 1751.058594 951.472656 1751.429688 C 945.578125 1756.738281 940.53125 1761.261719 936.328125 1765 C 933.050781 1775.578125 931.5625 1782.121094 931.863281 1784.601562 C 931.777344 1785.699219 931.714844 1786.800781 931.667969 1787.898438 C 932.257812 1787.28125 932.820312 1786.671875 933.355469 1786.089844 C 936.578125 1782.589844 939.316406 1779.289062 941.5625 1776.191406 C 946.558594 1768.859375 949.996094 1762.980469 951.882812 1758.570312 L 952.695312 1756.480469 C 953.152344 1755.179688 953.433594 1754.03125 953.542969 1753.050781 C 953.648438 1752.460938 953.625 1751.859375 953.464844 1751.25 C 953.34375 1750.949219 953.136719 1750.800781 952.851562 1750.800781 Z M 952.851562 1750.800781 "/>
<path fill-rule="nonzero" fill="rgb(98.046875%, 69.334412%, 50.584412%)" fill-opacity="1" d="M 998.902344 1490.679688 C 998.855469 1490.679688 998.804688 1490.679688 998.753906 1490.679688 L 998.625 1490.679688 C 998.265625 1490.691406 997.761719 1490.761719 997.113281 1490.890625 L 951.277344 1499.671875 C 946 1504.839844 941.476562 1510.46875 937.699219 1516.558594 L 942.171875 1515.109375 C 948.890625 1512.859375 955.472656 1510.46875 961.917969 1507.960938 L 971.488281 1504.089844 C 977.796875 1501.449219 983.972656 1498.679688 990.011719 1495.789062 L 998.96875 1491.351562 C 999.402344 1490.898438 999.378906 1490.679688 998.902344 1490.679688 Z M 998.902344 1490.679688 "/>
<path fill-rule="nonzero" fill="rgb(98.046875%, 69.334412%, 50.584412%)" fill-opacity="1" d="M 1051.289062 1220.550781 C 1050.519531 1226.460938 1049.710938 1233.789062 1048.871094 1242.53125 C 1048.25 1248.699219 1047.761719 1268.761719 1047.390625 1302.710938 C 1047 1311.960938 1046.019531 1320.371094 1044.449219 1327.941406 C 1042.910156 1335.179688 1040.390625 1342.398438 1036.878906 1349.601562 L 1031.308594 1360.121094 L 1022.730469 1375.019531 C 1034.390625 1381.050781 1046.429688 1386.050781 1058.859375 1390.019531 L 1060.160156 1221.730469 C 1057.101562 1221.300781 1054.148438 1220.898438 1051.289062 1220.550781 Z M 1051.289062 1220.550781 "/>
</svg>
