<?xml version="1.0" encoding="utf-8"?>
<!-- Generator: Adobe Illustrator 26.0.1, SVG Export Plug-In . SVG Version: 6.00 Build 0)  -->
<svg version="1.1" xmlns="http://www.w3.org/2000/svg" xmlns:xlink="http://www.w3.org/1999/xlink" x="0px" y="0px"
	 viewBox="0 0 500 500" style="enable-background:new 0 0 500 500;" xml:space="preserve">
<style type="text/css">
	.st0{fill:#EBEBEB;}
	.st1{fill:#F5F5F5;}
	.st2{fill:#E0E0E0;}
	.st3{fill:#FFFFFF;}
	.st4{fill:none;stroke:#FBFBFB;stroke-width:0.25;stroke-miterlimit:10;}
	.st5{fill:#FAFAFA;}
	.st6{display:none;}
	.st7{display:inline;}
	.st8{fill:#669966;}
	.st9{fill:#263238;}
	.st10{fill:#455A64;}
	.st11{fill:#FFD3C1;}
	.st12{fill:#F4AF9B;}
	.st13{opacity:0.3;}
	.st14{opacity:0.6;}
	.st15{fill:#FF725E;}
	.st16{fill:#336633;}

	#File{
		transform-origin: 419px 194px;
		animation: fileani 3.5s ease-in-out infinite;
	}

	@keyframes fileani{
		0%{
			transform: rotate(6deg);
		}

		50%{
			transform: rotate(-9deg);
		}
		100%{
			transform: rotate(6deg);
		}
	}

	#Uploading{
		animation: upload 1.5s ease-in-out infinite;
	}

	@keyframes upload{
		0%{
			opacity: 0;
		}

		50%{
			opacity: 1;
		}
		100%{
			opacity: 0;
		}
	}
</style>
<g id="Background_Complete">
	<g>
		<g>
			<g>
				<g>
					<path class="st0" d="M52.93,237.07l1.89,34.72c0.07,1.24,1.08,2.21,2.32,2.22l62.48,0.46c1.29,0.01,2.35-1.03,2.36-2.33
						l0.2-27.03c0.01-1.3-1.04-2.36-2.34-2.36l-38.43-0.03c-0.62,0-1.22-0.25-1.66-0.69l-6.63-6.63c-0.44-0.44-1.02-0.68-1.64-0.69
						l-16.2-0.12C53.93,234.59,52.85,235.72,52.93,237.07z"/>
				</g>
			</g>
		</g>
		<g>
			<g>
				<g>
					
						<rect x="53.81" y="238.42" transform="matrix(1 7.328274e-03 -7.328274e-03 1 1.899 -0.6375)" class="st1" width="68.27" height="40.79"/>
				</g>
			</g>
		</g>
		<g>
			<g>
				<g>
					<path class="st0" d="M48.5,241.79l4.9,42.58c0.09,0.76,0.72,1.33,1.49,1.33l66.53,0.49c0.79,0.01,1.45-0.59,1.51-1.38
						l3.66-42.52c0.08-0.88-0.61-1.63-1.49-1.64l-75.09-0.55C49.11,240.1,48.4,240.89,48.5,241.79z"/>
				</g>
			</g>
		</g>
	</g>
	<g>
		<g>
			<g>
				<g>
					<path class="st0" d="M336.6,243.07l1.63,29.9c0.06,1.07,0.93,1.9,2,1.91l53.8,0.39c1.11,0.01,2.03-0.89,2.03-2l0.17-23.27
						c0.01-1.12-0.9-2.03-2.02-2.03l-33.09-0.03c-0.53,0-1.05-0.21-1.43-0.59l-5.71-5.71c-0.37-0.37-0.88-0.59-1.41-0.59l-13.95-0.1
						C337.47,240.93,336.54,241.9,336.6,243.07z"/>
				</g>
			</g>
		</g>
		<g>
			<g>
				<g>
					
						<rect x="337.36" y="244.23" transform="matrix(1 7.326752e-03 -7.326752e-03 1 1.9279 -2.6801)" class="st1" width="58.78" height="35.13"/>
				</g>
			</g>
		</g>
		<g>
			<g>
				<g>
					<path class="st0" d="M332.79,247.13l4.22,36.66c0.07,0.65,0.62,1.14,1.28,1.15l57.29,0.42c0.68,0,1.24-0.51,1.3-1.19
						l3.15-36.61c0.06-0.75-0.53-1.4-1.28-1.41l-64.66-0.47C333.31,245.68,332.7,246.35,332.79,247.13z"/>
				</g>
			</g>
		</g>
	</g>
	<g>
		<g>
			<g>
				<g>
					<rect x="348.41" y="47.14" class="st2" width="95.61" height="158.26"/>
				</g>
			</g>
		</g>
		<g>
			<g>
				<g>
					<rect x="345.23" y="47.14" class="st0" width="95.61" height="158.26"/>
				</g>
			</g>
		</g>
		<g>
			<g>
				<g>
					<rect x="349.3" y="50.35" class="st3" width="87.47" height="151.84"/>
				</g>
			</g>
		</g>
		<g>
			<g>
				<g>
					<g>
						<rect x="365.95" y="70.08" class="st0" width="53.78" height="112.38"/>
					</g>
				</g>
			</g>
			<g>
				<g>
					<g>
						<path class="st2" d="M365.95,142.7c-0.12-10.5,9.31-20.75,19.71-22.21c4.96-0.7,10.22,0.29,14.86-1.61
							c8.27-3.39,10.9-14.37,19.22-17.63l0.38,81.23h-54.16V142.7z"/>
					</g>
				</g>
			</g>
		</g>
	</g>
	<g>
		<g>
			<g>
				<g>
					<g>
						<path class="st0" d="M438.49,249.9c0,0-7.92-0.57-7.19,17.19c0.73,17.76,2.54,27.23,2.54,27.23s-0.23,3.94-3.28,3.17
							c-3.05-0.77-8.79-4.61-11.62-1.74c-2.94,2.97-1.89,7.53,2,12.9c3.9,5.37,12.01,17.44,12.74,18.54c0.72,1.07,1,3.09-1.16,2.9
							c-2.16-0.19-16.76-5.14-18.69,1.93c-1.93,7.07,11.39,20.24,12.82,21.71c1.43,1.47,1.51,2.39,0.93,3.28
							c-0.58,0.89-5.33-1.24-9.54-2.47c-4.21-1.24-9.31-1.93-10.08,2.24c-0.77,4.17,5.09,16.38,27.06,29.2l10.57,5.28l10-6.38
							c20.58-14.96,25.19-27.69,24.01-31.76c-1.19-4.07-6.19-2.87-10.25-1.22c-4.06,1.65-8.58,4.24-9.24,3.42
							c-0.67-0.83-0.68-1.76,0.59-3.36c1.27-1.6,13.21-16.04,10.58-22.88c-2.63-6.84-16.66-0.46-18.79-0.05
							c-2.13,0.41-2.05-1.62-1.44-2.77c0.62-1.16,7.48-13.99,10.82-19.72c3.34-5.73,3.93-10.37,0.7-13.03
							c-3.11-2.57-8.43,1.82-11.39,2.89c-2.96,1.07-3.58-2.82-3.58-2.82s0.86-9.6-0.19-27.34c-1.05-17.75-9.06-16.32-9.06-16.32"/>
					</g>
				</g>
			</g>
			<g>
				<g>
					<g>
						<g>
							<path class="st2" d="M439.12,265.81c0,0,0.02,0.13,0.04,0.37c0.02,0.26,0.05,0.62,0.08,1.09c0.07,0.98,0.16,2.39,0.28,4.19
								c0.24,3.64,0.55,8.92,0.91,15.44c0.72,13.04,1.57,31.05,2.44,50.96c0.87,19.91,1.67,37.93,2.32,50.97
								c0.33,6.51,0.6,11.78,0.79,15.44c0.09,1.81,0.16,3.22,0.21,4.2c0.02,0.47,0.03,0.83,0.04,1.09c0.01,0.25,0,0.37,0,0.37
								s-0.02-0.13-0.04-0.37c-0.02-0.26-0.05-0.62-0.08-1.09c-0.07-0.98-0.16-2.39-0.28-4.19c-0.24-3.64-0.55-8.92-0.91-15.44
								c-0.72-13.04-1.57-31.06-2.44-50.97c-0.87-19.9-1.67-37.92-2.32-50.96c-0.33-6.51-0.6-11.78-0.79-15.44
								c-0.09-1.81-0.16-3.22-0.21-4.2c-0.02-0.47-0.03-0.83-0.04-1.09C439.11,265.94,439.12,265.81,439.12,265.81z"/>
						</g>
					</g>
				</g>
			</g>
			<g>
				<g>
					<g>
						<g>
							<path class="st2" d="M426.75,301.43c0.02-0.02,0.25,0.18,0.66,0.55c0.41,0.37,0.98,0.92,1.68,1.61
								c1.39,1.38,3.27,3.34,5.3,5.54c1.99,2.17,3.78,4.14,5.17,5.66c0.62,0.67,1.14,1.24,1.57,1.71c0.37,0.4,0.57,0.63,0.55,0.65
								c-0.02,0.02-0.25-0.17-0.66-0.54c-0.41-0.37-0.98-0.92-1.67-1.62c-1.38-1.4-3.23-3.38-5.26-5.58c-2-2.16-3.81-4.11-5.21-5.62
								c-0.62-0.67-1.15-1.23-1.58-1.7C426.93,301.69,426.73,301.45,426.75,301.43z"/>
						</g>
					</g>
				</g>
			</g>
			<g>
				<g>
					<g>
						<g>
							<path class="st2" d="M442.73,316.8c-0.08-0.08,3.79-4.13,8.63-9.04c4.85-4.92,8.84-8.83,8.92-8.76
								c0.08,0.08-3.78,4.13-8.63,9.04C446.8,312.96,442.81,316.88,442.73,316.8z"/>
						</g>
					</g>
				</g>
			</g>
			<g>
				<g>
					<g>
						<g>
							<path class="st2" d="M442.68,347.43c-0.01-0.02,0.25-0.19,0.74-0.47c0.56-0.32,1.25-0.7,2.07-1.16
								c1.74-0.98,4.15-2.34,6.75-3.94c2.6-1.59,4.91-3.11,6.57-4.23c0.78-0.52,1.43-0.96,1.97-1.32c0.47-0.31,0.73-0.47,0.75-0.44
								c0.02,0.02-0.22,0.23-0.66,0.57c-0.44,0.35-1.09,0.84-1.9,1.42c-1.62,1.18-3.91,2.74-6.53,4.34
								c-2.61,1.6-5.04,2.93-6.82,3.85c-0.89,0.46-1.62,0.81-2.13,1.05C442.98,347.33,442.69,347.45,442.68,347.43z"/>
						</g>
					</g>
				</g>
			</g>
			<g>
				<g>
					<g>
						<g>
							<path class="st2" d="M425.17,336.71c0.01-0.02,0.27,0.1,0.73,0.34c0.46,0.24,1.11,0.61,1.92,1.06
								c1.61,0.91,3.82,2.2,6.24,3.64c2.43,1.44,4.61,2.77,6.18,3.75c0.79,0.49,1.42,0.89,1.85,1.18c0.43,0.29,0.66,0.45,0.65,0.48
								c-0.01,0.02-0.27-0.1-0.73-0.34c-0.46-0.24-1.11-0.61-1.92-1.06c-1.61-0.91-3.82-2.2-6.24-3.64
								c-2.43-1.44-4.61-2.77-6.18-3.75c-0.79-0.49-1.42-0.89-1.85-1.18C425.39,336.9,425.16,336.73,425.17,336.71z"/>
						</g>
					</g>
				</g>
			</g>
			<g>
				<g>
					<g>
						<g>
							<path class="st2" d="M421.7,363.74c0.01-0.02,0.34,0.14,0.93,0.45c0.65,0.36,1.48,0.81,2.46,1.36
								c2.07,1.16,4.91,2.79,8.04,4.61c3.13,1.82,5.95,3.49,7.98,4.71c0.96,0.59,1.76,1.08,2.4,1.47c0.56,0.35,0.86,0.56,0.85,0.59
								c-0.01,0.02-0.34-0.14-0.93-0.45c-0.65-0.36-1.48-0.81-2.46-1.36c-2.07-1.16-4.91-2.79-8.04-4.61
								c-3.13-1.82-5.95-3.49-7.98-4.71c-0.96-0.59-1.76-1.08-2.4-1.47C421.99,363.97,421.69,363.77,421.7,363.74z"/>
						</g>
					</g>
				</g>
			</g>
			<g>
				<g>
					<g>
						<g>
							<path class="st2" d="M443.9,376.46c-0.01-0.02,0.31-0.24,0.92-0.62c0.67-0.41,1.54-0.93,2.57-1.56
								c2.17-1.32,5.16-3.16,8.4-5.27c3.25-2.11,6.14-4.1,8.22-5.55c0.99-0.69,1.82-1.27,2.47-1.72c0.59-0.4,0.92-0.61,0.93-0.59
								c0.02,0.02-0.28,0.28-0.84,0.72c-0.56,0.44-1.37,1.07-2.4,1.82c-2.04,1.51-4.91,3.54-8.17,5.66
								c-3.25,2.12-6.27,3.92-8.48,5.18c-1.11,0.63-2.01,1.12-2.64,1.45C444.27,376.31,443.91,376.48,443.9,376.46z"/>
						</g>
					</g>
				</g>
			</g>
		</g>
		<g>
			<g>
				<g>
					<g>
						<g>
							<polygon class="st2" points="459.79,394.7 430.55,394.7 440.09,466.94 450.24,466.94 							"/>
						</g>
					</g>
				</g>
			</g>
			<g>
				<g>
					<g>
						<g>
							<g>
								<path class="st1" d="M432.06,403.58c-0.01,0.01,0.03,0.1,0.16,0.26c0.12,0.15,0.35,0.35,0.71,0.5
									c0.69,0.3,1.91,0.33,3.09-0.38c1.18-0.65,2.21-1.93,3.79-2.5c1.57-0.6,3.51-0.49,5.38,0.11c1.89,0.58,3.52,1.54,5.01,2.43
									c1.49,0.88,2.85,1.67,4.07,2.18c1.21,0.53,2.27,0.77,3,0.87c0.37,0.05,0.65,0.06,0.85,0.06c0.19,0,0.3-0.01,0.3-0.02
									c0.02-0.1-1.65-0.08-4.01-1.21c-1.18-0.54-2.51-1.35-3.98-2.25c-1.47-0.91-3.15-1.9-5.09-2.5
									c-1.92-0.62-3.99-0.73-5.68-0.06c-0.84,0.32-1.55,0.82-2.14,1.32c-0.6,0.49-1.13,0.96-1.67,1.3
									c-1.07,0.69-2.19,0.72-2.85,0.49C432.32,403.93,432.1,403.54,432.06,403.58z"/>
							</g>
						</g>
					</g>
				</g>
			</g>
			<g>
				<g>
					<g>
						<g>
							<g>
								<path class="st1" d="M433.13,416.88c0.04,0.02,0.23-0.3,0.69-0.78c0.47-0.46,1.23-1.07,2.34-1.48
									c1.1-0.42,2.51-0.67,4.07-0.61c1.57,0.05,3.27,0.4,5.09,0.69c1.81,0.3,3.61,0.44,5.21,0.22c1.6-0.21,2.99-0.67,4.1-1.17
									c1.11-0.5,1.93-1.06,2.46-1.47c0.54-0.41,0.8-0.68,0.78-0.7c-0.05-0.08-1.18,0.93-3.38,1.86c-1.1,0.45-2.46,0.87-4.02,1.04
									c-1.56,0.19-3.28,0.05-5.08-0.25c-1.8-0.29-3.53-0.63-5.15-0.66c-1.62-0.04-3.08,0.26-4.21,0.74
									c-1.14,0.47-1.91,1.15-2.35,1.67c-0.21,0.27-0.36,0.49-0.44,0.65C433.15,416.79,433.12,416.87,433.13,416.88z"/>
							</g>
						</g>
					</g>
				</g>
			</g>
			<g>
				<g>
					<g>
						<g>
							<g>
								<path class="st1" d="M456.47,424.01c0.01-0.02-0.26-0.2-0.81-0.42c-0.54-0.22-1.37-0.44-2.42-0.52
									c-1.05-0.08-2.3-0.02-3.66,0.21c-1.36,0.22-2.83,0.6-4.36,0.92c-1.53,0.32-3.01,0.54-4.35,0.49
									c-1.34-0.05-2.53-0.34-3.46-0.75c-1.88-0.83-2.55-2.03-2.62-1.95c-0.02,0.01,0.11,0.31,0.49,0.76
									c0.38,0.45,1.03,1.02,1.99,1.49c0.95,0.47,2.18,0.81,3.58,0.88c1.4,0.08,2.92-0.14,4.47-0.46c1.55-0.33,3-0.72,4.34-0.96
									c1.33-0.24,2.55-0.34,3.57-0.31C455.28,423.47,456.44,424.09,456.47,424.01z"/>
							</g>
						</g>
					</g>
				</g>
			</g>
			<g>
				<g>
					<g>
						<g>
							<g>
								<path class="st1" d="M435.71,434.02c0.01,0.08,1.04-0.65,2.84-0.29c0.88,0.16,1.86,0.6,2.97,1.11
									c1.1,0.51,2.43,0.95,3.86,1.06c2.87,0.28,5.43-0.65,6.99-1.62c0.8-0.48,1.36-0.99,1.74-1.34c0.36-0.38,0.54-0.6,0.51-0.62
									c-0.06-0.07-0.83,0.79-2.42,1.67c-1.57,0.87-4.03,1.7-6.78,1.44c-2.77-0.16-4.89-1.81-6.81-2.03
									c-0.94-0.14-1.72-0.01-2.21,0.19C435.91,433.79,435.7,434.01,435.71,434.02z"/>
							</g>
						</g>
					</g>
				</g>
			</g>
			<g>
				<g>
					<g>
						<g>
							<g>
								<path class="st1" d="M437.34,447.89c0,0.05,0.98,0.05,2.44-0.48c1.47-0.49,3.29-1.62,5.41-2.46
									c1.07-0.41,2.13-0.66,3.11-0.65c0.97,0,1.84,0.24,2.5,0.57c1.34,0.67,1.73,1.62,1.81,1.56c0.02-0.01-0.04-0.25-0.28-0.62
									c-0.24-0.37-0.68-0.85-1.37-1.24c-0.68-0.39-1.6-0.68-2.65-0.71c-1.05-0.03-2.18,0.22-3.28,0.64
									c-2.2,0.88-3.96,2.04-5.37,2.59C438.27,447.69,437.33,447.81,437.34,447.89z"/>
							</g>
						</g>
					</g>
				</g>
			</g>
			<g>
				<g>
					<g>
						<g>
							<g>
								<path class="st1" d="M438.78,454.34c-0.02,0.06,0.68,0.31,1.85,0.6c1.17,0.29,2.8,0.6,4.63,0.78
									c1.83,0.18,3.49,0.19,4.69,0.14c1.2-0.06,1.94-0.17,1.93-0.23c-0.01-0.14-2.96-0.02-6.58-0.38
									C441.69,454.9,438.81,454.2,438.78,454.34z"/>
							</g>
						</g>
					</g>
				</g>
			</g>
		</g>
	</g>
	<g>
		<g>
			<g>
				<g>
					<rect x="37.95" y="64.46" class="st2" width="95.57" height="138.52"/>
				</g>
			</g>
		</g>
		<g>
			<g>
				<g>
					<rect x="33.16" y="64.46" class="st1" width="95.57" height="138.52"/>
				</g>
			</g>
		</g>
		<g>
			<g>
				<g>
					<g>
						<rect x="45.03" y="79.46" class="st3" width="71.82" height="108.51"/>
					</g>
				</g>
			</g>
			<g>
				<g>
					<g>
						<g>
							<path class="st2" d="M116.85,187.98c0,0-0.01-0.18-0.01-0.53c0-0.36-0.01-0.87-0.01-1.54c-0.01-1.36-0.02-3.36-0.03-5.95
								c-0.01-5.2-0.04-12.78-0.06-22.35c-0.03-19.13-0.07-46.23-0.12-78.14l0.24,0.24c-21.94,0.01-46.26,0.01-71.81,0.02h-0.01
								l0.26-0.26c-0.02,40.94-0.04,78.68-0.05,108.51l-0.21-0.21c21.87,0.05,39.8,0.08,52.28,0.11c6.24,0.02,11.11,0.04,14.44,0.05
								c1.65,0.01,2.92,0.02,3.79,0.02C116.4,187.96,116.85,187.98,116.85,187.98s-0.42,0.01-1.27,0.02
								c-0.86,0.01-2.11,0.01-3.75,0.02c-3.32,0.01-8.18,0.03-14.4,0.05c-12.51,0.03-30.48,0.06-52.4,0.11l-0.21,0l0-0.21
								c-0.01-29.83-0.03-67.58-0.05-108.51l0-0.26h0.26h0.01c25.55,0.01,49.87,0.01,71.81,0.02l0.24,0l0,0.24
								c-0.05,31.97-0.09,59.12-0.12,78.3c-0.03,9.55-0.05,17.11-0.06,22.3c-0.01,2.57-0.02,4.55-0.03,5.9
								c-0.01,0.66-0.01,1.16-0.01,1.51C116.86,187.81,116.85,187.98,116.85,187.98z"/>
						</g>
					</g>
				</g>
			</g>
		</g>
		<g>
			<g>
				<g>
					<g>
						<path class="st4" d="M113.52,80.19"/>
					</g>
				</g>
			</g>
		</g>
		<g>
			<g>
				<g>
					<g>
						<path class="st2" d="M128.99,64.46c0.06,0.04-0.59,0.99-1.7,2.47c-1.11,1.48-2.69,3.5-4.48,5.69
							c-1.8,2.18-3.48,4.12-4.72,5.49c-1.24,1.37-2.05,2.19-2.1,2.15c-0.05-0.05,0.65-0.95,1.82-2.39c1.28-1.55,2.86-3.47,4.6-5.58
							c1.74-2.12,3.32-4.03,4.6-5.58C128.18,65.28,128.94,64.41,128.99,64.46z"/>
					</g>
				</g>
			</g>
		</g>
		<g>
			<g>
				<g>
					<g>
						<path class="st3" d="M117.22,187.63c3.57,5.67,7.78,10.94,12.53,15.67"/>
					</g>
				</g>
			</g>
			<g>
				<g>
					<g>
						<g>
							<path class="st2" d="M129.74,203.29c-0.05,0.05-0.9-0.69-2.18-1.99c-1.28-1.29-2.99-3.16-4.73-5.33
								c-1.74-2.18-3.18-4.25-4.16-5.78c-0.98-1.54-1.51-2.53-1.46-2.57c0.06-0.04,0.71,0.88,1.76,2.36
								c1.05,1.48,2.53,3.5,4.26,5.66c1.73,2.16,3.38,4.05,4.59,5.4C129.04,202.41,129.8,203.24,129.74,203.29z"/>
						</g>
					</g>
				</g>
			</g>
		</g>
		<g>
			<g>
				<g>
					<g>
						<path class="st3" d="M33.14,202.87c4.17-5.15,8.35-10.3,12.52-15.44"/>
					</g>
				</g>
			</g>
			<g>
				<g>
					<g>
						<g>
							<path class="st2" d="M45.66,187.42c0.11,0.09-2.6,3.62-6.06,7.89c-3.46,4.27-6.35,7.65-6.46,7.56
								c-0.11-0.09,2.6-3.62,6.06-7.89C42.66,190.72,45.55,187.33,45.66,187.42z"/>
						</g>
					</g>
				</g>
			</g>
		</g>
		<g>
			<g>
				<g>
					<g>
						<path class="st2" d="M33.16,64.46c0.11-0.09,2.83,3.16,6.08,7.26c3.24,4.1,5.78,7.5,5.67,7.59c-0.11,0.09-2.83-3.16-6.08-7.26
							C35.58,67.94,33.05,64.55,33.16,64.46z"/>
					</g>
				</g>
			</g>
		</g>
		<g>
			<g>
				<g>
					<rect x="70.43" y="101.49" class="st2" width="24.05" height="68.28"/>
				</g>
			</g>
		</g>
	</g>
	<g>
		<g>
			<g>
				<g>
					<g>
						<g>
							<g>
								<g>
									<g>
										<g>
											<g>
												<rect x="178.18" y="41.29" class="st2" width="75.11" height="78.3"/>
											</g>
										</g>
									</g>
								</g>
							</g>
						</g>
					</g>
				</g>
			</g>
		</g>
		<g>
			<g>
				<g>
					<g>
						<g>
							<g>
								<g>
									<g>
										<g>
											<g>
												<rect x="173.09" y="41.29" class="st5" width="75.11" height="78.3"/>
											</g>
										</g>
									</g>
								</g>
							</g>
						</g>
					</g>
				</g>
			</g>
			<g>
				<g>
					<g>
						<g>
							<g>
								<g>
									<g>
										<g>
											<g>
												<path class="st2" d="M248.23,119.62h-75.16V41.27h75.16V119.62z M173.12,119.57h75.07V41.32h-75.07V119.57z"/>
											</g>
										</g>
									</g>
								</g>
							</g>
						</g>
					</g>
				</g>
			</g>
		</g>
		<g>
			<g>
				<g>
					<g>
						<g>
							<g>
								<g>
									<g>
										<g>
											<g>
												<rect x="183.19" y="51.82" class="st3" width="54.92" height="57.25"/>
											</g>
										</g>
									</g>
								</g>
							</g>
						</g>
					</g>
				</g>
			</g>
		</g>
		<g>
			<g>
				<g>
					<g>
						<g>
							<g>
								<g>
									<g>
										<g>
											<g>
												<g>
													<path class="st2" d="M183.19,109.45c0.04,0.05-0.48,0.65-1.36,1.58c-0.88,0.93-2.11,2.18-3.49,3.54
														c-1.38,1.36-2.65,2.57-3.59,3.43c-0.94,0.86-1.54,1.37-1.59,1.32c-0.05-0.05,0.47-0.64,1.35-1.57
														c0.88-0.93,2.11-2.18,3.5-3.55c1.39-1.36,2.66-2.58,3.59-3.44C182.55,109.9,183.15,109.4,183.19,109.45z"/>
												</g>
											</g>
										</g>
									</g>
								</g>
							</g>
						</g>
					</g>
				</g>
			</g>
		</g>
		<g>
			<g>
				<g>
					<g>
						<g>
							<g>
								<g>
									<g>
										<g>
											<g>
												<g>
													<path class="st2" d="M238.11,109.31c0.05-0.04,0.65,0.48,1.58,1.35c0.93,0.88,2.18,2.11,3.54,3.49
														c1.36,1.38,2.57,2.65,3.43,3.59c0.86,0.94,1.37,1.54,1.32,1.59c-0.05,0.05-0.64-0.47-1.57-1.35
														c-0.93-0.88-2.18-2.11-3.55-3.5c-1.36-1.39-2.58-2.66-3.44-3.59C238.57,109.95,238.06,109.35,238.11,109.31z"/>
												</g>
											</g>
										</g>
									</g>
								</g>
							</g>
						</g>
					</g>
				</g>
			</g>
		</g>
		<g>
			<g>
				<g>
					<g>
						<g>
							<g>
								<g>
									<g>
										<g>
											<g>
												<g>
													<path class="st2" d="M237.96,51.97c-0.04-0.05,0.48-0.65,1.36-1.58c0.88-0.93,2.11-2.18,3.49-3.54
														c1.38-1.36,2.65-2.57,3.59-3.43c0.94-0.86,1.54-1.37,1.59-1.32c0.05,0.05-0.47,0.64-1.35,1.57
														c-0.88,0.93-2.11,2.18-3.5,3.55c-1.39,1.36-2.66,2.58-3.59,3.44C238.6,51.52,238,52.02,237.96,51.97z"/>
												</g>
											</g>
										</g>
									</g>
								</g>
							</g>
						</g>
					</g>
				</g>
			</g>
		</g>
		<g>
			<g>
				<g>
					<g>
						<g>
							<g>
								<g>
									<g>
										<g>
											<g>
												<g>
													<path class="st2" d="M183.04,52.11c-0.05,0.04-0.65-0.48-1.58-1.36c-0.93-0.88-2.18-2.11-3.54-3.49
														c-1.36-1.38-2.57-2.65-3.43-3.59c-0.86-0.94-1.37-1.54-1.32-1.59c0.05-0.05,0.64,0.47,1.57,1.35
														c0.93,0.88,2.18,2.11,3.55,3.5c1.36,1.39,2.58,2.66,3.44,3.59C182.59,51.47,183.09,52.07,183.04,52.11z"/>
												</g>
											</g>
										</g>
									</g>
								</g>
							</g>
						</g>
					</g>
				</g>
			</g>
		</g>
		<g>
			<g>
				<g>
					<g>
						<g>
							<g>
								<g>
									<g>
										<g>
											<g>
												<g>
													<path class="st2" d="M237.96,109.07c0,0-0.01-0.1-0.01-0.28c0-0.2-0.01-0.46-0.01-0.8c-0.01-0.72-0.01-1.75-0.02-3.09
														c-0.01-2.71-0.03-6.66-0.06-11.67c-0.03-10.03-0.06-24.31-0.11-41.41l0.21,0.21c-15.99,0.01-34.76,0.02-54.76,0.03
														h-0.01l0.24-0.24c-0.01,21.01-0.02,40.67-0.03,57.25l-0.21-0.21c16.41,0.04,30.08,0.08,39.66,0.11
														c4.79,0.02,8.55,0.04,11.14,0.05c1.28,0.01,2.26,0.02,2.95,0.02c0.32,0.01,0.57,0.01,0.76,0.01
														C237.87,109.06,237.96,109.06,237.96,109.07c0,0-0.08,0.01-0.24,0.01c-0.18,0-0.42,0.01-0.74,0.01
														c-0.68,0.01-1.65,0.01-2.91,0.02c-2.58,0.01-6.33,0.03-11.09,0.05c-9.61,0.03-23.32,0.06-39.79,0.11l-0.21,0l0-0.21
														c-0.01-16.58-0.02-36.24-0.03-57.25l0-0.24h0.24h0.01c20,0.01,38.78,0.02,54.76,0.03h0.21l0,0.21
														c-0.04,17.16-0.08,31.49-0.11,41.55c-0.02,4.99-0.04,8.92-0.06,11.62c-0.01,1.32-0.02,2.34-0.02,3.05
														c-0.01,0.33-0.01,0.59-0.01,0.78C237.97,108.99,237.96,109.07,237.96,109.07z"/>
												</g>
											</g>
										</g>
									</g>
								</g>
							</g>
						</g>
					</g>
				</g>
			</g>
		</g>
		<g>
			<g>
				<g>
					<g>
						<g>
							<g>
								<g>
									<g>
										<g>
											<g>
												<rect x="201.49" y="71.28" class="st0" width="18.33" height="18.33"/>
											</g>
										</g>
									</g>
								</g>
							</g>
						</g>
					</g>
				</g>
			</g>
		</g>
	</g>
	<g>
		<g>
			<g>
				<g>
					<path class="st0" d="M138.94,357.9l1.88,34.53c0.07,1.23,1.08,2.2,2.31,2.2l62.14,0.46c1.29,0.01,2.34-1.03,2.35-2.31
						l0.2-26.88c0.01-1.29-1.04-2.35-2.33-2.35l-38.21-0.03c-0.62,0-1.21-0.25-1.65-0.68l-6.59-6.59c-0.43-0.43-1.02-0.68-1.63-0.68
						l-16.11-0.12C139.94,355.43,138.87,356.56,138.94,357.9z"/>
				</g>
			</g>
		</g>
		<g>
			<g>
				<g>
					
						<rect x="139.81" y="359.24" transform="matrix(1 7.327780e-03 -7.327780e-03 1 2.7857 -1.2631)" class="st1" width="67.89" height="40.57"/>
				</g>
			</g>
		</g>
		<g>
			<g>
				<g>
					<path class="st0" d="M134.54,362.59l4.87,42.34c0.09,0.75,0.72,1.32,1.48,1.33l66.16,0.48c0.78,0.01,1.44-0.59,1.5-1.37
						l3.64-42.28c0.07-0.87-0.61-1.62-1.48-1.63l-74.68-0.55C135.14,360.92,134.43,361.7,134.54,362.59z"/>
				</g>
			</g>
		</g>
	</g>
	<g>
		<g>
			<g>
				<g>
					<path class="st0" d="M246.89,377.35l1.88,34.61c0.07,1.23,1.08,2.2,2.32,2.21l62.27,0.46c1.29,0.01,2.34-1.03,2.35-2.32
						l0.2-26.94c0.01-1.3-1.04-2.35-2.33-2.35l-38.3-0.03c-0.62,0-1.21-0.25-1.65-0.68l-6.61-6.6c-0.43-0.43-1.02-0.68-1.63-0.68
						l-16.14-0.12C247.89,374.88,246.81,376.01,246.89,377.35z"/>
				</g>
			</g>
		</g>
		<g>
			<g>
				<g>
					
						<rect x="247.76" y="378.7" transform="matrix(1 7.328007e-03 -7.328007e-03 1 2.9316 -2.0542)" class="st1" width="68.04" height="40.66"/>
				</g>
			</g>
		</g>
		<g>
			<g>
				<g>
					<path class="st0" d="M242.48,382.05l4.88,42.44c0.09,0.75,0.72,1.32,1.48,1.33l66.31,0.49c0.78,0.01,1.44-0.59,1.51-1.37
						l3.65-42.37c0.08-0.87-0.61-1.62-1.49-1.63l-74.84-0.55C243.08,380.37,242.37,381.16,242.48,382.05z"/>
				</g>
			</g>
		</g>
	</g>
</g>
<g id="Background_Simple" class="st6">
	<g class="st7">
		<g>
			<path class="st0" d="M359.82,96.44l-1.63-2.68c-13.73-22.63-38.56-36.27-64.73-34.61c-3.36,0.21-6.71,0.67-10.02,1.38
				c-23.8,5.09-44.51,23.09-53.09,46.14c-5.05,13.56-6.46,29.16-16.04,39.92c-12.47,14-33.63,14.44-52.24,13.86
				c-18.61-0.58-39.79-0.09-52.2,13.97c-7.77,8.8-10.24,21.33-9.61,33.12c1.66,31.22,23.41,59.13,51.08,73
				c27.66,13.87,60.24,15.12,90.51,9.01c42.41-8.55,82.75-32.03,106.99-68.3C373.08,184.99,379.22,135.59,359.82,96.44z"/>
		</g>
	</g>
	<g class="st7">
		<g>
			<circle class="st0" cx="173.16" cy="108.54" r="19.78"/>
		</g>
	</g>
</g>
<g id="Plant">
	<g>
		<g>
			<g>
				<g>
					<g>
						<path class="st8" d="M93.56,318.85c-10.25-15.68-8.76-38.08,3.49-52.26c3.8-4.4,9.11-8.23,14.91-7.73
							c5.93,0.51,10.71,5.6,12.52,11.27c1.8,5.67,1.18,11.82,0.12,17.68c-1.48,8.2-3.97,16.6-9.66,22.69
							C109.23,316.59,100.87,322.85,93.56,318.85"/>
					</g>
				</g>
			</g>
			<g>
				<g>
					<g>
						<path class="st8" d="M96.66,394.33c-3.86-9.01-1.06-20.41,6.53-26.61c2.36-1.92,5.44-3.41,8.38-2.63
							c3.01,0.8,5.01,3.85,5.43,6.94c0.42,3.09-0.46,6.2-1.54,9.12c-1.51,4.09-3.55,8.19-7.03,10.81
							C104.94,394.58,100.06,397.05,96.66,394.33"/>
					</g>
				</g>
			</g>
			<g>
				<g>
					<g>
						<path class="st8" d="M74.5,388.94c2.82-13.9-4.51-29.24-17.09-35.79c-3.91-2.03-8.71-3.23-12.65-1.26
							c-4.03,2.02-5.97,6.94-5.65,11.43c0.32,4.5,2.48,8.65,4.87,12.47c3.34,5.35,7.44,10.56,13.15,13.25
							C62.84,391.74,70.48,393.81,74.5,388.94"/>
					</g>
				</g>
			</g>
			<g>
				<g>
					<g>
						<path class="st8" d="M76.28,351.35c4.91-15.84-3.41-35.04-17.28-44.13c-4.31-2.82-9.76-4.78-14.57-2.95
							c-4.92,1.88-7.75,7.37-7.91,12.64c-0.16,5.27,1.87,10.35,4.2,15.07c3.26,6.62,7.42,13.16,13.74,16.96
							C60.79,352.74,71.03,356.54,76.28,351.35"/>
					</g>
				</g>
			</g>
			<g>
				<g>
					<g>
						<g>
							<path class="st9" d="M83.57,428.77c-0.02,0-0.08-0.26-0.16-0.77c-0.09-0.58-0.2-1.31-0.33-2.21
								c-0.07-0.49-0.14-1.02-0.22-1.6c-0.11-0.58-0.23-1.21-0.36-1.88c-0.26-1.35-0.52-2.9-0.97-4.57
								c-0.2-0.84-0.42-1.72-0.64-2.64c-0.27-0.91-0.54-1.85-0.83-2.83c-0.53-1.97-1.31-4-2.04-6.17
								c-1.62-4.28-3.64-8.89-6.11-13.56c-2.52-4.64-5.25-8.88-7.92-12.59c-1.4-1.81-2.66-3.58-4.01-5.11
								c-0.65-0.78-1.29-1.53-1.9-2.25c-0.64-0.69-1.26-1.36-1.85-1.99c-1.15-1.29-2.29-2.37-3.27-3.33
								c-0.49-0.48-0.94-0.93-1.37-1.34c-0.44-0.39-0.84-0.74-1.21-1.07c-0.68-0.61-1.23-1.11-1.66-1.5
								c-0.37-0.35-0.56-0.54-0.55-0.56c0.01-0.02,0.23,0.14,0.64,0.45c0.46,0.37,1.03,0.83,1.74,1.4c0.38,0.31,0.8,0.66,1.25,1.03
								c0.44,0.41,0.91,0.84,1.41,1.31c1.01,0.94,2.18,2,3.36,3.28c0.6,0.63,1.23,1.29,1.89,1.97c0.62,0.72,1.27,1.47,1.94,2.24
								c1.37,1.52,2.66,3.29,4.08,5.1c2.71,3.72,5.48,7.97,8.01,12.64c2.49,4.7,4.5,9.35,6.1,13.66c0.72,2.19,1.49,4.24,1.99,6.22
								c0.27,0.98,0.54,1.94,0.8,2.85c0.21,0.92,0.41,1.81,0.6,2.67c0.42,1.69,0.65,3.25,0.87,4.61c0.11,0.68,0.21,1.31,0.31,1.9
								c0.06,0.58,0.11,1.12,0.16,1.61c0.08,0.91,0.15,1.65,0.2,2.23C83.58,428.5,83.59,428.77,83.57,428.77z"/>
						</g>
					</g>
				</g>
			</g>
			<g>
				<g>
					<g>
						<g>
							<path class="st9" d="M83.21,431.62c-0.01,0-0.01-0.11,0-0.32c0.02-0.25,0.04-0.55,0.07-0.92c0.08-0.86,0.19-2.03,0.32-3.52
								c0.08-0.77,0.16-1.62,0.25-2.54c0.07-0.93,0.1-1.94,0.15-3.03c0.08-2.18,0.29-4.65,0.21-7.39c-0.01-1.37-0.01-2.81-0.02-4.3
								c-0.02-1.5-0.16-3.05-0.23-4.66c-0.11-3.22-0.55-6.64-0.93-10.24c-0.98-7.17-2.52-15-4.86-23.03
								c-2.42-8.01-5.4-15.41-8.48-21.96c-1.64-3.23-3.13-6.33-4.8-9.09c-0.81-1.39-1.54-2.77-2.34-4.03
								c-0.81-1.26-1.59-2.46-2.33-3.62c-1.43-2.34-2.95-4.3-4.21-6.08c-0.64-0.88-1.21-1.72-1.78-2.46
								c-0.58-0.72-1.11-1.39-1.59-1.99c-0.92-1.17-1.66-2.1-2.19-2.77c-0.22-0.3-0.41-0.54-0.56-0.73
								c-0.12-0.17-0.18-0.26-0.17-0.26s0.08,0.07,0.22,0.22c0.16,0.19,0.36,0.41,0.61,0.69c0.56,0.66,1.32,1.56,2.29,2.7
								c0.5,0.59,1.05,1.25,1.64,1.96c0.58,0.73,1.17,1.56,1.83,2.43c1.29,1.76,2.84,3.71,4.3,6.04c0.76,1.15,1.55,2.35,2.37,3.61
								c0.82,1.26,1.56,2.64,2.39,4.03c1.69,2.76,3.21,5.87,4.87,9.1c3.13,6.57,6.14,14,8.57,22.04c2.35,8.07,3.88,15.94,4.83,23.15
								c0.37,3.62,0.79,7.05,0.88,10.29c0.06,1.62,0.19,3.17,0.19,4.68c-0.01,1.5-0.02,2.94-0.02,4.32c0.05,2.75-0.2,5.23-0.31,7.41
								c-0.07,1.09-0.12,2.11-0.21,3.04c-0.11,0.92-0.22,1.77-0.31,2.54c-0.19,1.48-0.34,2.65-0.45,3.51
								c-0.05,0.37-0.1,0.67-0.13,0.91C83.24,431.52,83.22,431.62,83.21,431.62z"/>
						</g>
					</g>
				</g>
			</g>
			<g>
				<g>
					<g>
						<g>
							<path class="st9" d="M109.9,277.8c0.01,0.01-0.03,0.11-0.13,0.29c-0.12,0.22-0.26,0.49-0.44,0.82
								c-0.43,0.76-1.01,1.81-1.75,3.13c-0.38,0.68-0.83,1.42-1.26,2.26c-0.42,0.85-0.88,1.77-1.37,2.76
								c-0.49,0.99-1.02,2.05-1.58,3.17c-0.53,1.13-1.04,2.36-1.61,3.63c-0.55,1.28-1.17,2.6-1.73,4.01
								c-0.55,1.42-1.11,2.89-1.7,4.42c-0.29,0.76-0.59,1.54-0.9,2.33c-0.27,0.8-0.55,1.61-0.83,2.44
								c-0.56,1.65-1.13,3.35-1.72,5.09c-2.17,7.03-4.23,14.85-5.97,23.16c-1.68,8.32-2.86,16.33-3.74,23.64
								c-0.75,7.32-1.3,13.93-1.45,19.49c-0.14,2.78-0.17,5.3-0.18,7.51c-0.04,2.21-0.04,4.12,0.01,5.67
								c0.02,1.51,0.04,2.71,0.05,3.59c0,0.38,0,0.68,0,0.93c0,0.21-0.01,0.32-0.02,0.32c-0.01,0-0.03-0.11-0.04-0.32
								c-0.02-0.25-0.04-0.56-0.06-0.93c-0.04-0.87-0.1-2.07-0.18-3.59c-0.09-1.56-0.12-3.46-0.12-5.68
								c-0.03-2.21-0.03-4.74,0.08-7.52c0.09-5.58,0.6-12.2,1.31-19.54c0.84-7.33,2.01-15.36,3.69-23.71
								c1.74-8.33,3.83-16.18,6.04-23.21c0.6-1.74,1.18-3.45,1.75-5.1c0.29-0.83,0.57-1.64,0.84-2.44c0.31-0.79,0.61-1.57,0.91-2.33
								c0.6-1.52,1.18-3,1.74-4.42c0.58-1.41,1.21-2.73,1.78-4c0.58-1.27,1.11-2.49,1.66-3.62c0.58-1.11,1.12-2.17,1.63-3.15
								c0.51-0.98,0.98-1.89,1.42-2.74c0.45-0.83,0.92-1.56,1.32-2.24c0.79-1.3,1.41-2.32,1.86-3.07c0.2-0.32,0.37-0.58,0.5-0.79
								C109.82,277.88,109.89,277.79,109.9,277.8z"/>
						</g>
					</g>
				</g>
			</g>
			<g>
				<g>
					<g>
						<g>
							<path class="st9" d="M106.41,374.01c0.04,0.03-0.35,0.71-1.09,1.91c-0.75,1.2-1.78,2.97-2.99,5.19
								c-1.22,2.21-2.54,4.91-3.88,7.97c-1.31,3.07-2.62,6.5-3.77,10.17c-1.12,3.68-1.98,7.26-2.63,10.53
								c-0.61,3.28-1.05,6.26-1.29,8.77c-0.25,2.51-0.4,4.55-0.46,5.97c-0.07,1.41-0.13,2.19-0.18,2.19c-0.05,0-0.07-0.78-0.08-2.2
								c-0.02-1.42,0.05-3.47,0.25-6c0.18-2.53,0.57-5.53,1.15-8.84c0.62-3.3,1.46-6.9,2.59-10.61c1.16-3.7,2.49-7.15,3.84-10.22
								c1.38-3.06,2.76-5.76,4.04-7.95c1.27-2.2,2.36-3.94,3.18-5.1C105.91,374.62,106.37,373.99,106.41,374.01z"/>
						</g>
					</g>
				</g>
			</g>
		</g>
		<g>
			<g>
				<g>
					<polygon class="st10" points="63.43,421.72 108.47,421.72 103.02,467.71 69.04,467.71 					"/>
				</g>
			</g>
		</g>
		<g>
			<g>
				<g>
					<polygon class="st9" points="65.08,462.75 68.9,467.71 103.02,467.71 106.95,462.91 					"/>
				</g>
			</g>
		</g>
		<g>
			<g>
				<g>
					<g>
						<path class="st3" d="M106.71,435.24c0,0.19-9.35,0.34-20.87,0.34c-11.53,0-20.87-0.15-20.87-0.34c0-0.19,9.34-0.34,20.87-0.34
							C97.37,434.91,106.71,435.06,106.71,435.24z"/>
					</g>
				</g>
			</g>
		</g>
		<g>
			<g>
				<g>
					<g>
						<path class="st3" d="M106.71,438.31c0,0.19-9.35,0.34-20.87,0.34c-11.53,0-20.87-0.15-20.87-0.34s9.34-0.34,20.87-0.34
							C97.37,437.97,106.71,438.12,106.71,438.31z"/>
					</g>
				</g>
			</g>
		</g>
		<g>
			<g>
				<g>
					<g>
						<path class="st3" d="M106.15,441.27c0,0.19-9.02,0.34-20.14,0.34c-11.13,0-20.14-0.15-20.14-0.34s9.02-0.34,20.14-0.34
							C97.13,440.93,106.15,441.09,106.15,441.27z"/>
					</g>
				</g>
			</g>
		</g>
	</g>
</g>
<g id="Floor">
	<g>
		<g>
			<g>
				<path class="st9" d="M461.82,467.76c0,0.14-97.53,0.26-217.81,0.26c-120.32,0-217.83-0.12-217.83-0.26
					c0-0.14,97.51-0.26,217.83-0.26C364.29,467.5,461.82,467.62,461.82,467.76z"/>
			</g>
		</g>
	</g>
</g>
<g id="Character">
	<g>
		<g>
			<g>
				<g>
					<path class="st9" d="M443.94,149.85c-3.36-4.26-3.44-12.03-3.33-14.07c0.26-4.71-10.24-32.21-36.26-20.85l0-0.02
						c-9.32,0-9.48,9.2-11.25,11.06c-1.77,1.85-3.74,3.78-4.2,6.3c-0.82,4.47,3.42,8.81,2.34,13.22c-0.4,1.66-1.51,3.06-2.29,4.57
						l0,0c-0.83,1.36-1.5,3.56-1.14,4.78c0.36,1.22,1.14,2.27,1.78,3.37c0.64,1.1,1.17,2.36,0.94,3.62
						c-0.41,2.27-3.03,3.52-3.74,5.72c-0.69,2.15,0.66,4.36,1.89,6.26c1.22,1.9,2.41,4.28,1.42,6.31c-0.53,1.08-1.57,1.8-2.41,2.65
						c-2.57,2.58-3.33,6.79-1.84,10.11c4.99-0.98,9.98-1.97,14.97-2.95c0.65-7.13,1.31-14.27,1.96-21.4
						c4.38,1.09,9.17-1.71,11.24-2.24l2.55-1.38c5.58,0.98,11.6,0.63,16.49-2.22c4.89-2.85,12.14,0.79,11.19-4.79
						C443.8,155.17,445.65,152.01,443.94,149.85z"/>
				</g>
			</g>
			<g>
				<g>
					<g>
						<g>
							<g>
								<g>
									<g>
										<g>
											<g>
												<path class="st11" d="M426.88,123.84l-20.36-6.03c-6.56-0.96-11.27,6.97-11.95,13.57c-0.76,7.33-1.4,16.3-0.75,21.82
													c1.31,11.09,9.7,12.83,9.7,12.83c0-0.01-1.47,15.71-1.61,19.64l25.11-12.85l3.17-44.91
													C430.31,125.9,428.87,124.13,426.88,123.84z"/>
											</g>
										</g>
										<g>
											<g>
												<g>
													<g>
														<g>
															<g>
																<g>
																	<g>
																		<g>
																			<g>
																				<g>
																					<g>
																						<g>
																							<g>
																								<g>
																									<path class="st9" d="M395.83,140.41c-0.06,0.75,0.53,1.41,1.31,1.48c0.78,0.07,1.45-0.47,1.51-1.22
																										c0.06-0.75-0.53-1.41-1.3-1.48C396.56,139.12,395.88,139.67,395.83,140.41z"/>
																								</g>
																							</g>
																						</g>
																					</g>
																				</g>
																			</g>
																		</g>
																	</g>
																</g>
															</g>
														</g>
													</g>
												</g>
											</g>
											<g>
												<g>
													<g>
														<g>
															<g>
																<g>
																	<g>
																		<g>
																			<g>
																				<g>
																					<g>
																						<g>
																							<g>
																								<g>
																									<g>
																										<path class="st9" d="M395.07,137.18c0.14,0.18,1.34-0.08,2.84,0.37c1.5,0.43,2.45,1.32,2.65,1.23
																											c0.1-0.04-0.02-0.33-0.43-0.73c-0.4-0.39-1.14-0.88-2.08-1.15c-0.93-0.27-1.79-0.25-2.31-0.13
																											C395.22,136.9,395,137.09,395.07,137.18z"/>
																									</g>
																								</g>
																							</g>
																						</g>
																					</g>
																				</g>
																			</g>
																		</g>
																	</g>
																</g>
															</g>
														</g>
													</g>
												</g>
											</g>
										</g>
										<g>
											<g>
												<g>
													<g>
														<g>
															<g>
																<g>
																	<g>
																		<g>
																			<g>
																				<g>
																					<g>
																						<g>
																							<g>
																								<g>
																									<path class="st9" d="M409.93,141.56c-0.06,0.75,0.53,1.41,1.31,1.48c0.78,0.07,1.45-0.47,1.51-1.22
																										c0.06-0.75-0.53-1.41-1.3-1.48C410.67,140.27,409.99,140.81,409.93,141.56z"/>
																								</g>
																							</g>
																						</g>
																					</g>
																				</g>
																			</g>
																		</g>
																	</g>
																</g>
															</g>
														</g>
													</g>
												</g>
											</g>
											<g>
												<g>
													<g>
														<g>
															<g>
																<g>
																	<g>
																		<g>
																			<g>
																				<g>
																					<g>
																						<g>
																							<g>
																								<g>
																									<g>
																										<path class="st9" d="M410.19,139.18c0.22,0.1,1.32-0.63,3.02-0.87c1.7-0.25,3.05,0.13,3.21-0.03
																											c0.08-0.07-0.16-0.28-0.75-0.46c-0.58-0.18-1.54-0.29-2.6-0.14c-1.06,0.15-1.9,0.53-2.37,0.86
																											C410.21,138.87,410.08,139.13,410.19,139.18z"/>
																									</g>
																								</g>
																							</g>
																						</g>
																					</g>
																				</g>
																			</g>
																		</g>
																	</g>
																</g>
															</g>
														</g>
													</g>
												</g>
											</g>
										</g>
										<g>
											<g>
												<g>
													<g>
														<g>
															<g>
																<g>
																	<g>
																		<g>
																			<g>
																				<g>
																					<g>
																						<g>
																							<g>
																								<g>
																									<path class="st9" d="M404.93,149.11c0.01-0.09-0.93-0.29-2.45-0.55c-0.39-0.06-0.75-0.15-0.81-0.42
																										c-0.08-0.28,0.1-0.7,0.31-1.14c0.4-0.93,0.82-1.89,1.27-2.91c1.76-4.15,3.06-7.56,2.89-7.63
																										c-0.17-0.07-1.73,3.23-3.5,7.38c-0.43,1.02-0.83,2-1.22,2.93c-0.16,0.44-0.44,0.93-0.26,1.52
																										c0.09,0.29,0.37,0.52,0.62,0.59c0.25,0.09,0.46,0.1,0.66,0.12C403.97,149.15,404.92,149.19,404.93,149.11z
																										"/>
																								</g>
																							</g>
																						</g>
																					</g>
																				</g>
																			</g>
																		</g>
																	</g>
																</g>
															</g>
														</g>
													</g>
												</g>
											</g>
										</g>
										<g>
											<g>
												<g>
													<g>
														<g>
															<g>
																<g>
																	<g>
																		<g>
																			<g>
																				<g>
																					<g>
																						<g>
																							<g>
																								<path class="st12" d="M403.51,166.03c0,0,7.24,0.93,14.77-3.19c-0.13,0.02-4.52,7.67-15.04,6.12
																									L403.51,166.03z"/>
																							</g>
																						</g>
																					</g>
																				</g>
																			</g>
																		</g>
																	</g>
																</g>
															</g>
														</g>
													</g>
												</g>
											</g>
										</g>
										<g>
											<g>
												<g>
													<g>
														<g>
															<g>
																<g>
																	<g>
																		<g>
																			<g>
																				<g>
																					<g>
																						<g>
																							<g>
																								<path class="st12" d="M405.43,152.8c0.58-0.7,1.55-1.06,2.5-0.92c0.66,0.1,1.31,0.44,1.69,1
																									c0.38,0.55,0.43,1.32,0.05,1.82c-0.43,0.56-1.3,0.66-2.01,0.42c-0.72-0.24-1.32-0.74-1.9-1.24
																									c-0.16-0.14-0.32-0.28-0.42-0.47c-0.1-0.18-0.11-0.42,0.03-0.57"/>
																							</g>
																						</g>
																					</g>
																				</g>
																			</g>
																		</g>
																	</g>
																</g>
															</g>
														</g>
													</g>
												</g>
											</g>
										</g>
										<g>
											<g>
												<g>
													<g>
														<g>
															<g>
																<g>
																	<g>
																		<g>
																			<g>
																				<g>
																					<g>
																						<g>
																							<g>
																								<g>
																									<path class="st9" d="M409.37,150.34c-0.25-0.02-0.32,1.63-1.78,2.74c-1.46,1.12-3.21,0.86-3.23,1.09
																										c-0.03,0.1,0.38,0.34,1.12,0.39c0.73,0.05,1.8-0.14,2.69-0.82c0.89-0.68,1.3-1.63,1.38-2.3
																										C409.65,150.75,409.48,150.33,409.37,150.34z"/>
																								</g>
																							</g>
																						</g>
																					</g>
																				</g>
																			</g>
																		</g>
																	</g>
																</g>
															</g>
														</g>
													</g>
												</g>
											</g>
										</g>
									</g>
								</g>
							</g>
							<g>
								<g>
									<g>
										<g>
											<g>
												<g>
													<g>
														<g>
															<g>
																<g>
																	<g>
																		<g>
																			<g>
																				<g>
																					<path class="st9" d="M410.38,133.77c0.13,0.42,1.66,0.28,3.44,0.57c1.78,0.25,3.2,0.83,3.45,0.47
																						c0.11-0.17-0.12-0.57-0.69-1c-0.56-0.42-1.47-0.84-2.53-1c-1.07-0.16-2.05-0.03-2.71,0.21
																						C410.67,133.25,410.33,133.57,410.38,133.77z"/>
																				</g>
																			</g>
																		</g>
																	</g>
																</g>
															</g>
														</g>
													</g>
												</g>
											</g>
										</g>
									</g>
								</g>
							</g>
							<g>
								<g>
									<g>
										<g>
											<g>
												<g>
													<g>
														<g>
															<g>
																<g>
																	<g>
																		<g>
																			<g>
																				<g>
																					<path class="st9" d="M396.71,132.78c0.25,0.36,1.32,0.04,2.58,0.07c1.26-0.01,2.32,0.33,2.58-0.03
																						c0.11-0.17-0.04-0.52-0.49-0.87c-0.45-0.34-1.2-0.64-2.07-0.65c-0.87-0.01-1.63,0.28-2.08,0.61
																						C396.76,132.26,396.59,132.61,396.71,132.78z"/>
																				</g>
																			</g>
																		</g>
																	</g>
																</g>
															</g>
														</g>
													</g>
												</g>
											</g>
										</g>
									</g>
								</g>
							</g>
						</g>
					</g>
				</g>
			</g>
			<g>
				<g>
					<g>
						<path class="st9" d="M404.11,116.36c8.19,1.3,16.21,3.58,23.86,6.77c1.77,0.74,3.63,1.62,4.63,3.26
							c1.06,1.73,0.92,3.92,0.75,5.94c-0.84,9.88-1.68,19.76-2.52,29.64l-1.06-0.05c-3.05,0.5-3.27-1.06-5.45-3.25
							s-3.23-5.46-2.73-8.51c0.45-2.69,2.01-5.39,1.17-7.99c-1.11-3.43-5.82-4.66-6.95-8.09c-0.66-1.99,0.09-4.27-0.67-6.22
							c-0.71-1.84-2.58-2.96-4.41-3.7c-1.83-0.74-3.8-1.28-5.31-2.55C403.93,120.34,403.04,118.02,404.11,116.36z"/>
					</g>
				</g>
			</g>
		</g>
		<g>
			<g>
				<g>
					<g>
						<g>
							<g>
								<g>
									<g>
										<g>
											<g>
												<g>
													<path class="st10" d="M380.68,431.54l2.31,22.25c0,0-21.84,9.82-21.81,13.97l43.3-2.93l-2.18-34.82L380.68,431.54z"/>
												</g>
											</g>
										</g>
									</g>
								</g>
							</g>
						</g>
					</g>
					<g class="st13">
						<g>
							<g>
								<g>
									<g>
										<g>
											<g>
												<g>
													<path d="M380.68,431.54l2.31,22.25c0,0-21.84,9.82-21.81,13.97l43.3-2.93l-2.18-34.82L380.68,431.54z"/>
												</g>
											</g>
										</g>
									</g>
								</g>
							</g>
						</g>
					</g>
					<g class="st14">
						<g>
							<g>
								<g>
									<g>
										<g>
											<g>
												<g>
													<g>
														<path class="st3" d="M396.25,451.01c0.85,0.17,1.5,1.08,1.36,1.94c-0.14,0.86-1.05,1.52-1.91,1.36
															c-0.86-0.16-1.66-1.22-1.43-2.06c0.23-0.84,1.35-1.56,2.14-1.2"/>
													</g>
												</g>
											</g>
										</g>
									</g>
								</g>
							</g>
						</g>
					</g>
					<g class="st14">
						<g>
							<g>
								<g>
									<g>
										<g>
											<g>
												<g>
													<path class="st3" d="M404.47,464.84l-0.36-3.5l-41.38,4.12c0,0-1.87,0.97-1.56,2.31L404.47,464.84z"/>
												</g>
											</g>
										</g>
									</g>
								</g>
							</g>
						</g>
					</g>
					<g>
						<g>
							<g>
								<g>
									<g>
										<g>
											<g>
												<g>
													<g>
														<path class="st9" d="M382.27,453.62c0.02,0.21,1.08,0.24,2.17,0.84c1.1,0.58,1.7,1.46,1.89,1.36
															c0.19-0.05-0.21-1.3-1.54-2.01C383.47,453.09,382.21,453.43,382.27,453.62z"/>
													</g>
												</g>
											</g>
										</g>
									</g>
								</g>
							</g>
						</g>
					</g>
					<g>
						<g>
							<g>
								<g>
									<g>
										<g>
											<g>
												<g>
													<g>
														<path class="st9" d="M377.86,455.8c-0.03,0.21,0.91,0.51,1.68,1.35c0.8,0.82,1.05,1.78,1.26,1.75
															c0.2,0.02,0.26-1.23-0.72-2.26C379.1,455.61,377.85,455.6,377.86,455.8z"/>
													</g>
												</g>
											</g>
										</g>
									</g>
								</g>
							</g>
						</g>
					</g>
					<g>
						<g>
							<g>
								<g>
									<g>
										<g>
											<g>
												<g>
													<g>
														<path class="st9" d="M375.64,461.41c0.2,0.03,0.42-1.04-0.2-2.16c-0.61-1.13-1.64-1.52-1.72-1.33
															c-0.11,0.18,0.58,0.76,1.07,1.69C375.31,460.52,375.43,461.41,375.64,461.41z"/>
													</g>
												</g>
											</g>
										</g>
									</g>
								</g>
							</g>
						</g>
					</g>
					<g>
						<g>
							<g>
								<g>
									<g>
										<g>
											<g>
												<g>
													<g>
														<path class="st9" d="M382.31,448.49c0.1,0.19,1.05-0.17,2.25-0.17c1.2-0.02,2.16,0.31,2.26,0.13
															c0.11-0.16-0.85-0.88-2.26-0.86C383.14,447.59,382.19,448.33,382.31,448.49z"/>
													</g>
												</g>
											</g>
										</g>
									</g>
								</g>
							</g>
						</g>
					</g>
				</g>
				<g>
					<g>
						<g>
							<g>
								<g>
									<g>
										<g>
											<g>
												<g>
													<path class="st9" d="M381.92,443.99c0,0.09,0.85,0.16,2.17-0.16c0.66-0.16,1.43-0.43,2.22-0.85
														c0.4-0.21,0.8-0.46,1.2-0.75c0.19-0.14,0.42-0.29,0.62-0.55c0.22-0.24,0.31-0.81,0.02-1.13
														c-0.24-0.32-0.65-0.43-0.96-0.42c-0.32,0.01-0.57,0.09-0.81,0.17c-0.47,0.15-0.92,0.34-1.32,0.55
														c-0.8,0.43-1.44,0.95-1.91,1.45c-0.94,1-1.23,1.81-1.16,1.85c0.1,0.06,0.54-0.63,1.51-1.47
														c0.48-0.42,1.11-0.86,1.86-1.22c0.38-0.18,0.79-0.34,1.22-0.47c0.45-0.15,0.84-0.18,0.97,0.01
														c0.05,0.08,0.06,0.11-0.03,0.25c-0.09,0.13-0.27,0.26-0.46,0.4c-0.37,0.28-0.74,0.52-1.1,0.73
														c-0.73,0.43-1.43,0.73-2.04,0.95C382.72,443.76,381.91,443.88,381.92,443.99z"/>
												</g>
											</g>
										</g>
									</g>
								</g>
							</g>
						</g>
					</g>
				</g>
				<g>
					<g>
						<g>
							<g>
								<g>
									<g>
										<g>
											<g>
												<g>
													<path class="st9" d="M382.22,444.28c0.08,0.03,0.45-0.76,0.43-2.13c-0.01-0.68-0.14-1.5-0.46-2.35
														c-0.16-0.43-0.37-0.86-0.64-1.28c-0.28-0.41-0.63-0.96-1.46-1c-0.43,0.01-0.76,0.37-0.86,0.67
														c-0.12,0.3-0.13,0.56-0.17,0.81c-0.05,0.51,0,1.01,0.1,1.46c0.2,0.91,0.63,1.65,1.08,2.18
														c0.92,1.07,1.82,1.26,1.83,1.19c0.06-0.11-0.7-0.47-1.42-1.5c-0.36-0.51-0.69-1.19-0.82-1.99
														c-0.07-0.4-0.09-0.82-0.05-1.26c0.04-0.46,0.18-0.85,0.36-0.81c0.22-0.02,0.6,0.3,0.81,0.66
														c0.25,0.37,0.45,0.76,0.62,1.14c0.32,0.76,0.49,1.51,0.57,2.14C382.27,443.44,382.1,444.25,382.22,444.28z"/>
												</g>
											</g>
										</g>
									</g>
								</g>
							</g>
						</g>
					</g>
				</g>
			</g>
			<g>
				<g>
					<g>
						<path class="st9" d="M376.92,268.7c0,0-19.18,87.08-19.77,94.85c-0.59,7.78,23.77,74.91,23.77,74.91l20.96-3.96
							c0,0-1.33-99.13-2.01-101.08c-0.68-1.94,5.36-50.66,5.36-50.66L376.92,268.7z"/>
					</g>
				</g>
			</g>
			<g>
				<g>
					<g>
						<g>
							<g>
								<g>
									<g>
										<g>
											<g>
												<g>
													<path class="st10" d="M390.32,432.58l0.23,22.37c0,0-22.66,7.75-23.02,11.89l43.38,0.45l1.07-34.21L390.32,432.58z"/>
												</g>
											</g>
										</g>
									</g>
								</g>
							</g>
						</g>
					</g>
					<g class="st14">
						<g>
							<g>
								<g>
									<g>
										<g>
											<g>
												<g>
													<g>
														<path class="st3" d="M404.01,453.41c0.83,0.25,1.39,1.21,1.17,2.05c-0.22,0.84-1.19,1.42-2.02,1.18
															c-0.84-0.24-1.54-1.37-1.23-2.18c0.31-0.81,1.49-1.43,2.24-1"/>
													</g>
												</g>
											</g>
										</g>
									</g>
								</g>
							</g>
						</g>
					</g>
					<g class="st14">
						<g>
							<g>
								<g>
									<g>
										<g>
											<g>
												<g>
													<path class="st3" d="M410.91,467.28l-0.02-2.86l-41.59,0.25c0,0-1.95,0.79-1.77,2.16L410.91,467.28z"/>
												</g>
											</g>
										</g>
									</g>
								</g>
							</g>
						</g>
					</g>
					<g>
						<g>
							<g>
								<g>
									<g>
										<g>
											<g>
												<g>
													<g>
														<path class="st9" d="M389.85,454.71c0,0.21,1.06,0.34,2.08,1.04c1.04,0.68,1.56,1.61,1.75,1.53
															c0.2-0.04-0.09-1.31-1.34-2.15C391.1,454.29,389.81,454.51,389.85,454.71z"/>
													</g>
												</g>
											</g>
										</g>
									</g>
								</g>
							</g>
						</g>
					</g>
					<g>
						<g>
							<g>
								<g>
									<g>
										<g>
											<g>
												<g>
													<g>
														<path class="st9" d="M385.25,456.47c-0.05,0.2,0.85,0.59,1.55,1.5c0.72,0.89,0.88,1.87,1.09,1.86
															c0.2,0.04,0.38-1.2-0.51-2.32C386.51,456.39,385.26,456.27,385.25,456.47z"/>
													</g>
												</g>
											</g>
										</g>
									</g>
								</g>
							</g>
						</g>
					</g>
					<g>
						<g>
							<g>
								<g>
									<g>
										<g>
											<g>
												<g>
													<g>
														<path class="st9" d="M382.53,461.85c0.19,0.05,0.51-1,0-2.17c-0.51-1.18-1.49-1.66-1.59-1.49
															c-0.12,0.17,0.5,0.81,0.91,1.78C382.28,460.93,382.32,461.83,382.53,461.85z"/>
													</g>
												</g>
											</g>
										</g>
									</g>
								</g>
							</g>
						</g>
					</g>
					<g>
						<g>
							<g>
								<g>
									<g>
										<g>
											<g>
												<g>
													<g>
														<path class="st9" d="M390.37,449.6c0.08,0.2,1.06-0.07,2.26,0.04c1.2,0.09,2.12,0.51,2.23,0.33
															c0.13-0.15-0.76-0.96-2.17-1.07C391.28,448.78,390.27,449.43,390.37,449.6z"/>
													</g>
												</g>
											</g>
										</g>
									</g>
								</g>
							</g>
						</g>
					</g>
				</g>
				<g class="st13">
					<g>
						<g>
							<g>
								<g>
									<g>
										<g>
											<g>
												<polygon points="390.37,437.01 390.41,440.99 411.73,441.34 411.85,437.75 												"/>
											</g>
										</g>
									</g>
								</g>
							</g>
						</g>
					</g>
				</g>
				<g>
					<g>
						<g>
							<g>
								<g>
									<g>
										<g>
											<g>
												<g>
													<path class="st9" d="M390.4,445.09c0,0.09,0.83,0.24,2.17,0.04c0.67-0.1,1.46-0.3,2.29-0.64
														c0.42-0.17,0.84-0.38,1.26-0.63c0.2-0.12,0.44-0.25,0.67-0.49c0.24-0.21,0.39-0.77,0.13-1.12
														c-0.21-0.34-0.6-0.49-0.92-0.51c-0.32-0.02-0.58,0.04-0.82,0.09c-0.49,0.1-0.94,0.25-1.36,0.43
														c-0.84,0.36-1.52,0.82-2.04,1.26c-1.03,0.91-1.39,1.69-1.32,1.73c0.09,0.07,0.6-0.58,1.64-1.32
														c0.52-0.37,1.18-0.75,1.97-1.04c0.39-0.14,0.81-0.27,1.26-0.35c0.46-0.11,0.85-0.1,0.97,0.11
														c0.04,0.08,0.05,0.11-0.05,0.24c-0.1,0.12-0.29,0.24-0.49,0.36c-0.39,0.24-0.78,0.45-1.16,0.63
														c-0.77,0.36-1.5,0.59-2.12,0.75C391.22,444.94,390.4,444.97,390.4,445.09z"/>
												</g>
											</g>
										</g>
									</g>
								</g>
							</g>
						</g>
					</g>
				</g>
				<g>
					<g>
						<g>
							<g>
								<g>
									<g>
										<g>
											<g>
												<g>
													<path class="st9" d="M390.67,445.4c0.07,0.03,0.51-0.71,0.63-2.08c0.05-0.68,0-1.51-0.24-2.39
														c-0.12-0.44-0.29-0.89-0.52-1.33c-0.24-0.43-0.54-1.02-1.36-1.13c-0.43-0.03-0.79,0.3-0.92,0.58
														c-0.15,0.29-0.19,0.54-0.24,0.79c-0.09,0.5-0.1,1-0.04,1.46c0.11,0.93,0.47,1.71,0.87,2.27
														c0.82,1.15,1.7,1.42,1.72,1.35c0.07-0.1-0.65-0.53-1.28-1.63c-0.31-0.54-0.57-1.25-0.64-2.06
														c-0.03-0.4-0.02-0.83,0.07-1.25c0.08-0.46,0.26-0.83,0.43-0.78c0.22,0,0.57,0.36,0.74,0.73
														c0.21,0.39,0.38,0.8,0.51,1.19c0.25,0.79,0.35,1.54,0.37,2.18C390.8,444.58,390.56,445.36,390.67,445.4z"/>
												</g>
											</g>
										</g>
									</g>
								</g>
							</g>
						</g>
					</g>
				</g>
			</g>
			<g>
				<g>
					<path class="st9" d="M425.67,267.36l-48.75,1.34l7,86.74l4.34,83.61l25.29,0.88c1.29-16.14,1.38-73.17,1.38-73.17l5.11-34.45
						c1.18-9.29,4.91-19.05,6.71-27.38c1.05-4.9,2.6-11.25,2.92-13.32C430.64,285.48,425.67,267.36,425.67,267.36z"/>
				</g>
			</g>
			<g>
				<g>
					<g>
						<g>
							<path class="st10" d="M379.76,288.66c0.01,0,0.01,0.13,0.01,0.39c-0.01,0.28-0.02,0.66-0.03,1.14
								c-0.04,1.03-0.1,2.5-0.17,4.38c-0.08,1.9-0.18,4.23-0.26,6.93c-0.08,2.7-0.21,5.78-0.28,9.18c-0.19,6.8-0.29,14.9-0.25,23.9
								c0.07,9,0.28,18.88,0.79,29.25c0.53,10.37,1.32,20.23,2.21,29.18c0.49,4.47,0.92,8.72,1.46,12.69
								c0.26,1.98,0.48,3.9,0.75,5.74c0.27,1.84,0.53,3.6,0.77,5.28c0.46,3.37,1.01,6.4,1.44,9.07c0.42,2.67,0.84,4.96,1.19,6.83
								c0.33,1.85,0.6,3.3,0.78,4.31c0.08,0.48,0.14,0.85,0.19,1.12c0.04,0.25,0.06,0.38,0.05,0.39c-0.01,0-0.04-0.13-0.1-0.38
								c-0.06-0.27-0.14-0.64-0.24-1.11c-0.2-1.01-0.5-2.45-0.87-4.3c-0.38-1.87-0.83-4.15-1.28-6.82
								c-0.46-2.67-1.03-5.69-1.51-9.06c-0.26-1.68-0.53-3.45-0.81-5.28c-0.28-1.84-0.51-3.76-0.77-5.74
								c-0.56-3.97-1.01-8.22-1.51-12.69c-0.92-8.96-1.72-18.83-2.25-29.21c-0.51-10.38-0.71-20.27-0.75-29.28
								c-0.01-9,0.13-17.11,0.36-23.91c0.08-3.4,0.24-6.48,0.35-9.18c0.11-2.7,0.23-5.03,0.35-6.93c0.11-1.88,0.2-3.35,0.26-4.38
								c0.03-0.48,0.06-0.86,0.08-1.14C379.74,288.79,379.75,288.66,379.76,288.66z"/>
						</g>
					</g>
				</g>
			</g>
		</g>
		<g>
			<g>
				<path class="st8" d="M430.95,177.58l-0.61-8.45l-28.19-0.41l-0.24,10.61c0,0-13.84,14.97-18.86,31.76
					c-8.44,28.22-11.5,64.14-11.5,64.14h57.69c-0.6-9.94-4.7-32.18-4.7-32.18l12.83-38.25
					C440.54,191.05,430.95,177.58,430.95,177.58z"/>
			</g>
		</g>
		<g>
			<g>
				<g>
					<g>
						<path class="st9" d="M402.24,179.18c0.59-2,1.85-3.72,3.08-5.39c2.02-2.73,4.2-5.59,7.35-6.88c2.14-0.88,7.67-0.39,9.15-2.18
							c4.6-5.57-2.14-9.04,0.31-16.7c2.68-8.4,1.3-7.11,1.5-13.71l10.22-4.42c1.61,1.2,6.07,5.54,5.58,7.48
							c-0.49,1.95-0.35,4.11,0.39,6.43c1.57,4.92,6.99,7.83,9.55,12.31c2.63,4.6-0.33,10.69-0.4,15.98
							c-0.07,5.29,1.93,11.66,7.1,12.81c-1.93,3.88-5.16,7.1-9.06,9c-1.08-1.47-2.16-2.94-3.24-4.41c0.64,3.99-2.08,8.25-5.97,9.35
							c-1.09-4.65-2.24-9.43-5.05-13.28c-2.81-3.85-7.75-6.57-12.36-5.34c-3.08,0.83-5.47,3.2-8.22,4.82
							c-2.75,1.61-6.66,2.3-8.86-0.01C401.86,183.54,401.65,181.18,402.24,179.18z"/>
					</g>
				</g>
			</g>
		</g>
		<g id="File">
			<g>
				<g>
					<g>
						<g>
							<path class="st9" d="M337.27,173.31h-80.71c-3.29,0-5.95-2.67-5.95-5.95v-64.88c0-3.29,2.67-5.95,5.95-5.95l80.71,0
								c3.29,0,5.95,2.67,5.95,5.95v64.87C343.22,170.65,340.56,173.31,337.27,173.31z"/>
						</g>
					</g>
				</g>
				<g>
					<g>
						<g>
							<g>
								<circle class="st8" cx="296.91" cy="133.43" r="13.35"/>
							</g>
						</g>
					</g>
					<g>
						<g>
							<g>
								<path class="st3" d="M293.7,137.34v-7.88c0-0.38,0.41-0.63,0.75-0.44l7.04,3.97c0.34,0.19,0.34,0.68,0,0.87l-7.04,3.91
									C294.11,137.96,293.7,137.72,293.7,137.34z"/>
							</g>
						</g>
					</g>
				</g>
			</g>
			<g>
				<g>
					<polygon class="st11" points="352.01,172.66 339.53,159.33 329.69,166.22 339.53,180.78 					"/>
				</g>
			</g>
			<g>
				<g>
					<g>
						<g>
							<path class="st9" d="M361.14,215.77c0,0,0.16,0.15,0.48,0.43c0.31,0.29,0.8,0.68,1.46,1.14c1.32,0.9,3.45,2.01,6.32,2.43
								c1.42,0.22,3.03,0.22,4.7-0.05c1.68-0.19,3.47-0.42,5.35-0.67c3.76-0.51,7.89-1.14,12.21-1.87c8.6-1.51,16.39-2.88,22.1-3.88
								c2.78-0.45,5.06-0.83,6.71-1.1c0.75-0.12,1.35-0.22,1.83-0.29c0.42-0.07,0.63-0.12,0.63-0.12s-0.22,0.02-0.64,0.07
								c-0.48,0.07-1.08,0.15-1.83,0.25c-1.59,0.22-3.89,0.57-6.72,1.03c-5.67,0.9-13.48,2.35-22.11,3.82
								c-4.32,0.73-8.44,1.37-12.2,1.89c-1.88,0.26-3.67,0.49-5.35,0.69c-1.67,0.27-3.24,0.28-4.65,0.07
								c-2.84-0.4-4.97-1.47-6.3-2.34c-0.67-0.45-1.16-0.82-1.48-1.1C361.32,215.9,361.14,215.77,361.14,215.77z"/>
						</g>
					</g>
				</g>
			</g>
			<g>
				<g>
					<g>
						<g>
							<path class="st9" d="M432.72,202.14c0.01,0,0.03-0.08,0.06-0.22c0.04-0.21,0.09-0.42,0.13-0.65c0.11-0.57,0.26-1.39,0.4-2.42
								c0.27-2.03,0.56-4.95-0.21-8.05c-0.79-3.1-2.73-5.47-4.48-6.58c-0.88-0.57-1.67-0.88-2.23-1.01
								c-0.56-0.14-0.88-0.16-0.88-0.16c-0.03,0.07,1.32,0.15,3.03,1.3c1.7,1.12,3.59,3.46,4.36,6.51c0.76,3.05,0.5,5.95,0.27,7.98
								c-0.12,1.02-0.25,1.85-0.33,2.42c-0.03,0.23-0.06,0.45-0.09,0.66C432.72,202.05,432.71,202.13,432.72,202.14z"/>
						</g>
					</g>
				</g>
			</g>
			<g>
				<g>
					<g>
						<g>
							<path class="st9" d="M372.71,209.02c0.01,0,0-0.23-0.04-0.63c-0.05-0.53-0.1-1.1-0.16-1.71c-0.12-1.45-0.22-3.46-0.17-5.67
								c0.06-2.22,0.26-4.22,0.45-5.66c0.09-0.61,0.17-1.17,0.25-1.7c0.06-0.4,0.09-0.63,0.07-0.63c-0.01,0-0.07,0.22-0.16,0.61
								c-0.09,0.4-0.2,0.98-0.31,1.7c-0.23,1.44-0.46,3.45-0.52,5.67c-0.05,2.23,0.07,4.24,0.23,5.69c0.08,0.72,0.16,1.31,0.23,1.71
								C372.65,208.8,372.69,209.02,372.71,209.02z"/>
						</g>
					</g>
				</g>
			</g>
			<g class="st13">
				<g>
					<g>
						<path d="M383.04,218.38c13.29-2.43,31.01-5.33,44.3-7.75c0.5-0.09,1.02-0.18,1.49,0.01c0.88,0.35,1.14,1.57,0.74,2.43
							s-1.24,1.42-2.08,1.86c-4.36,2.28-9.48,2.46-14.4,2.6C404.7,217.76,391.45,218.15,383.04,218.38L383.04,218.38z"/>
					</g>
				</g>
			</g>
			<g>
				<g>
					<g>
						<path class="st15" d="M373.33,219.71c4.13,0.08,51.73-8.61,51.73-8.61"/>
					</g>
				</g>
			</g>
			<g>
				<g>
					<g>
						<g>
							<g>
								<g>
									<g>
										<path class="st8" d="M424.26,181.37c3.49,0.43,5.76,1.04,9.84,5.4c0.44,0.47,0.84,1.05,1.22,1.71
											c4.54,8,1.25,19.05-7.44,22.05l-8.42,1.73l-46.12,7.44c0,0-9.83,2.21-18.26-10.89c-3.09-4.8-24.4-36.59-24.4-36.59
											l14-9.37l28.22,30.19L424.26,181.37z"/>
									</g>
								</g>
							</g>
						</g>
					</g>
				</g>
				<g>
					<g>
						<g>
							<g>
								<g>
									<path class="st9" d="M361.14,215.77c0,0,0.16,0.15,0.48,0.43c0.31,0.29,0.8,0.68,1.46,1.14c1.32,0.9,3.45,2.01,6.32,2.43
										c1.42,0.22,3.03,0.22,4.7-0.05c1.68-0.19,3.47-0.42,5.35-0.67c3.76-0.51,7.89-1.14,12.21-1.87
										c8.6-1.51,16.39-2.88,22.1-3.88c2.78-0.45,5.06-0.83,6.71-1.1c0.75-0.12,1.35-0.22,1.83-0.29
										c0.42-0.07,0.63-0.12,0.63-0.12s-0.22,0.02-0.64,0.07c-0.48,0.07-1.08,0.15-1.83,0.25c-1.59,0.22-3.89,0.57-6.72,1.03
										c-5.67,0.9-13.48,2.35-22.11,3.82c-4.32,0.73-8.44,1.37-12.2,1.89c-1.88,0.26-3.67,0.49-5.35,0.69
										c-1.67,0.27-3.24,0.28-4.65,0.07c-2.84-0.4-4.97-1.47-6.3-2.34c-0.67-0.45-1.16-0.82-1.48-1.1
										C361.32,215.9,361.14,215.77,361.14,215.77z"/>
								</g>
							</g>
						</g>
					</g>
					<g>
						<g>
							<g>
								<g>
									<path class="st9" d="M432.72,202.14c0.01,0,0.03-0.08,0.06-0.22c0.04-0.21,0.09-0.42,0.13-0.65
										c0.11-0.57,0.26-1.39,0.4-2.42c0.27-2.03,0.56-4.95-0.21-8.05c-0.79-3.1-2.73-5.47-4.48-6.58
										c-0.88-0.57-1.67-0.88-2.23-1.01c-0.56-0.14-0.88-0.16-0.88-0.16c-0.03,0.07,1.32,0.15,3.03,1.3
										c1.7,1.12,3.59,3.46,4.36,6.51c0.76,3.05,0.5,5.95,0.27,7.98c-0.12,1.02-0.25,1.85-0.33,2.42
										c-0.03,0.23-0.06,0.45-0.09,0.66C432.72,202.05,432.71,202.13,432.72,202.14z"/>
								</g>
							</g>
						</g>
					</g>
					<g>
						<g>
							<g>
								<g>
									<path class="st9" d="M372.71,209.02c0.01,0,0-0.23-0.04-0.63c-0.05-0.53-0.1-1.1-0.16-1.71c-0.12-1.45-0.22-3.46-0.17-5.67
										c0.06-2.22,0.26-4.22,0.45-5.66c0.09-0.61,0.17-1.17,0.25-1.7c0.06-0.4,0.09-0.63,0.07-0.63c-0.01,0-0.07,0.22-0.16,0.61
										c-0.09,0.4-0.2,0.98-0.31,1.7c-0.23,1.44-0.46,3.45-0.52,5.67c-0.05,2.23,0.07,4.24,0.23,5.69
										c0.08,0.72,0.16,1.31,0.23,1.71C372.65,208.8,372.69,209.02,372.71,209.02z"/>
								</g>
							</g>
						</g>
					</g>
				</g>
			</g>
			<g>
				<g>
					<path class="st11" d="M339.47,149.04c-0.38-2.97-0.33-4.83-0.26-5.73c0.03-0.42-0.32-0.75-0.73-0.71
						c-0.76,0.07-1.88,0.5-2.57,2.24c-0.42,1.07-0.3,2.17-0.29,3.23c0.02,1.78,0,3.18,0,3.18s-8.88-10.63-10.68-11.11
						c-0.97-0.26-1.32,0.03-1.68,0.6c-0.33,0.53,0.33,1.77,0.33,1.77l5.01,7.16c0,0-7.57-8.91-8.94-8.88
						c-1.4,0.03-1.97,1.04-1.11,2.65c0.65,1.21,7.26,9.04,7.26,9.04s-7.07-6.83-8.48-6.77c-1.41,0.06-1.17,1.55-0.43,2.17
						c0.74,0.62,5.97,6.7,5.97,6.7s-5.11-4.31-6.14-3.97c-1.06,0.35-0.59,1.48-0.04,2.41c0.55,0.92,13.36,13.74,13.36,13.74
						l11.11-5.58v0c0.29-1.56,0.24-3.16-0.17-4.7C340.49,154.58,339.81,151.74,339.47,149.04z"/>
				</g>
			</g>
		</g>
	</g>
</g>
<g id="Folder">
	<g>
		<g>
			<g>
				<g>
					<g>
						<g>
							<g>
								<g>
									<path class="st16" d="M176.19,275.31c-5.65,0-10.23-4.58-10.23-10.23v-88.94c0-4.53,3.92-8.19,8.75-8.19h8.36
										c3.41,0,6.51-1.86,7.94-4.76l1.8-3.65c1.43-2.9,4.53-4.76,7.94-4.76h39.7c3.09,0,5.96,1.53,7.53,4.03l1.95,3.09
										c1.57,2.49,4.44,4.03,7.53,4.03h50.61c4.83,0,8.75,3.67,8.75,8.19v90.96c0,5.65-4.58,10.23-10.23,10.23H176.19z"/>
								</g>
							</g>
						</g>
					</g>
				</g>
			</g>
			<g class="st13">
				<g>
					<g>
						<g>
							<g>
								<g>
									<path class="st16" d="M176.19,275.31c-5.65,0-10.23-4.58-10.23-10.23v-88.94c0-4.53,3.92-8.19,8.75-8.19h8.36
										c3.41,0,6.51-1.86,7.94-4.76l1.8-3.65c1.43-2.9,4.53-4.76,7.94-4.76h39.7c3.09,0,5.96,1.53,7.53,4.03l1.95,3.09
										c1.57,2.49,4.44,4.03,7.53,4.03h50.61c4.83,0,8.75,3.67,8.75,8.19v90.96c0,5.65-4.58,10.23-10.23,10.23H176.19z"/>
								</g>
							</g>
						</g>
					</g>
				</g>
			</g>
		</g>
		<g>
			<g>
				<g>
					<g>
						<path class="st8" d="M252.48,165.92c0,0-32.19-0.07-32.19-0.07l-2.88-5.38c-1.87-3.49-5.67-5.69-9.84-5.69H176.1
							c-5.6,0-10.14,4.25-10.14,9.5v3.67v96.57c0,5.96,5.16,10.79,11.52,10.79H305.3c6.36,0,11.52-4.83,11.52-10.79v-91.23
							c0-4.07-3.3-7.37-7.37-7.37H252.48z"/>
					</g>
				</g>
				<g>
					<g>
						<g>
							<g>
								<g>
									<path class="st3" d="M268.71,241.88h-14.25c-0.56,0-1.01-0.45-1.01-1.01c0-0.56,0.45-1.01,1.01-1.01h14.25
										c7.82,0,14.18-6.36,14.18-14.18c0-7.52-5.89-13.73-13.4-14.14c-0.44-0.02-0.81-0.33-0.92-0.75
										c-2.58-10.01-11.6-17-21.93-17c-6.91,0-13.35,3.1-17.69,8.51c-0.22,0.27-0.56,0.41-0.9,0.37c-0.79-0.09-1.5-0.14-2.16-0.14
										c-10.29,0-18.66,8.37-18.66,18.66c0,10.29,8.37,18.66,18.66,18.66h11.55c0.56,0,1.01,0.45,1.01,1.01
										c0,0.56-0.45,1.01-1.01,1.01h-11.55c-11.4,0-20.68-9.28-20.68-20.68c0-11.4,9.28-20.68,20.68-20.68
										c0.58,0,1.19,0.03,1.84,0.09c4.71-5.62,11.58-8.84,18.91-8.84c11.01,0,20.65,7.29,23.69,17.82
										c8.23,0.82,14.58,7.75,14.58,16.09C284.91,234.62,277.64,241.88,268.71,241.88z"/>
								</g>
							</g>
						</g>
					</g>
					<g>
						<g>
							<line class="st15" x1="245.67" y1="223.97" x2="245.67" y2="249.97"/>
						</g>
						<g>
							<path class="st3" d="M245.67,250.98c-0.56,0-1.01-0.45-1.01-1.01v-26c0-0.56,0.45-1.01,1.01-1.01c0.56,0,1.01,0.45,1.01,1.01
								v26C246.68,250.53,246.23,250.98,245.67,250.98z"/>
						</g>
					</g>
					<g>
						<g>
							<path class="st3" d="M253.27,234.35c-0.31,0-0.61-0.14-0.81-0.4l-6.63-8.88c-0.06-0.07-0.11-0.08-0.19-0.09
								c-0.06,0-0.13,0.02-0.19,0.09l-7.03,8.63c-0.35,0.43-0.99,0.5-1.42,0.15c-0.43-0.35-0.5-0.99-0.15-1.42l7.03-8.63
								c0.44-0.54,1.09-0.83,1.79-0.84c0.7,0.01,1.34,0.33,1.77,0.89l6.63,8.89c0.33,0.45,0.24,1.08-0.2,1.41
								C253.69,234.29,253.48,234.35,253.27,234.35z"/>
						</g>
					</g>
				</g>
			</g>
		</g>
	</g>
</g>
<g id="Progress">
	<g>
		<g>
			<g>
				<g>
					<g>
						<path class="st2" d="M321.81,328.3H165.85c-3.66,0-6.63-2.97-6.63-6.63v-1.94c0-3.66,2.97-6.63,6.63-6.63h155.96
							c3.66,0,6.63,2.97,6.63,6.63v1.94C328.44,325.33,325.47,328.3,321.81,328.3z"/>
					</g>
				</g>
				<g>
					<g>
						<path class="st8" d="M237.2,328.3h-71.36c-3.66,0-6.63-2.97-6.63-6.63v-1.94c0-3.66,2.97-6.63,6.63-6.63h71.36
							c3.66,0,6.63,2.97,6.63,6.63v1.94C243.83,325.33,240.86,328.3,237.2,328.3z"/>
					</g>
				</g>
				<g class="st13">
					<g>
						<path class="st3" d="M172.01,313.11L163,327.4l1.41,0.63c0.4,0.18,0.83,0.27,1.26,0.27h2.86l9.78-15.19H172.01z"/>
					</g>
				</g>
				<g class="st13">
					<g>
						<polygon class="st3" points="188.1,313.11 178.52,328.3 184.64,328.3 194.42,313.11 						"/>
					</g>
				</g>
				<g class="st13">
					<g>
						<polygon class="st3" points="204.19,313.11 194.62,328.3 200.73,328.3 210.51,313.11 						"/>
					</g>
				</g>
				<g class="st13">
					<g>
						<polygon class="st3" points="220.29,313.11 210.71,328.3 216.82,328.3 226.6,313.11 						"/>
					</g>
				</g>
				<g class="st13">
					<g>
						<path class="st3" d="M236.38,313.11l-9.57,15.19h6.11l7.7-11.97l0.91-1.3C240.36,313.73,238.55,313.2,236.38,313.11z"/>
					</g>
				</g>
			</g>
			<g>
				<g>
					<g>
						<path class="st9" d="M321.96,328.3c0-0.02,0.31-0.01,0.92-0.1c0.6-0.08,1.5-0.29,2.51-0.92c1.01-0.6,2.11-1.68,2.73-3.29
							c0.31-0.8,0.45-1.73,0.43-2.72c-0.02-1,0.07-2.08-0.24-3.15c-0.53-2.14-2.44-4.28-5.14-4.76c-0.66-0.14-1.36-0.11-2.08-0.11
							c-0.72,0-1.45,0-2.2,0.01c-1.49,0-3.04,0.01-4.65,0.01c-6.42,0.01-13.74,0.02-21.82,0.04c-32.34,0.02-77,0.05-126.33,0.08
							c-1.48,0.01-2.95,0.53-4.09,1.47c-1.14,0.94-1.93,2.27-2.21,3.71c-0.15,0.71-0.12,1.45-0.12,2.22c0,0.77-0.01,1.49,0.15,2.21
							c0.3,1.42,1.12,2.72,2.23,3.63c1.12,0.91,2.55,1.41,3.98,1.43c1.49,0,2.97,0,4.45,0c2.96,0,5.89,0,8.8,0
							c11.63,0.01,22.85,0.01,33.54,0.02c21.37,0.02,40.62,0.04,56.79,0.06c16.16,0.04,29.23,0.06,38.29,0.08
							c4.51,0.02,8.02,0.04,10.41,0.05c1.18,0.01,2.08,0.02,2.71,0.03C321.65,328.28,321.96,328.3,321.96,328.3
							s-0.31,0.02-0.92,0.03c-0.62,0.01-1.53,0.01-2.71,0.03c-2.39,0.01-5.9,0.03-10.41,0.05c-9.05,0.02-22.13,0.05-38.29,0.08
							c-16.17,0.02-35.42,0.04-56.79,0.06c-10.69,0-21.91,0.01-33.54,0.02c-2.91,0-5.84,0-8.8,0c-1.48,0-2.97,0-4.46,0
							c-1.55-0.02-3.1-0.56-4.31-1.54c-1.21-0.99-2.09-2.38-2.42-3.93c-0.17-0.77-0.16-1.57-0.16-2.32
							c0.01-0.75-0.03-1.54,0.13-2.32c0.31-1.55,1.17-2.99,2.39-4.01c1.23-1.01,2.82-1.58,4.42-1.59
							c49.32,0.03,93.98,0.06,126.33,0.08c8.08,0.01,15.39,0.03,21.82,0.04c1.61,0,3.15,0.01,4.65,0.01c0.75,0,1.48,0,2.2,0.01
							c0.71,0.01,1.43-0.02,2.12,0.13c2.8,0.52,4.76,2.74,5.29,4.95c0.31,1.12,0.21,2.21,0.22,3.21c0.01,1.01-0.14,1.96-0.47,2.78
							c-0.65,1.64-1.79,2.73-2.82,3.33c-1.03,0.62-1.95,0.81-2.56,0.88C322.27,328.33,321.96,328.3,321.96,328.3z"/>
					</g>
				</g>
			</g>
		</g>
	</g>
	<g id="Uploading">
		<path d="M217.58,291.74v4.79c0,1.81,0.8,2.58,1.88,2.58c1.2,0,1.97-0.79,1.97-2.58v-4.79h1.06v4.71c0,2.48-1.31,3.5-3.06,3.5
			c-1.65,0-2.9-0.95-2.9-3.45v-4.76H217.58z"/>
		<path d="M224.26,295.92c0-0.74-0.02-1.34-0.05-1.89h0.95l0.05,1h0.02c0.43-0.71,1.12-1.13,2.06-1.13c1.4,0,2.46,1.19,2.46,2.95
			c0,2.09-1.27,3.12-2.64,3.12c-0.77,0-1.44-0.34-1.79-0.91h-0.02v3.15h-1.04V295.92z M225.31,297.47c0,0.16,0.02,0.3,0.05,0.43
			c0.19,0.73,0.83,1.24,1.58,1.24c1.12,0,1.76-0.91,1.76-2.24c0-1.16-0.61-2.16-1.73-2.16c-0.72,0-1.39,0.52-1.6,1.31
			c-0.04,0.13-0.07,0.29-0.07,0.43V297.47z"/>
		<path d="M231.09,291.31h1.06v8.52h-1.06V291.31z"/>
		<path d="M239.18,296.88c0,2.15-1.49,3.08-2.89,3.08c-1.57,0-2.78-1.15-2.78-2.99c0-1.94,1.27-3.08,2.88-3.08
			C238.05,293.89,239.18,295.1,239.18,296.88z M234.57,296.94c0,1.27,0.73,2.23,1.76,2.23c1.01,0,1.76-0.95,1.76-2.25
			c0-0.98-0.49-2.23-1.74-2.23C235.11,294.68,234.57,295.83,234.57,296.94z"/>
		<path d="M243.73,299.83l-0.08-0.73h-0.04c-0.32,0.46-0.95,0.86-1.78,0.86c-1.17,0-1.77-0.83-1.77-1.67c0-1.4,1.25-2.17,3.49-2.16
			v-0.12c0-0.48-0.13-1.34-1.32-1.34c-0.54,0-1.1,0.17-1.51,0.43l-0.24-0.7c0.48-0.31,1.17-0.52,1.91-0.52
			c1.78,0,2.21,1.21,2.21,2.37v2.17c0,0.5,0.02,1,0.1,1.39H243.73z M243.57,296.87c-1.15-0.02-2.46,0.18-2.46,1.31
			c0,0.68,0.46,1.01,1,1.01c0.76,0,1.24-0.48,1.4-0.97c0.04-0.11,0.06-0.23,0.06-0.34V296.87z"/>
		<path d="M251.31,291.31v7.02c0,0.52,0.01,1.1,0.05,1.5h-0.95l-0.05-1.01h-0.02c-0.32,0.65-1.03,1.14-1.98,1.14
			c-1.4,0-2.48-1.19-2.48-2.95c-0.01-1.93,1.19-3.12,2.6-3.12c0.89,0,1.49,0.42,1.75,0.89h0.02v-3.47H251.31z M250.25,296.39
			c0-0.13-0.01-0.31-0.05-0.44c-0.16-0.67-0.73-1.22-1.52-1.22c-1.09,0-1.74,0.96-1.74,2.24c0,1.17,0.58,2.15,1.71,2.15
			c0.71,0,1.36-0.47,1.55-1.26c0.04-0.14,0.05-0.29,0.05-0.46V296.39z"/>
		<path d="M254.24,292.39c0.01,0.36-0.25,0.65-0.67,0.65c-0.37,0-0.64-0.29-0.64-0.65c0-0.37,0.28-0.66,0.66-0.66
			C253.99,291.73,254.24,292.02,254.24,292.39z M253.06,299.83v-5.8h1.05v5.8H253.06z"/>
		<path d="M255.87,295.6c0-0.6-0.01-1.09-0.05-1.57h0.94l0.06,0.96h0.02c0.29-0.55,0.96-1.09,1.92-1.09c0.8,0,2.05,0.48,2.05,2.47
			v3.47h-1.05v-3.35c0-0.94-0.35-1.72-1.34-1.72c-0.7,0-1.24,0.49-1.42,1.08c-0.05,0.13-0.07,0.31-0.07,0.49v3.49h-1.05V295.6z"/>
		<path d="M267.53,294.02c-0.02,0.42-0.05,0.89-0.05,1.59v3.37c0,1.33-0.26,2.15-0.83,2.65c-0.56,0.53-1.38,0.7-2.11,0.7
			c-0.7,0-1.46-0.17-1.93-0.48l0.26-0.8c0.38,0.24,0.98,0.46,1.7,0.46c1.08,0,1.87-0.56,1.87-2.03v-0.65h-0.02
			c-0.32,0.54-0.95,0.97-1.85,0.97c-1.44,0-2.47-1.22-2.47-2.83c0-1.97,1.28-3.08,2.61-3.08c1.01,0,1.56,0.53,1.81,1.01h0.02
			l0.05-0.88H267.53z M266.44,296.31c0-0.18-0.01-0.34-0.06-0.48c-0.19-0.61-0.71-1.12-1.48-1.12c-1.01,0-1.73,0.85-1.73,2.2
			c0,1.14,0.58,2.09,1.71,2.09c0.65,0,1.24-0.41,1.46-1.08c0.06-0.18,0.08-0.38,0.08-0.56V296.31z"/>
		<path d="M268.81,299.2c0-0.44,0.3-0.75,0.72-0.75c0.42,0,0.71,0.31,0.71,0.75c0,0.43-0.28,0.76-0.72,0.76
			C269.09,299.96,268.81,299.64,268.81,299.2z"/>
		<path d="M271.29,299.2c0-0.44,0.3-0.75,0.72-0.75c0.42,0,0.71,0.31,0.71,0.75c0,0.43-0.28,0.76-0.72,0.76
			C271.58,299.96,271.29,299.64,271.29,299.2z"/>
		<path d="M273.77,299.2c0-0.44,0.3-0.75,0.72-0.75c0.42,0,0.71,0.31,0.71,0.75c0,0.43-0.28,0.76-0.72,0.76
			C274.06,299.96,273.77,299.64,273.77,299.2z"/>
	</g>
</g>
</svg>
