<?xml version="1.0" encoding="utf-8"?>
<!-- Generator: Adobe Illustrator 26.0.1, SVG Export Plug-In . SVG Version: 6.00 Build 0)  -->
<svg version="1.1" id="Layer_1" xmlns="http://www.w3.org/2000/svg" xmlns:xlink="http://www.w3.org/1999/xlink" x="0px" y="0px"
	 viewBox="0 0 2032.7 1805.3" style="enable-background:new 0 0 2032.7 1805.3;" xml:space="preserve">
<style type="text/css">
	.st0{fill:none;stroke:#020202;stroke-width:2;stroke-miterlimit:10;transform-origin: 979px 67px;
    transform: rotate(13deg);
	animation: swing 1.2s ease-in-out forwards;}
	.st1{fill:#B2B2B2;}
	.st2{fill:#3F964F;}
	.st3{fill:#0D5A52;}
	.st4{fill:#FFFFFF;}
	.st5{clip-path:url(#SVGID_00000088112657737018055390000014280913016516336022_);}
	.st6{opacity:0;}
	.st7{fill:#E6F1FF;}
	.st8{fill:#D1E5FF;}
	.st9{fill:#C2DDFF;}
	.st10{fill:#2C2858;}
	.st11{fill:#0E6A41;}
	.st12{fill:#494C7F;}
	.st13{fill:#47A859;}
	.st14{opacity:0;clip-path:url(#SVGID_00000161620472083542953560000002126636504377671578_);}
	.st15{clip-path:url(#SVGID_00000123420924996663557080000004663565371143102097_);}
	.st16{fill:#F37A50;}
	.st17{fill:#DE623C;}
	.st18{fill:#748DDB;}
	.st19{fill:#89A2F0;}
	.st20{fill:#E62552;}
	.st21{fill:#C4204A;}
	.st22{fill:#201D40;}
	.st23{fill:#7890DB;}
	.st24{fill:#070635;}
	.st25{fill:#95A6DB;}

		#vidbg{
		opacity: 0;
		animation: bg_reveal 1.4s ease-in-out forwards;
	}

	@keyframes bg_reveal{
	from{
		opacity: 0;
	}
	to{
		opacity: 1;
	}
	}

	#LeafRB{
		transform: translateY(500px);
		animation: bottomleaf 1.2s ease-in-out forwards;
		animation-delay: 1.4s;
	}

	@keyframes bottomleaf{
	from{
		transform: translateY(500px);
	}
	to{
		transform: translateY(0px);
	}
	}

	#LeafLB{
		transform: translateY(500px);
		animation: bottomleaf 1.2s ease-in-out forwards;
		animation-delay: 1.4s;
	}

	#LeafLT{
		transform: translateX(-400px);
		animation: topleaf1 1.2s ease-in-out forwards;
		animation-delay: 2s;
		
	}

	@keyframes topleaf1{
	from{
		transform: translateX(-400px);
	}
	to{
		transform: translateX(0px);
	}
	}

	#LeafRT{
		transform: translateX(470px);
		animation: topleaf2 1.2s ease-in-out forwards;
		animation-delay: 2s;
	}

	@keyframes topleaf2{
	from{
		transform: translateX(470px);
	}
	to{
		transform: translateX(0px);
	}
	}

	#People{
		opacity: 0;
		animation: people 1.2s ease-in-out forwards;
		animation-delay: 2.6s;
	}

	@keyframes people{
	from{
		opacity: 0;
	}
	to{
		opacity: 1;
	}
	}


	#svg2 {
    transform-origin: 964px 38px;
    transform: rotate(10deg);
	animation: swing 1.2s ease-in-out forwards;
	}

	@keyframes swing{
		0%{
			transform: rotate(10deg);
		}

		50%{
			transform: rotate(-9deg);
		}
		100%{
			transform: rotate(0deg);
		}
	}
</style>
<g id="Layer_2_00000098191877855674887530000003737033640607269054_">
	<polyline class="st0" points="269.9,362.4 999.4,56.8 1000.5,56.3 1001.5,56.8 1714.7,370.6 	"/>
	<g>
		
			<image style="overflow:visible;opacity:0.62;enable-background:new    ;" width="150" height="151" xlink:href="DDC5BFED.png"  transform="matrix(1 0 0 1 937.6038 -1.9679)">
		</image>
		<g>
			<circle class="st1" cx="995.7" cy="76.8" r="41.8"/>
		</g>
	</g>
</g>
<g id="svg2" xmlns:inkscape="http://www.inkscape.org/namespaces/inkscape" xmlns:sodipodi="http://sodipodi.sourceforge.net/DTD/sodipodi-0.dtd" xmlns:svg="http://www.w3.org/2000/svg">
	<g id="pad">
		<path id="path78" class="st2" d="M1726.3,1559.2c0,21.7-16.9,39.3-37.6,39.3H294.5c-20.8,0-37.6-17.6-37.6-39.3V364.9
			c0-21.7,16.8-39.3,37.6-39.3h1394.2c20.8,0,37.6,17.6,37.6,39.3V1559.2"/>
		<path id="path80" class="st3" d="M1039,1468.6c-19.4,0-27.7-17.9-25-33.3c-4.3-1.5-8.9-2.4-13.7-2.4c-23.5,0-42.5,19.9-42.5,44.5
			c0,24.5,19,44.5,42.5,44.5s42.5-19.9,42.5-44.5c0-3.1-0.3-6.2-0.9-9.1C1040.9,1468.4,1040,1468.6,1039,1468.6"/>
		<path id="path82" class="st3" d="M288.7,1344.2c0,20.7,16.1,37.5,36,37.5h1335.1c19.9,0,36-16.8,36-37.5V392.5
			c0-20.7-16.1-37.5-36-37.5h-1335c-19.9,0-36,16.8-36,37.5L288.7,1344.2"/>
		<path id="path84" class="st4" d="M325.3,1336.4h1334V395.7h-1334L325.3,1336.4"/>
	</g>
	<g id="g86">
		<g>
			<g>
				<g>
					<defs>
						<path id="SVGID_1_" d="M1627.3,473v780.3c0,11.2-10.4,20.3-23.3,20.3H385.4c-12.9,0-23.3-9.1-23.3-20.3V473
							c0-11.2,10.4-20.3,23.3-20.3h1218.7C1616.9,452.7,1627.3,461.8,1627.3,473z"/>
					</defs>
					<clipPath id="SVGID_00000008841067139366465320000008538283645233184134_">
						<use xlink:href="#SVGID_1_"  style="overflow:visible;"/>
					</clipPath>
					<g id="g88" style="clip-path:url(#SVGID_00000008841067139366465320000008538283645233184134_);">
						<g id="vidbg" class="st6">
							<path id="path94" class="st4" d="M1627.2,391.2v948.2H362.9V391.2H1627.2"/>
							<path id="path96" class="st7" d="M362.9,883.2V603.9c20-11.7,45.6-15.9,69.1-13.8c5.2,0.5,10.3,1.2,15.4,2l0,0
								c10.1,1.8,20.1,4.2,30.1,7.1c1.3,0.4,2.7,0.7,4,1.1l0,0l0,0c17.2,5,34.2,10.9,51.5,15.5l0,0c3.5,0.9,6.9,1.8,10.4,2.6
								c20.5,4.8,41.5,7.3,62.5,7.5l0,0c29.6,0.3,59.2-3.8,87.5-12.4c50.9-15.5,96.7-44.7,147.6-60.3
								c95.1-29.3,198.2-8.6,293.3,20.6c59,18.1,118.9,39.6,180,41.1l0,0c9.7,0.2,19.4,0,29.2-0.9c10.2-0.9,20.3-2.5,30.3-4.5l0,0
								c11.2-2.3,22.3-5.2,33.3-8.5l0,0c25.6-7.6,50.7-17.4,76-26.5c4.7-1.7,9.5-3.4,14.2-5.1l0,0c0.8-0.3,1.5-0.5,2.3-0.8l0,0
								c16.3-5.6,32.6-10.7,49-14.5c19.3-4.5,38.8-7.2,58.8-7.1l0,0c1,0,2.1,0,3.1,0c5.5,0.1,11.1,0.5,16.6,1.2v329.1L362.9,883.2"
								/>
							<path id="path98" class="st8" d="M365.3,1156.5h-0.2l0,0l-1.8,0.2h-0.4V705.5c45.9-15,96.1-20.6,139.8-6.6l0,0
								c14.5,4.6,28.3,11.4,41,20.7c4.6,3.4,9,7.1,13.3,10.8l0,0c3.2,2.8,6.4,5.6,9.6,8.3c6.5,5.5,13.2,10.7,20.6,14.9
								c2.2,1.2,4.4,2.3,6.7,3.4l0,0c3.1,1.4,6.3,2.6,9.6,3.7l0,0c6.1,1.9,12.3,3.3,18.6,4c27.6,3.4,57.4-3.4,84.4-12.3
								c15.9-5.2,31.8-11.1,48-15.9c4.5-1.3,9-2.6,13.6-3.7c2.4-0.6,4.8-1.2,7.3-1.7l0,0c1-0.2,2.1-0.5,3.1-0.7
								c4.1-0.8,8.2-1.5,12.3-2.1l0,0c11.6-1.6,23.3-2,35-0.6c9.9,1.2,19.5,3.7,28.7,7l0,0c2.3,0.8,4.5,1.7,6.8,2.6l0,0
								c6.5,2.7,12.8,5.7,19,9.1l0,0c10.9,5.9,21.6,12.6,32.2,19.6c3.8,2.5,7.5,5,11.3,7.4c5.3,3.5,10.6,7,15.9,10.4
								c4.3,2.7,8.6,5.4,13,8c15,8.9,30.5,16.6,46.9,21.2c4.9,1.4,10,2.5,15.1,3.3c19.6,3.1,38.9,1.2,58.1-3.1
								c3.2-0.7,6.4-1.5,9.7-2.3l0,0c1.1-0.3,2.1-0.5,3.1-0.8c1.5-0.4,3.1-0.9,4.6-1.3l0,0c2.9-0.8,5.8-1.7,8.7-2.6l0,0
								c10.3-3.2,20.6-6.7,30.9-10.1l0,0c4-1.4,8.1-2.7,12.1-4c11.4-3.7,22.9-7.1,34.4-9.7l0,0c3.5-0.8,6.9-1.5,10.4-2.1l0,0
								c6-1.1,12.1-1.9,18.2-2.4c0.4,0,0.8-0.1,1.2-0.1c27.5-2.1,55.4,3.2,80.5,14.6c13.4,6.1,26,14,37.3,23.5
								c16.7,14.1,32.8,32.5,54.6,34c7.5,0.5,14.6-1.1,21.5-3.8c0.8-0.3,1.6-0.6,2.4-1l0,0c9.8-4.3,19.2-10.7,28.3-16.5
								c1.1-0.7,2.2-1.4,3.3-2.1l0,0c3.1-1.9,6.1-3.7,9.3-5.5c1.1-0.7,2.3-1.3,3.4-1.9l0,0c3-1.7,6-3.3,9.1-4.8
								c2.2-1.1,4.3-2.2,6.5-3.3c4.1-2,8.2-3.9,12.4-5.7c20.8-9,42.5-15.7,64.8-20.1c10.7-2.1,25.7-2,41.6,0.1
								c15.7,2,32.2,5.9,46.1,11.4v204.4L365.3,1156.5"/>
							<path id="path100" class="st9" d="M1627.3,1100.1v62.7h-0.1v176.6h-16.8l0,0h-14.9l0,0H1452l0,0h-26.5l0,0h-33.7l0,0h-9.1
								l0,0h-282.6l0,0h-15.8l0,0h-18.1l0,0h-16l0,0h-80.3l0,0h-66.3l0,0H790.4l0,0H627.8l0,0H448.4l0,0h-30.3l0,0h-55.2v-254
								c5.8-4.9,11.8-9.4,18.1-13.7h0.1l0,0c4.9-3.3,10-6.5,15.2-9.4l0,0l0,0c0,0,0,0,0.1,0l0,0c8.9-5,18.1-9.4,27.6-13.3l0,0
								c2.5-1,5.1-2,7.6-3c6.1-2.3,12.2-4.3,18.4-6.1c2.3-0.7,4.6-1.3,6.9-1.9l0,0l0,0c5.8-1.5,11.6-2.8,17.4-4
								c11.4-2.2,22.8-3.7,34.3-4.7c36-3,72.4-0.5,108.4,4.6l0,0c10,1.4,19.9,3,29.8,4.8c0.3,0,0.6,0.1,0.9,0.1l0,0
								c0.6,0.1,1.2,0.2,1.8,0.3c0.8,0.1,1.5,0.3,2.3,0.4c1.9,0.3,3.8,0.7,5.7,1.1l0,0c9.7,1.8,19.5,3.7,29.2,5.2l0,0l0,0
								c18.3,2.9,36.8,4.8,55.2,3.4c4.1-0.3,8.2-0.8,12.2-1.5l0,0c17.7-2.8,34.5-8.4,50.6-15.9c10.1-4.7,20-10.2,29.7-16.2
								c8.3-5.1,16.5-10.6,24.6-16.3c7.4-5.2,14.8-10.7,22.2-16.2l0,0c7.2-5.4,14.4-10.8,21.7-16.3l0,0c6.1-4.6,12.2-9.1,18.3-13.5
								l0,0c1.2-0.9,2.4-1.8,3.6-2.6c1.6-1.1,3.1-2.2,4.7-3.3c2.6-1.8,5.2-3.6,7.8-5.4l0,0c3.6-2.4,7.2-4.8,10.8-7.2
								c5.3-3.4,10.7-6.7,16.1-9.9l0,0c8.7-5,17.6-9.6,26.7-13.6l0,0c5.3-2.4,10.7-4.5,16.3-6.5c28.4-10,58.9-13.6,88.9-10.7
								c4.4,0.4,8.8,1,13.1,1.7c3,0.5,5.9,1,8.9,1.6c0.1,0,0.1,0,0.2,0c0.2,0,0.4,0.1,0.6,0.1l0,0c8.3,1.8,16.4,4,24.4,6.6
								c3,1,6.1,2,9.1,3.1c8.5,3.1,16.8,6.5,25.1,10.1c3,1.3,6.1,2.7,9.1,4c0.5,0.2,1,0.5,1.6,0.7c7.9,3.6,15.7,7.3,23.5,10.9
								c3,1.4,6.1,2.8,9.1,4.2c8.3,3.8,16.7,7.6,25.1,11.1c2.5,1.1,5,2.1,7.6,3.1l0,0c0.5,0.2,1,0.4,1.5,0.6c1,0.4,1.9,0.7,2.9,1.1
								c10,3.8,20.1,7.2,30.5,9.8c13.1,3.4,26.4,5.5,39.9,6.6l0,0c6.6,0.5,13.2,0.7,19.8,0.7l0,0c7.2-0.1,14.4-0.5,21.5-1.2l0,0
								c20.1-2,39.9-6.7,58.8-13.9c0.9-0.3,1.8-0.7,2.7-1c38.8-15.3,73.1-40.5,111.6-56.7c1.8-0.7,3.6-1.5,5.4-2.2
								c1.5-0.6,3.1-1.2,4.6-1.7c17.9-6.4,37.1-10.4,55.9-10.4c6.2,0,12.4,0.5,18.5,1.5L1627.3,1100.1L1627.3,1100.1"/>
							<path id="path102" class="st4" d="M1627.3,1139.9v22.9h-1264v-22.9H1627.3"/>
							<path id="path104" class="st4" d="M1627.3,1100.1v17.6h-1264v-17.6H1627.3"/>
							<path id="path106" class="st4" d="M1106.8,1332.2l-6.7,7.3l0,0h-15.8l0,0h-18.1l-16-17.4l-9.1-9.8l-20.4-22.1l-18.8-20.4
								l-23.7-25.6l-29.4-31.9l-45.7-49.5l-3-3.2l-3.2-3.4l15-16.3h17.2l9.2,10l0,0l9,9.7l3,3.2l51.5,55.7l23.7,25.6l10.7,11.5
								l4.9,5.3l9.1,9.8l25.1,27.1l9.1,9.8L1106.8,1332.2"/>
							<path id="path108" class="st4" d="M1106.8,1156.2l-3.2,3.4l-3,3.2l-16.3,17.7l-9.1,9.8l-18.9,20.4l-30.8,33.4l-23.7,25.6
								l-36.9,40l-27.4,29.7l0,0h-33.9l0,0l-6.7-7.3l60.8-65.9l20.5-22.1l23.7-25.6l51.5-55.7l3-3.2l18.2-19.7h17.2L1106.8,1156.2"
								/>
							<path id="path110" class="st4" d="M797.1,1332.2l-6.7,7.3l0,0h-33.9l0,0l-21.4-23.2l-42.9-46.4l-23.7-25.6l-18.1-19.5
								l-22.8-24.8l-34.3-37.1l-3-3.2l-3.2-3.4l15-16.3h17.2l18.2,19.7l3,3.2l51.5,55.7l23.7,25.6l24.1,26.1l0,0L797.1,1332.2"/>
							<path id="path112" class="st4" d="M797.1,1156.2l-3.2,3.4l-3,3.2l-44.8,48.5l-30.3,32.8l-23.7,25.6l-21.8,23.6l-18.5,20
								l-24.1,26h-47.3l1.8-2l0,0l61.1-66.1l25.1-27.1l23.7-25.6l51.5-55.7l3-3.2l5.6-6.1l12.6-13.6H782L797.1,1156.2"/>
						</g>
						<g id="LeafRB">
							<path id="path114" class="st10" d="M1627.2,1100.1V993.9c-14.2-61.1-53.9-89.4-74.3-100.2c-7.5-4-12.4-5.6-12.4-5.6
								c2.8,2.2,5.4,4.7,7.8,7.3c13.5,14.6,22.1,34.9,27.9,55.9c5.3,18.8,8.5,38.2,11.3,54.5c0.2,1.3,0.5,2.6,0.7,3.9
								c-0.7-1.3-1.3-2.5-2-3.8c-7-12.4-15.1-21.3-23.5-27.7c-32.5-24.8-70-11.3-70-11.3c15.8,8.9,33.8,24.7,50.1,44.4
								c1.5,1.9,3.1,3.8,4.6,5.7c18.9,24.3,35,53.7,41.7,83.1c1.3,5.9,2.3,11.8,2.8,17.6c0.2,2.5,0.4,5.1,0.5,7.6l0,0
								c0.1,4.9,0,9.8-0.6,14.6c-0.2,1.5-0.4,3-0.6,4.5l0,0c-1,6.3-2.7,12.4-5,18.4c-1.5,3.9-3.4,7.7-5.5,11.4
								c-0.8,1.3-1.5,2.6-2.4,3.9c-6.7-3.1-13.7-9.3-21.2-15.2c-0.1-0.1-0.1-0.1-0.2-0.2s-0.2-0.1-0.3-0.2
								c-6.1-4.8-12.6-9.3-19.8-11.7c-0.9-0.3-1.8-0.6-2.7-0.8c-1.7-0.4-3.5-0.7-5.3-0.9c-4.1-0.3-8.4,0.2-12.9,1.8l0,0
								c-0.4,0.1-0.8,0.3-1.2,0.5c-0.7,0.3-1.3,0.5-2,0.8l0,0c-2.3,1.1-4.8,2.5-7.2,4.2l0,0c-0.1,0.1-0.3,0.2-0.4,0.3
								c-4,2.9-8.1,2-12.1-0.3c-0.7-0.4-1.5-0.9-2.2-1.4l0,0c-6-4.1-11.6-10.3-16.2-10.5c-6.5-0.4-11.6,2.5-15.1,5.6l0,0
								c-4,3.5-6.1,7.4-6.1,7.4l-6.3,5.4l-18.8,16.1c-3-0.8-6.2-1.6-9.6-2.2l0,0c-1.2-0.2-2.3-0.4-3.5-0.5
								c-21-2.9-49.4,0.2-78.5,24.7c0,0,44.8-6.7,73.4,33.2c1.1,1.5,2.3,2.9,3.5,4.1c-10.6-0.1-22.7,0.4-36.6,1.9
								c4.1,6.4,6.8,13.4,7.7,16c0.2,0.6,0.3,1,0.4,1.1c-0.6-0.8-1.3-1.5-2.1-2.1c-6.1-5.3-16.2-7.5-23.7-8.5
								c-0.5,0.2-0.9,0.4-1.4,0.7c-3.1,1.5-6.1,3-9.1,4.8c-8.6,5-17,11.3-25.1,19.1c-3.1,3-6.1,6.2-9.1,9.6
								c-3.3,3.8-6.6,7.9-9.7,12.4c0,0,3.6-1.2,9.7-2.3c2.6-0.5,5.7-0.9,9.1-1.3c7-0.7,15.5-0.9,25.1,0.1c2.9,0.3,6,0.8,9.1,1.4
								c8,1.5,16.5,4,25.1,7.9c2.2,1,4.5,2.1,6.7,3.3c0.8,0.4,1.6,0.9,2.4,1.3c10.5,6.2,18.9,14.9,25.1,23c3.6,4.7,6.5,9.2,8.6,12.8
								l0,0h26.5l0,0h143.5l0,0h14.9l0,0h16.8v-176.7h0.1L1627.2,1100.1L1627.2,1100.1"/>
							<path id="path116" class="st11" d="M1627.3,1120.3v42.6h-0.1v165.4c-2.8-1.2-10.6-4.8-19.9-10.9c-5.6-3.7-11.8-8.4-17.8-14
								c-4.4-4.1-8.6-8.7-12.4-13.8c-7.2-9.6-14.5-21.1-21.3-34.6l0,0c-2.1-4.1-4.1-8.3-6-12.8c-1.7-3.9-3.3-7.9-4.9-12.1
								c-1.1-3-2.2-6.1-3.2-9.3l0,0c-1.6-4.9-3.1-9.9-4.4-15.1c-0.9-3.4-1.7-6.9-2.5-10.5c-0.7-3.2-1.3-6.4-1.9-9.7l0,0
								c-0.2-1.3-0.5-2.5-0.7-3.8l0,0l0,0c-0.3-1.9-0.6-3.7-0.9-5.6l0,0c-0.6-4.3-1.2-8.7-1.6-13.2c-0.2-1.6-0.3-3.2-0.4-4.9l0,0
								c-0.2-2.9-0.4-5.9-0.6-8.9s-0.3-6.1-0.3-9.2c-0.2-7.2-0.1-14.6,0.3-22.2c0.3-5.7,0.7-11.6,1.2-17.6c0-0.1,0-0.2,0-0.3l0,0
								c1.3-13.7,3.5-28.1,6.6-43.1l12.4,7.4l-9.3-21c2.3-8.8,4.8-17.5,7.7-26.1c0.7-2.2,1.5-4.3,2.2-6.5
								c3.9-10.9,8.2-21.7,13.1-32.3c4.2-9.1,8.7-18.1,13.6-26.9c2-3.6,4-7.2,6.1-10.7c0,0,9.5,25.7,22.5,63c0,0.1,0.1,0.3,0.1,0.4
								l-24.4,23.3l29.2-9.4c7,27,12.2,54.4,15.4,82.1c0.7,5.9,1.3,11.7,1.8,17.6c0.1,0.5,0.1,1.1,0.1,1.6
								C1627.3,1119.6,1627.3,1119.9,1627.3,1120.3"/>
							<path id="path118" class="st12" d="M1427.5,1069.5c-11.6-4.9-22.2-2.9-32.7-4.8c8,7,13.2,16.4,24.3,22.4
								c15.8,8.4,27.1,2.1,27.1,2.1S1444,1076.4,1427.5,1069.5"/>
							<path id="path120" class="st12" d="M1463.9,1074.1c-4.4-11-12.7-16.7-18.4-25c0.6,10-2.3,19.7,1.1,31
								c4.8,16.1,16.5,19.5,16.5,19.5S1470.1,1089.7,1463.9,1074.1"/>
							<path id="path122" class="st12" d="M1440,1093.8c-11.7,1.1-19.7,7.4-29.1,10.6c9.7,2.2,18.2,7.7,30,7.7
								c16.7,0,23.3-10.3,23.3-10.3S1456.7,1092.2,1440,1093.8"/>
							<path id="path124" class="st12" d="M1492.8,1089.9c-2.1-13.7-10-22.5-14.3-33.5c-2,11.5-7.9,21.8-7.1,35.7
								c1.1,19.6,13.5,26.7,13.5,26.7S1495.7,1109.3,1492.8,1089.9"/>
							<path id="path126" class="st12" d="M1456.7,1113.8c-13.6,2.7-22.1,10.9-32.8,15.6c11.6,1.5,22.1,6.9,35.9,5.6
								c19.6-1.9,26.1-14.7,26.1-14.7S1476,1110.1,1456.7,1113.8"/>
							<path id="path128" class="st12" d="M1515.7,1110.9c-0.8-14.2-8.1-23.9-11.4-35.4c-3.1,11.6-10,21.5-10.5,35.7
								c-0.7,20.2,11.3,28.5,11.3,28.5S1516.9,1131.1,1515.7,1110.9"/>
							<path id="path130" class="st12" d="M1480.1,1133.7c-14.2,0.5-24.1,7.5-35.7,10.5c11.5,3.4,21.3,10.6,35.4,11.4
								c20.1,1.2,28.8-10.6,28.8-10.6S1500.2,1133,1480.1,1133.7"/>
							<path id="path132" class="st12" d="M1537.3,1135.2c0.7-14.6-5.7-25.5-7.9-37.8c-4.4,11.6-12.7,21.1-14.8,35.6
								c-2.9,20.7,8.6,30.6,8.6,30.6S1536.3,1156,1537.3,1135.2"/>
							<path id="path134" class="st12" d="M1493.7,1156.3c-14.6,1.7-24.3,9.7-36,13.8c12.2,2.5,22.8,9.2,37.5,8.9
								c20.9-0.4,28.8-13.3,28.8-13.3S1514.4,1153.9,1493.7,1156.3"/>
							<path id="path136" class="st12" d="M1556.7,1162.1c3.1-14.4-1.3-26.2-1.4-38.6c-6.3,10.7-16.1,18.7-20.6,32.7
								c-6.4,19.9,3.3,31.6,3.3,31.6S1552.2,1182.5,1556.7,1162.1"/>
							<path id="path138" class="st12" d="M1512.8,1180.6c-13.1,0.5-22.3,7.1-33.1,10c10.7,3.1,19.8,9.7,33,10.4
								c18.7,1,26.6-10,26.6-10S1531.4,1179.8,1512.8,1180.6"/>
							<path id="path140" class="st12" d="M1523.7,1203.8c-13.2,0.5-22.3,7.1-33.1,10c10.7,3.1,19.8,9.7,33,10.4
								c18.7,1,26.6-10,26.6-10S1542.3,1203,1523.7,1203.8"/>
							<path id="path142" class="st12" d="M1548.7,1231c-12.6-4.1-23.4-1.2-34.5-2.2c9,6.6,15.2,16,27.2,21.3
								c17.1,7.5,30.3,6.7,30.3,6.7S1566.5,1236.9,1548.7,1231"/>
							<path id="path144" class="st12" d="M1565.7,1269.2l-2.1-0.3c0-0.1,0.9-7.4-3.1-22.7c-3.6-14.1-12.2-38-32.4-71.8
								c-17.4-29.1-53.8-68.8-84.7-85.1l1-1.8c31.2,16.4,68,56.5,85.5,85.8C1569.1,1238.9,1565.9,1268,1565.7,1269.2"/>
							<path id="path146" class="st2" d="M1595.5,1339.4L1595.5,1339.4h-114c-6.5-8.3-13.1-19-18.5-30.1l32.7-3.2l-38.2-5.4
								c-6.6-10.9-13.2-22.9-19.5-36.1c-2.2-4.6-4.2-9.1-6.1-13.4l30.9,6.3l-34.5-15c-13.6-35.1-13.9-58.1-13.4-66.3
								c0.1-2.2,0.3-3.3,0.3-3.3c0.9,1.3,2,2.6,3.2,3.9l0,0c10,10.8,29.2,22.7,53.2,39l22.5,46.8l-11.6-39.3
								c9.3,6.5,19.2,13.7,29.5,21.6l11.2,51.3l-2.3-44.2c7.5,6,14.8,12.2,21.8,18.7c18,16.4,34.7,34.1,49.9,53.1
								c4.1,5.2,8.2,10.4,12.1,15.7l0,0L1595.5,1339.4"/>
							<path id="path148" class="st13" d="M1610.4,1339.4L1610.4,1339.4h-14.9l0,0h-41.1c-6.3-18.6-10.8-41.3-11.5-68.8
								c-0.1-6.3-0.1-13,0.2-19.8l0,0c0.2-4,0.4-8.2,0.7-12.4l6.1,3.7l11.4,7l0,0l2.6,1.6l0,0l7.4,4.5l0.6,0.4l-0.7-0.7l-8.2-8.3
								l0,0l-3.1-3.1l-12.9-13l0,0l-2.2-2.2c0.3-3.3,0.7-6.6,1.1-10l0,0c0.3-2.5,0.7-5,1-7.5l0,0c0.1-0.3,0.1-0.6,0.1-1l0,0
								c0.2-1.2,0.4-2.5,0.6-3.8l0,0c0.9-5.9,2-12.1,3.3-18.3c1-5,2.1-9.8,3.2-14.3l20.9,23.6l-18.5-32.7c0.1-0.5,0.3-1,0.4-1.4
								c0-0.1,0-0.1,0.1-0.2c2.5-8.6,5.2-16.1,7.9-22.8c3.7-9.1,7.5-16.5,10.9-22.2c6.9-11.9,12.3-16.9,12.3-16.9v0.1
								c-0.1,4.8-0.2,10.4,0.1,16.9c0.3,6.5,0.9,13.9,2.4,22.2c0.3,1.5,0.5,3,0.9,4.5l0,0c1.2,5.7,2.7,11.9,4.8,18.4
								c0.5,1.7,1.1,3.4,1.7,5.1l-2.9,63.6l5.1,32.7l7.5,53.1L1610.4,1339.4"/>
							<path id="path150" class="st2" d="M1627.2,1238.6v100.9h-16.8l0,0h-14.9l0,0c-1-5.3-1.9-10.5-2.8-15.7
								c-1.1-6.8-2.2-13.6-3.2-20.3c-6.7-45.3-9.9-88.5-8.9-129.1c0.1-3.8,0.2-7.6,0.4-11.4c0.4-7.7,0.9-15.4,1.6-22.9
								s1.5-14.9,2.6-22.2c0.8-5.7,1.7-11.3,2.7-16.9v-0.1c-0.1,4.8,0.8,10.4,2.4,16.9c0.6,2.4,1.3,4.9,2.1,7.6l0,0
								c1.3,4.5,2.9,9.4,4.7,14.6c2.4,7,5.1,14.7,7.9,22.9c0.7,2,1.4,4.1,2.1,6.1l-10.2,50.9l14.4-38.3c3.5,10.8,7.1,22.5,10.5,35
								l-22,47.7l24.8-36.7C1625.5,1230.8,1626.4,1234.5,1627.2,1238.6"/>
						</g>
						<g id="LeafRT">
							<path id="path152" class="st10" d="M1627.2,722.7v250.9c-5.6-32.5-11.8-62.6-18.5-90.4c-0.5-1.9-0.9-3.8-1.4-5.7
								c-8.3-34.3-17.2-65-26.3-92.4c-36.1-109.1-75.4-166.3-93-188.3c-6-7.5-9.5-10.9-9.5-10.9l7.7-6.3l10.7-8.7l0,0l2.7-2.2l0,0
								l40.4-33.1l8.7,18.6l42.1,90.4L1627.2,722.7"/>
							<path id="path154" class="st11" d="M1627.2,391.2v61.3L1553,467l-35.3,6.9l0,0l-0.6,0.1l-33.4,6.5l0,0l-3.6-5.9l-1.7-2.9
								l-4.6-7.6l-8.7-14.6l-34.8-58.2L1627.2,391.2"/>
							<path id="path156" class="st2" d="M1627.2,429.3V563l-19.6-15.9l0,0l-90-72.7l0,0l-0.4-0.3l-11.9-9.6l-0.9-0.7
								c1.5-1.7,3.3-3.4,5.3-5C1534.5,438.6,1591.3,427.5,1627.2,429.3"/>
							<path id="path158" class="st2" d="M1504.4,463.7c-0.4,0.2-0.9,0.4-1.3,0.6c-7.1,3.2-14.4,5.4-21.8,6.9
								c-0.9,0.2-1.9,0.3-2.8,0.5c-14.5,2.4-29.5,1.8-44.7,0.1c-32.1-3.6-65.1-12.3-96.8-10.1c-88.1,6.2-164.7,30.3-175.9,34l0,0
								c-0.9,0.3-1.3,0.5-1.4,0.5c9.2-19.5,25.7-46.2,71.9-65.3c16.1-6.7,30.5-6.4,37.1-5.9l-10.2-15.1
								c12.2-7.4,24.1-13.6,35.6-18.6h52.5c13.1,8.5,20.3,17,20.3,17c1.9-4.7,1-10.8-1-17h69.5l18.8,35.4l6.6-30
								c26.9,19.8,38.3,49.8,42,61.8C1504,461.8,1504.4,463.7,1504.4,463.7"/>
							<path id="path160" class="st11" d="M1222.9,499.6l-62.4-4c12.4-7.8,174.1-106.4,343.9-31.9c-93.9,87.9-243.5,56.1-261.5,54.3
								c4.4-11.1,7.9-24.9,3.9-34.4L1222.9,499.6"/>
							<path id="path162" class="st2" d="M1312.5,664.9c4.6-16,19.9-31.7,24.3-36.3l-24.1,2.3c2.9-74.3,69.5-137.5,88-148.5
								l50.5,10.4l-19.5-23.4c40.7-9.7,88.4-3.7,88.4-3.7c-12.2,52.9-82,91.7-112.9,135.3c-52.8,74.5-81,152.1-81,152.1
								C1316.6,734.2,1299.3,710.8,1312.5,664.9"/>
							<path id="path164" class="st2" d="M1373.3,712.5l-47,39.6c1.4-14,22.7-194.2,184.5-273.3c-2.6,64.7-18.3,129.2-48.9,161.1
								l-26.7-39.7l10.3,44.6c-6.5,29.6-39,48.3-51.4,60.4c-1.6-9-10.9-27-20.8-29.8V712.5"/>
							<path id="path166" class="st11" d="M1627.2,534.4v132c-4.5-3.6-9.5-6.9-14.9-10.2c-0.4-0.2-0.8-0.5-1.1-0.7
								c-1.9-1.1-3.9-2.3-5.8-3.4l-2-31.6l-12.4,24.3l-0.5,1c-10.2-5.1-23-11.7-36.5-19l8.4-29.2l-19,23.5
								c-10.4-5.7-21-11.6-31-17.4c-8.3-4.8-15-10.4-20.3-16.6c-2.1-2.3-3.9-4.8-5.6-7.3c-1.1-1.7-2.2-3.4-3.2-5.1
								c-6.9-12.2-10.1-25.7-11-39.1c-0.9-12.4,0.2-24.6,2.1-35.6c0.9-5.3,2-10.3,3.1-14.9c0.9-3.8,1.9-7.3,2.9-10.3
								c0.4-1.2,0.7-2.3,1.1-3.4c0.9-2.9,1.8-5.4,2.6-7.3c1.2-3.2,2-5,2-5c2.1-0.1,4.1-0.2,6.1-0.3l0,0c3.8-0.1,7.4-0.2,11-0.1
								c2.3,0,4.5,0.1,6.8,0.2c16.1,0.9,30.5,3.8,43.3,8.4C1588.4,479.7,1611.9,505,1627.2,534.4"/>
						</g>
						<g id="LeafLT">
							<path id="path168" class="st2" d="M476.4,391.2l-0.1,0.7l-5.7,96.3l-2,33.5l-0.1,2.6l-0.5,8l-0.1,2.3l-0.2,3.9l-0.5,8.8
								l-30-5.9l-0.5-0.1l-31.8-6.2l-42-8.2V391.2H476.4"/>
							<path id="path170" class="st11" d="M574.7,418.9c-2.7,11.5-6.9,21.9-12,31.2c-22.5,40.4-64.7,61.5-93.9,71.7l0,0
								c-7.2,2.5-13.6,4.4-18.7,5.7c-0.1,0-0.2,0-0.2,0.1l0,0c-1.7,0.4-3.3,0.8-4.7,1.2c-5.1,1.2-8.1,1.7-8.1,1.7
								c-0.1-0.7-0.3-1.4-0.4-2.1c-0.4-2.1-0.7-4.2-1-6.2c-11.6-77.6,17.2-114.3,40.8-130.1c0.4-0.3,0.7-0.5,1.1-0.7H576
								c-5.5,10.2-13.7,18.9-24.2,24.9c-1.7,1-3.5,2-5.4,3c2.4,1,5.4,2,8.9,2.4C563.9,422.8,571,420.4,574.7,418.9"/>
							<path id="path172" class="st11" d="M448.7,532.3l-0.8,0.6l-10.7,8.6l-0.4,0.3l-73.9,59.7v-99.6c25.4,2.3,54.2,9.3,72.7,20.1
								c3.1,1.8,5.8,3.7,8.3,5.6c0.4,0.3,0.8,0.6,1.1,1C446.3,529.8,447.6,531,448.7,532.3"/>
							<path id="path174" class="st2" d="M694.1,502.7c-14.5-6-27.5-5.8-33.4-5.3l9.2-13.6c-20.8-12.7-40.8-21.3-59.6-26.7
								c-24.1,9-38,25.2-38,25.2c-3.4-8.6,3.2-22.3,8.4-31.1c-24.4-2.8-46.3,0.1-65.2,6.7L493.7,499l-5.9-27
								c-30.9,22.7-39.1,60.4-39.1,60.4c46.2,21.9,100.4-5.4,150.6-1.8c85.8,6.1,159.6,31,159.6,31
								C750.6,543.9,735.8,519.9,694.1,502.7"/>
							<path id="path176" class="st2" d="M702,564.6l56.1-3.6c-11.2-7.1-156.7-95.8-309.5-28.7c84.5,79.1,219.1,50.5,235.3,48.9
								c-3.9-10-7.1-22.4-3.5-30.9L702,564.6"/>
							<path id="path178" class="st11" d="M621.3,713.3c-4.2-14.4-17.9-28.5-21.9-32.7l21.7,2.1c-2.7-66.9-62.5-123.8-79.2-133.6
								l-45.4,9.3l17.5-21.1c-36.6-8.7-79.5-3.3-79.5-3.3c11,47.6,73.8,82.5,101.6,121.7c47.5,67,72.9,136.8,72.9,136.8
								C617.7,775.6,633.3,754.6,621.3,713.3"/>
							<path id="path180" class="st2" d="M566.7,756.1l42.3,35.6c-1.3-12.6-20.5-174.7-166-245.9c2.3,58.2,16.5,116.3,44,144.9
								l24-35.8l-9.2,40.2c5.9,26.6,35.1,43.4,46.2,54.3c1.5-8.1,9.8-24.3,18.7-26.8V756.1"/>
							<path id="path182" class="st2" d="M477.7,596.8c-0.1,0.8-0.1,1.6-0.2,2.5c-1.4,15.5-6.4,31.1-17.6,43.9
								c-4.8,5.6-10.9,10.6-18.3,14.9c-9.1,5.3-18.6,10.6-27.9,15.7l-17.1-21.2l7.6,26.3c-12.2,6.5-23.6,12.5-32.9,17.1l-8.4-16.3
								v-118c11.3-11.2,25.2-20.4,42-26.4c9.6-3.4,20.1-5.8,31.7-7c2.4-0.2,4.8-0.4,7.3-0.6c1.9-0.1,3.9-0.2,5.9-0.2
								c0.1,0,0.1,0,0.2,0c3.2-0.1,6.5,0,9.9,0.1c1.8,0.1,3.6,0.2,5.5,0.3c0,0,0.7,1.6,1.8,4.5c0.3,0.7,0.5,1.5,0.8,2.3
								c0.5,1.3,0.9,2.7,1.5,4.3c1.1,3.5,2.4,7.7,3.6,12.4c1,4.1,2,8.6,2.8,13.4C477.5,574.6,478.5,585.6,477.7,596.8"/>
						</g>
						<g id="LeafLB">
							<path id="path184" class="st10" d="M670.3,1293.4c-8.5-9.1-17.5-16.4-26.9-22.1c-1-0.6-1.9-1.2-2.9-1.7
								c-8.4,0.3-20.4,1.9-26.6,8.2c0.1-0.3,3.7-8.8,9.5-16.3c-13.7-2.7-25.7-4.3-36.3-5.2c1.3-1.1,2.6-2.4,3.9-3.8
								c19.6-22.7,43.6-27.5,59.4-27.9c10.1-0.2,16.7,1.4,16.7,1.4c-13.2-13.3-26.7-21.4-39.5-26.1c-19.1-7-36.8-6.4-49.8-4
								l-0.9-0.9l-22.1-22.7c0,0-0.7-1.5-2-3.6l0,0c-1.1-1.8-2.8-3.9-5-5.8c-2-1.8-4.6-3.5-7.6-4.5c-1.1-0.4-2.3-0.6-3.5-0.8
								c-0.2,0-0.4-0.1-0.7-0.1c-0.1,0-0.2,0-0.3,0c-0.2,0-0.4,0-0.6,0c-0.1,0-0.2,0-0.3,0c-3.2-0.1-7.1,2.6-11.4,5.4
								c-6.7,4.5-14,9.3-20.1,4c-1.8-1.5-3.6-2.9-5.4-4c-13.8-8.9-26.4-6-37.9,0c-9.5,5-18.2,12.1-26.4,16.4l0,0
								c-1.8,1-3.6,1.8-5.4,2.4c-2.9-5.5-5.3-11.6-7-18l0,0l0,0c0-0.1,0-0.2-0.1-0.2c0-0.2-0.1-0.3-0.1-0.5
								c-0.3-1.2-0.6-2.4-0.9-3.7l0,0c0,0,0,0,0-0.1c-0.7-3-1.2-6-1.7-9.1l0,0c0,0,0,0,0-0.1s0-0.1,0-0.1c-0.5-3.3-0.8-6.6-1.1-10
								c-0.1-1.5-0.2-3-0.3-4.5l0,0c-0.2-4.7-0.2-9.5,0-14.3l0,0c0-0.1,0-0.2,0-0.3l0,0c0-1,0.1-2,0.1-3c0.2-3.2,0.4-6.5,0.8-9.8
								l0,0l0,0l0,0c0.3-2.6,0.6-5.2,0.9-7.8c0.7-5.3,1.6-10.8,2.7-16.2l0,0c2.3-11.5,5.3-23.1,8.9-34.6l0,0c0.3-1.1,0.7-2.2,1-3.3
								c1.8-5.6,3.8-11.2,5.9-16.7c1.4-3.7,2.9-7.4,4.4-11.1c2.9-6.9,5.9-13.7,9.2-20.3l0,0c0.6-1.2,1.2-2.4,1.8-3.6
								c1.2-2.4,2.5-4.8,3.7-7.2c2.4-4.5,4.8-8.9,7.3-13.1l0,0c0.7-1.2,1.5-2.5,2.2-3.7l0,0c4.8-7.8,9.7-15,14.7-21.6
								c0.4-0.6,0.9-1.1,1.3-1.7c6.3-8,12.6-15,18.9-20.5c1-0.9,2-1.7,3-2.6l0,0c4.9-4,9.8-7.1,14.5-9.2c0,0-9.5-1.7-24.6,0.3
								c-1.8,0.2-3.8,0.5-5.8,0.9l0,0c-1.4,0.3-2.8,0.5-4.3,0.8l0,0l0,0c-1.3,0.3-2.6,0.6-3.9,0.9c-4.9,1.2-10.2,2.8-15.8,4.9
								c-1.4,0.5-2.8,1.1-4.2,1.6c-7.3,3-14.9,6.9-22.8,11.9c-0.9,0.6-1.8,1.1-2.7,1.7l0,0c-4.9,3.2-9.9,6.9-14.9,11
								c2.1-7.6,4.8-15.7,8.1-23.9c5.5-13.8,12.4-28.2,19.8-42.1c9.9-18.5,20.7-36.2,30.6-50.8c-0.6,0.3-36.5,17-69.4,51
								c-18.6,19.2-36.1,43.9-45.7,74.3v382.1h55.2l0,0h30.3l0,0H580c0.7-0.7,1.4-1.3,2.1-2l0,0c6.4-5.9,14.1-11.5,22.9-15.2
								c16.8-7.1,33-9.1,46.6-8.9c22.9,0.5,38.7,7.4,38.7,7.4C684.3,1310.2,677.5,1301.1,670.3,1293.4"/>
							<path id="path186" class="st12" d="M557.9,862.2c12.7-4.2,23.8-1.2,35.1-2.3c-9.1,6.7-15.5,16.3-27.7,21.7
								c-17.5,7.6-29-0.1-29-0.1S539.7,868.2,557.9,862.2"/>
							<path id="path188" class="st12" d="M518.8,864c5.6-11.3,14.9-16.7,21.6-24.9c-1.5,10.5,0.7,21.1-3.8,32.8
								c-6.4,16.7-19.1,19.3-19.1,19.3S510.9,880,518.8,864"/>
							<path id="path190" class="st12" d="M542.5,886.9c12.4,2.2,20.2,9.6,30,13.7c-10.5,1.5-20,6.6-32.5,5.6
								c-17.8-1.4-23.9-12.9-23.9-12.9S524.9,883.8,542.5,886.9"/>
							<path id="path192" class="st12" d="M486.8,878.3c3.4-14.3,12.5-23.1,18-34.3c1.1,12.4,6.5,23.8,4.5,38.4
								c-2.9,20.7-16.6,27.1-16.6,27.1S482.1,898.7,486.8,878.3"/>
							<path id="path194" class="st12" d="M523.1,906.8c14.2,4,22.5,13.4,33.5,19.4c-12.5,0.6-24.1,5.5-38.6,2.9
								c-20.6-3.7-26.4-17.8-26.4-17.8S503,901.1,523.1,906.8"/>
							<path id="path196" class="st12" d="M460.7,898.7c2.1-14.9,10.6-24.7,15.1-36.6c2.3,12.6,8.8,23.7,8.1,38.8
								c-1,21.5-14.4,29.2-14.4,29.2S457.7,919.9,460.7,898.7"/>
							<path id="path198" class="st12" d="M496.6,925.8c15,1.7,25,10,37,14.2c-12.5,2.6-23.5,9.4-38.6,9.1
								c-21.5-0.4-29.6-13.8-29.6-13.8S475.3,923.4,496.6,925.8"/>
							<path id="path200" class="st12" d="M435.7,922.5c0.5-15.6,8.2-26.6,11.6-39.4c3.7,12.7,11.7,23.5,12.6,39.1
								c1.3,22.2-11.7,31.7-11.7,31.7S435,944.7,435.7,922.5"/>
							<path id="path202" class="st12" d="M480.3,948.6c15.4,3,24.9,12.4,37,17.7c-13.1,1.6-25,7.8-40.6,6.2
								c-22.1-2.2-29.4-16.6-29.4-16.6S458.5,944.3,480.3,948.6"/>
							<path id="path204" class="st12" d="M412.9,949.4c-2.1-15.5,3.6-27.6,4.8-40.8c5.8,11.9,15.5,21.2,19,36.4
								c5.1,21.6-6.2,33.2-6.2,33.2S415.9,971.5,412.9,949.4"/>
							<path id="path206" class="st12" d="M388.5,984.5c-4.8-14.9-1.3-27.9-2.4-41c7.8,10.7,18.9,18.1,25.1,32.5
								c8.8,20.4-0.3,33.8-0.3,33.8S395.3,1005.6,388.5,984.5"/>
							<path id="path208" class="st12" d="M372.2,1022.1c-7.2-13.9-5.9-27.3-9.2-40c9.5,9.3,21.7,14.7,30.2,27.9
								c12,18.7,5.4,33.4,5.4,33.4S382.4,1041.8,372.2,1022.1"/>
							<path id="path210" class="st12" d="M457.9,972.9c13.9,1.7,23.1,9.4,34.2,13.4c-11.6,2.3-21.9,8.6-35.9,8.2
								c-19.9-0.6-27.4-12.9-27.4-12.9S438.1,970.4,457.9,972.9"/>
							<path id="path212" class="st12" d="M444.4,996.5c13.9,1.7,23.1,9.4,34.2,13.4c-11.6,2.3-21.9,8.6-35.9,8.2
								c-19.9-0.6-27.4-12.9-27.4-12.9S424.6,994.1,444.4,996.5"/>
							<path id="path214" class="st12" d="M429.8,1027.6c13.9,1.7,23.1,9.4,34.2,13.4c-11.6,2.3-21.9,8.6-35.9,8.2
								c-19.9-0.6-27.4-12.9-27.4-12.9S410.1,1025.2,429.8,1027.6"/>
							<path id="path216" class="st12" d="M394.1,1062.4l2.2-0.1c0-0.1-0.3-7.9,5.3-23.8c5.1-14.6,16.2-39.3,40.5-73.4
								c20.9-29.3,62.9-68.4,97.1-83l-0.9-2c-34.5,14.8-77,54.2-98,83.7C393.2,1029.9,394.1,1061.1,394.1,1062.4"/>
							<path id="path218" class="st11" d="M653.6,1035c0,0-1.5,1.5-4,4.1c-0.5,0.5-1,1-1.5,1.6l0,0c-0.1,0.1-0.1,0.1-0.2,0.2l0,0
								c-8.7,8.9-26,26.5-42.6,43.1l-18.7-10.6l10.2,19.1c-2.7,2.7-5.3,5.3-7.8,7.7c-7.5,7.4-14.1,13.6-18.6,17.6
								c-1.1,1-2.1,1.8-2.9,2.5c-3.4,2.8-7.7,7.3-12.5,12.9c-1.8,2.1-3.6,4.3-5.6,6.8c-3.2,4-6.7,8.5-10.3,13.3
								c-0.5,0.7-1.1,1.5-1.7,2.2c-0.5,0.7-1,1.3-1.5,2c-0.4,0.6-0.9,1.2-1.3,1.8c-0.9,1.2-1.7,2.4-2.6,3.6
								c-35.7,49.5-84.2,127.6-114.1,176.6h-55.2v-75.7l0.2-0.3l5-8.7l0.1-0.1l3.1-5.4l4.6-7.9l0.1-0.1l0.1-0.1l0,0l0.1-0.2l0,0
								l1.5-2.6l0.2-0.3l8.3-14.4l0,0l18.1-31.6v-0.1l5.7-10l0.5-0.9l1.8-3.2l7-11l0,0l1.8-2.9c0,0,0,0,0-0.1v-0.1l0,0l0.2-0.3
								l0.5-0.7l3-4.7l0,0v-0.1l0,0l0.4-0.6l0,0l5.7-8.9l5.5-8.5l14.2-22.2l11.2-17.6l13-20.4c6.4-5.6,13.1-10.5,20.2-14.8
								c17.2-10.5,36.1-17.5,54.6-22.2l-1.1,12l12.4-14.6c18.5-3.7,37.2-5.8,56-6.2l0,0c9.4-0.2,18.8-0.1,28.2,0.5l0,0
								c0.8,0.1,1.6,0.1,2.4,0.2l0,0C649.7,1034.7,651.7,1034.8,653.6,1035"/>
							<path id="path220" class="st2" d="M530.8,940.2L530.8,940.2c0,0.1-0.1,0.2-0.1,0.6c-1.1,4.6-8.3,36-17.6,73.2l-22.2,1.4
								l19.8,8.1c-0.7,2-1.3,3.9-2,5.9c-4.1,12-8.7,23.9-13.6,35.6c-5,11.9-10.3,23.6-16,35.2c-2.9,5.9-5.9,11.8-9,17.6
								c-3.9,7.5-8,14.9-12.2,22.2c-1.1,1.9-2.2,3.8-3.3,5.6c-3.4,5.8-6.9,11.6-10.5,17.3c-3.4,5.5-6.9,10.9-10.5,16.4l0,0
								c-1.6,2.4-3.2,4.8-4.8,7.2l0,0c-5.4,8.1-11,16-16.7,23.8l0,0c-3,4.1-6,8.1-9,12.1c-7.6,10.1-15.5,20-23.5,29.7
								c0,0.1-0.1,0.1-0.1,0.2c-0.5,0.6-1.1,1.3-1.6,1.9c-1.4,1.6-2.8,3.3-4.1,4.9c-3.5,4.2-7.1,8.3-10.7,12.4
								c-0.1,0.1-0.1,0.1-0.2,0.2v-121.9l0.2-1.3v-0.1l0.2-1.1l1.2-7.4l2.3-14.2l1.3-8l0.2-1.3l2.7-16.3l1-6.1
								c0.4-1.2,0.8-2.4,1.2-3.6c2.3-6.6,4.8-12.6,7.5-18.3c0.1-0.1,0.1-0.3,0.2-0.4c4.5-9.2,9.8-17.3,15.6-25.1l0,0
								c1.3-1.7,2.6-3.3,3.9-5l0,0c0.8-0.9,1.5-1.9,2.3-2.8c2.6-3.1,5.3-6.2,8.2-9.3c3.9-4.3,8.1-8.6,12.5-13
								c0.4-0.4,0.7-0.8,1.1-1.1l6,12.3l0.6,1.3l0.2-1.1l1.8-10.9l1.9-11.6c3.2-2.9,6.5-5.8,9.8-8.7c1.2-1,2.4-2,3.6-3
								c2.6-2.2,5.3-4.4,8-6.5c4.7-3.7,9.4-7.3,14.2-10.8c1.8-1.3,3.5-2.5,5.3-3.8c7.9-5.5,16-10.8,24.2-15.7l0,0
								c4.6-2.7,9.2-5.4,13.9-8c0.8-0.4,1.6-0.9,2.3-1.3c1.6-0.9,3.1-1.7,4.7-2.5c0.8-0.4,1.6-0.8,2.4-1.2c1.6-0.8,3.2-1.6,4.8-2.4
								l0,0C529.2,941,530,940.6,530.8,940.2"/>
							<path id="path222" class="st13" d="M530.8,940.2L530.8,940.2c0,0-0.3,0.3-0.7,0.7l0,0c-2.2,2.3-9.5,9.8-20,21.7
								c-1.7,2-3.6,4.1-5.5,6.4c-4.3,5-9,10.6-14,16.7c-0.3,0.4-0.6,0.7-0.9,1.1l0,0c-5.2,6.4-10.7,13.4-16.4,20.9
								c-1.2,1.5-2.3,3.1-3.5,4.6c-5.5,7.4-11.2,15.2-17,23.5c-0.9,1.3-1.9,2.7-2.8,4c-1.5,2.2-3.1,4.5-4.6,6.8
								c-7.9,11.7-15.9,24.1-23.7,37.2l0,0c-3.2,5.3-6.3,10.7-9.4,16.2c-2,3.6-4,7.2-6,10.8c-1.2,2.3-2.4,4.5-3.6,6.8
								c-3.2,6.1-6.4,12.3-9.4,18.6c-0.6,1.2-1.2,2.4-1.8,3.6c-1.1,2.2-2.1,4.4-3.1,6.6c-1.2,2.5-2.4,5.1-3.5,7.7
								c-1.3,2.9-2.6,5.8-3.8,8.7c-0.2,0.5-0.4,1-0.6,1.4c-0.6,1.5-1.2,2.9-1.9,4.4l0,0c-1,2.3-1.9,4.7-2.9,7l0,0
								c-0.3,0.8-0.7,1.6-1,2.5c-1.5,3.9-3,7.8-4.5,11.7c-0.8,2.2-1.6,4.5-2.4,6.7l0,0c-1.5,4.1-2.9,8.3-4.3,12.4
								c-0.1-0.2-0.1-0.4-0.2-0.6c-0.1-0.2-0.1-0.4-0.2-0.6v-98.6c0.1-0.4,0.3-0.8,0.4-1.2c0.8-2.3,1.7-4.7,2.7-7
								c0.1-0.3,0.3-0.7,0.4-1c1.6-3.8,3.4-7.7,5.3-11.5c2.7-5.5,5.8-11,9.1-16.5c0.1-0.2,0.2-0.3,0.3-0.5l0,0
								c4.6-7.7,9.6-15.1,14.9-22.3l0,0l0,0c1.2-1.7,2.5-3.4,3.8-5l0,0l0,0c1.2-1.6,2.5-3.2,3.7-4.8c2.8-3.5,5.6-6.9,8.4-10.2
								c3.9-4.5,7.8-8.8,11.6-12.7c0.4-0.4,0.7-0.8,1.1-1.1l6,12.3l0.6,1.3l0.2-1.1l1.8-10.9l1.9-11.6c3.2-2.9,6.5-5.8,9.8-8.7
								c1.2-1,2.4-2,3.6-3c2.6-2.2,5.3-4.4,8-6.5c4.7-3.7,9.4-7.3,14.2-10.8c1.8-1.3,3.5-2.5,5.3-3.8c7.9-5.5,16-10.8,24.2-15.7l0,0
								c4.6-2.7,9.2-5.4,13.9-8c0.8-0.4,1.6-0.9,2.3-1.3c1.6-0.9,3.1-1.7,4.7-2.5c0.8-0.4,1.6-0.8,2.4-1.2c1.6-0.8,3.2-1.6,4.8-2.4
								l0,0C529.2,941,530,940.6,530.8,940.2"/>
							<path id="path224" class="st12" d="M393.4,1087.7c6.3-10.9,15.9-15.8,23.1-23.6c-2.2,10.4-0.6,21.1-5.8,32.5
								c-7.4,16.2-20.3,18.1-20.3,18.1S384.5,1103.2,393.4,1087.7"/>
							<path id="path226" class="st12" d="M367.2,1113.4c-3.1-11.4,0-21-0.5-31c5.5,8.3,13.7,14.3,17.8,25.3
								c5.9,15.7-1.3,25.4-1.3,25.4S371.7,1129.5,367.2,1113.4"/>
							<path id="path228" class="st12" d="M398.1,1114.6c10-6.2,20.1-6,29.6-9.2c-6.4,7.6-9.9,17.1-19.3,24.3
								c-13.4,10.1-24.8,5.9-24.8,5.9S383.9,1123.4,398.1,1114.6"/>
							<path id="path230" class="st12" d="M397,1140.6c12.4-6.2,24.2-4.7,35.5-7.4c-8.4,8.2-13.4,18.9-25.2,26.1
								c-16.7,10.3-29.6,4.1-29.6,4.1S379.4,1149.3,397,1140.6"/>
							<path id="path232" class="st12" d="M390.4,1170.6c11.6-8.2,23.7-8.6,34.8-13.2c-7.1,9.7-10.5,21.3-21.3,30.5
								c-15.3,13.1-29.3,8.9-29.3,8.9S373.9,1182.2,390.4,1170.6"/>
							<path id="path234" class="st12" d="M393.2,1196.7c12.6-7.5,25.2-7,37-10.8c-8.1,9.4-12.6,21.1-24.5,29.7
								c-16.8,12.3-31,6.8-31,6.8S375.3,1207.3,393.2,1196.7"/>
							<path id="path236" class="st12" d="M392.8,1227.6c10.8-7.5,22-7.9,32.3-12c-6.7,8.9-9.9,19.7-19.9,28.2
								c-14.3,12.1-27.2,8.1-27.2,8.1S377.5,1238.3,392.8,1227.6"/>
							<path id="path238" class="st12" d="M398.1,1252.6c10.8-7.5,22-7.9,32.3-12c-6.7,8.9-9.9,19.7-19.9,28.2
								c-14.3,12.1-27.2,8.1-27.2,8.1S382.8,1263.3,398.1,1252.6"/>
							<path id="path240" class="st12" d="M402.6,1281.3c9.3-9.3,20.3-11.5,29.8-17.4c-5.1,9.9-6.4,21.1-14.8,31.2
								c-12,14.3-25.4,12.7-25.4,12.7S389.3,1294.5,402.6,1281.3"/>
							<path id="path242" class="st12" d="M404.2,1330.1l1.5-1.5c0,0-5.2-5.4-11.3-19.9c-5.6-13.4-13.2-37.6-17.6-76.7
								c-3.8-33.6,1.1-87.2,15.9-118.8l-1.9-0.9c-14.9,31.9-19.9,86-16,119.9C383.2,1308,403.4,1329.2,404.2,1330.1"/>
							<path id="path244" class="st12" d="M362.9,1122.3c3.5,2.9,6.6,6.3,9.2,10c11,16.3,5.4,29.4,5.4,29.4s-7.1-0.5-14.5-6.8
								L362.9,1122.3"/>
							<path id="path246" class="st12" d="M362.9,1157.7c1,1,2,2.1,3,3.3c12.7,15.6,8.2,29.5,8.2,29.5c-3.9-0.2-7.7-1.3-11.2-3.2
								V1157.7"/>
							<path id="path248" class="st12" d="M362.9,1223.2c14.6,11.6,14.1,25.3,14.1,25.3c-4.7,1.1-9.5,0.9-14.1-0.4V1223.2"/>
							<path id="path250" class="st12" d="M362.9,1191.4c14.3,14.5,11.2,29,11.2,29c-3.8,0.2-7.7-0.3-11.2-1.7V1191.4"/>
							<path id="path252" class="st12" d="M362.9,1251.9c1.5,0.7,2.9,1.4,4.3,2.3c15.9,9.8,16.2,23.3,16.2,23.3s-8.9,3.3-20.4-2.2
								v-23.4"/>
							<path id="path254" class="st11" d="M552.7,1284.3l-19.6-1.6l15.8,11.9c-5.6,15.3-10.7,28.7-13.5,34.5
								c-1.7,3.5-3.4,6.9-5.3,10.3h-81.8l0,0H434l0,0c1.2-3.7,2.7-7.4,4.3-11.1c9.8-22.4,29.6-38.2,47.6-52.9
								c1.5-1.3,3.1-2.5,4.6-3.7l8.4-6.6c5-3.7,10.2-7.3,15.4-10.7c18.6-12,38.5-21.9,59.3-29.6
								C573.6,1225.4,563,1255.9,552.7,1284.3"/>
							<path id="path256" class="st13" d="M539,1151.9c0,0,0,0.1-0.1,0.2c-0.2,0.5-0.6,1.6-1.3,3.4c-0.3,0.6-0.5,1.3-0.8,2.1
								c-0.6,1.5-1.3,3.3-2.1,5.3c-8.6,21.4-28.5,70.1-48.7,112.6c-4.9,10.3-9.7,20.2-14.5,29.3c-5.4,10.4-13.5,22.3-23.1,34.7l0,0
								h-30.3l0,0h-54.8c0.8-1.3,1.7-2.5,2.5-3.8l0,0l0,0c4.5-6.5,9-12.9,13.8-19.2l0,0c1.6-2.2,3.3-4.4,4.9-6.5l0,0l0,0
								c1.7-2.3,3.5-4.5,5.3-6.8c0.1-0.1,0.1-0.1,0.1-0.2l0.1-0.1l0,0c0-0.1,0.1-0.1,0.1-0.2c0.4-0.5,0.8-1,1.2-1.5
								c0-0.1,0.1-0.1,0.1-0.2c0.2-0.3,0.4-0.5,0.7-0.8l0,0c0.1-0.1,0.2-0.2,0.3-0.3c7.7-9.6,15.7-18.9,24.1-28l0,0
								c0.1-0.1,0.1-0.1,0.2-0.2l0,0l0,0c2.5-2.7,5-5.4,7.6-8.1l0.3,4.4l0,0v0.1l0,0l1,12.7l0,0v0.4l0,0l2.9,35.9l5.3-63.5
								c16.7-8.6,74.3-64.4,96.7-90.8c1.7-2,3.1-3.8,4.4-5.4c1-1.3,1.9-2.5,2.6-3.6l0,0c0.5-0.7,0.8-1.3,1.1-1.8
								C538.9,1152,538.9,1151.9,539,1151.9"/>
							<path id="path258" class="st2" d="M534.1,1237.6l-39,23.5l19.3-6.7l16.9-5.8c-1.5,5.5-3.2,11.1-5.2,17
								c-5.6,16.9-11.5,32.3-17.7,46.5l-45,12.5l39.8-1.3c-2.7,5.6-5.4,11-8.1,16.1h-46.8l0,0h-18.4l0,0
								c27.3-41.7,83.3-141.4,102.8-176.6c0.7-1.3,1.4-2.5,2-3.6c0.3-0.6,0.7-1.2,1-1.8c0.8-1.4,1.4-2.6,2-3.6l0,0
								c0.4-0.8,0.8-1.5,1.1-2c0,0,0,0.1,0,0.2l0,0c0.1,0.2,0.2,0.6,0.3,1.2c0.3,1.1,0.6,2.8,1,5.1c0.2,1.3,0.4,2.8,0.6,4.5
								C542.3,1176.1,542.9,1201.3,534.1,1237.6"/>
							<path id="path260" class="st10" d="M544.3,1175c12.4-12.4,24.9-6.8,36.5-39.7c12.2,30.8-1.7,55.7-7,65.8
								C560.9,1191.4,544.3,1175,544.3,1175"/>
						</g>
					</g>
				</g>
			</g>
		</g>
	</g>
	<g>
		<g>
			<g>
				<defs>
					<path id="SVGID_00000173142014874684797960000008660060466348316563_" d="M1627.3,473v780.3c0,11.2-10.4,20.3-23.3,20.3H385.4
						c-12.9,0-23.3-9.1-23.3-20.3V473c0-11.2,10.4-20.3,23.3-20.3h1218.7C1616.9,452.7,1627.3,461.8,1627.3,473z"/>
				</defs>
				<clipPath id="SVGID_00000026133003047073993010000002985998908094367650_">
					<use xlink:href="#SVGID_00000173142014874684797960000008660060466348316563_"  style="overflow:visible;"/>
				</clipPath>
				<g id="People" style="opacity:0;clip-path:url(#SVGID_00000026133003047073993010000002985998908094367650_);">
					<g>
						<g>
							<defs>
								<rect id="SVGID_00000052077244412589671930000012458825448784545411_" x="546.6" y="524.6" width="878.9" height="814.8"/>
							</defs>
							<clipPath id="SVGID_00000181779162508342276120000007130539785111764353_">
								<use xlink:href="#SVGID_00000052077244412589671930000012458825448784545411_"  style="overflow:visible;"/>
							</clipPath>
							<g id="g270" style="clip-path:url(#SVGID_00000181779162508342276120000007130539785111764353_);">
								<path id="path276" class="st16" d="M1071.3,751.1L1071.3,751.1l-28.1,0.1l-6.4,66.4l32.8,17.3l35-17.1l-5.7-66.6
									L1071.3,751.1"/>
								<path id="path278" class="st16" d="M1129,699.7c-4.3,46.3-37.3,81.2-73.7,77.8c-36.4-3.4-62.4-43.7-58.2-90
									c4.3-46.3,37.3-81.2,73.7-77.8C1107.2,613.1,1133.3,653.4,1129,699.7"/>
								<path id="path280" class="st17" d="M1045.3,704.1c-6.3,8.9-14.3,19.8-14.3,19.8s2.9,10,15.7,10.8
									c-5.3-2.6-10.5-6.5-7.9-13.7C1041.5,714,1045.3,704.1,1045.3,704.1"/>
								<path id="path282" d="M1142.4,662.1c2.2-44.1-38.8-56.9-38.8-56.9s8.9-3.5,6.2-16.7c-6.2,4.2-13.9,6.3-21.4,5.9
									c-50.4-3-81.7,6.6-75.9,26.1c2.1,6.9-30.4,11.8-14,57.7c2.9-5.6,4.9-26.3,14.4-31.2c9.6-4.9,4.5,11.4,26.5,8
									c22.3-3.4,36.5-13.3,53.1-5.1c13.4,7.5,31.8,60.3,31.2,64C1125.1,705.3,1141.5,681.5,1142.4,662.1"/>
								<path id="path284" d="M997.8,712.8c0,0,5.3,24.9,11,31.4c0.8-10.8,24.7-5,35-4.5c18.7,0.9,36.9-16.4,44.2,7.8
									c23.8,0.4,30.3-52.1,30.3-52.1c16.7,51.6-12.6,92.4-69.9,100C1010.7,800.3,992.5,751.1,997.8,712.8"/>
								<path id="path286" class="st17" d="M1060.7,751.7c3.3-1.9,6.5-4.4,9.7-7.6c0.8-0.8,0.8-2.2,0-3c-0.8-0.8-2.2-0.8-3,0
									c-7.1,7-14.2,10.5-21.3,10.5c-8.7-0.1-14.4-5.7-14.4-5.8c-0.8-0.8-2.2-0.9-3,0c-0.8,0.8-0.9,2.1-0.1,3
									c0.3,0.3,6.9,6.9,17.3,7.1C1050.9,755.9,1055.8,754.5,1060.7,751.7"/>
								<path id="path288" d="M1074,702.5c3.6,0.1,6.7-2.8,6.8-6.4c0.1-3.7-2.8-6.7-6.4-6.8c-3.7-0.1-6.7,2.8-6.8,6.4
									C1067.4,699.3,1070.3,702.3,1074,702.5"/>
								<path id="path290" d="M1021.2,701c3.7,0.1,6.7-2.8,6.8-6.4c0.1-3.7-2.8-6.7-6.4-6.8c-3.7-0.1-6.7,2.8-6.8,6.4
									C1014.7,697.9,1017.6,700.9,1021.2,701"/>
								<path id="path292" d="M1009.9,688.1c1.1,0,2.1-0.5,2.8-1.5c1.7-2.7,3.7-4.3,6-4.7c3.9-0.8,7.8,2,7.8,2
									c1.4,1,3.4,0.7,4.4-0.7s0.7-3.4-0.7-4.4c-0.2-0.2-6-4.4-12.7-3.1c-4.1,0.8-7.6,3.3-10.3,7.6c-0.9,1.5-0.5,3.4,1,4.4
									C1008.8,688,1009.4,688.1,1009.9,688.1"/>
								<path id="path294" d="M1086.8,690.5c0.7,0,1.4-0.2,2-0.6c1.4-1.1,1.7-3.1,0.6-4.5c-4-5.3-8.6-8.3-13.5-8.8
									c-6.4-0.7-10.9,3.1-11,3.3c-1.3,1.1-1.5,3.2-0.3,4.5c1.1,1.3,3.1,1.5,4.5,0.3c0.1-0.1,2.8-2.2,6.3-1.8
									c3.1,0.3,6.1,2.5,9,6.3C1085,690.1,1085.9,690.5,1086.8,690.5"/>
								<path id="path296" class="st16" d="M1118.9,695.5c-7.6,7.9-8.6,19.3-2.2,25.5c6.4,6.2,17.8,4.9,25.4-2.9
									c7.6-7.9,8.6-19.3,2.2-25.5C1137.9,686.3,1126.5,687.6,1118.9,695.5"/>
								<path id="path298" class="st17" d="M1127,717.5c-0.3-0.1-0.7-0.3-0.9-0.6c-3.9-3.9-4.9-8.8-2.7-13c2.3-4.3,7.3-6.9,11.9-6
									c1.3,0.2,2.2,1.5,1.9,2.8c-0.2,1.3-1.5,2.2-2.8,1.9c-2.5-0.5-5.5,1.1-6.8,3.6c-1.2,2.4-0.6,5,1.8,7.4c0.9,0.9,0.9,2.4,0,3.4
									C1128.7,717.6,1127.8,717.8,1127,717.5"/>
								<path id="path300" class="st18" d="M959.7,1096.2c0,0-8.9,226.6-2.8,275.5c6.1,48.8,39.6,103.5,37.2,265.1
									c30.3,7.6,74.1,0,74.1,0s6.5-182.7-25.5-264.3c13-79.3,54.7-260.8,54.7-260.8L959.7,1096.2"/>
								<path id="path302" class="st19" d="M1024.6,1102c0,0,30.4,246.6,45.3,293.4s37.3,81.4,64.2,240.6
									c31.1,1.6,59.5,5.1,59.5,5.1s14.2-203.8-34.2-249.7c-1.6-80.4-3.3-287.7-3.3-287.7L1024.6,1102"/>
								<path id="path304" class="st20" d="M1174.5,822.1c0,0-52.8-18.5-70.4-10c-54.7,26.4-67.3,0-67.3,0
									c-19.2-4.3-64.6-4.3-64.6-4.3c-5.7,76.6-22.9,321.3-22.9,321.3s65.9,15.6,121,16c55.1-0.4,111.2-15,111.2-15
									s-2.9-107.1-5.4-146.9C1176.9,938.5,1174.5,880.9,1174.5,822.1"/>
								<path id="path306" class="st21" d="M1174.5,822.1c48.3,20.8,107.5,68.6,143.9,144.4c12.5,26-46.9,31.2-58.8,21
									c-11.8-10.3-85.2-86.8-85.2-86.8L1174.5,822.1"/>
								<path id="path308" class="st21" d="M972.2,807.8l-228.5,93.8l11.4,57.7l211.8-60.2L972.2,807.8"/>
								<path id="path310" class="st22" d="M1239.7,682.7c-48.3-13.6-144.9,25.4-116.8,201.2c28.1,175.8,154.5,151.4,154.5,151.4
									s58-18.2,63.2-129.9S1320.9,705.7,1239.7,682.7"/>
								<path id="path312" class="st23" d="M1180.5,926.3c-10.3,29.6-48.9,87.6-62.7,98.2c-9.2-13.1-43.1-6.5-43.1-6.5
									s33.9-82.1,64.5-121.9C1153.6,869.3,1197.4,878,1180.5,926.3"/>
								<path id="path314" class="st16" d="M1074.8,1018c6.6,36.1,50.2,83.1,50.2,83.1s4.9-2.8,6-24.1
									c-5.4-14.6-13.1-52.4-13.1-52.4S1100.7,1006.1,1074.8,1018"/>
								<path id="path316" class="st16" d="M1197.7,842.4l36-5.4l-2.9,33.4c0,0-18.2,32.9-35.5,27.2c-17.3-5.7-8.9-20.2-8.9-20.2
									L1197.7,842.4"/>
								<path id="path318" class="st16" d="M1262.5,788.1c-5.9,39.5-35.7,67.8-66.8,63.2c-31-4.6-51.4-40.3-45.6-79.9
									c5.9-39.5,35.7-67.8,66.8-63.2C1248,712.9,1268.4,748.6,1262.5,788.1"/>
								<path id="path320" class="st22" d="M1228.8,777.5c-0.4-0.1-0.8-0.4-1.1-0.8c-4-5.8-12.1-5.6-12.2-5.6c-1.1,0-2.1-0.9-2.1-2
									s0.8-2.1,2-2.1c0.4,0,10.4-0.3,15.7,7.4c0.7,0.9,0.4,2.2-0.5,2.9C1230,777.5,1229.4,777.6,1228.8,777.5"/>
								<path id="path322" class="st22" d="M1159.6,776.3c-0.2-0.1-0.4-0.2-0.6-0.3c-0.9-0.7-1-2-0.2-2.9c5.7-6.7,13.6-4.8,13.9-4.8
									c1.1,0.3,1.8,1.4,1.5,2.5c-0.3,1.1-1.4,1.8-2.5,1.5c-0.3-0.1-5.8-1.3-9.8,3.4C1161.3,776.4,1160.4,776.6,1159.6,776.3"/>
								<path id="path324" class="st17" d="M1188.3,793c-2.6,3.2-4.8,6.4-7.4,8.3c-0.9,0.7-1,1.9-0.4,2.8c2.5,3.7,9.2,6.3,13.3,7.6
									c0.6,0.2,1-0.6,0.5-1c-4.3-3.1-6.2-5.5-7-6.9c-0.4-0.7-0.5-1.5-0.2-2.2c0.7-1.7,2-5.1,2.9-7.9
									C1190.2,792.9,1188.9,792.3,1188.3,793"/>
								<path id="path326" class="st4" d="M1214.3,822.9c0.8-1.2-0.2-2.8-1.7-2.5c-3.6,0.7-9.6,1.6-15.3,1.9
									c-5.7,0.3-11.8,0.1-15.4-0.1c-1.4-0.1-2.3,1.6-1.3,2.7c2.9,3.4,8.6,8.5,17.4,7.9C1206.7,832.3,1211.8,826.6,1214.3,822.9"/>
								<path id="path328" class="st22" d="M1275.1,784.5c-36.7-1.7-84.9-35.5-90.8-54.1c5-23.4,23.5-36.6,45.5-27.9
									C1251.9,711.1,1288,754.5,1275.1,784.5"/>
								<path id="path330" class="st22" d="M1192.7,739.8c0,0-21.8,22.2-43.9,27.3c7.7-25.9,13.3-45.5,26.5-51.9
									c13.3-6.4,27.9-7.5,27.9-7.5L1192.7,739.8"/>
								<path id="path332" class="st16" d="M1253.9,782c-6.9,6.4-8.2,16.1-3,21.8c5.2,5.6,15.1,5,21.9-1.4c6.9-6.4,8.2-16.1,3-21.8
									C1270.6,775,1260.8,775.6,1253.9,782"/>
								<path id="path334" class="st17" d="M1259.9,801.2c-0.3-0.1-0.6-0.3-0.8-0.5c-3.2-3.5-3.8-7.7-1.7-11.3
									c2.1-3.6,6.5-5.6,10.5-4.7c1.1,0.3,1.8,1.4,1.5,2.5s-1.4,1.8-2.5,1.5c-2.1-0.5-4.8,0.7-6,2.7s-0.7,4.3,1.2,6.4
									c0.7,0.8,0.7,2.1-0.2,2.9C1261.4,801.3,1260.6,801.5,1259.9,801.2"/>
								<path id="path336" d="M1224.9,783.5c0,3.5-2.8,6.3-6.3,6.3s-6.3-2.8-6.3-6.3s2.8-6.3,6.3-6.3
									C1222,777.2,1224.9,780,1224.9,783.5"/>
								<path id="path338" d="M1178.9,783.5c0,3.5-2.8,6.3-6.3,6.3s-6.3-2.8-6.3-6.3s2.8-6.3,6.3-6.3S1178.9,780,1178.9,783.5"/>
								<path id="path340" class="st16" d="M1164,1599.4c2.4-24.1-10-207.1-10-207.1c-35.1-161-21.3-276.2-21.3-276.2l60.3,4.2
									l23.8,91l-11.3,151.9c0,0,4.2,11.7,6.5,21c12.1,50.7,0.1,111.3-7.4,151.7c-3.5,18.7-8.8,58.1-9,67l15.2,19.6
									c0,0-54.9,60.7-63.3,61.1c-16.4,0.7-11.6-15.5-11.6-15.5C1158.4,1645,1163.3,1606.3,1164,1599.4"/>
								<path id="path342" class="st16" d="M1184.4,1127.8l85-11.7c32.5,73.6,43.1,201.6,51.9,247.3
									c35.4,59.4,46.7,239.5,46.7,239.5l15.2,19.6c0,0-54.9,60.7-63.3,61.1c-16.4,0.7-11.6-15.5-11.6-15.5
									c22.5-23.1,26.9-53.9,28.4-60.7c2.2-10.2-68.8-210-68.8-210l-7.6-19c-86.7-143.1-100.9-251.4-100.9-251.4L1184.4,1127.8"/>
								<path id="path344" class="st24" d="M1342.4,1355c-8.5-28.4-4.8-231.7-79.7-286.9l-128.9,13.6c-29.8,48.2-18.9,173.7-8.8,277
									C1185.5,1380.3,1233.7,1389,1342.4,1355"/>
								<path id="path346" class="st25" d="M1132.1,1049.9c0-28.2-24.5-70.5-12.7-99.1c8.5-22.9,23.5-64.3,41-70.7
									c8.3-3,16-2.3,26.3-5.1c0,0-3.2,18.8,8.9,19.8c23.3,1.9,35.5-27.9,35.5-27.9c12.5-1.2,56.3,11.9,56.2,16.6
									c-0.1,37-16.4,96.8-26.2,136.8c-1.8,20.4-0.4,36.2,1.7,47.7c3.7,12,8.3,18.9,8.3,21.5c0,0-86.2,29.3-141.1-0.9
									C1130,1088.4,1132.1,1068.9,1132.1,1049.9"/>
								<path id="path348" class="st16" d="M1285.5,1076.7l-7.3,2.9c0,0-7.7-12.2-15.4-11.8l3.9,11.6c0,0-4.4,13.6-27.9,12
									c-20.1,4.6-6,14.1-11.6,17.9c-8.2,5.6,14.8,19.5,34.2,13.5c25.1-7.7,41.4-31.4,41.4-31.4L1285.5,1076.7"/>
								<path id="path350" class="st16" d="M1285.5,881.1c0,0,61.4,36,91.1,122.2c-26.7,29.6-49.2,7.5-49.2,7.5l-59.5-58.8
									c0,0-17.5-21.5-9.1-47.7C1266.1,881.5,1285.5,881.1,1285.5,881.1"/>
								<path id="path352" class="st16" d="M1285.5,1076.7l42.9-62.9c0,0,10.1-24.1,48.2-10.5c1.9,20.5-13,49.6-80.9,94.5
									C1291.4,1086.4,1285.5,1076.7,1285.5,1076.7"/>
								<path id="path354" class="st4" d="M1195.6,894.7c-2.1,9.7,3.5,21.3,19.7,15.8c19.4-6.5,28.5-42.9,28.5-42.9l-12.2-6.6
									C1231.6,861,1222.4,886.2,1195.6,894.7"/>
								<path id="path356" class="st4" d="M1195.6,894.7c-2.4,5-16.1,17.8-22.5,10.1c-6.5-7.6,1.1-27.6,1.1-27.6l14.7-7.5
									C1188.9,869.8,1183.1,887.8,1195.6,894.7"/>
								<path id="path358" class="st23" d="M1285.5,881.1c0,0,61.4,36,91.1,122.2c-26.7,29.6-51.5,5.2-51.5,5.2l-57.2-56.5
									c0,0-17.5-21.5-9.1-47.7C1266.1,881.5,1285.5,881.1,1285.5,881.1"/>
								<path id="path360" class="st16" d="M1118,1106c0.4-0.3,0.9-0.5,1.4-0.6c0-0.1-0.1-0.1-0.2-0.2c-3-4.4-2.9-9.8,0.2-12
									c0.5-0.4,1.1-0.6,1.7-0.7c-0.9-3.3-0.2-6.5,2.1-8c0.9-0.6,1.9-0.9,3.1-0.9c-1.1-3.2-0.3-6.7,2.2-8.4
									c3.2-2.2,7.9-0.9,10.5,2.9s2.1,8.6-1,10.8c-0.8,0.5-1.7,0.9-2.6,1c2.2,4.1,1.9,8.7-1,10.7c-0.5,0.4-1.1,0.6-1.7,0.7
									c0.9,3.3,0.2,6.5-2.1,8c-0.8,0.6-1.8,0.9-2.8,0.9c1.1,2.8,0.5,5.9-1.7,7.4c-2.7,1.9-6.6,0.8-8.8-2.4
									C1114.9,1111.9,1115.3,1107.8,1118,1106"/>
								<path id="path362" class="st17" d="M894.1,886.3c37.6,7.4,100.3,82.8,105,140.3c-20.8,4.2-44.1-9.7-44.1-9.7l-49.8-63.1
									L894.1,886.3"/>
								<path id="path364" class="st22" d="M821.6,691.9c-23.4-24-71-27.7-79.7,7.2c-8.8,34.8-7.9,58.4-51.4,50.3
									c-34.7-6.4-72.4,22.8-75.3,72.1c-3.7,63,41.4,41.1,29.5,71.6c-12,30.5-20.3,61.7,24.7,65.4s82.2-32,80-83.5
									c-2.3-51.6,29.4-30.8,40.5-55.6C805.4,784.2,821.6,691.9,821.6,691.9"/>
								<path id="path366" class="st21" d="M896.6,1589.7l51.8,7.7l36-215c-7.4-81.6-79.2-255.2-79.2-255.2l-81,28.3l-2,76.5
									l97.5,165.1C907,1429.1,898.3,1532.3,896.6,1589.7"/>
								<path id="path368" class="st20" d="M856.5,1133c-0.7-5-1-6.6-5.2-9.1l-77.7-22.1l-18.5,18.3c-17.5,63.6-6.7,152.2,7.2,222.4
									c-20.2,60.8-12.3,186.1-4.2,245h55.3c3.2-39.4,2.2-112.4,2.5-147.7l0,0c7.2-28.4,14.1-58.6,20.2-90.4
									c7.9-40.6,17.8-80,20.5-116.9C859,1197.5,859.7,1160.1,856.5,1133"/>
								<path id="path370" class="st16" d="M776.7,782.4c-0.3,42.3,26.4,76.7,59.6,76.9c33.2,0.2,60.3-33.8,60.6-76.1
									s-26.4-76.7-59.6-76.9C804.2,706.1,777,740.2,776.7,782.4"/>
								<path id="path372" class="st16" d="M797.1,824.5l48.3,27.4c0,0,4.3,19.5,6.4,25.9c4.4,13.1-12.5,18.8-26.8,10.7
									s-23.5-19-23.5-19L797.1,824.5"/>
								<path id="path374" class="st10" d="M898.6,775c-11.5-1-75.5-17.6-83-29.2c0.6,27.5-40.8,58.8-46.3,50.8
									c-19.4-50.8-5.3-94.3,51.6-105.7C898.9,675.4,898.6,775,898.6,775"/>
								<path id="path376" d="M825.8,796.5c1.9,3.1,6.1,4.1,9.2,2.1c3.1-2,4.1-6.1,2.1-9.2s-6.1-4.1-9.2-2.1
									C824.8,789.3,823.8,793.4,825.8,796.5"/>
								<path id="path378" d="M872.3,795.9c1.8,2.9,5.7,3.8,8.6,2c2.9-1.8,3.8-5.7,2-8.6c-1.8-2.9-5.7-3.8-8.6-2
									S870.5,792.9,872.3,795.9"/>
								<path id="path380" class="st10" d="M889.5,782.7c0.2-0.1,0.5-0.3,0.7-0.5c0.9-0.9,0.9-2.6,0-3.7c-7.5-8.6-16.7-6.1-17.1-6
									c-1.3,0.4-2,1.8-1.5,3.2c0.4,1.4,1.8,2.3,3.1,1.9c0.3-0.1,6.8-1.7,12.1,4.3C887.5,782.8,888.6,783.1,889.5,782.7"/>
								<path id="path382" class="st10" d="M819.3,783.9c-0.2-0.1-0.5-0.3-0.7-0.4c-0.9-1-0.9-2.6,0-3.7c7.5-8.6,16.7-6.1,17.1-6
									c1.3,0.4,2,1.8,1.5,3.2c-0.4,1.4-1.8,2.3-3.1,1.9c-0.3-0.1-6.8-1.7-12.1,4.3C821.4,784.1,820.2,784.3,819.3,783.9"/>
								<path id="path384" class="st17" d="M867.6,800.4c2,4.1,3.5,8.2,5.8,10.9c0.8,0.9,0.6,2.3-0.3,3.1
									c-3.7,3.3-11.6,4.4-16.3,4.8c-0.7,0.1-0.9-0.9-0.3-1.2c5.4-2.3,8.1-4.3,9.4-5.6c0.6-0.6,0.9-1.5,0.8-2.3c-0.3-2-0.8-6-1-9.3
									C865.6,799.7,867.1,799.4,867.6,800.4"/>
								<path id="path386" class="st16" d="M792.4,799.2c6.9,7.1,7.8,17.5,2,23.2s-16.2,4.5-23.1-2.6c-6.9-7.1-7.8-17.5-2-23.2
									S785.5,792.1,792.4,799.2"/>
								<path id="path388" class="st17" d="M787.7,816.5c0.3-0.2,0.5-0.4,0.7-0.7c2.6-4.3,2.4-8.8-0.4-12.1
									c-2.9-3.3-7.9-4.5-11.8-2.8c-1.1,0.5-1.6,1.8-1.1,2.9c0.5,1.1,1.8,1.6,2.9,1.1c2.1-0.9,5.1-0.2,6.8,1.7
									c1.6,1.8,1.6,4.3,0,6.9c-0.6,1-0.3,2.4,0.7,3C786.2,817,787.1,816.9,787.7,816.5"/>
								<path id="path390" class="st2" d="M917.2,1139.9c0,0-19.9,23.6-23.3,25.3l-17.8-19.5l-0.1,0.3l-4.2,11.1l-4.9,13
									c-4.1,0-128.5-27.9-128.5-27.9c0.3-11.2,10.8-47.5,27.9-86.2c-4.1-32.7-2.6-81.9-3.9-100.8c10.1-50.6,5.3-54.9-3.8-78.8
									l31.6-9.3l56.8,20l4.2-13.7c0,0,35.6,8.5,43.1,12.7l13.5,56.1l-2.9,119.3C904.7,1061.8,909.2,1109.8,917.2,1139.9"/>
								<path id="path392" class="st11" d="M801,861l-22.3,9.5c2.3,26.7,62.1,42.7,62.1,42.7l5.9-25.8L801,861"/>
								<path id="path394" class="st11" d="M846.8,887.3l17.6,19.6c0,0,15.2-15.7,9.7-25.5c-5.5-9.7-25.1-16.3-25.1-16.3
									L846.8,887.3"/>
								<path id="path396" class="st17" d="M852.4,841.2c-1.4,0.1-2.8,0.1-4.2,0c-10.3-1-16.9-8.9-17.1-9.2c-0.9-1-0.7-2.6,0.4-3.4
									c1-0.8,2.6-0.7,3.4,0.4l0,0c0.1,0.1,5.6,6.7,13.9,7.5c5.4,0.5,10.9-1.6,16.3-6.3c1-0.9,2.6-0.8,3.4,0.3
									c0.9,1,0.8,2.5-0.3,3.4C863,838.2,857.7,840.7,852.4,841.2"/>
								<path id="path398" class="st11" d="M875.9,1146.1l-4.2,11.1c-3.8-25.6-18.1-132.9-10.1-162.6c7.6-27.8-1.9-57.2-11.1-85.5
									c-2.2-6.9-4.5-14.1-6.5-21.1l2.8-0.8l2.8-0.8c2,6.9,4.3,14,6.5,20.9c9.4,29.2,19.1,59.3,11.1,88.8
									C860.3,1021.8,870.9,1109.9,875.9,1146.1"/>
								<path id="path400" class="st17" d="M999.1,1026.6c0,0-55.8,62-91.7,70.3c-2.1-11.8-0.7-17.2-0.7-17.2l48.3-62.8
									L999.1,1026.6"/>
								<path id="path402" class="st16" d="M905.2,1101.8c0.2-0.5,0.4-1,0.7-1.4c-0.1,0-0.2-0.1-0.3-0.1c-5.1-1.7-8.3-6-7-9.7
									c0.2-0.6,0.5-1.1,0.9-1.6c-2.7-2.1-4.1-5-3.2-7.7c0.3-1,1-1.9,1.9-2.6c-2.8-1.9-4.3-5.1-3.3-8c1.2-3.7,5.7-5.5,10.1-4
									c4.3,1.5,6.9,5.6,5.7,9.2c-0.3,0.9-0.8,1.7-1.5,2.4c4.3,2,6.7,5.8,5.6,9.1c-0.2,0.6-0.5,1.1-0.9,1.6c2.7,2.1,4.1,5,3.2,7.7
									c-0.3,1-0.9,1.8-1.7,2.4c2.6,1.6,4,4.4,3.1,7c-1,3.1-4.8,4.6-8.5,3.4C906.3,1108.4,904.2,1104.9,905.2,1101.8"/>
								<path id="path404" class="st16" d="M738.4,1072.2l7.7,3.1c0,0,8.9-12.5,17-12.1l-4.9,11.9c0,0,4.6,14.2,29.2,12.6
									c21,4.8,6.3,14.8,12.1,18.8c8.6,5.9-15.5,20.4-35.8,14.1c-26.3-8.1-43.3-32.9-43.3-32.9L738.4,1072.2"/>
								<path id="path406" class="st16" d="M758.5,876.6c0,0-74.1,32.9-115.4,118.9c24.2,34,50.2,13.8,50.2,13.8l69-53.9
									c0,0,17.5-31.8,15.3-48.5C774.2,882,758.5,876.6,758.5,876.6"/>
								<path id="path408" class="st16" d="M738.4,1072.2l-44.9-65.8c0,0-10.6-25.3-50.5-10.9c-1.9,21.4,13.6,51.9,84.7,98.9
									C732.3,1082.4,738.4,1072.2,738.4,1072.2"/>
							</g>
						</g>
					</g>
				</g>
			</g>
		</g>
	</g>
</g>
</svg>
