<?xml version="1.0" encoding="utf-8"?>
<!-- Generator: Adobe Illustrator 26.0.1, SVG Export Plug-In . SVG Version: 6.00 Build 0)  -->
<svg version="1.1"
	 id="svg2" xmlns:inkscape="http://www.inkscape.org/namespaces/inkscape" xmlns:sodipodi="http://sodipodi.sourceforge.net/DTD/sodipodi-0.dtd" xmlns:svg="http://www.w3.org/2000/svg"
	 xmlns="http://www.w3.org/2000/svg" xmlns:xlink="http://www.w3.org/1999/xlink" x="0px" y="0px" viewBox="0 0 666.7 666.7"
	 style="enable-background:new 0 0 666.7 666.7;" xml:space="preserve">
<style type="text/css">
	.st0{fill:#95B78D;}
	.st1{fill:#B7E5C1;}
	.st2{fill:#FFFFFF;}
	.st3{fill:#CBA43E;}
	.st4{fill:#2B6621;}
	.st5{fill:#3E9356;}
	.st6{fill:#C0D8C8;}
	.st7{fill:#EBA793;}
	.st8{fill:#80AD7B;}
	.st9{fill:#F6B2A3;}
	.st10{fill:#D76D62;}
	.st11{fill:#2F3031;}
	.st12{fill:#43824A;}
	.st13{fill:#98D398;}
	.st14{fill:#395B40;}
	.st15{fill:#ADDBB2;}
	.st16{fill:#ADDBB8;}
	.st17{fill:#A47769;}
	.st18{fill:#FBD75C;}
	.st19{fill:#468950;}
	.st20{fill:#5CB778;}
	.st21{fill:#99D6AD;}
	.st22{fill:#CEEADB;}
	.st23{fill:#ADDBC6;}
	.st24{fill:#B6E0C8;}
</style>
<sodipodi:namedview  bordercolor="#000000" borderopacity="0.25" id="namedview4" inkscape:deskcolor="#d1d1d1" inkscape:pagecheckerboard="0" inkscape:pageopacity="0.0" inkscape:showpageshadow="2" pagecolor="#ffffff">
	</sodipodi:namedview>
<g id="g8" transform="matrix(1.3333333,0,0,-1.3333333,0,666.66667)" inkscape:groupmode="layer" inkscape:label="ink_ext_XXXXXX">
	<g id="g10" transform="scale(0.1)">
		<path id="path14" class="st0" d="M4281.5,893.6c0-43.4-757-78.5-1690.8-78.5S899.8,850.2,899.8,893.6c0,43.4,757,78.5,1690.8,78.5
			S4281.5,936.9,4281.5,893.6"/>
		<path id="path16" class="st1" d="M2775,3034H552.5V4251H2775V3034"/>
		<path id="path18" class="st2" d="M1653,3034h21.5V4251H1653V3034z"/>
		<path id="path20" class="st2" d="M552.5,3631.8H2775v21.5H552.5V3631.8z"/>
		<path id="path22" class="st3" d="M2255.9,1894.8c-80.9-281.4-154.2-565-219.7-850.3c-1.3-5.8,2.3-11.5,8.1-12.9
			c5.8-1.3,11.5,2.3,12.9,8.1c65.5,285,138.6,568.2,219.4,849.2c1.6,5.7-1.7,11.7-7.4,13.3
			C2263.5,1903.8,2257.5,1900.5,2255.9,1894.8"/>
		<path id="path24" class="st4" d="M2873.6,1820c-55.1-273.3-100.7-548.4-136.8-824.9c-0.8-5.9,3.4-11.3,9.3-12
			c5.9-0.8,11.3,3.4,12,9.3c36,275.9,81.5,550.6,136.5,823.4c1.2,5.8-2.6,11.5-8.4,12.6C2880.4,1829.5,2874.7,1825.8,2873.6,1820"/>
		<path id="path26" class="st4" d="M3121.5,1880c10.2-144.1,21.3-240.2,37.4-362.5c16-122.3,37.1-270.9,67.3-520.4
			c0.7-5.9,6.1-10.1,11.9-9.4c5.9,0.7,10.1,6.1,9.4,11.9c-30.2,249.7-51.3,398.4-67.3,520.6c-16,122.2-27,217.6-37.2,361.2
			c-0.4,5.9-5.6,10.4-11.5,9.9C3125.5,1891,3121.1,1885.9,3121.5,1880"/>
		<path id="path28" class="st5" d="M2697.2,2219.2c-158.4-16.7-351.6-55.8-411.7-75.1s-115.8-60.6-138.7-119.4
			c-22.9-58.8-4.8-134.7,49.6-166.6c22.5-13.2,48.8-18.1,74.5-22.6c238.7-41,482.5-53.8,723.7-32.6c50.7,4.5,107.6,8.4,154.7,27.7
			c47.1,19.3,77.6,34.9,97.2,81.9l0,0.2c61.8,126.3,73.4,408.9,95.8,561.3c42.7,291.5,54.6,598.4-56,871.5
			c-21.4,52.8-47.2,106.3-91.2,142.4c-133.1,108.9-283.8,31.6-315.6-13.1c0,0-203.9-441.1-182.2-1043.1V2219.2"/>
		<path id="path30" class="st4" d="M3104.1,2052.8c9.9-5.8,18.7-13.9,24.1-24c5.4-10,5.9-23.4-1.6-32
			c-14.2-16.1-27.1-37.3-45.8-48.1c-172.3-99.2-485.4-84.1-712.5,6.5c-11.7,4.7-59.1,5.4-66.8,77.6c-2.3,21.1,35.4,45.1,53.1,57.2
			c33.2,22.8,72.9,34.6,112.7,41.6C2467.1,2131.8,2836.6,2209.9,3104.1,2052.8"/>
		<path id="path32" class="st4" d="M2459.6,1925.1c90-13.1,180.1-25.8,270.6-29.8c45.2-1.9,90.4-2.1,135.3,1.7
			c44.8,3.8,89.4,11,131.8,24.8c21.2,6.9,41.8,15.3,61.3,25.7l7.3,3.9l7.1,4.2c4.4,2.8,8.6,5.8,12.9,9.2
			c8.4,6.6,16.2,14.1,23.4,22.2c14.3,16.2,25.8,35,35.1,54.9l3.3,7.4l3.2,7.9c1.9,5,3.7,10.1,5.4,15.3c3.3,10.5,6,21.2,8.3,32
			c4.6,21.7,7.4,44,10,66.6l7.7,67.8l14.8,135.6c4.6,45.2,9,90.4,13,135.7c3.9,45.2,7.5,90.5,10,135.9c1.4,22.6,2.6,45.3,3.4,68
			c1.1,22.7,1.7,45.3,2.1,68c1.1,45.4,0.9,90.7-0.2,136c-0.4,22.7-1.7,45.3-2.5,68c-1.2,22.6-2.9,45.2-4.4,67.8l-6.6,67.6
			c-2.9,22.5-5.5,45-8.7,67.4c-6.8,44.5-16.1,88.8-32.4,130.2c-16.2,41.3-40.6,79.8-75.4,106.9l-0.4,0.3l-0.1,0.1
			c-2.7,2.4-5.9,5-9.1,7.3c-3.2,2.4-6.5,4.6-9.8,6.8c-6.7,4.3-13.8,8.1-21,11.3c-3.6,1.6-7.3,3.1-11,4.4c-3.7,1.3-7.5,2.4-11.3,3.3
			c-3.8,0.9-7.6,1.7-11.5,2.1c-3.9,0.7-7.7,0.5-11.6,0.8l-1,0.1c-3.7,0.3-6.4,3.5-6.1,7.2c0.3,3.6,3.4,6.3,7,6.1
			c4.4-0.2,8.9,0,13.3-0.8c4.4-0.4,8.8-1.2,13-2.2c4.3-0.9,8.5-2.2,12.7-3.5c4.1-1.4,8.2-2.9,12.2-4.7c8-3.4,15.7-7.5,23-12
			c3.7-2.3,7.3-4.7,10.8-7.2c3.6-2.6,6.9-5.1,10.4-8.2l-0.5,0.4c37.8-28.6,64.4-69.4,82-112.3c17.8-43.1,27.7-88.5,34.9-133.8
			c3.5-22.6,6.2-45.3,9.3-67.9c2.6-22.7,4.8-45.4,7.2-68.2c1.6-22.8,3.6-45.6,4.9-68.4c1-22.8,2.5-45.6,3-68.5
			c1.2-45.7,1.5-91.4,0.5-137c-0.4-22.8-0.9-45.6-2-68.4c-0.8-22.8-1.9-45.6-3.3-68.4c-2.5-45.6-5.9-91-9.7-136.5
			c-3.8-45.4-8.3-90.8-13.1-136.1l-15.2-135.8l-7.9-67.8c-2.7-22.7-5.7-45.6-10.5-68.4c-9.4-45.7-28.8-90.6-60.2-126.6
			c-7.9-8.9-16.6-17.2-26.2-24.6c-4.7-3.6-9.8-7.2-15-10.4l-7.6-4.4l-7.8-4c-20.8-10.8-42.5-19.4-64.7-26.4
			c-44.4-14-90.3-20.9-136.1-24.5c-45.9-3.4-91.9-3-137.5-0.4c-91.4,5.4-181.7,19.6-271.6,34c-3.3,0.5-5.6,3.7-5.1,7
			C2453.2,1923.3,2456.3,1925.6,2459.6,1925.1"/>
		<path id="path34" class="st6" d="M3045.1,2441.7l-114.3-67.4l-409-14.3l-220.6-116.4c-211-133.1-199.4-161.1-232.6-225.1
			c-33.1-64-34.7-127.8-47.5-198.8c-42.6-235.8-44.9-516.8-32.3-756.1h133.3c67.5,237.3,142,551,180.3,794.8c0,0,28.9,76,58.1,84.2
			h0c-14.1-47.2-17.6-95.3-26.9-147.3c-42.6-235.9-44.9-516.8-32.3-756.1h133.3c67.5,237.3,142,551,180.3,794.8
			c68.9,22.5,136.3,49.9,201.4,82c53.9,26.5,107.2,56.9,147.2,101.7c49.4,55.3,74.6,128.7,83.9,202.2
			C3056.4,2293.4,3050.8,2367.9,3045.1,2441.7"/>
		<path id="path36" class="st7" d="M2200.9,2417.4c95.9,23.4,297.4,242,344.6,332.6l19.9,161.9l-94.4,26.2
			c-66.1-130.2-210.7-373.8-323.9-466.1"/>
		<path id="path38" class="st8" d="M2982.5,3291.7c40-18.3,79.9-36.9,117.7-59.3c35.2-20.9,122-88.5,121.8-279
			c-0.1-40.8-9.8-96.5-26.7-133.7c-14.2-31.3-28.4-62.6-42.6-93.9c-17.4,6.5-34.9,12.6-52.7,18.5c-3.9-22.5-22.6-84.5-28.3-106.6
			c-23-88.6-26.5-189.1-29.3-280.6l-545.4,5.6c18.2,231.2,30.3,279.1,54,527.2c-39,3-72,16.4-109.7,27
			c8.4,90.9,58.2,198.8,115,270.3c56.8,71.4,135.9,92.3,226.5,103.6C2782.7,3290.7,2928.5,3316.4,2982.5,3291.7"/>
		<path id="path40" class="st9" d="M2968.3,3483.9c1.6,7.3,9.3,12.3,16.8,11.9s14.1-5.6,17.5-12.2s3.8-14.5,2.3-21.8
			c-2.1-10-8.6-22.3-18.7-24.3c-0.4-40.3-1.8-63.1-2.8-109.5l-0.6-19.9c-0.1-5.6-0.2-11.1-0.3-16.4c0,0,14.6-5.2,35.8-16.1
			c0,0-15.4-91.9-170.2-75.5c0,0-113.8,23.8-86.6,87.8l59.6,8.4c-0.5,14.2-0.9,29.9-0.9,29.9c-39.3-2-77.3,14.6-97,48.3
			c-6.5,11.2-10.5,23.7-13.4,36.3c-17.6,75.1-0.8,153.4,15.9,228.7c0,0,60.3,128,185.3,78.8c125-49.2,71.7-242.6,71.7-242.6"/>
		<path id="path42" class="st10" d="M2943.3,3382.6c0,0-4.8-7.4-13.9-17.2c-4.6-4.8-10.1-10.3-16.8-15.4
			c-6.6-5.2-14.3-10.1-22.5-13.9c-8.3-3.8-17-6.5-25.2-8c-4.1-0.9-8.2-1.3-11.9-1.7c-3.8-0.4-7.4-0.6-10.7-0.7
			c-6.6-0.2-12.2,0-16,0.2c-3.9,0.3-6.1,0.4-6.1,0.4s2.1,0.4,5.9,1.2c3.8,0.5,9,1.8,15.4,3.5c6.3,1.6,13.6,3.4,21.3,5.8
			s15.5,5.1,23.1,8.7c3.8,1.8,7.5,3.7,11.1,5.7c3.5,2.2,7.1,4.1,10.4,6.4c6.7,4.3,12.8,8.7,18.1,12.4c5.3,3.8,9.7,7,12.8,9.3
			C2941.5,3381.4,2943.3,3382.6,2943.3,3382.6"/>
		<path id="path44" class="st11" d="M2992.5,3486.6c34.9-4.9,143,225.9,4.2,323.4c-17.1,12-39.5,13.8-60.3,15.7
			c-60.4,5.7-124.9-7.6-170.4-47.7c-5.4-4.8-10.9-10.1-17.8-12.2c-5.7-1.7-11.8-1.1-17.8-1.2c-37.8-0.2-74-33.9-71.8-71.6
			c1.3-22.7,14.9-43.2,31.9-58.2c18.6-16.4,42.1-27.6,66.9-29.9c24.7-2.3,50.5,4.6,69.6,20.5c5.9-13.7,20.5-22,35.3-23.8
			c14.8-1.8,29.6,2.1,43.6,7c18.4,6.5,36.1,15.1,52.6,25.5c6.7,4.2,13.9,10.1,13.4,18c-8.3-20.2-5.6-42.7-7.9-64.5
			C2961.9,3567.6,2957.9,3523.2,2992.5,3486.6"/>
		<path id="path46" class="st11" d="M2713.6,3533.7c0,0,3.8,0.8,9.8,1.3c6,0.5,14,0.4,21.9-0.7c7.9-1.1,15.7-3.2,21.3-5.3
			c5.6-2.1,9.1-4,9.1-4l0,0l0.7-2.2l-2-0.8c0,0-14.7,5.1-29.9,7.1c-15.2,2.3-30.8,1.6-30.8,1.6l-1.6,1.4L2713.6,3533.7
			L2713.6,3533.7"/>
		<path id="path48" class="st11" d="M2751.3,3517.6c-0.4-7.2-6.6-12.7-13.8-12.3c-7.2,0.4-12.7,6.6-12.3,13.8
			c0.4,7.2,6.6,12.7,13.8,12.3C2746.2,3531,2751.7,3524.8,2751.3,3517.6"/>
		<path id="path50" class="st11" d="M2910.2,3510.4c0,0-17.7,5.2-36,5.7c-18.2,0.9-36.2-3.1-36.2-3.1l-1.9,1.2l1,1.9l0.1,0
			c0,0,4.4,1.6,11.4,3c6.9,1.5,16.4,2.4,25.9,2.1c9.5-0.4,18.8-2.1,25.6-4.1c6.9-2,11.1-3.9,11.1-3.9l0.1-0.1l0.8-2L2910.2,3510.4"
			/>
		<path id="path52" class="st11" d="M2860.3,3506.1c-0.8-7.2,4.4-13.7,11.6-14.4c7.2-0.8,13.6,4.4,14.4,11.6
			c0.8,7.2-4.4,13.6-11.6,14.4C2867.5,3518.4,2861.1,3513.3,2860.3,3506.1"/>
		<path id="path54" class="st11" d="M2786.4,3540.9c3.3,7.9,3.4,17.1-0.1,24.9c-1.6-2.5-5.5-3-7.7-1c-0.9,0.8-1.6,2-2.7,2.5
			c-0.9,0.4-1.9,0.3-2.9,0.3c-4.4,0-8.4,2.1-12.5,3.6c-17.9,6.7-39.3,3-54-9.2c4.2-4,10.7-3.2,16.5-3.4
			c22.4-0.5,38.3-17.5,60.7-18.7C2783.7,3539.9,2785.9,3539.8,2786.4,3540.9"/>
		<path id="path56" class="st11" d="M2836,3536.3c-1.3,8.5,0.8,17.4,6.1,24.2c0.9-2.8,4.6-4.2,7.2-2.9c1.1,0.6,2,1.6,3.2,1.8
			c1,0.2,2-0.1,2.9-0.4c4.2-1,8.7,0,13,0.4c19,2.1,38.9-6.6,50.1-22.1c-5-2.8-11.2-0.5-16.8,0.7c-21.9,5-41.4-7.7-63.4-3.4
			C2838.4,3534.7,2836.2,3535.2,2836,3536.3"/>
		<path id="path58" class="st10" d="M2798.9,3512.3c0,0-5.4-19-8.2-38.4c-0.8-4.8-1.4-9.7-1.8-14.2c-0.2-2.4-0.4-4.1,0.1-5.5
			c0.3-1.1,1.4-2.4,2.5-3.2c2.3-1.7,5.2-2.4,7.2-2.7c2.1-0.3,3.3-0.5,3.3-0.5l0.1,0c1.1-0.2,1.9-1.2,1.7-2.3c-0.1-1-1-1.7-2-1.7
			c0,0-1.3,0-3.5,0.1c-2.2,0.2-5.8,0.2-9.8,2.6c-1.9,1.2-3.8,3-5,5.9c-1.1,2.7-0.9,5.6-0.7,7.8c0.4,4.7,0.9,9.7,1.6,14.7
			c1.6,9.9,4.1,19.7,6.5,26.9c2.4,7.2,4.5,11.7,4.5,11.7l0,0.1c0.4,0.9,1.5,1.3,2.4,0.9L2798.9,3512.3"/>
		<path id="path60" class="st10" d="M2824.8,3420.6c0,0-0.4-0.6-1.1-1.7c-0.7-1-2.1-2.9-3.9-4.4c-3.5-3.4-9.5-6.4-15.9-7.6
			c-6.4-1-13.1-0.1-17.6,2c-2.3,0.9-3.9,2.1-5.1,2.9c-1.1,0.9-1.8,1.3-1.8,1.3l-0.4,2.7l2.5,0.5l0.1-0.1c0,0,2.5-1.4,6.4-2.5
			c3.9-1.2,9.4-1.7,14.8-0.8c5.4,0.8,10.5,3,13.9,5.4c3.3,2.1,5.4,4.5,5.4,4.5l2.5,0.1L2824.8,3420.6L2824.8,3420.6"/>
		<path id="path62" class="st12" d="M3003.9,2775.3c0,0,0,6.2,1.3,15c1.2,8.9,3.8,20.4,7.1,31.7c3.4,11.3,7.6,22.3,11.5,30.4
			c3.8,8.1,7.2,13.2,7.2,13.2s0-6.2-1.3-15c-1.2-8.9-3.8-20.4-7.1-31.7c-3.4-11.3-7.6-22.3-11.5-30.4
			C3007.3,2780.5,3003.9,2775.3,3003.9,2775.3"/>
		<path id="path64" class="st12" d="M2552,2891c0,0-1.1,5.4-1.1,13.5c-0.1,8,0.9,18.6,3,29c2.2,10.4,5.7,20.5,9.3,27.8
			c3.5,7.3,7.1,11.6,7.1,11.6s-0.2-5.5-1.2-13.3c-1-7.8-2.6-18.1-4.7-28.2c-2.2-10.1-4.9-20.2-7.4-27.7
			C2554.4,2896,2552,2891,2552,2891"/>
		<path id="path66" class="st13" d="M2697.2,2240.7c-15-7.7-30.3-14.9-45.1-22.9c-14.9-7.8-29.7-15.8-44.2-24.3
			c-14.7-8.2-28.8-17.3-43-26.3l-20.9-14l-20.5-14.5c-27-19.8-52.7-41.4-75.9-65.3c-23-24-43.6-50.4-58.8-79.6
			c-3.8-6.8-5.7-14.5-8.5-22.5c-2.5-7.9-4.9-16-7.2-24c-4.6-16.1-8.9-32.3-12.9-48.6c-4-16.3-7.7-32.6-11.2-49
			c-3.4-16.4-6.6-32.8-9.5-49.3c-2.8-16.5-5.3-33.1-7.4-49.6c-2.1-16.6-3.7-33.2-5.1-49.9c-1.3-16.8-2.6-33.7-4.2-50.5l-2.7-25.3
			l-1.7-12.8l-1.1-6.6l-0.7-3.5l-0.6-2l-0.5-1.3l-0.6-1.2c-0.2-0.3,0-0.1-0.8-1.2c-2.7-1.3,3.4-0.3-6.9-3.1l8.4,7.4l-11.4-279.3
			c-1.7-46.6-2.8-93.2-4.1-139.7c-0.5-23.3-1.1-46.6-0.9-69.9c-0.1-11.7,0.1-23.3,0.3-34.9c0-11.7,0.9-23.2,1.6-34.9
			c-1.3,11.6-2.9,23.2-3.6,34.8c-1,11.6-1.5,23.3-1.9,34.9c-1.1,23.3-1.5,46.6-2,70c-0.5,23.3-0.7,46.7-0.5,70l0.4,70
			c0.5,46.6,1,93.3,2.3,139.9c1.3,46.6,2.4,93.2,4.3,139.9l8.4,7.4c-10.1-2.8-4-1.6-6.6-2.8l-0.6-0.8l-0.3-0.5l0.1,0.2l0.3,1
			l0.6,2.7l1,5.9l1.6,12.3l2.5,25c1.5,16.7,2.8,33.4,4,50.2l2.2,25.4l3,25.3c2.3,16.8,4.9,33.6,7.8,50.3c5.9,33.4,13,66.6,21.6,99.3
			c4.2,16.4,8.8,32.7,13.6,49c2.5,8.1,5,16.2,7.7,24.3c2.8,7.8,5.2,16.7,9.7,24.6c16.5,30.5,38.8,57,62.9,81.1
			c24.4,23.9,51.1,45.1,78.9,64.4l21.1,14.2l21.7,13.2c14.7,8.4,29.3,17,44.4,24.6c14.9,7.9,30.1,15.3,45.4,22.5
			C2666.1,2227.6,2681.8,2233.8,2697.2,2240.7"/>
		<path id="path68" class="st14" d="M2124.1,1070.5c4.2-16-1.7-79.2-11.5-93.7c-10.1-14.9-29.4-21.5-47.3-26.4
			c-72.1-19.6-146.8-28.6-220.3-25.6c-9.4,0.4-19.4,1.2-26.5,6.7c-11.2,8.8-9.9,26.7-1.1,38.8c8.8,12,23,19.5,36.8,26.2
			c57.2,27.9,76.3,41.7,134.2,76.2L2124.1,1070.5"/>
		<path id="path70" class="st14" d="M2435.3,1042c4.2-16,0.6-81.4-9.3-95.9c-10.1-14.9-29.4-21.6-47.3-26.4
			c-72.1-19.6-146.8-28.6-220.3-25.6c-9.4,0.4-19.4,1.2-26.5,6.7c-11.3,8.8-9.9,26.8-1.1,38.8c8.8,12,23,19.5,36.8,26.2
			c57.2,27.9,75.5,41.6,133.4,76.1L2435.3,1042"/>
		<path id="path72" class="st9" d="M3003.9,2775.3l136-44.9c-14.2-72.2-33.2-124.9-59.4-193.6c-12.9-33.9-27.6-67.9-51.3-95.3
			c-47.1-54.6-83.8-64.9-214.4-56.9c-77.2,4.7-151.9,18.7-226.9,38l-81.8,9.1c-21.7-1.5-33.9-29-55.4-32.3c-2.1-0.3-4.6-0.3-6.1,1.3
			c-1.8,1.9-1.3,5-0.6,7.5c2.5,9,5.4,18,8.7,26.7c-11.2-17-31.7-43-48.4-34.9c-10.3,4.8,5.2,20.3,10.8,29
			c-11.8-9.9-24.8-18.3-38.7-25c-4.8-2.3-11.8-3.9-14.5,0.8c-1.2,2.1-0.9,4.6-0.5,6.9c2.1,11,7.7,21.2,15.8,28.9
			c-9.1-7.8-18.3-15.6-27.4-23.3c-2.3-1.9-4.8-4-7.8-4c-6.8-0.1-9,9.2-8.5,16.1c2,25.4,11.2,50.3,26.3,70.9
			c9.1,12.5,20.7,23.7,35.1,29.1c15.1,5.6,31.8,4.4,47.6,1.7c18.1-3.1,35.9-8.2,52.9-15.2c25.6-10.4,46.9-20.4,74.4-17.7
			c124,12.4,216.4,21.6,340.4,34C2910.3,2532.3,2979.7,2694.2,3003.9,2775.3"/>
		<path id="path74" class="st15" d="M2103.2,2807.5l142.8-418.2h-568l-120.5,418.2H2103.2"/>
		<path id="path76" class="st16" d="M2521.8,2389.3h-331.1v42.3h331.1V2389.3"/>
		<path id="path78" class="st17" d="M3658.7,2321.4H1210.3v67.9h2448.5V2321.4"/>
		<path id="path80" class="st7" d="M3508,893.6h-65.2v1427.8h65.2V893.6"/>
		<path id="path82" class="st7" d="M1406.4,893.6h-65.2v1427.8h65.2V893.6"/>
		<path id="path84" class="st18" d="M3715.6,4132.8c0-62.6-50.8-113.4-113.4-113.4s-113.4,50.8-113.4,113.4
			c0,62.6,50.8,113.4,113.4,113.4S3715.6,4195.4,3715.6,4132.8"/>
		<path id="path86" class="st19" d="M3582.7,4368.4h9V5000h-9V4368.4z"/>
		<path id="path88" class="st19" d="M3209.7,4104.4c0,208.5,169,377.5,377.5,377.5s377.4-169,377.4-377.5H3209.7"/>
		<path id="path90" class="st20" d="M3989.5,1570.5c-43.6,30.8-119.5,79.9-151.5,122.6c-14.1,18.8-27.2,39.4-31,62.7
			c-3.8,23.2,3.9,49.7,23.9,62.2c6.9,4.3,67.3,8.1,69.6,58.6c1.2,26.5-47.9,64.8-68.1,82.8c-15.6,13.9-30,29.2-40.2,47.5
			c-13.3,23.7-25.9,54.3-19.2,82.7c4.9,20.4,22,38.9,43,40c14,0.8,69.1-31.7,85.9-7.2c4.9,7.1,7.4,15.6,8.2,24.1
			c1.9,20.1,6.2,63.4,9,81.1c6.2,39.1,23.2,76.5,48.7,106.8c12.1,14.4,27.3,26.3,45.4,31.5c61.9,17.8,101.1-48.7,100.4-105
			c-0.7-55.4-25.3-108.7-19.7-164.6c1.2-11.8,7-23.1,16.9-29.5c24-15.6,46.3,8.5,70.9,11.8c21.8,2.9,43.2-12,53-31.6
			c9.9-19.6,9.9-42.8,6-64.4c-7.1-39.2-27.1-76-56.1-103.4c-9.5-9-20.1-17.1-26.9-28.2c-6.9-11.1-9.1-26.4-1.3-36.8
			c9.5-12.6,28.3-12.6,42-20.5c21.5-12.4,26.2-43.1,16.5-65.9s-30.1-39.1-50.5-53.2C4119.3,1643.2,4041.1,1589.4,3989.5,1570.5"/>
		<path id="path92" class="st21" d="M4023.8,2258c0,0-2.1-13.9-5.8-38.1c-2.1-12.1-3.6-26.9-5.6-43.8c-2.1-16.9-3.8-36.1-5.6-57
			c-2.1-20.9-3.4-43.6-5.1-67.6c-1.7-24-2.6-49.4-3.7-75.6c-0.7-26.3-1.8-53.4-2.1-81c-0.6-27.6-0.9-55.6-1-83.6
			c-0.1-28-0.1-56-0.1-83.6c0.1-27.6,0.2-54.7,0.3-81c0.1-26.3,0.3-51.7,0.4-75.8c-0.1-24.1-0.2-46.9-0.3-67.9
			c0.1-21-0.4-40.3-0.8-57.4c-0.4-17.1-0.6-32-1.1-44.3c-0.9-24.6-1.7-38.6-1.7-38.6c-0.1-1.9-1.7-3.3-3.6-3.2
			c-1.8,0.1-3.1,1.5-3.2,3.2c0,0-0.8,14-1.7,38.5c-0.6,12.2-1,27.1-1.5,44.2s-1.2,36.3-1.4,57.4c-0.3,21-0.6,43.8-0.9,67.9
			c0.1,24.1,0.1,49.5,0.2,75.8c0,26.3,0.4,53.5,0.9,81.1c0.7,27.6,1.4,55.7,2.1,83.7c0.8,28.1,1.8,56.1,3,83.7c1,27.6,2.7,54.8,4,81
			c1.7,26.3,3.4,51.6,4.9,75.7c1.8,24.1,3.3,46.8,5.5,67.8c1.9,21,3.8,40.2,6,57.2c2.1,17,3.6,31.9,5.5,44
			c3.5,24.3,5.5,38.2,5.5,38.2c0.3,1.9,2,3.2,3.9,2.9C4022.7,2261.6,4024,2259.9,4023.8,2258L4023.8,2258"/>
		<path id="path94" class="st21" d="M3987.8,1945.9c0,0-11,6.7-27.4,16.8c-8.3,5-17.9,10.8-28.2,17.1c-10.3,6.3-21.3,13.1-32.3,19.9
			c-10.9,7-21.7,14.1-31.4,21.3c-9.7,7.3-18.6,14.3-25.6,21c-14.4,13.1-21.8,24.1-21.8,24.1c-1.1,1.6-0.7,3.8,0.9,4.9
			c1.1,0.8,2.5,0.8,3.6,0.2c0,0,11.7-6.1,27-17.6c15.4-11.3,34.7-27.9,54.5-44.1c9.9-8.1,20-16,29.7-23c9.6-7.2,19.1-13.2,27.1-18.4
			c16.2-10.2,27.5-16.3,27.5-16.3c1.7-0.9,2.3-2.9,1.4-4.6c-0.9-1.7-2.9-2.3-4.6-1.4L3987.8,1945.9L3987.8,1945.9"/>
		<path id="path96" class="st21" d="M3986.1,1672.3c0,0-2.8,0.5-7.7,1.5c-4.8,0.9-12.2,2.5-20.5,4.9c-4.2,1.1-8.7,2.4-13.4,4.1
			c-4.8,1.5-9.6,3.6-14.8,5.4c-5,2.2-10.3,4.3-15.4,6.9c-5.2,2.4-10.4,5.2-15.6,7.9c-10.1,5.9-20,12.2-28.6,19.2
			c-8.5,6.9-16.1,13.8-21.8,20.3c-11.8,12.9-17,23.7-17,23.7c-0.9,1.8-0.1,3.9,1.6,4.8c1.1,0.5,2.4,0.4,3.4-0.2c0,0,2.6-1.5,6.6-4.5
			c4.1-3,9.6-7.4,16-12.9c12.8-11,28.6-26.6,46.4-40.1c4.5-3.3,9-6.6,13.6-9.6c4.6-3.1,9.4-5.5,14-8.1c9.3-4.8,18.5-8.3,26.6-10.8
			c4-1.3,7.8-2.1,11.1-2.9c3.2-0.9,6.2-1.4,8.7-1.7c4.9-0.7,7.8-1.2,7.8-1.2c1.9-0.3,3.1-2,2.9-3.9c-0.3-1.9-2-3.2-3.9-2.9
			L3986.1,1672.3"/>
		<path id="path98" class="st21" d="M3983.9,1827c0,0,3.5,1.9,9.6,5.1c6.1,3.2,14.6,8.2,24.7,14.3c10,6.3,21.6,13.7,33.5,22.5
			c12,8.6,24.3,18.4,36.4,28.5c24.1,20.2,47,41.5,64.9,56.8c17.7,15.4,30.9,24.5,30.9,24.5c1.6,1.1,3.7,0.7,4.8-0.9
			c0.8-1.2,0.8-2.7,0.1-3.9c0,0-2.2-3.4-6.5-9c-4.2-5.7-10.6-13.3-19-21.9c-8.3-8.7-18.8-17.9-30.3-27.4
			c-11.5-9.5-24.5-18.8-37.6-28c-26.5-17.8-53.3-34.7-73.9-46.7c-20.5-12.2-34.2-20-34.2-20c-1.6-0.9-3.7-0.4-4.6,1.3
			C3981.6,1823.9,3982.2,1826,3983.9,1827L3983.9,1827"/>
		<path id="path100" class="st21" d="M3983,1645.8c0,0,3.6,0.8,9.8,2.2c6.3,1.2,15,3.8,25.5,6.7c10.3,3.5,22.4,7.3,34.8,13
			c6.2,2.7,12.5,5.8,18.8,9.1c6.2,3.4,12.5,7,18.6,10.8c6.1,3.8,12.1,7.8,17.8,11.8c5.7,4.2,11.3,8.2,16.6,12.4
			c10.7,8.1,20.3,16.2,28.9,22.8c8.5,6.7,15.8,12.2,21.1,15.9c5.2,3.7,8.5,5.6,8.5,5.6c1.7,1,3.8,0.4,4.8-1.2
			c0.7-1.2,0.6-2.6-0.1-3.7c0,0-8.2-12.6-24.3-28c-8-7.8-18.1-16.1-29.5-24.1c-5.7-4.1-11.8-7.9-18.2-11.7
			c-6.4-3.6-12.9-7.3-19.6-10.5c-6.7-3.3-13.5-6.3-20.3-9c-6.7-2.8-13.4-5.5-20-7.8c-6.5-2.5-12.9-4.3-18.9-6.4
			c-6.1-1.8-11.8-3.6-17.1-5.1c-10.7-3-19.6-5.3-25.8-6.9c-6.2-1.6-9.7-2.5-9.7-2.5c-1.8-0.5-3.7,0.6-4.2,2.4s0.6,3.7,2.4,4.2
			L3983,1645.8"/>
		<path id="path102" class="st22" d="M4149.2,893.6h-299c-29.7,0-53.8,24.1-53.8,53.8v528.6c0,29.7,24.1,53.8,53.8,53.8h299
			c29.7,0,53.8-24.1,53.8-53.8V947.4C4203.1,917.7,4179,893.6,4149.2,893.6"/>
		<path id="path104" class="st23" d="M4230.1,1466.9h-452.4v80.5h452.4V1466.9"/>
		<path id="path106" class="st24" d="M3796.4,1439.2h406.7v27.8h-406.7V1439.2z"/>
	</g>
</g>
</svg>
