<!--?xml version="1.0" standalone="no"?-->              <svg id="sw-js-blob-svg" viewBox="0 0 100 100" xmlns="http://www.w3.org/2000/svg">                    <defs>                         <linearGradient id="sw-gradient" x1="0" x2="1" y1="1" y2="0">                            <stop id="stop1" stop-color="rgba(0, 65.326, 101.388, 1)" offset="0%"></stop>                            <stop id="stop2" stop-color="rgba(205.49, 226.857, 242.549, 1)" offset="100%"></stop>                        </linearGradient>                    </defs>                <path fill="url(#sw-gradient)" d="M13.6,-21.5C20,-20,28.9,-20.9,33.4,-17.8C37.8,-14.6,37.8,-7.3,37.2,-0.3C36.6,6.6,35.5,13.2,32.7,19.4C30,25.5,25.7,31.2,19.9,32.9C14.2,34.6,7.1,32.2,1.5,29.6C-4.1,27,-8.2,24.1,-13.7,22.4C-19.3,20.6,-26.3,19.9,-27.9,16.4C-29.4,12.8,-25.5,6.4,-23.9,0.9C-22.4,-4.6,-23.1,-9.2,-22.2,-13.8C-21.2,-18.4,-18.5,-22.9,-14.6,-25.8C-10.6,-28.7,-5.3,-29.9,-0.8,-28.5C3.7,-27.1,7.3,-23.1,13.6,-21.5Z" width="100%" height="100%" transform="translate(50 40)" stroke-width="0" style="transition: 0.3s;filter: drop-shadow(-2px 5px 7px rgba(0,0,0,0.3));" stroke="url(#sw-gradient)"></path>              </svg>