<!--?xml version="1.0" standalone="no"?-->              <svg id="sw-js-blob-svg" viewBox="0 0 100 100" xmlns="http://www.w3.org/2000/svg">                    <defs>                         <linearGradient id="sw-gradient" x1="0" x2="1" y1="1" y2="0">                            <stop id="stop1" stop-color="rgba(0, 65.326, 101.388, 1)" offset="0%"></stop>                            <stop id="stop2" stop-color="rgba(205.49, 226.857, 242.549, 1)" offset="100%"></stop>                        </linearGradient>                    </defs>                <path fill="url(#sw-gradient)" d="M10.7,-18.6C14.4,-16.3,18.5,-14.7,19.9,-11.7C21.3,-8.7,20,-4.3,21.2,0.7C22.4,5.7,26,11.4,25.5,16C25.1,20.7,20.6,24.2,15.6,28.2C10.7,32.2,5.3,36.6,0.6,35.6C-4.2,34.5,-8.3,28.1,-11.5,23C-14.6,18,-16.7,14.4,-18.9,10.8C-21.1,7.2,-23.3,3.6,-22.9,0.2C-22.5,-3.2,-19.5,-6.3,-19.4,-13.5C-19.3,-20.7,-22.1,-31.9,-19.4,-34.8C-16.6,-37.7,-8.3,-32.2,-2.4,-28C3.5,-23.8,6.9,-20.9,10.7,-18.6Z" width="100%" height="100%" transform="translate(84 50)" stroke-width="0" style="transition: 0.3s;filter: drop-shadow(-3px 2px 7px rgba(0,0,0,0.3));" stroke="url(#sw-gradient)"></path>              </svg>