<!--?xml version="1.0" standalone="no"?-->              <svg id="sw-js-blob-svg" viewBox="0 0 100 100" xmlns="http://www.w3.org/2000/svg">                    <defs>                         <linearGradient id="sw-gradient" x1="0" x2="1" y1="1" y2="0">                            <stop id="stop1" stop-color="rgba(23.299, 73.363, 128.71, 1)" offset="0%"></stop>                            <stop id="stop2" stop-color="rgba(155.611, 189.984, 215.227, 1)" offset="100%"></stop>                        </linearGradient>                    </defs>                <path fill="url(#sw-gradient)" d="M13.7,-23.1C18.7,-20.8,24.3,-19.1,26.7,-15.3C29.1,-11.6,28.1,-5.8,25.2,-1.7C22.3,2.4,17.5,4.9,14.8,8.1C12.1,11.3,11.7,15.4,9.6,17.5C7.5,19.5,3.7,19.7,-1,21.5C-5.8,23.2,-11.6,26.6,-13,24.2C-14.4,21.7,-11.5,13.3,-10.1,8.3C-8.7,3.3,-8.8,1.7,-10.3,-0.9C-11.8,-3.4,-14.8,-6.8,-16.6,-12.5C-18.4,-18.2,-19.1,-26.2,-16.1,-29.6C-13.1,-33.1,-6.6,-32.2,-1.1,-30.3C4.3,-28.3,8.7,-25.4,13.7,-23.1Z" width="100%" height="100%" transform="translate(50 50)" stroke-width="0" style="transition: 0.3s;filter: drop-shadow(-3px 2px 7px rgba(0,0,0,0.3));"></path>              </svg>